<?xml version="1.0" encoding="UTF-8" standalone="no"?>
<!DOCTYPE svg PUBLIC "-//W3C//DTD SVG 1.1//EN"
 "http://www.w3.org/Graphics/SVG/1.1/DTD/svg11.dtd">
<!-- Generated by graphviz version 2.40.1 (20161225.0304)
 -->
<!-- Title: /travis/pairinteraction/HamiltonianOne.cpp Pages: 1 -->
<svg width="2829pt" height="464pt"
 viewBox="0.00 0.00 2828.50 464.00" xmlns="http://www.w3.org/2000/svg" xmlns:xlink="http://www.w3.org/1999/xlink">
<g id="graph0" class="graph" transform="scale(1 1) rotate(0) translate(4 460)">
<title>/travis/pairinteraction/HamiltonianOne.cpp</title>
<!-- Node0 -->
<g id="node1" class="node">
<title>Node0</title>
<polygon fill="#bfbfbf" stroke="#000000" points="2243,-425.5 2243,-455.5 2365,-455.5 2365,-425.5 2243,-425.5"/>
<text text-anchor="start" x="2251" y="-443.5" font-family="Helvetica,sans-Serif" font-size="10.00" fill="#000000">/travis/pairinteraction</text>
<text text-anchor="middle" x="2304" y="-432.5" font-family="Helvetica,sans-Serif" font-size="10.00" fill="#000000">/HamiltonianOne.cpp</text>
</g>
<!-- Node1 -->
<g id="node2" class="node">
<title>Node1</title>
<g id="a_node2"><a xlink:href="HamiltonianOne_8h.html" target="_top" xlink:title="HamiltonianOne.h">
<polygon fill="none" stroke="#000000" points="1717.5,-369.5 1717.5,-388.5 1822.5,-388.5 1822.5,-369.5 1717.5,-369.5"/>
<text text-anchor="middle" x="1770" y="-376.5" font-family="Helvetica,sans-Serif" font-size="10.00" fill="#000000">HamiltonianOne.h</text>
</a>
</g>
</g>
<!-- Node0&#45;&gt;Node1 -->
<g id="edge1" class="edge">
<title>Node0&#45;&gt;Node1</title>
<path fill="none" stroke="#191970" d="M2242.7434,-433.4452C2140.4049,-421.659 1935.7447,-398.0886 1832.5508,-386.2039"/>
<polygon fill="#191970" stroke="#191970" points="1832.9217,-382.7235 1822.5869,-385.0564 1832.1207,-389.6776 1832.9217,-382.7235"/>
</g>
<!-- Node14 -->
<g id="node15" class="node">
<title>Node14</title>
<polygon fill="none" stroke="#bfbfbf" points="2553.5,-6 2553.5,-25 2600.5,-25 2600.5,-6 2553.5,-6"/>
<text text-anchor="middle" x="2577" y="-13" font-family="Helvetica,sans-Serif" font-size="10.00" fill="#000000">cmath</text>
</g>
<!-- Node0&#45;&gt;Node14 -->
<g id="edge108" class="edge">
<title>Node0&#45;&gt;Node14</title>
<path fill="none" stroke="#191970" d="M2365.1905,-432.6958C2465.2822,-418.201 2653,-383.0163 2653,-323 2653,-323 2653,-323 2653,-144 2653,-98.7888 2617.7147,-55.5297 2595.2296,-32.5531"/>
<polygon fill="#191970" stroke="#191970" points="2597.4629,-29.8396 2587.8889,-25.3019 2592.5436,-34.8196 2597.4629,-29.8396"/>
</g>
<!-- Node16 -->
<g id="node17" class="node">
<title>Node16</title>
<polygon fill="none" stroke="#bfbfbf" points="1215.5,-6 1215.5,-25 1262.5,-25 1262.5,-6 1215.5,-6"/>
<text text-anchor="middle" x="1239" y="-13" font-family="Helvetica,sans-Serif" font-size="10.00" fill="#000000">vector</text>
</g>
<!-- Node0&#45;&gt;Node16 -->
<g id="edge111" class="edge">
<title>Node0&#45;&gt;Node16</title>
<path fill="none" stroke="#191970" d="M2242.6448,-439.2473C1958.2491,-432.8041 777.6921,-398.8239 674,-277 660.3581,-260.9726 700.4498,-108.0288 758,-67 794.3261,-41.1023 1101.7131,-22.7164 1205.1738,-17.2136"/>
<polygon fill="#191970" stroke="#191970" points="1205.5681,-20.6979 1215.3707,-16.6781 1205.2009,-13.7075 1205.5681,-20.6979"/>
</g>
<!-- Node18 -->
<g id="node19" class="node">
<title>Node18</title>
<polygon fill="none" stroke="#bfbfbf" points="1267,-73 1267,-92 1327,-92 1327,-73 1267,-73"/>
<text text-anchor="middle" x="1297" y="-80" font-family="Helvetica,sans-Serif" font-size="10.00" fill="#000000">iostream</text>
</g>
<!-- Node0&#45;&gt;Node18 -->
<g id="edge112" class="edge">
<title>Node0&#45;&gt;Node18</title>
<path fill="none" stroke="#191970" d="M2242.7858,-438.204C2044.0782,-430.116 1426.6083,-399.7588 1370,-333 1307.2214,-258.9644 1518.2896,-211.6192 1460,-134 1425.5395,-88.112 1390.2824,-116.6188 1336,-98 1333.8721,-97.2701 1331.6903,-96.4909 1329.4984,-95.6847"/>
<polygon fill="#191970" stroke="#191970" points="1330.5514,-92.3405 1319.9606,-92.0483 1328.0576,-98.8813 1330.5514,-92.3405"/>
</g>
<!-- Node34 -->
<g id="node35" class="node">
<title>Node34</title>
<polygon fill="none" stroke="#bfbfbf" points="2639,-6 2639,-25 2703,-25 2703,-6 2639,-6"/>
<text text-anchor="middle" x="2671" y="-13" font-family="Helvetica,sans-Serif" font-size="10.00" fill="#000000">algorithm</text>
</g>
<!-- Node0&#45;&gt;Node34 -->
<g id="edge110" class="edge">
<title>Node0&#45;&gt;Node34</title>
<path fill="none" stroke="#191970" d="M2365.3213,-434.6855C2474.4448,-422.6285 2691,-390.2319 2691,-323 2691,-323 2691,-323 2691,-144 2691,-105.0377 2681.9117,-60.2123 2675.988,-35.1335"/>
<polygon fill="#191970" stroke="#191970" points="2679.3079,-33.975 2673.533,-25.0924 2672.5082,-35.6375 2679.3079,-33.975"/>
</g>
<!-- Node43 -->
<g id="node44" class="node">
<title>Node43</title>
<polygon fill="none" stroke="#bfbfbf" points="2172.5,-190.5 2172.5,-209.5 2237.5,-209.5 2237.5,-190.5 2172.5,-190.5"/>
<text text-anchor="middle" x="2205" y="-197.5" font-family="Helvetica,sans-Serif" font-size="10.00" fill="#000000">stdexcept</text>
</g>
<!-- Node0&#45;&gt;Node43 -->
<g id="edge113" class="edge">
<title>Node0&#45;&gt;Node43</title>
<path fill="none" stroke="#191970" d="M2297.8071,-425.4556C2280.5667,-383.5736 2232.0301,-265.6641 2212.896,-219.1818"/>
<polygon fill="#191970" stroke="#191970" points="2216.0317,-217.6043 2208.9886,-209.6895 2209.5587,-220.269 2216.0317,-217.6043"/>
</g>
<!-- Node54 -->
<g id="node55" class="node">
<title>Node54</title>
<polygon fill="none" stroke="#bfbfbf" points="2345.5,-73 2345.5,-92 2390.5,-92 2390.5,-73 2345.5,-73"/>
<text text-anchor="middle" x="2368" y="-80" font-family="Helvetica,sans-Serif" font-size="10.00" fill="#000000">utility</text>
</g>
<!-- Node0&#45;&gt;Node54 -->
<g id="edge114" class="edge">
<title>Node0&#45;&gt;Node54</title>
<path fill="none" stroke="#191970" d="M2365.2665,-427.0487C2445.756,-407.5727 2577,-368.7945 2577,-323 2577,-323 2577,-323 2577,-200 2577,-189.7445 2453.112,-125.6307 2396.1019,-96.6701"/>
<polygon fill="#191970" stroke="#191970" points="2397.418,-93.4133 2386.916,-92.0141 2394.2532,-99.6571 2397.418,-93.4133"/>
</g>
<!-- Node56 -->
<g id="node57" class="node">
<title>Node56</title>
<polygon fill="none" stroke="#bfbfbf" points="352,-190.5 352,-209.5 396,-209.5 396,-190.5 352,-190.5"/>
<text text-anchor="middle" x="374" y="-197.5" font-family="Helvetica,sans-Serif" font-size="10.00" fill="#000000">limits</text>
</g>
<!-- Node0&#45;&gt;Node56 -->
<g id="edge109" class="edge">
<title>Node0&#45;&gt;Node56</title>
<path fill="none" stroke="#191970" d="M2242.932,-440.1717C1900.4808,-438.189 232.7038,-426.6114 196,-389 151.6116,-343.5139 157.0857,-296.2492 196,-246 213.6775,-223.1735 295.2613,-209.6369 341.6019,-203.6597"/>
<polygon fill="#191970" stroke="#191970" points="342.2505,-207.1061 351.7426,-202.3997 341.3873,-200.1595 342.2505,-207.1061"/>
</g>
<!-- Node62 -->
<g id="node63" class="node">
<title>Node62</title>
<polygon fill="none" stroke="#bfbfbf" points="2719.5,-369.5 2719.5,-388.5 2820.5,-388.5 2820.5,-369.5 2719.5,-369.5"/>
<text text-anchor="middle" x="2770" y="-376.5" font-family="Helvetica,sans-Serif" font-size="10.00" fill="#000000">boost/format.hpp</text>
</g>
<!-- Node0&#45;&gt;Node62 -->
<g id="edge115" class="edge">
<title>Node0&#45;&gt;Node62</title>
<path fill="none" stroke="#191970" d="M2365.2064,-433.1204C2443.9049,-423.5213 2584.7628,-405.9673 2705,-389 2706.3037,-388.816 2707.6218,-388.6284 2708.9504,-388.4377"/>
<polygon fill="#191970" stroke="#191970" points="2709.8872,-391.838 2719.276,-386.9286 2708.8749,-384.9116 2709.8872,-391.838"/>
</g>
<!-- Node2 -->
<g id="node3" class="node">
<title>Node2</title>
<g id="a_node3"><a xlink:href="Basisnames_8h.html" target="_top" xlink:title="Basisnames.h">
<polygon fill="none" stroke="#000000" points="1226.5,-190.5 1226.5,-209.5 1311.5,-209.5 1311.5,-190.5 1226.5,-190.5"/>
<text text-anchor="middle" x="1269" y="-197.5" font-family="Helvetica,sans-Serif" font-size="10.00" fill="#000000">Basisnames.h</text>
</a>
</g>
</g>
<!-- Node1&#45;&gt;Node2 -->
<g id="edge2" class="edge">
<title>Node1&#45;&gt;Node2</title>
<path fill="none" stroke="#191970" d="M1727.0084,-369.4321C1692.4732,-361.2394 1642.9809,-348.3505 1601,-333 1581.2047,-325.7618 1577.38,-321.2862 1558,-313 1467.7663,-274.4194 1359.6177,-233.5288 1304.738,-213.1503"/>
<polygon fill="#191970" stroke="#191970" points="1305.72,-209.7817 1295.1269,-209.5891 1303.2878,-216.3456 1305.72,-209.7817"/>
</g>
<!-- Node3 -->
<g id="node4" class="node">
<title>Node3</title>
<g id="a_node4"><a xlink:href="ConfParser_8h.html" target="_top" xlink:title="ConfParser.h">
<polygon fill="none" stroke="#000000" points="1545.5,-134.5 1545.5,-153.5 1622.5,-153.5 1622.5,-134.5 1545.5,-134.5"/>
<text text-anchor="middle" x="1584" y="-141.5" font-family="Helvetica,sans-Serif" font-size="10.00" fill="#000000">ConfParser.h</text>
</a>
</g>
</g>
<!-- Node1&#45;&gt;Node3 -->
<g id="edge32" class="edge">
<title>Node1&#45;&gt;Node3</title>
<path fill="none" stroke="#191970" d="M1741.8502,-369.4298C1723.0539,-361.9006 1698.7942,-349.8499 1682,-333 1655.8464,-306.7596 1610.5576,-205.7163 1592.1409,-163.116"/>
<polygon fill="#191970" stroke="#191970" points="1595.3215,-161.6524 1588.1592,-153.8451 1588.8896,-164.4148 1595.3215,-161.6524"/>
</g>
<!-- Node10 -->
<g id="node11" class="node">
<title>Node10</title>
<g id="a_node11"><a xlink:href="dtypes_8h.html" target="_top" xlink:title="dtypes.h">
<polygon fill="none" stroke="#000000" points="140.5,-73 140.5,-92 199.5,-92 199.5,-73 140.5,-73"/>
<text text-anchor="middle" x="170" y="-80" font-family="Helvetica,sans-Serif" font-size="10.00" fill="#000000">dtypes.h</text>
</a>
</g>
</g>
<!-- Node1&#45;&gt;Node10 -->
<g id="edge100" class="edge">
<title>Node1&#45;&gt;Node10</title>
<path fill="none" stroke="#191970" d="M1717.3146,-377.1662C1476.3439,-368.5139 485.4504,-329.9697 358,-277 280.2763,-244.6972 268.586,-218.0688 214,-154 200.0428,-137.6181 187.5483,-116.3473 179.4724,-101.2772"/>
<polygon fill="#191970" stroke="#191970" points="182.561,-99.6303 174.8326,-92.3831 176.3547,-102.868 182.561,-99.6303"/>
</g>
<!-- Node1&#45;&gt;Node14 -->
<g id="edge105" class="edge">
<title>Node1&#45;&gt;Node14</title>
<path fill="none" stroke="#191970" d="M1822.7581,-377.7585C1933.7632,-374.5598 2187.8225,-363.9899 2268,-333 2429.9258,-270.4131 2502.5226,-253.3523 2580,-98 2589.8121,-78.3254 2586.788,-52.6072 2582.7878,-35.1525"/>
<polygon fill="#191970" stroke="#191970" points="2586.0557,-33.8138 2580.1432,-25.0222 2579.2827,-35.582 2586.0557,-33.8138"/>
</g>
<!-- Node1&#45;&gt;Node18 -->
<g id="edge106" class="edge">
<title>Node1&#45;&gt;Node18</title>
<path fill="none" stroke="#191970" d="M1738.3568,-369.4892C1716.1898,-361.8588 1686.6076,-349.6637 1664,-333 1570.1315,-263.811 1592.829,-194.271 1493,-134 1431.7146,-96.9994 1404.3521,-119.2823 1336,-98 1333.7109,-97.2872 1331.3658,-96.5016 1329.0171,-95.6737"/>
<polygon fill="#191970" stroke="#191970" points="1330.0673,-92.3298 1319.4747,-92.1096 1327.618,-98.8873 1330.0673,-92.3298"/>
</g>
<!-- Node23 -->
<g id="node24" class="node">
<title>Node23</title>
<polygon fill="none" stroke="#bfbfbf" points="2017,-73 2017,-92 2075,-92 2075,-73 2017,-73"/>
<text text-anchor="middle" x="2046" y="-80" font-family="Helvetica,sans-Serif" font-size="10.00" fill="#000000">memory</text>
</g>
<!-- Node1&#45;&gt;Node23 -->
<g id="edge107" class="edge">
<title>Node1&#45;&gt;Node23</title>
<path fill="none" stroke="#191970" d="M1822.6992,-377.828C1940.8664,-374.6555 2218.8931,-363.9479 2247,-333 2289.7292,-285.9519 2288.3199,-238.2905 2247,-190 2179.7322,-111.3843 2084.2678,-232.6157 2017,-154 2003.6265,-138.3704 2016.7322,-115.7643 2029.3619,-100.1754"/>
<polygon fill="#191970" stroke="#191970" points="2032.2587,-102.1768 2036.1583,-92.3257 2026.9666,-97.5948 2032.2587,-102.1768"/>
</g>
<!-- Node26 -->
<g id="node27" class="node">
<title>Node26</title>
<g id="a_node27"><a xlink:href="Hamiltonian_8h.html" target="_top" xlink:title="Hamiltonian.h">
<polygon fill="none" stroke="#000000" points="1691,-313.5 1691,-332.5 1777,-332.5 1777,-313.5 1691,-313.5"/>
<text text-anchor="middle" x="1734" y="-320.5" font-family="Helvetica,sans-Serif" font-size="10.00" fill="#000000">Hamiltonian.h</text>
</a>
</g>
</g>
<!-- Node1&#45;&gt;Node26 -->
<g id="edge33" class="edge">
<title>Node1&#45;&gt;Node26</title>
<path fill="none" stroke="#191970" d="M1763.7293,-369.2455C1758.7736,-361.5367 1751.717,-350.5598 1745.7224,-341.2348"/>
<polygon fill="#191970" stroke="#191970" points="1748.5506,-339.1618 1740.1989,-332.6427 1742.6624,-342.9471 1748.5506,-339.1618"/>
</g>
<!-- Node44 -->
<g id="node45" class="node">
<title>Node44</title>
<g id="a_node45"><a xlink:href="MatrixElements_8h.html" target="_top" xlink:title="MatrixElements.h">
<polygon fill="none" stroke="#000000" points="1029,-313.5 1029,-332.5 1131,-332.5 1131,-313.5 1029,-313.5"/>
<text text-anchor="middle" x="1080" y="-320.5" font-family="Helvetica,sans-Serif" font-size="10.00" fill="#000000">MatrixElements.h</text>
</a>
</g>
</g>
<!-- Node1&#45;&gt;Node44 -->
<g id="edge61" class="edge">
<title>Node1&#45;&gt;Node44</title>
<path fill="none" stroke="#191970" d="M1717.2874,-374.7219C1591.71,-364.5301 1275.3872,-338.8575 1141.4434,-327.9867"/>
<polygon fill="#191970" stroke="#191970" points="1141.6032,-324.4883 1131.3528,-327.1678 1141.0369,-331.4653 1141.6032,-324.4883"/>
</g>
<!-- Node50 -->
<g id="node51" class="node">
<title>Node50</title>
<g id="a_node51"><a xlink:href="SQLite_8h.html" target="_top" xlink:title="SQLite.h">
<polygon fill="none" stroke="#000000" points="1755.5,-134.5 1755.5,-153.5 1812.5,-153.5 1812.5,-134.5 1755.5,-134.5"/>
<text text-anchor="middle" x="1784" y="-141.5" font-family="Helvetica,sans-Serif" font-size="10.00" fill="#000000">SQLite.h</text>
</a>
</g>
</g>
<!-- Node1&#45;&gt;Node50 -->
<g id="edge99" class="edge">
<title>Node1&#45;&gt;Node50</title>
<path fill="none" stroke="#191970" d="M1777.2469,-369.4078C1795.4284,-344.6649 1842.6855,-275.9916 1859,-210 1861.1333,-201.3709 1863.3418,-197.7564 1859,-190 1850.9211,-175.5676 1836.2585,-165.1145 1822.0271,-157.8565"/>
<polygon fill="#191970" stroke="#191970" points="1823.3511,-154.6118 1812.8108,-153.5387 1820.3814,-160.9506 1823.3511,-154.6118"/>
</g>
<!-- Node58 -->
<g id="node59" class="node">
<title>Node58</title>
<polygon fill="none" stroke="#bfbfbf" points="1833,-313.5 1833,-332.5 1969,-332.5 1969,-313.5 1833,-313.5"/>
<text text-anchor="middle" x="1901" y="-320.5" font-family="Helvetica,sans-Serif" font-size="10.00" fill="#000000">boost/algorithm/hex.hpp</text>
</g>
<!-- Node1&#45;&gt;Node58 -->
<g id="edge101" class="edge">
<title>Node1&#45;&gt;Node58</title>
<path fill="none" stroke="#191970" d="M1792.5197,-369.3733C1813.7372,-360.3032 1845.7276,-346.6279 1869.4769,-336.4755"/>
<polygon fill="#191970" stroke="#191970" points="1870.9548,-339.6502 1878.7742,-332.5011 1868.2033,-333.2136 1870.9548,-339.6502"/>
</g>
<!-- Node59 -->
<g id="node60" class="node">
<title>Node59</title>
<polygon fill="none" stroke="#bfbfbf" points="1987.5,-313.5 1987.5,-332.5 2106.5,-332.5 2106.5,-313.5 1987.5,-313.5"/>
<text text-anchor="middle" x="2047" y="-320.5" font-family="Helvetica,sans-Serif" font-size="10.00" fill="#000000">boost/filesystem.hpp</text>
</g>
<!-- Node1&#45;&gt;Node59 -->
<g id="edge102" class="edge">
<title>Node1&#45;&gt;Node59</title>
<path fill="none" stroke="#191970" d="M1817.3033,-369.4369C1865.108,-359.7724 1939.0068,-344.8326 1990.0108,-334.5213"/>
<polygon fill="#191970" stroke="#191970" points="1990.7837,-337.9359 1999.8918,-332.5237 1989.3966,-331.0747 1990.7837,-337.9359"/>
</g>
<!-- Node60 -->
<g id="node61" class="node">
<title>Node60</title>
<polygon fill="none" stroke="#bfbfbf" points="2124.5,-313.5 2124.5,-332.5 2237.5,-332.5 2237.5,-313.5 2124.5,-313.5"/>
<text text-anchor="middle" x="2181" y="-320.5" font-family="Helvetica,sans-Serif" font-size="10.00" fill="#000000">boost/uuid/uuid.hpp</text>
</g>
<!-- Node1&#45;&gt;Node60 -->
<g id="edge103" class="edge">
<title>Node1&#45;&gt;Node60</title>
<path fill="none" stroke="#191970" d="M1822.5089,-372.3589C1888.2932,-363.9632 2004.7558,-348.8508 2114.0743,-333.2563"/>
<polygon fill="#191970" stroke="#191970" points="2114.8865,-336.6758 2124.2899,-331.7946 2113.8949,-329.7464 2114.8865,-336.6758"/>
</g>
<!-- Node61 -->
<g id="node62" class="node">
<title>Node61</title>
<polygon fill="none" stroke="#bfbfbf" points="1379,-313.5 1379,-332.5 1549,-332.5 1549,-313.5 1379,-313.5"/>
<text text-anchor="middle" x="1464" y="-320.5" font-family="Helvetica,sans-Serif" font-size="10.00" fill="#000000">boost/uuid/uuid_generators.hpp</text>
</g>
<!-- Node1&#45;&gt;Node61 -->
<g id="edge104" class="edge">
<title>Node1&#45;&gt;Node61</title>
<path fill="none" stroke="#191970" d="M1717.7444,-369.4369C1664.6047,-359.712 1582.2778,-344.6456 1525.9021,-334.3285"/>
<polygon fill="#191970" stroke="#191970" points="1526.5068,-330.8811 1516.0401,-332.5237 1525.2466,-337.7667 1526.5068,-330.8811"/>
</g>
<!-- Node2&#45;&gt;Node3 -->
<g id="edge3" class="edge">
<title>Node2&#45;&gt;Node3</title>
<path fill="none" stroke="#191970" d="M1311.8101,-192.3893C1370.0104,-182.0426 1473.8454,-163.583 1535.0633,-152.6999"/>
<polygon fill="#191970" stroke="#191970" points="1536.0099,-156.0865 1545.2429,-150.8902 1534.7846,-149.1946 1536.0099,-156.0865"/>
</g>
<!-- Node6 -->
<g id="node7" class="node">
<title>Node6</title>
<polygon fill="none" stroke="#bfbfbf" points="1167,-73 1167,-92 1211,-92 1211,-73 1167,-73"/>
<text text-anchor="middle" x="1189" y="-80" font-family="Helvetica,sans-Serif" font-size="10.00" fill="#000000">string</text>
</g>
<!-- Node2&#45;&gt;Node6 -->
<g id="edge29" class="edge">
<title>Node2&#45;&gt;Node6</title>
<path fill="none" stroke="#191970" d="M1226.5849,-190.4524C1193.0824,-181.9508 1150.3104,-168.6229 1140,-154 1126.5393,-134.9092 1147.4181,-112.6819 1165.9416,-98.1408"/>
<polygon fill="#191970" stroke="#191970" points="1168.2146,-100.8124 1174.1549,-92.0395 1164.0403,-95.1932 1168.2146,-100.8124"/>
</g>
<!-- Node8 -->
<g id="node9" class="node">
<title>Node8</title>
<g id="a_node9"><a xlink:href="Iter_8h.html" target="_top" xlink:title="Iter.h">
<polygon fill="none" stroke="#000000" points="1182.5,-134.5 1182.5,-153.5 1223.5,-153.5 1223.5,-134.5 1182.5,-134.5"/>
<text text-anchor="middle" x="1203" y="-141.5" font-family="Helvetica,sans-Serif" font-size="10.00" fill="#000000">Iter.h</text>
</a>
</g>
</g>
<!-- Node2&#45;&gt;Node8 -->
<g id="edge8" class="edge">
<title>Node2&#45;&gt;Node8</title>
<path fill="none" stroke="#191970" d="M1257.5037,-190.2455C1247.7558,-181.9746 1233.5741,-169.9416 1222.1202,-160.2232"/>
<polygon fill="#191970" stroke="#191970" points="1224.2541,-157.4437 1214.3646,-153.6427 1219.7253,-162.7813 1224.2541,-157.4437"/>
</g>
<!-- Node9 -->
<g id="node10" class="node">
<title>Node9</title>
<g id="a_node10"><a xlink:href="StateOld_8h.html" target="_top" xlink:title="StateOld.h">
<polygon fill="none" stroke="#000000" points="851,-134.5 851,-153.5 919,-153.5 919,-134.5 851,-134.5"/>
<text text-anchor="middle" x="885" y="-141.5" font-family="Helvetica,sans-Serif" font-size="10.00" fill="#000000">StateOld.h</text>
</a>
</g>
</g>
<!-- Node2&#45;&gt;Node9 -->
<g id="edge9" class="edge">
<title>Node2&#45;&gt;Node9</title>
<path fill="none" stroke="#191970" d="M1226.323,-193.2574C1219.2047,-192.1541 1211.8953,-191.0343 1205,-190 1106.6183,-175.2433 991.0699,-158.8696 929.2876,-150.1919"/>
<polygon fill="#191970" stroke="#191970" points="929.508,-146.6886 919.1186,-148.765 928.5352,-153.6207 929.508,-146.6886"/>
</g>
<!-- Node2&#45;&gt;Node10 -->
<g id="edge25" class="edge">
<title>Node2&#45;&gt;Node10</title>
<path fill="none" stroke="#191970" d="M1226.3891,-198.8011C1077.6523,-194.4407 582.0609,-178.3903 425,-154 412.7501,-152.0977 220.783,-101.8523 209,-98 206.8618,-97.3009 204.6721,-96.5451 202.4744,-95.7562"/>
<polygon fill="#191970" stroke="#191970" points="203.5149,-92.4082 192.923,-92.1607 201.0488,-98.9594 203.5149,-92.4082"/>
</g>
<!-- Node2&#45;&gt;Node16 -->
<g id="edge31" class="edge">
<title>Node2&#45;&gt;Node16</title>
<path fill="none" stroke="#191970" d="M1226.0145,-190.5677C1206.2867,-183.8585 1184.719,-172.6103 1173,-154 1155.6857,-126.5042 1202.4176,-125.3251 1220,-98 1232.2581,-78.9494 1236.643,-52.9334 1238.1918,-35.2447"/>
<polygon fill="#191970" stroke="#191970" points="1241.6878,-35.4181 1238.8445,-25.212 1234.7026,-34.9636 1241.6878,-35.4181"/>
</g>
<!-- Node22 -->
<g id="node23" class="node">
<title>Node22</title>
<polygon fill="none" stroke="#bfbfbf" points="1241.5,-134.5 1241.5,-153.5 1296.5,-153.5 1296.5,-134.5 1241.5,-134.5"/>
<text text-anchor="middle" x="1269" y="-141.5" font-family="Helvetica,sans-Serif" font-size="10.00" fill="#000000">fstream</text>
</g>
<!-- Node2&#45;&gt;Node22 -->
<g id="edge26" class="edge">
<title>Node2&#45;&gt;Node22</title>
<path fill="none" stroke="#191970" d="M1269,-190.2455C1269,-182.9382 1269,-172.6944 1269,-163.7046"/>
<polygon fill="#191970" stroke="#191970" points="1272.5001,-163.6426 1269,-153.6427 1265.5001,-163.6427 1272.5001,-163.6426"/>
</g>
<!-- Node2&#45;&gt;Node23 -->
<g id="edge27" class="edge">
<title>Node2&#45;&gt;Node23</title>
<path fill="none" stroke="#191970" d="M1311.7483,-198.3306C1423.9463,-193.6474 1724.8006,-179.0649 1821,-154 1841.787,-148.5839 1844.8095,-141.3333 1865,-134 1921.3505,-113.5332 1937.4259,-114.718 1995,-98 1998.9991,-96.8388 2003.1682,-95.6068 2007.3238,-94.3649"/>
<polygon fill="#191970" stroke="#191970" points="2008.3441,-97.713 2016.9098,-91.4777 2006.3253,-91.0105 2008.3441,-97.713"/>
</g>
<!-- Node24 -->
<g id="node25" class="node">
<title>Node24</title>
<polygon fill="none" stroke="#bfbfbf" points="1315,-134.5 1315,-153.5 1347,-153.5 1347,-134.5 1315,-134.5"/>
<text text-anchor="middle" x="1331" y="-141.5" font-family="Helvetica,sans-Serif" font-size="10.00" fill="#000000">set</text>
</g>
<!-- Node2&#45;&gt;Node24 -->
<g id="edge28" class="edge">
<title>Node2&#45;&gt;Node24</title>
<path fill="none" stroke="#191970" d="M1279.7996,-190.2455C1288.8678,-182.0549 1302.0206,-170.1749 1312.7245,-160.5069"/>
<polygon fill="#191970" stroke="#191970" points="1315.2491,-162.9429 1320.3242,-153.6427 1310.5571,-157.7482 1315.2491,-162.9429"/>
</g>
<!-- Node25 -->
<g id="node26" class="node">
<title>Node25</title>
<polygon fill="none" stroke="#bfbfbf" points="1365,-134.5 1365,-153.5 1451,-153.5 1451,-134.5 1365,-134.5"/>
<text text-anchor="middle" x="1408" y="-141.5" font-family="Helvetica,sans-Serif" font-size="10.00" fill="#000000">unordered_set</text>
</g>
<!-- Node2&#45;&gt;Node25 -->
<g id="edge30" class="edge">
<title>Node2&#45;&gt;Node25</title>
<path fill="none" stroke="#191970" d="M1292.895,-190.3733C1315.5082,-181.2629 1349.6542,-167.5062 1374.8873,-157.3404"/>
<polygon fill="#191970" stroke="#191970" points="1376.4493,-160.4845 1384.4169,-153.5011 1373.8334,-153.9917 1376.4493,-160.4845"/>
</g>
<!-- Node4 -->
<g id="node5" class="node">
<title>Node4</title>
<polygon fill="none" stroke="#bfbfbf" points="1489,-73 1489,-92 1527,-92 1527,-73 1489,-73"/>
<text text-anchor="middle" x="1508" y="-80" font-family="Helvetica,sans-Serif" font-size="10.00" fill="#000000">map</text>
</g>
<!-- Node3&#45;&gt;Node4 -->
<g id="edge4" class="edge">
<title>Node3&#45;&gt;Node4</title>
<path fill="none" stroke="#191970" d="M1572.125,-134.3906C1560.3703,-124.8786 1542.1514,-110.1357 1528.1328,-98.7917"/>
<polygon fill="#191970" stroke="#191970" points="1530.0178,-95.8146 1520.0424,-92.2449 1525.6144,-101.2562 1530.0178,-95.8146"/>
</g>
<!-- Node5 -->
<g id="node6" class="node">
<title>Node5</title>
<polygon fill="none" stroke="#bfbfbf" points="1545,-73 1545,-92 1601,-92 1601,-73 1545,-73"/>
<text text-anchor="middle" x="1573" y="-80" font-family="Helvetica,sans-Serif" font-size="10.00" fill="#000000">sstream</text>
</g>
<!-- Node3&#45;&gt;Node5 -->
<g id="edge5" class="edge">
<title>Node3&#45;&gt;Node5</title>
<path fill="none" stroke="#191970" d="M1582.2813,-134.3906C1580.7565,-125.8657 1578.4802,-113.1392 1576.5636,-102.4235"/>
<polygon fill="#191970" stroke="#191970" points="1579.9491,-101.4724 1574.743,-92.2449 1573.0584,-102.7049 1579.9491,-101.4724"/>
</g>
<!-- Node3&#45;&gt;Node6 -->
<g id="edge6" class="edge">
<title>Node3&#45;&gt;Node6</title>
<path fill="none" stroke="#191970" d="M1545.4462,-139.5835C1484.274,-132.3461 1361.3199,-116.8624 1258,-98 1245.9785,-95.8053 1232.8747,-92.9742 1221.3474,-90.3333"/>
<polygon fill="#191970" stroke="#191970" points="1221.8141,-86.8483 1211.2805,-87.9852 1220.224,-93.6653 1221.8141,-86.8483"/>
</g>
<!-- Node7 -->
<g id="node8" class="node">
<title>Node7</title>
<polygon fill="none" stroke="#bfbfbf" points="1345.5,-73 1345.5,-92 1470.5,-92 1470.5,-73 1345.5,-73"/>
<text text-anchor="middle" x="1408" y="-80" font-family="Helvetica,sans-Serif" font-size="10.00" fill="#000000">boost/lexical_cast.hpp</text>
</g>
<!-- Node3&#45;&gt;Node7 -->
<g id="edge7" class="edge">
<title>Node3&#45;&gt;Node7</title>
<path fill="none" stroke="#191970" d="M1556.5,-134.3906C1526.5353,-123.92 1478.4317,-107.1111 1445.1302,-95.4745"/>
<polygon fill="#191970" stroke="#191970" points="1445.9017,-92.0366 1435.3069,-92.0419 1443.5926,-98.6448 1445.9017,-92.0366"/>
</g>
<!-- Node9&#45;&gt;Node6 -->
<g id="edge21" class="edge">
<title>Node9&#45;&gt;Node6</title>
<path fill="none" stroke="#191970" d="M919.0498,-136.7014C923.7301,-135.7581 928.4793,-134.8321 933,-134 1032.5988,-115.6676 1061.591,-129.0049 1158,-98 1159.6147,-97.4807 1161.2496,-96.8879 1162.8807,-96.244"/>
<polygon fill="#191970" stroke="#191970" points="1164.3177,-99.4355 1172.0142,-92.1543 1161.457,-93.0467 1164.3177,-99.4355"/>
</g>
<!-- Node9&#45;&gt;Node10 -->
<g id="edge10" class="edge">
<title>Node9&#45;&gt;Node10</title>
<path fill="none" stroke="#191970" d="M850.9678,-143.0769C731.7246,-139.6258 333.3242,-126.2087 209,-98 206.1356,-97.3501 203.2063,-96.5205 200.3035,-95.584"/>
<polygon fill="#191970" stroke="#191970" points="201.2634,-92.2092 190.6692,-92.0933 198.8789,-98.7905 201.2634,-92.2092"/>
</g>
<!-- Node13 -->
<g id="node14" class="node">
<title>Node13</title>
<polygon fill="none" stroke="#bfbfbf" points="551,-6 551,-25 593,-25 593,-6 551,-6"/>
<text text-anchor="middle" x="572" y="-13" font-family="Helvetica,sans-Serif" font-size="10.00" fill="#000000">array</text>
</g>
<!-- Node9&#45;&gt;Node13 -->
<g id="edge17" class="edge">
<title>Node9&#45;&gt;Node13</title>
<path fill="none" stroke="#191970" d="M861.7298,-134.4466C806.0542,-111.5893 665.1627,-53.7473 602.6661,-28.0897"/>
<polygon fill="#191970" stroke="#191970" points="603.9139,-24.8186 593.3339,-24.2585 601.2554,-31.2941 603.9139,-24.8186"/>
</g>
<!-- Node9&#45;&gt;Node14 -->
<g id="edge19" class="edge">
<title>Node9&#45;&gt;Node14</title>
<path fill="none" stroke="#191970" d="M919.1358,-142.7847C973.0561,-140.8718 1081.2458,-137.061 1173,-134 1297.9944,-129.8301 2180.5956,-141.0953 2298,-98 2318.786,-90.3702 2316.981,-76.4611 2337,-67 2405.7743,-34.497 2495.3237,-22.2822 2543.2401,-17.8654"/>
<polygon fill="#191970" stroke="#191970" points="2543.7082,-21.3381 2553.3704,-16.9916 2543.1066,-14.364 2543.7082,-21.3381"/>
</g>
<!-- Node17 -->
<g id="node18" class="node">
<title>Node17</title>
<polygon fill="none" stroke="#bfbfbf" points="520.5,-73 520.5,-92 663.5,-92 663.5,-73 520.5,-73"/>
<text text-anchor="middle" x="592" y="-80" font-family="Helvetica,sans-Serif" font-size="10.00" fill="#000000">boost/functional/hash.hpp</text>
</g>
<!-- Node9&#45;&gt;Node17 -->
<g id="edge18" class="edge">
<title>Node9&#45;&gt;Node17</title>
<path fill="none" stroke="#191970" d="M850.8157,-136.8248C800.8701,-126.3413 707.3971,-106.7216 647.509,-94.1512"/>
<polygon fill="#191970" stroke="#191970" points="647.973,-90.6724 637.4673,-92.0435 646.535,-97.5231 647.973,-90.6724"/>
</g>
<!-- Node9&#45;&gt;Node18 -->
<g id="edge20" class="edge">
<title>Node9&#45;&gt;Node18</title>
<path fill="none" stroke="#191970" d="M919.3477,-139.999C980.1414,-132.7582 1110.6005,-116.5036 1220,-98 1231.9589,-95.9773 1244.9029,-93.489 1256.7039,-91.1029"/>
<polygon fill="#191970" stroke="#191970" points="1257.6341,-94.485 1266.7266,-89.0466 1256.2272,-87.6279 1257.6341,-94.485"/>
</g>
<!-- Node19 -->
<g id="node20" class="node">
<title>Node19</title>
<polygon fill="none" stroke="#bfbfbf" points="796.5,-67.5 796.5,-97.5 903.5,-97.5 903.5,-67.5 796.5,-67.5"/>
<text text-anchor="start" x="804.5" y="-85.5" font-family="Helvetica,sans-Serif" font-size="10.00" fill="#000000">boost/serialization</text>
<text text-anchor="middle" x="850" y="-74.5" font-family="Helvetica,sans-Serif" font-size="10.00" fill="#000000">/array.hpp</text>
</g>
<!-- Node9&#45;&gt;Node19 -->
<g id="edge22" class="edge">
<title>Node9&#45;&gt;Node19</title>
<path fill="none" stroke="#191970" d="M879.5313,-134.3906C875.2769,-126.9151 869.1838,-116.2087 863.6361,-106.4605"/>
<polygon fill="#191970" stroke="#191970" points="866.5501,-104.5045 858.562,-97.5446 860.4663,-107.9669 866.5501,-104.5045"/>
</g>
<!-- Node20 -->
<g id="node21" class="node">
<title>Node20</title>
<polygon fill="none" stroke="#bfbfbf" points="921.5,-67.5 921.5,-97.5 1028.5,-97.5 1028.5,-67.5 921.5,-67.5"/>
<text text-anchor="start" x="929.5" y="-85.5" font-family="Helvetica,sans-Serif" font-size="10.00" fill="#000000">boost/serialization</text>
<text text-anchor="middle" x="975" y="-74.5" font-family="Helvetica,sans-Serif" font-size="10.00" fill="#000000">/string.hpp</text>
</g>
<!-- Node9&#45;&gt;Node20 -->
<g id="edge23" class="edge">
<title>Node9&#45;&gt;Node20</title>
<path fill="none" stroke="#191970" d="M899.0625,-134.3906C911.2429,-126.0673 929.2845,-113.7389 944.7261,-103.1872"/>
<polygon fill="#191970" stroke="#191970" points="946.7017,-106.0763 952.9835,-97.5446 942.7524,-100.2968 946.7017,-106.0763"/>
</g>
<!-- Node21 -->
<g id="node22" class="node">
<title>Node21</title>
<polygon fill="none" stroke="#bfbfbf" points="1047,-73 1047,-92 1149,-92 1149,-73 1047,-73"/>
<text text-anchor="middle" x="1098" y="-80" font-family="Helvetica,sans-Serif" font-size="10.00" fill="#000000">boost/variant.hpp</text>
</g>
<!-- Node9&#45;&gt;Node21 -->
<g id="edge24" class="edge">
<title>Node9&#45;&gt;Node21</title>
<path fill="none" stroke="#191970" d="M918.2813,-134.3906C955.1705,-123.7395 1014.7757,-106.5296 1055.1325,-94.8772"/>
<polygon fill="#191970" stroke="#191970" points="1056.3158,-98.1786 1064.9525,-92.0419 1054.374,-91.4533 1056.3158,-98.1786"/>
</g>
<!-- Node11 -->
<g id="node12" class="node">
<title>Node11</title>
<polygon fill="none" stroke="#bfbfbf" points="259.5,-6 259.5,-25 336.5,-25 336.5,-6 259.5,-6"/>
<text text-anchor="middle" x="298" y="-13" font-family="Helvetica,sans-Serif" font-size="10.00" fill="#000000">Eigen/Dense</text>
</g>
<!-- Node10&#45;&gt;Node11 -->
<g id="edge11" class="edge">
<title>Node10&#45;&gt;Node11</title>
<path fill="none" stroke="#191970" d="M188.3393,-72.9005C209.9156,-61.6067 245.9391,-42.7506 270.7766,-29.7497"/>
<polygon fill="#191970" stroke="#191970" points="272.4582,-32.8201 279.6947,-25.0817 269.2119,-26.6183 272.4582,-32.8201"/>
</g>
<!-- Node12 -->
<g id="node13" class="node">
<title>Node12</title>
<polygon fill="none" stroke="#bfbfbf" points="0,-6 0,-25 80,-25 80,-6 0,-6"/>
<text text-anchor="middle" x="40" y="-13" font-family="Helvetica,sans-Serif" font-size="10.00" fill="#000000">Eigen/Sparse</text>
</g>
<!-- Node10&#45;&gt;Node12 -->
<g id="edge12" class="edge">
<title>Node10&#45;&gt;Node12</title>
<path fill="none" stroke="#191970" d="M151.3742,-72.9005C129.4607,-61.6067 92.8744,-42.7506 67.6487,-29.7497"/>
<polygon fill="#191970" stroke="#191970" points="69.0836,-26.5518 58.5913,-25.0817 65.8768,-32.774 69.0836,-26.5518"/>
</g>
<!-- Node10&#45;&gt;Node13 -->
<g id="edge13" class="edge">
<title>Node10&#45;&gt;Node13</title>
<path fill="none" stroke="#191970" d="M191.5564,-72.8777C197.1492,-70.6752 203.2257,-68.5337 209,-67 329.0892,-35.1034 477.1015,-21.9063 540.6269,-17.4371"/>
<polygon fill="#191970" stroke="#191970" points="541.0422,-20.9171 550.782,-16.7472 540.5677,-13.9332 541.0422,-20.9171"/>
</g>
<!-- Node10&#45;&gt;Node14 -->
<g id="edge14" class="edge">
<title>Node10&#45;&gt;Node14</title>
<path fill="none" stroke="#191970" d="M190.2202,-72.8604C196.1398,-70.4823 202.7129,-68.2577 209,-67 445.5684,-19.676 2139.0173,-42.4673 2380,-31 2437.4443,-28.2665 2504.127,-22.4668 2543.3188,-18.7886"/>
<polygon fill="#191970" stroke="#191970" points="2543.7523,-22.2632 2553.377,-17.8343 2543.0911,-15.2945 2543.7523,-22.2632"/>
</g>
<!-- Node15 -->
<g id="node16" class="node">
<title>Node15</title>
<polygon fill="none" stroke="#bfbfbf" points="98.5,-.5 98.5,-30.5 241.5,-30.5 241.5,-.5 98.5,-.5"/>
<text text-anchor="start" x="106.5" y="-18.5" font-family="Helvetica,sans-Serif" font-size="10.00" fill="#000000">unsupported/Eigen/CXX11</text>
<text text-anchor="middle" x="170" y="-7.5" font-family="Helvetica,sans-Serif" font-size="10.00" fill="#000000">/Tensor</text>
</g>
<!-- Node10&#45;&gt;Node15 -->
<g id="edge15" class="edge">
<title>Node10&#45;&gt;Node15</title>
<path fill="none" stroke="#191970" d="M170,-72.9005C170,-64.5099 170,-51.9451 170,-40.7085"/>
<polygon fill="#191970" stroke="#191970" points="173.5001,-40.5217 170,-30.5218 166.5001,-40.5218 173.5001,-40.5217"/>
</g>
<!-- Node10&#45;&gt;Node16 -->
<g id="edge16" class="edge">
<title>Node10&#45;&gt;Node16</title>
<path fill="none" stroke="#191970" d="M190.2484,-72.9957C196.1685,-70.6197 202.7348,-68.3624 209,-67 308.0792,-45.4542 1038.2965,-21.7147 1205.125,-16.534"/>
<polygon fill="#191970" stroke="#191970" points="1205.3993,-20.0273 1215.2863,-16.2198 1205.1829,-13.0306 1205.3993,-20.0273"/>
</g>
<!-- Node26&#45;&gt;Node16 -->
<g id="edge60" class="edge">
<title>Node26&#45;&gt;Node16</title>
<path fill="none" stroke="#191970" d="M1763.213,-313.4394C1874.6108,-276.2771 2263.0698,-139.8949 2194,-67 2161.6626,-32.8717 1438.7961,-18.8174 1272.7755,-16.0336"/>
<polygon fill="#191970" stroke="#191970" points="1272.715,-12.5322 1262.6585,-15.8665 1272.5993,-19.5313 1272.715,-12.5322"/>
</g>
<!-- Node27 -->
<g id="node28" class="node">
<title>Node27</title>
<g id="a_node28"><a xlink:href="Hamiltonianmatrix_8h.html" target="_top" xlink:title="Hamiltonianmatrix.h">
<polygon fill="none" stroke="#000000" points="1683,-252 1683,-271 1801,-271 1801,-252 1683,-252"/>
<text text-anchor="middle" x="1742" y="-259" font-family="Helvetica,sans-Serif" font-size="10.00" fill="#000000">Hamiltonianmatrix.h</text>
</a>
</g>
</g>
<!-- Node26&#45;&gt;Node27 -->
<g id="edge34" class="edge">
<title>Node26&#45;&gt;Node27</title>
<path fill="none" stroke="#191970" d="M1735.25,-313.3906C1736.3589,-304.8657 1738.0144,-292.1392 1739.4083,-281.4235"/>
<polygon fill="#191970" stroke="#191970" points="1742.9131,-281.6128 1740.7324,-271.2449 1735.9716,-280.7098 1742.9131,-281.6128"/>
</g>
<!-- Node27&#45;&gt;Node2 -->
<g id="edge35" class="edge">
<title>Node27&#45;&gt;Node2</title>
<path fill="none" stroke="#191970" d="M1682.5732,-253.7733C1589.4914,-241.6707 1410.7818,-218.4346 1321.8968,-206.8777"/>
<polygon fill="#191970" stroke="#191970" points="1322.14,-203.3799 1311.7722,-205.5613 1321.2374,-210.3215 1322.14,-203.3799"/>
</g>
<!-- Node27&#45;&gt;Node9 -->
<g id="edge44" class="edge">
<title>Node27&#45;&gt;Node9</title>
<path fill="none" stroke="#191970" d="M1682.7177,-257.5958C1585.2171,-250.7468 1385.0546,-234.8852 1217,-210 1113.1981,-194.6292 992.6802,-168.5914 929.2651,-154.2449"/>
<polygon fill="#191970" stroke="#191970" points="929.7448,-150.7648 919.2178,-151.9615 928.1934,-157.5907 929.7448,-150.7648"/>
</g>
<!-- Node27&#45;&gt;Node10 -->
<g id="edge45" class="edge">
<title>Node27&#45;&gt;Node10</title>
<path fill="none" stroke="#191970" d="M1682.9924,-260.3667C1474.565,-256.1421 773.5441,-239.9922 551,-210 523.3259,-206.2704 331.7326,-164.8443 306,-154 290.8906,-147.6325 289.2738,-142.0684 275,-134 250.4754,-120.1372 221.6907,-106.1731 200.4681,-96.2897"/>
<polygon fill="#191970" stroke="#191970" points="201.8378,-93.0671 191.2918,-92.0509 198.9023,-99.4218 201.8378,-93.0671"/>
</g>
<!-- Node27&#45;&gt;Node14 -->
<g id="edge53" class="edge">
<title>Node27&#45;&gt;Node14</title>
<path fill="none" stroke="#191970" d="M1798.1311,-251.9704C1978.0469,-221.2029 2530.2667,-124.9511 2558,-98 2574.6631,-81.8069 2577.9919,-54.1529 2578.1006,-35.3677"/>
<polygon fill="#191970" stroke="#191970" points="2581.5966,-35.1549 2577.856,-25.2424 2574.5986,-35.3241 2581.5966,-35.1549"/>
</g>
<!-- Node27&#45;&gt;Node16 -->
<g id="edge59" class="edge">
<title>Node27&#45;&gt;Node16</title>
<path fill="none" stroke="#191970" d="M1735.5411,-251.7542C1709.6826,-212.7658 1614.7871,-69.9762 1610,-67 1553.9113,-32.1288 1353.2495,-20.1719 1272.7589,-16.7205"/>
<polygon fill="#191970" stroke="#191970" points="1272.8033,-13.2194 1262.668,-16.3057 1272.5158,-20.2135 1272.8033,-13.2194"/>
</g>
<!-- Node27&#45;&gt;Node23 -->
<g id="edge57" class="edge">
<title>Node27&#45;&gt;Node23</title>
<path fill="none" stroke="#191970" d="M1770.1709,-251.9091C1794.6657,-242.9278 1830.585,-228.181 1859,-210 1901.9662,-182.5085 1902.833,-162.7023 1945,-134 1966.9124,-119.0846 1993.7211,-105.6099 2014.2105,-96.1878"/>
<polygon fill="#191970" stroke="#191970" points="2015.752,-99.3321 2023.4253,-92.0265 2012.871,-92.9524 2015.752,-99.3321"/>
</g>
<!-- Node28 -->
<g id="node29" class="node">
<title>Node28</title>
<g id="a_node29"><a xlink:href="Serializable_8h.html" target="_top" xlink:title="Serializable.h">
<polygon fill="none" stroke="#000000" points="2025.5,-134.5 2025.5,-153.5 2108.5,-153.5 2108.5,-134.5 2025.5,-134.5"/>
<text text-anchor="middle" x="2067" y="-141.5" font-family="Helvetica,sans-Serif" font-size="10.00" fill="#000000">Serializable.h</text>
</a>
</g>
</g>
<!-- Node27&#45;&gt;Node28 -->
<g id="edge36" class="edge">
<title>Node27&#45;&gt;Node28</title>
<path fill="none" stroke="#191970" d="M1772.0044,-251.9147C1802.6251,-241.9813 1851.4217,-225.7328 1893,-210 1914.6154,-201.8209 1919.4732,-198.4094 1941,-190 1970.8724,-178.3304 2005.0693,-165.9038 2030.2926,-156.912"/>
<polygon fill="#191970" stroke="#191970" points="2031.5808,-160.1687 2039.8318,-153.5225 2029.2371,-153.5727 2031.5808,-160.1687"/>
</g>
<!-- Node33 -->
<g id="node34" class="node">
<title>Node33</title>
<g id="a_node34"><a xlink:href="utils_8h.html" target="_top" xlink:title="utils.h">
<polygon fill="none" stroke="#000000" points="2241.5,-73 2241.5,-92 2288.5,-92 2288.5,-73 2241.5,-73"/>
<text text-anchor="middle" x="2265" y="-80" font-family="Helvetica,sans-Serif" font-size="10.00" fill="#000000">utils.h</text>
</a>
</g>
</g>
<!-- Node27&#45;&gt;Node33 -->
<g id="edge46" class="edge">
<title>Node27&#45;&gt;Node33</title>
<path fill="none" stroke="#191970" d="M1783.0143,-251.9436C1821.6108,-242.571 1880.8159,-227.2123 1931,-210 1952.861,-202.502 1957.0922,-197.36 1979,-190 2039.4935,-169.6769 2058.1202,-176.066 2118,-154 2129.9368,-149.6012 2197.2665,-116.2884 2236.5379,-96.7227"/>
<polygon fill="#191970" stroke="#191970" points="2238.4798,-99.6655 2245.8668,-92.0706 2235.3558,-93.4012 2238.4798,-99.6655"/>
</g>
<!-- Node40 -->
<g id="node41" class="node">
<title>Node40</title>
<polygon fill="none" stroke="#bfbfbf" points="1717,-190.5 1717,-209.5 1767,-209.5 1767,-190.5 1717,-190.5"/>
<text text-anchor="middle" x="1742" y="-197.5" font-family="Helvetica,sans-Serif" font-size="10.00" fill="#000000">cstdint</text>
</g>
<!-- Node27&#45;&gt;Node40 -->
<g id="edge54" class="edge">
<title>Node27&#45;&gt;Node40</title>
<path fill="none" stroke="#191970" d="M1742,-251.8906C1742,-243.3657 1742,-230.6392 1742,-219.9235"/>
<polygon fill="#191970" stroke="#191970" points="1745.5001,-219.7448 1742,-209.7449 1738.5001,-219.7449 1745.5001,-219.7448"/>
</g>
<!-- Node41 -->
<g id="node42" class="node">
<title>Node41</title>
<polygon fill="none" stroke="#bfbfbf" points="811,-190.5 811,-209.5 857,-209.5 857,-190.5 811,-190.5"/>
<text text-anchor="middle" x="834" y="-197.5" font-family="Helvetica,sans-Serif" font-size="10.00" fill="#000000">cstdio</text>
</g>
<!-- Node27&#45;&gt;Node41 -->
<g id="edge55" class="edge">
<title>Node27&#45;&gt;Node41</title>
<path fill="none" stroke="#191970" d="M1682.7738,-257.4885C1508.7183,-245.6995 1002.5641,-211.4171 867.4712,-202.267"/>
<polygon fill="#191970" stroke="#191970" points="867.5398,-198.7638 857.3261,-201.5799 867.0667,-205.7478 867.5398,-198.7638"/>
</g>
<!-- Node42 -->
<g id="node43" class="node">
<title>Node42</title>
<polygon fill="none" stroke="#bfbfbf" points="1785.5,-190.5 1785.5,-209.5 1850.5,-209.5 1850.5,-190.5 1785.5,-190.5"/>
<text text-anchor="middle" x="1818" y="-197.5" font-family="Helvetica,sans-Serif" font-size="10.00" fill="#000000">exception</text>
</g>
<!-- Node27&#45;&gt;Node42 -->
<g id="edge56" class="edge">
<title>Node27&#45;&gt;Node42</title>
<path fill="none" stroke="#191970" d="M1753.875,-251.8906C1765.6297,-242.3786 1783.8486,-227.6357 1797.8672,-216.2917"/>
<polygon fill="#191970" stroke="#191970" points="1800.3856,-218.7562 1805.9576,-209.7449 1795.9822,-213.3146 1800.3856,-218.7562"/>
</g>
<!-- Node27&#45;&gt;Node43 -->
<g id="edge58" class="edge">
<title>Node27&#45;&gt;Node43</title>
<path fill="none" stroke="#191970" d="M1801.1096,-253.6485C1895.7937,-241.0717 2079.2395,-216.7047 2162.2986,-205.672"/>
<polygon fill="#191970" stroke="#191970" points="2162.9381,-209.1179 2172.3902,-204.3315 2162.0164,-202.1788 2162.9381,-209.1179"/>
</g>
<!-- Node28&#45;&gt;Node10 -->
<g id="edge37" class="edge">
<title>Node28&#45;&gt;Node10</title>
<path fill="none" stroke="#191970" d="M2025.2226,-142.0686C1976.2878,-139.8604 1892.7737,-136.2601 1821,-134 1641.933,-128.3614 384.5735,-133.6474 209,-98 205.9564,-97.3821 202.8452,-96.5402 199.7732,-95.5661"/>
<polygon fill="#191970" stroke="#191970" points="200.8192,-92.2226 190.2249,-92.1163 198.4406,-98.8061 200.8192,-92.2226"/>
</g>
<!-- Node28&#45;&gt;Node16 -->
<g id="edge43" class="edge">
<title>Node28&#45;&gt;Node16</title>
<path fill="none" stroke="#191970" d="M2073.8626,-134.2974C2084.3858,-118.1366 2101.5429,-85.6446 2084,-67 2055.7537,-36.9798 1427.9545,-20.0222 1273.2273,-16.2897"/>
<polygon fill="#191970" stroke="#191970" points="1272.9999,-12.7833 1262.9193,-16.0438 1272.8329,-19.7813 1272.9999,-12.7833"/>
</g>
<!-- Node28&#45;&gt;Node23 -->
<g id="edge39" class="edge">
<title>Node28&#45;&gt;Node23</title>
<path fill="none" stroke="#191970" d="M2063.7188,-134.3906C2060.7465,-125.6862 2056.2786,-112.6015 2052.573,-101.7494"/>
<polygon fill="#191970" stroke="#191970" points="2055.8712,-100.5773 2049.3275,-92.2449 2049.2468,-102.8394 2055.8712,-100.5773"/>
</g>
<!-- Node29 -->
<g id="node30" class="node">
<title>Node29</title>
<polygon fill="none" stroke="#bfbfbf" points="2131.5,-73 2131.5,-92 2184.5,-92 2184.5,-73 2131.5,-73"/>
<text text-anchor="middle" x="2158" y="-80" font-family="Helvetica,sans-Serif" font-size="10.00" fill="#000000">iterator</text>
</g>
<!-- Node28&#45;&gt;Node29 -->
<g id="edge38" class="edge">
<title>Node28&#45;&gt;Node29</title>
<path fill="none" stroke="#191970" d="M2081.2188,-134.3906C2095.6434,-124.6421 2118.1976,-109.3994 2135.136,-97.9521"/>
<polygon fill="#191970" stroke="#191970" points="2137.5556,-100.5412 2143.8811,-92.0419 2133.6359,-94.7415 2137.5556,-100.5412"/>
</g>
<!-- Node30 -->
<g id="node31" class="node">
<title>Node30</title>
<polygon fill="none" stroke="#bfbfbf" points="2408.5,-73 2408.5,-92 2473.5,-92 2473.5,-73 2408.5,-73"/>
<text text-anchor="middle" x="2441" y="-80" font-family="Helvetica,sans-Serif" font-size="10.00" fill="#000000">typeindex</text>
</g>
<!-- Node28&#45;&gt;Node30 -->
<g id="edge40" class="edge">
<title>Node28&#45;&gt;Node30</title>
<path fill="none" stroke="#191970" d="M2108.5519,-139.4385C2185.1231,-130.8375 2345.6351,-111.8443 2400,-98 2402.8345,-97.2782 2405.7422,-96.4237 2408.6371,-95.4926"/>
<polygon fill="#191970" stroke="#191970" points="2410.0202,-98.7169 2418.3056,-92.1137 2407.7108,-92.1088 2410.0202,-98.7169"/>
</g>
<!-- Node31 -->
<g id="node32" class="node">
<title>Node31</title>
<polygon fill="none" stroke="#bfbfbf" points="2491.5,-73 2491.5,-92 2548.5,-92 2548.5,-73 2491.5,-73"/>
<text text-anchor="middle" x="2520" y="-80" font-family="Helvetica,sans-Serif" font-size="10.00" fill="#000000">typeinfo</text>
</g>
<!-- Node28&#45;&gt;Node31 -->
<g id="edge41" class="edge">
<title>Node28&#45;&gt;Node31</title>
<path fill="none" stroke="#191970" d="M2108.5004,-139.5689C2212.011,-128.4961 2473.9765,-100.337 2483,-98 2485.4777,-97.3583 2488.0065,-96.5814 2490.5207,-95.7214"/>
<polygon fill="#191970" stroke="#191970" points="2491.9108,-98.9372 2500.0062,-92.1024 2489.4155,-92.3971 2491.9108,-98.9372"/>
</g>
<!-- Node32 -->
<g id="node33" class="node">
<title>Node32</title>
<polygon fill="none" stroke="#bfbfbf" points="409.5,-73 409.5,-92 502.5,-92 502.5,-73 409.5,-73"/>
<text text-anchor="middle" x="456" y="-80" font-family="Helvetica,sans-Serif" font-size="10.00" fill="#000000">unordered_map</text>
</g>
<!-- Node28&#45;&gt;Node32 -->
<g id="edge42" class="edge">
<title>Node28&#45;&gt;Node32</title>
<path fill="none" stroke="#191970" d="M2025.2205,-142.1341C1976.2836,-139.9874 1892.7676,-136.4447 1821,-134 1529.9478,-124.0855 798.9036,-141.8316 511,-98 505.6059,-97.1788 499.9908,-95.995 494.4988,-94.6423"/>
<polygon fill="#191970" stroke="#191970" points="495.3841,-91.2561 484.8203,-92.0669 493.584,-98.0207 495.3841,-91.2561"/>
</g>
<!-- Node33&#45;&gt;Node34 -->
<g id="edge47" class="edge">
<title>Node33&#45;&gt;Node34</title>
<path fill="none" stroke="#191970" d="M2288.5787,-76.9201C2302.5924,-73.73 2320.7478,-69.8162 2337,-67 2457.5867,-46.1047 2489.818,-54.1099 2610,-31 2616.1967,-29.8084 2622.7019,-28.3657 2629.061,-26.8457"/>
<polygon fill="#191970" stroke="#191970" points="2630.002,-30.2185 2638.8683,-24.4187 2628.3203,-23.4235 2630.002,-30.2185"/>
</g>
<!-- Node35 -->
<g id="node36" class="node">
<title>Node35</title>
<polygon fill="none" stroke="#bfbfbf" points="2311.5,-6 2311.5,-25 2370.5,-25 2370.5,-6 2311.5,-6"/>
<text text-anchor="middle" x="2341" y="-13" font-family="Helvetica,sans-Serif" font-size="10.00" fill="#000000">complex</text>
</g>
<!-- Node33&#45;&gt;Node35 -->
<g id="edge48" class="edge">
<title>Node33&#45;&gt;Node35</title>
<path fill="none" stroke="#191970" d="M2275.8889,-72.9005C2287.9662,-62.2535 2307.6671,-44.8856 2322.24,-32.0385"/>
<polygon fill="#191970" stroke="#191970" points="2324.9445,-34.3201 2330.1313,-25.0817 2320.3154,-29.0692 2324.9445,-34.3201"/>
</g>
<!-- Node36 -->
<g id="node37" class="node">
<title>Node36</title>
<polygon fill="none" stroke="#bfbfbf" points="2153.5,-6 2153.5,-25 2218.5,-25 2218.5,-6 2153.5,-6"/>
<text text-anchor="middle" x="2186" y="-13" font-family="Helvetica,sans-Serif" font-size="10.00" fill="#000000">functional</text>
</g>
<!-- Node33&#45;&gt;Node36 -->
<g id="edge49" class="edge">
<title>Node33&#45;&gt;Node36</title>
<path fill="none" stroke="#191970" d="M2253.6812,-72.9005C2241.0099,-62.1539 2220.2652,-44.5603 2205.0773,-31.6794"/>
<polygon fill="#191970" stroke="#191970" points="2207.1882,-28.8805 2197.2978,-25.0817 2202.6605,-34.2191 2207.1882,-28.8805"/>
</g>
<!-- Node37 -->
<g id="node38" class="node">
<title>Node37</title>
<polygon fill="none" stroke="#bfbfbf" points="2062,-6 2062,-25 2116,-25 2116,-6 2062,-6"/>
<text text-anchor="middle" x="2089" y="-13" font-family="Helvetica,sans-Serif" font-size="10.00" fill="#000000">random</text>
</g>
<!-- Node33&#45;&gt;Node37 -->
<g id="edge50" class="edge">
<title>Node33&#45;&gt;Node37</title>
<path fill="none" stroke="#191970" d="M2241.7327,-72.8801C2236.8751,-70.9081 2231.7786,-68.8658 2227,-67 2192.5247,-53.5395 2152.924,-38.8387 2125.0116,-28.602"/>
<polygon fill="#191970" stroke="#191970" points="2125.8819,-25.1935 2115.2881,-25.0432 2123.4759,-31.7671 2125.8819,-25.1935"/>
</g>
<!-- Node38 -->
<g id="node39" class="node">
<title>Node38</title>
<polygon fill="none" stroke="#bfbfbf" points="1936.5,-6 1936.5,-25 2005.5,-25 2005.5,-6 1936.5,-6"/>
<text text-anchor="middle" x="1971" y="-13" font-family="Helvetica,sans-Serif" font-size="10.00" fill="#000000">type_traits</text>
</g>
<!-- Node33&#45;&gt;Node38 -->
<g id="edge51" class="edge">
<title>Node33&#45;&gt;Node38</title>
<path fill="none" stroke="#191970" d="M2243.5516,-72.9286C2238.2146,-70.7766 2232.4572,-68.6458 2227,-67 2207.0286,-60.977 2083.4497,-36.9945 2015.5641,-23.9899"/>
<polygon fill="#191970" stroke="#191970" points="2016.0509,-20.5196 2005.5713,-22.0778 2014.7353,-27.3948 2016.0509,-20.5196"/>
</g>
<!-- Node39 -->
<g id="node40" class="node">
<title>Node39</title>
<polygon fill="none" stroke="#bfbfbf" points="2237,-6 2237,-25 2293,-25 2293,-6 2237,-6"/>
<text text-anchor="middle" x="2265" y="-13" font-family="Helvetica,sans-Serif" font-size="10.00" fill="#000000">unistd.h</text>
</g>
<!-- Node33&#45;&gt;Node39 -->
<g id="edge52" class="edge">
<title>Node33&#45;&gt;Node39</title>
<path fill="none" stroke="#191970" d="M2265,-72.9005C2265,-63.149 2265,-47.7597 2265,-35.3695"/>
<polygon fill="#191970" stroke="#191970" points="2268.5001,-35.0816 2265,-25.0817 2261.5001,-35.0817 2268.5001,-35.0816"/>
</g>
<!-- Node44&#45;&gt;Node2 -->
<g id="edge62" class="edge">
<title>Node44&#45;&gt;Node2</title>
<path fill="none" stroke="#191970" d="M1097.51,-313.3587C1113.6867,-304.3218 1138.2761,-290.2543 1159,-277 1190.586,-256.7986 1225.9033,-231.5868 1247.7951,-215.6347"/>
<polygon fill="#191970" stroke="#191970" points="1250.0309,-218.3356 1256.0343,-209.6058 1245.8972,-212.6865 1250.0309,-218.3356"/>
</g>
<!-- Node44&#45;&gt;Node5 -->
<g id="edge96" class="edge">
<title>Node44&#45;&gt;Node5</title>
<path fill="none" stroke="#191970" d="M1131.4569,-315.0724C1256.4623,-294.6569 1570.3297,-236.0684 1631,-154 1645.7815,-134.0051 1621.1801,-111.908 1599.6018,-97.6473"/>
<polygon fill="#191970" stroke="#191970" points="1601.2961,-94.5784 1590.9659,-92.2251 1597.5738,-100.5067 1601.2961,-94.5784"/>
</g>
<!-- Node44&#45;&gt;Node6 -->
<g id="edge97" class="edge">
<title>Node44&#45;&gt;Node6</title>
<path fill="none" stroke="#191970" d="M1093.737,-313.4376C1104.3775,-305.16 1118.384,-292.1532 1125,-277 1150.4611,-218.6843 1104.7541,-191.5035 1132,-134 1138.9847,-119.2585 1152.3068,-106.8472 1164.3161,-97.9046"/>
<polygon fill="#191970" stroke="#191970" points="1166.5341,-100.6244 1172.7193,-92.0224 1162.5199,-94.8897 1166.5341,-100.6244"/>
</g>
<!-- Node44&#45;&gt;Node9 -->
<g id="edge63" class="edge">
<title>Node44&#45;&gt;Node9</title>
<path fill="none" stroke="#191970" d="M1028.7999,-315.9821C982.9621,-308.6088 920.5056,-295.4986 904,-277 876.0335,-245.6567 878.0123,-192.5912 881.6445,-163.878"/>
<polygon fill="#191970" stroke="#191970" points="885.1287,-164.2398 883.1121,-153.8387 878.2023,-163.2272 885.1287,-164.2398"/>
</g>
<!-- Node44&#45;&gt;Node10 -->
<g id="edge93" class="edge">
<title>Node44&#45;&gt;Node10</title>
<path fill="none" stroke="#191970" d="M1028.9417,-322.5176C896.738,-320.766 545.9155,-312.7825 436,-277 337.8498,-245.0476 319.218,-218.9576 239,-154 218.4127,-137.3291 197.6962,-114.931 184.4134,-99.6752"/>
<polygon fill="#191970" stroke="#191970" points="187.0129,-97.3299 177.8469,-92.0163 181.6987,-101.8862 187.0129,-97.3299"/>
</g>
<!-- Node44&#45;&gt;Node23 -->
<g id="edge95" class="edge">
<title>Node44&#45;&gt;Node23</title>
<path fill="none" stroke="#191970" d="M1131.0731,-320.6486C1291.8002,-313.1351 1778.4882,-289.4708 1810,-277 1902.7562,-240.2917 1905.9383,-197.3459 1983,-134 1997.3644,-122.1923 2013.6123,-108.9121 2026.0095,-98.7951"/>
<polygon fill="#191970" stroke="#191970" points="2028.3699,-101.3865 2033.9065,-92.3534 2023.9452,-95.9622 2028.3699,-101.3865"/>
</g>
<!-- Node44&#45;&gt;Node32 -->
<g id="edge98" class="edge">
<title>Node44&#45;&gt;Node32</title>
<path fill="none" stroke="#191970" d="M1028.8624,-319.068C868.9977,-306.2524 386.6903,-263.4201 343,-210 337.3725,-203.1193 337.4662,-196.9563 343,-190 387.298,-134.3152 454.702,-209.6848 499,-154 513.0268,-136.3676 494.1332,-113.7657 477.1459,-98.7428"/>
<polygon fill="#191970" stroke="#191970" points="479.0308,-95.7568 469.1124,-92.0317 474.543,-101.129 479.0308,-95.7568"/>
</g>
<!-- Node45 -->
<g id="node46" class="node">
<title>Node45</title>
<g id="a_node46"><a xlink:href="Wavefunction_8h.html" target="_top" xlink:title="Wavefunction.h">
<polygon fill="none" stroke="#000000" points="683.5,-252 683.5,-271 776.5,-271 776.5,-252 683.5,-252"/>
<text text-anchor="middle" x="730" y="-259" font-family="Helvetica,sans-Serif" font-size="10.00" fill="#000000">Wavefunction.h</text>
</a>
</g>
</g>
<!-- Node44&#45;&gt;Node45 -->
<g id="edge64" class="edge">
<title>Node44&#45;&gt;Node45</title>
<path fill="none" stroke="#191970" d="M1028.7322,-313.9915C964.1664,-302.6464 853.5945,-283.2173 786.6057,-271.4464"/>
<polygon fill="#191970" stroke="#191970" points="787.1007,-267.9799 776.6458,-269.6963 785.8892,-274.8742 787.1007,-267.9799"/>
</g>
<!-- Node57 -->
<g id="node58" class="node">
<title>Node57</title>
<polygon fill="none" stroke="#bfbfbf" points="913.5,-246.5 913.5,-276.5 1116.5,-276.5 1116.5,-246.5 913.5,-246.5"/>
<text text-anchor="start" x="921.5" y="-264.5" font-family="Helvetica,sans-Serif" font-size="10.00" fill="#000000">wignerSymbols/include</text>
<text text-anchor="middle" x="1015" y="-253.5" font-family="Helvetica,sans-Serif" font-size="10.00" fill="#000000">/wignerSymbols/wignerSymbols&#45;cpp.h</text>
</g>
<!-- Node44&#45;&gt;Node57 -->
<g id="edge94" class="edge">
<title>Node44&#45;&gt;Node57</title>
<path fill="none" stroke="#191970" d="M1069.8438,-313.3906C1061.4541,-305.4527 1049.2141,-293.8718 1038.4249,-283.6635"/>
<polygon fill="#191970" stroke="#191970" points="1040.5702,-280.875 1030.9008,-276.5446 1035.7593,-285.9598 1040.5702,-280.875"/>
</g>
<!-- Node45&#45;&gt;Node6 -->
<g id="edge91" class="edge">
<title>Node45&#45;&gt;Node6</title>
<path fill="none" stroke="#191970" d="M736.757,-251.9113C748.2686,-236.3398 773.2493,-205.7175 802,-190 866.717,-154.6205 892.5337,-172.2365 964,-154 1050.9561,-131.8108 1074.4065,-130.6475 1158,-98 1159.3662,-97.4664 1160.7533,-96.8939 1162.1449,-96.2948"/>
<polygon fill="#191970" stroke="#191970" points="1163.6228,-99.4675 1171.2207,-92.0836 1160.6764,-93.1178 1163.6228,-99.4675"/>
</g>
<!-- Node45&#45;&gt;Node10 -->
<g id="edge88" class="edge">
<title>Node45&#45;&gt;Node10</title>
<path fill="none" stroke="#191970" d="M683.2042,-256.6524C626.5256,-249.9426 528.6245,-235.648 448,-210 427.9146,-203.6105 424.7572,-197.3417 405,-190 350.0059,-169.5642 331.3152,-178.484 278,-154 245.0999,-138.8912 210.8654,-114.5065 189.9878,-98.4892"/>
<polygon fill="#191970" stroke="#191970" points="191.9403,-95.5735 181.9008,-92.1883 187.638,-101.0954 191.9403,-95.5735"/>
</g>
<!-- Node45&#45;&gt;Node16 -->
<g id="edge92" class="edge">
<title>Node45&#45;&gt;Node16</title>
<path fill="none" stroke="#191970" d="M729.4637,-251.8797C728.2551,-219.7915 729.117,-115.7131 787,-67 818.9214,-40.1357 1106.0835,-22.533 1205.391,-17.2049"/>
<polygon fill="#191970" stroke="#191970" points="1205.6756,-20.6949 1215.4768,-16.6715 1205.3059,-13.7046 1205.6756,-20.6949"/>
</g>
<!-- Node45&#45;&gt;Node41 -->
<g id="edge89" class="edge">
<title>Node45&#45;&gt;Node41</title>
<path fill="none" stroke="#191970" d="M746.25,-251.8906C763.1169,-241.9165 789.7099,-226.1908 809.2035,-214.6633"/>
<polygon fill="#191970" stroke="#191970" points="811.038,-217.6447 817.8641,-209.5419 807.4749,-211.6194 811.038,-217.6447"/>
</g>
<!-- Node46 -->
<g id="node47" class="node">
<title>Node46</title>
<g id="a_node47"><a xlink:href="QuantumDefect_8h.html" target="_top" xlink:title="QuantumDefect.h">
<polygon fill="none" stroke="#000000" points="560.5,-190.5 560.5,-209.5 663.5,-209.5 663.5,-190.5 560.5,-190.5"/>
<text text-anchor="middle" x="612" y="-197.5" font-family="Helvetica,sans-Serif" font-size="10.00" fill="#000000">QuantumDefect.h</text>
</a>
</g>
</g>
<!-- Node45&#45;&gt;Node46 -->
<g id="edge65" class="edge">
<title>Node45&#45;&gt;Node46</title>
<path fill="none" stroke="#191970" d="M711.5625,-251.8906C692.1653,-241.7811 661.431,-225.7628 639.2383,-214.1962"/>
<polygon fill="#191970" stroke="#191970" points="640.7936,-211.06 630.308,-209.5419 637.5582,-217.2675 640.7936,-211.06"/>
</g>
<!-- Node45&#45;&gt;Node56 -->
<g id="edge90" class="edge">
<title>Node45&#45;&gt;Node56</title>
<path fill="none" stroke="#191970" d="M683.3254,-255.6477C620.7394,-247.4231 506.338,-231.0639 410,-210 408.7524,-209.7272 407.4838,-209.4373 406.2048,-209.1344"/>
<polygon fill="#191970" stroke="#191970" points="406.9266,-205.7065 396.3721,-206.6299 405.1987,-212.4899 406.9266,-205.7065"/>
</g>
<!-- Node46&#45;&gt;Node6 -->
<g id="edge84" class="edge">
<title>Node46&#45;&gt;Node6</title>
<path fill="none" stroke="#191970" d="M663.6108,-197.098C727.0033,-192.49 837.2888,-181.0648 928,-154 948.1973,-147.9739 950.9454,-140.4853 971,-134 1051.531,-107.9575 1077.8454,-125.1791 1158,-98 1159.6063,-97.4553 1161.2346,-96.8427 1162.8608,-96.1837"/>
<polygon fill="#191970" stroke="#191970" points="1164.316,-99.3669 1171.9804,-92.0519 1161.4272,-92.9908 1164.316,-99.3669"/>
</g>
<!-- Node46&#45;&gt;Node10 -->
<g id="edge82" class="edge">
<title>Node46&#45;&gt;Node10</title>
<path fill="none" stroke="#191970" d="M560.3271,-194.1612C507.6879,-187.4317 424.066,-174.5745 354,-154 331.8252,-147.4885 327.5044,-142.4668 306,-134 263.2126,-117.1536 251.9249,-114.4929 209,-98 207.1637,-97.2944 205.2809,-96.5653 203.3818,-95.8254"/>
<polygon fill="#191970" stroke="#191970" points="204.4785,-92.4958 193.8912,-92.0955 201.918,-99.0107 204.4785,-92.4958"/>
</g>
<!-- Node46&#45;&gt;Node17 -->
<g id="edge87" class="edge">
<title>Node46&#45;&gt;Node17</title>
<path fill="none" stroke="#191970" d="M618.3452,-190.0655C625.8219,-177.0662 636.4584,-153.6306 630,-134 625.7564,-121.1016 616.9052,-108.7822 608.8124,-99.4282"/>
<polygon fill="#191970" stroke="#191970" points="611.3683,-97.0369 602.0305,-92.0313 606.2087,-101.7675 611.3683,-97.0369"/>
</g>
<!-- Node46&#45;&gt;Node32 -->
<g id="edge86" class="edge">
<title>Node46&#45;&gt;Node32</title>
<path fill="none" stroke="#191970" d="M612.3407,-190.1917C612.2951,-176.0354 610.122,-149.8417 596,-134 589.0592,-126.214 535.4098,-107.832 496.589,-95.2738"/>
<polygon fill="#191970" stroke="#191970" points="497.1722,-91.785 486.5808,-92.0584 495.0309,-98.4495 497.1722,-91.785"/>
</g>
<!-- Node47 -->
<g id="node48" class="node">
<title>Node47</title>
<g id="a_node48"><a xlink:href="Cache_8h.html" target="_top" xlink:title="Cache.h">
<polygon fill="none" stroke="#000000" points="434,-134.5 434,-153.5 490,-153.5 490,-134.5 434,-134.5"/>
<text text-anchor="middle" x="462" y="-141.5" font-family="Helvetica,sans-Serif" font-size="10.00" fill="#000000">Cache.h</text>
</a>
</g>
</g>
<!-- Node46&#45;&gt;Node47 -->
<g id="edge66" class="edge">
<title>Node46&#45;&gt;Node47</title>
<path fill="none" stroke="#191970" d="M586.2141,-190.3733C561.5953,-181.1822 524.31,-167.2624 497.0125,-157.0713"/>
<polygon fill="#191970" stroke="#191970" points="498.042,-153.7198 487.4494,-153.5011 495.5937,-160.2777 498.042,-153.7198"/>
</g>
<!-- Node48 -->
<g id="node49" class="node">
<title>Node48</title>
<polygon fill="none" stroke="#bfbfbf" points="218,-73 218,-92 266,-92 266,-73 218,-73"/>
<text text-anchor="middle" x="242" y="-80" font-family="Helvetica,sans-Serif" font-size="10.00" fill="#000000">mutex</text>
</g>
<!-- Node46&#45;&gt;Node48 -->
<g id="edge83" class="edge">
<title>Node46&#45;&gt;Node48</title>
<path fill="none" stroke="#191970" d="M567.0159,-190.4756C528.8858,-182.0363 472.9208,-168.7845 425,-154 357.0016,-133.0211 340.5932,-125.5941 275,-98 273.6508,-97.4324 272.2761,-96.8409 270.8914,-96.2344"/>
<polygon fill="#191970" stroke="#191970" points="272.329,-93.0433 261.7754,-92.1093 269.4431,-99.4207 272.329,-93.0433"/>
</g>
<!-- Node46&#45;&gt;Node50 -->
<g id="edge70" class="edge">
<title>Node46&#45;&gt;Node50</title>
<path fill="none" stroke="#191970" d="M663.604,-197.1557C701.8144,-195.0808 755.1489,-192.2501 802,-190 1170.3671,-172.3082 1262.7525,-174.0276 1631,-154 1669.7558,-151.8922 1713.9975,-148.9414 1744.9035,-146.7917"/>
<polygon fill="#191970" stroke="#191970" points="1745.5172,-150.2574 1755.2483,-146.0674 1745.0282,-143.2745 1745.5172,-150.2574"/>
</g>
<!-- Node55 -->
<g id="node56" class="node">
<title>Node55</title>
<polygon fill="none" stroke="#bfbfbf" points="546.5,-134.5 546.5,-153.5 587.5,-153.5 587.5,-134.5 546.5,-134.5"/>
<text text-anchor="middle" x="567" y="-141.5" font-family="Helvetica,sans-Serif" font-size="10.00" fill="#000000">tuple</text>
</g>
<!-- Node46&#45;&gt;Node55 -->
<g id="edge85" class="edge">
<title>Node46&#45;&gt;Node55</title>
<path fill="none" stroke="#191970" d="M604.1616,-190.2455C597.838,-182.3761 588.7776,-171.101 581.1864,-161.6542"/>
<polygon fill="#191970" stroke="#191970" points="583.7408,-159.2454 574.7486,-153.6427 578.2842,-163.6302 583.7408,-159.2454"/>
</g>
<!-- Node47&#45;&gt;Node32 -->
<g id="edge68" class="edge">
<title>Node47&#45;&gt;Node32</title>
<path fill="none" stroke="#191970" d="M461.0625,-134.3906C460.2308,-125.8657 458.9892,-113.1392 457.9438,-102.4235"/>
<polygon fill="#191970" stroke="#191970" points="461.4053,-101.8577 456.9507,-92.2449 454.4383,-102.5375 461.4053,-101.8577"/>
</g>
<!-- Node47&#45;&gt;Node48 -->
<g id="edge67" class="edge">
<title>Node47&#45;&gt;Node48</title>
<path fill="none" stroke="#191970" d="M433.8061,-137.2197C383.4421,-125.0859 282.5445,-100.6701 275,-98 273.3591,-97.4193 271.6899,-96.7844 270.0175,-96.1138"/>
<polygon fill="#191970" stroke="#191970" points="271.1437,-92.787 260.5774,-92.0095 268.3525,-99.2065 271.1437,-92.787"/>
</g>
<!-- Node49 -->
<g id="node50" class="node">
<title>Node49</title>
<polygon fill="none" stroke="#bfbfbf" points="284.5,-73 284.5,-92 391.5,-92 391.5,-73 284.5,-73"/>
<text text-anchor="middle" x="338" y="-80" font-family="Helvetica,sans-Serif" font-size="10.00" fill="#000000">boost/optional.hpp</text>
</g>
<!-- Node47&#45;&gt;Node49 -->
<g id="edge69" class="edge">
<title>Node47&#45;&gt;Node49</title>
<path fill="none" stroke="#191970" d="M442.625,-134.3906C422.1505,-124.2359 389.6558,-108.1196 366.3115,-96.5416"/>
<polygon fill="#191970" stroke="#191970" points="367.7528,-93.3496 357.2389,-92.0419 364.6425,-99.6207 367.7528,-93.3496"/>
</g>
<!-- Node50&#45;&gt;Node5 -->
<g id="edge74" class="edge">
<title>Node50&#45;&gt;Node5</title>
<path fill="none" stroke="#191970" d="M1755.1038,-135.5776C1717.6711,-124.6672 1652.3234,-105.6203 1610.9318,-93.556"/>
<polygon fill="#191970" stroke="#191970" points="1611.7909,-90.1608 1601.211,-90.7226 1609.8321,-96.8811 1611.7909,-90.1608"/>
</g>
<!-- Node50&#45;&gt;Node6 -->
<g id="edge75" class="edge">
<title>Node50&#45;&gt;Node6</title>
<path fill="none" stroke="#191970" d="M1755.3389,-142.0021C1660.1981,-135.2904 1355.3754,-113.1255 1258,-98 1245.9247,-96.1243 1232.8089,-93.3642 1221.287,-90.6908"/>
<polygon fill="#191970" stroke="#191970" points="1221.7689,-87.2075 1211.2293,-88.2879 1220.1423,-94.0159 1221.7689,-87.2075"/>
</g>
<!-- Node50&#45;&gt;Node18 -->
<g id="edge71" class="edge">
<title>Node50&#45;&gt;Node18</title>
<path fill="none" stroke="#191970" d="M1755.3753,-142.0972C1669.7059,-136.2391 1416.3066,-117.6785 1336,-98 1333.2136,-97.3172 1330.3617,-96.4778 1327.5304,-95.546"/>
<polygon fill="#191970" stroke="#191970" points="1328.7025,-92.2481 1318.1085,-92.1161 1326.3079,-98.8258 1328.7025,-92.2481"/>
</g>
<!-- Node50&#45;&gt;Node23 -->
<g id="edge72" class="edge">
<title>Node50&#45;&gt;Node23</title>
<path fill="none" stroke="#191970" d="M1812.657,-137.2232C1817.4416,-136.124 1822.3576,-135.0144 1827,-134 1905.0014,-116.9559 1926.1337,-119.5936 2003,-98 2005.7933,-97.2153 2008.6658,-96.3386 2011.5379,-95.4121"/>
<polygon fill="#191970" stroke="#191970" points="2012.8447,-98.6647 2021.1859,-92.1321 2010.5915,-92.0372 2012.8447,-98.6647"/>
</g>
<!-- Node50&#45;&gt;Node33 -->
<g id="edge81" class="edge">
<title>Node50&#45;&gt;Node33</title>
<path fill="none" stroke="#191970" d="M1812.9716,-141.7843C1880.2081,-136.4169 2051.9455,-121.4107 2194,-98 2206.3243,-95.9689 2219.7347,-93.1907 2231.548,-90.547"/>
<polygon fill="#191970" stroke="#191970" points="2232.4838,-93.9234 2241.4508,-88.2805 2230.922,-87.0998 2232.4838,-93.9234"/>
</g>
<!-- Node50&#45;&gt;Node37 -->
<g id="edge73" class="edge">
<title>Node50&#45;&gt;Node37</title>
<path fill="none" stroke="#191970" d="M1812.5884,-136.8429C1857.988,-125.4039 1942.8079,-103.7066 1956,-98 1961.7476,-95.5138 2028.2045,-53.8152 2064.9419,-30.6766"/>
<polygon fill="#191970" stroke="#191970" points="2066.9924,-33.5215 2073.5866,-25.229 2063.2603,-27.5994 2066.9924,-33.5215"/>
</g>
<!-- Node50&#45;&gt;Node38 -->
<g id="edge77" class="edge">
<title>Node50&#45;&gt;Node38</title>
<path fill="none" stroke="#191970" d="M1812.6339,-136.4347C1853.0175,-125.5651 1922.834,-105.9629 1932,-98 1950.9956,-81.4977 1961.4326,-53.716 1966.6191,-35.003"/>
<polygon fill="#191970" stroke="#191970" points="1970.043,-35.7388 1969.0911,-25.1868 1963.2549,-34.0293 1970.043,-35.7388"/>
</g>
<!-- Node51 -->
<g id="node52" class="node">
<title>Node51</title>
<polygon fill="none" stroke="#bfbfbf" points="1657,-73 1657,-92 1705,-92 1705,-73 1657,-73"/>
<text text-anchor="middle" x="1681" y="-80" font-family="Helvetica,sans-Serif" font-size="10.00" fill="#000000">thread</text>
</g>
<!-- Node50&#45;&gt;Node51 -->
<g id="edge76" class="edge">
<title>Node50&#45;&gt;Node51</title>
<path fill="none" stroke="#191970" d="M1767.9063,-134.3906C1751.2772,-124.4616 1725.1024,-108.833 1705.8206,-97.3201"/>
<polygon fill="#191970" stroke="#191970" points="1707.361,-94.1634 1696.9807,-92.0419 1703.7724,-100.1736 1707.361,-94.1634"/>
</g>
<!-- Node52 -->
<g id="node53" class="node">
<title>Node52</title>
<polygon fill="none" stroke="#bfbfbf" points="1723,-67.5 1723,-97.5 1845,-97.5 1845,-67.5 1723,-67.5"/>
<text text-anchor="start" x="1731" y="-85.5" font-family="Helvetica,sans-Serif" font-size="10.00" fill="#000000">boost/iterator/iterator</text>
<text text-anchor="middle" x="1784" y="-74.5" font-family="Helvetica,sans-Serif" font-size="10.00" fill="#000000">_facade.hpp</text>
</g>
<!-- Node50&#45;&gt;Node52 -->
<g id="edge78" class="edge">
<title>Node50&#45;&gt;Node52</title>
<path fill="none" stroke="#191970" d="M1784,-134.3906C1784,-127.2234 1784,-117.0862 1784,-107.671"/>
<polygon fill="#191970" stroke="#191970" points="1787.5001,-107.5446 1784,-97.5446 1780.5001,-107.5446 1787.5001,-107.5446"/>
</g>
<!-- Node53 -->
<g id="node54" class="node">
<title>Node53</title>
<polygon fill="none" stroke="#bfbfbf" points="1863.5,-73 1863.5,-92 1922.5,-92 1922.5,-73 1863.5,-73"/>
<text text-anchor="middle" x="1893" y="-80" font-family="Helvetica,sans-Serif" font-size="10.00" fill="#000000">sqlite3.h</text>
</g>
<!-- Node50&#45;&gt;Node53 -->
<g id="edge79" class="edge">
<title>Node50&#45;&gt;Node53</title>
<path fill="none" stroke="#191970" d="M1801.0313,-134.3906C1818.789,-124.3713 1846.833,-108.5483 1867.2882,-97.0071"/>
<polygon fill="#191970" stroke="#191970" points="1869.0989,-100.0042 1876.0883,-92.0419 1865.6591,-93.9077 1869.0989,-100.0042"/>
</g>
<!-- Node50&#45;&gt;Node54 -->
<g id="edge80" class="edge">
<title>Node50&#45;&gt;Node54</title>
<path fill="none" stroke="#191970" d="M1812.5684,-142.7759C1910.3433,-138.403 2231.0329,-122.4957 2331,-98 2333.636,-97.3541 2336.3268,-96.5457 2338.9947,-95.6392"/>
<polygon fill="#191970" stroke="#191970" points="2340.3234,-98.8784 2348.4173,-92.0417 2337.8266,-92.3387 2340.3234,-98.8784"/>
</g>
</g>
</svg>
