<?xml version="1.0" encoding="UTF-8" standalone="no"?>
<!DOCTYPE svg PUBLIC "-//W3C//DTD SVG 1.1//EN"
 "http://www.w3.org/Graphics/SVG/1.1/DTD/svg11.dtd">
<!-- Generated by graphviz version 2.40.1 (20161225.0304)
 -->
<!-- Title: /travis/pairinteraction/SystemOne.cpp Pages: 1 -->
<!--zoomable 609 -->
<svg id="main" version="1.1" xmlns="http://www.w3.org/2000/svg" xmlns:xlink="http://www.w3.org/1999/xlink" xml:space="preserve" onload="init(evt)">
<style type="text/css"><![CDATA[
.edge:hover path { stroke: red; }
.edge:hover polygon { stroke: red; fill: red; }
]]></style>
<script type="text/javascript"><![CDATA[
var edges = document.getElementsByTagName('g');
if (edges && edges.length) {
  for (var i=0;i<edges.length;i++) {
    if (edges[i].id.substr(0,4)=='edge') {
      edges[i].setAttribute('class','edge');
    }
  }
}
]]></script>
        <defs>
                <circle id="rim" cx="0" cy="0" r="7"/>
                <circle id="rim2" cx="0" cy="0" r="3.5"/>
                <g id="zoomPlus">
                        <use xlink:href="#rim" fill="#404040">
                                <set attributeName="fill" to="#808080" begin="zoomplus.mouseover" end="zoomplus.mouseout"/>
                        </use>
                        <path d="M-4,0h8M0,-4v8" fill="none" stroke="white" stroke-width="1.5" pointer-events="none"/>
                </g>
                <g id="zoomMin">
                        <use xlink:href="#rim" fill="#404040">
                                <set attributeName="fill" to="#808080" begin="zoomminus.mouseover" end="zoomminus.mouseout"/>
                        </use>
                        <path d="M-4,0h8" fill="none" stroke="white" stroke-width="1.5" pointer-events="none"/>
                </g>
                <g id="dirArrow">
                        <path fill="none" stroke="white" stroke-width="1.5" d="M0,-3.0v7 M-2.5,-0.5L0,-3.0L2.5,-0.5"/>
                </g>
               <g id="resetDef">
                       <use xlink:href="#rim2" fill="#404040">
                               <set attributeName="fill" to="#808080" begin="reset.mouseover" end="reset.mouseout"/>
                       </use>
               </g>
        </defs>

<script type="text/javascript">
var viewWidth = 3855;
var viewHeight = 609;
var sectionId = 'dynsection-0';
</script>
<script xlink:href="svgpan.js"/>
<svg id="graph" class="graph">
<g id="viewport">
<title>/travis/pairinteraction/SystemOne.cpp</title>
<!-- Node0 -->
<g id="node1" class="node">
<title>Node0</title>
<polygon fill="#bfbfbf" stroke="#000000" points="2102,-570.5 2102,-600.5 2224,-600.5 2224,-570.5 2102,-570.5"/>
<text text-anchor="start" x="2110" y="-588.5" font-family="Helvetica,sans-Serif" font-size="10.00" fill="#000000">/travis/pairinteraction</text>
<text text-anchor="middle" x="2163" y="-577.5" font-family="Helvetica,sans-Serif" font-size="10.00" fill="#000000">/SystemOne.cpp</text>
</g>
<!-- Node1 -->
<g id="node2" class="node">
<title>Node1</title>
<g id="a_node2"><a xlink:href="SystemOne_8h.html" target="_top" xlink:title="SystemOne.h">
<polygon fill="none" stroke="#000000" points="2942,-514.5 2942,-533.5 3024,-533.5 3024,-514.5 2942,-514.5"/>
<text text-anchor="middle" x="2983" y="-521.5" font-family="Helvetica,sans-Serif" font-size="10.00" fill="#000000">SystemOne.h</text>
</a>
</g>
</g>
<!-- Node0&#45;&gt;Node1 -->
<g id="edge1" class="edge">
<title>Node0&#45;&gt;Node1</title>
<path fill="none" stroke="#191970" d="M2224.2979,-580.9027C2379.7309,-569.2452 2787.1304,-538.6902 2931.4261,-527.868"/>
<polygon fill="#191970" stroke="#191970" points="2932.0466,-531.3314 2941.7568,-527.0932 2931.523,-524.351 2932.0466,-531.3314"/>
</g>
<!-- Node8 -->
<g id="node9" class="node">
<title>Node8</title>
<polygon fill="none" stroke="#bfbfbf" points="2320,-62 2320,-81 2364,-81 2364,-62 2320,-62"/>
<text text-anchor="middle" x="2342" y="-69" font-family="Helvetica,sans-Serif" font-size="10.00" fill="#000000">string</text>
</g>
<!-- Node0&#45;&gt;Node8 -->
<g id="edge143" class="edge">
<title>Node0&#45;&gt;Node8</title>
<path fill="none" stroke="#191970" d="M2198.4854,-570.3824C2265.9586,-539.4208 2411.0908,-461.6498 2468,-344 2507.4617,-262.4199 2444.5962,-229.1835 2394,-154 2379.4607,-132.3953 2363.6208,-106.9698 2353.2919,-90.1141"/>
<polygon fill="#191970" stroke="#191970" points="2356.0946,-87.9877 2347.8987,-81.2737 2350.1189,-91.6333 2356.0946,-87.9877"/>
</g>
<!-- Node12 -->
<g id="node13" class="node">
<title>Node12</title>
<g id="a_node13"><a xlink:href="dtypes_8h.html" target="_top" xlink:title="dtypes.h">
<polygon fill="none" stroke="#000000" points="1621.5,-129 1621.5,-148 1680.5,-148 1680.5,-129 1621.5,-129"/>
<text text-anchor="middle" x="1651" y="-136" font-family="Helvetica,sans-Serif" font-size="10.00" fill="#000000">dtypes.h</text>
</a>
</g>
</g>
<!-- Node0&#45;&gt;Node12 -->
<g id="edge138" class="edge">
<title>Node0&#45;&gt;Node12</title>
<path fill="none" stroke="#191970" d="M2158.4465,-570.4844C2145.6428,-531.1681 2105.2585,-425.1378 2030,-380 1948.3365,-331.0207 1692.7139,-375.9268 1603,-344 1509.0386,-310.5617 1465.739,-300.1124 1423,-210 1419.1908,-201.9686 1417.4501,-196.9434 1423,-190 1446.1253,-161.0686 1552.1952,-147.2117 1611.1651,-141.6413"/>
<polygon fill="#191970" stroke="#191970" points="1611.6068,-145.1157 1621.2495,-140.7261 1610.9741,-138.1444 1611.6068,-145.1157"/>
</g>
<!-- Node16 -->
<g id="node17" class="node">
<title>Node16</title>
<polygon fill="none" stroke="#bfbfbf" points="679.5,-62 679.5,-81 726.5,-81 726.5,-62 679.5,-62"/>
<text text-anchor="middle" x="703" y="-69" font-family="Helvetica,sans-Serif" font-size="10.00" fill="#000000">cmath</text>
</g>
<!-- Node0&#45;&gt;Node16 -->
<g id="edge140" class="edge">
<title>Node0&#45;&gt;Node16</title>
<path fill="none" stroke="#191970" d="M2101.9462,-584.689C1795.1885,-580.4976 433.4687,-560.4619 348,-534 205.7397,-489.9549 136.9954,-477.9909 72,-344 43.4235,-285.0883 125.4659,-279.0319 182,-246 283.1059,-186.9255 303.9119,-160.0355 415,-123 503.9931,-93.3307 614.4758,-79.6662 669.1232,-74.3556"/>
<polygon fill="#191970" stroke="#191970" points="669.6558,-77.8211 679.2853,-73.4026 669.0021,-70.8517 669.6558,-77.8211"/>
</g>
<!-- Node18 -->
<g id="node19" class="node">
<title>Node18</title>
<polygon fill="none" stroke="#bfbfbf" points="1271.5,-62 1271.5,-81 1318.5,-81 1318.5,-62 1271.5,-62"/>
<text text-anchor="middle" x="1295" y="-69" font-family="Helvetica,sans-Serif" font-size="10.00" fill="#000000">vector</text>
</g>
<!-- Node0&#45;&gt;Node18 -->
<g id="edge147" class="edge">
<title>Node0&#45;&gt;Node18</title>
<path fill="none" stroke="#191970" d="M2101.6381,-585.1363C1843.245,-583.3624 842.6556,-573.9981 530,-534 385.8355,-515.557 294.0286,-539.9602 227,-411 206.5767,-371.7065 182.2225,-348.2711 209,-313 256.5011,-250.4319 812.9982,-138.5515 890,-123 1026.1321,-95.5064 1191.1359,-79.9295 1261.0644,-74.1339"/>
<polygon fill="#191970" stroke="#191970" points="1261.3828,-77.6196 1271.0652,-73.3184 1260.8138,-70.6428 1261.3828,-77.6196"/>
</g>
<!-- Node27 -->
<g id="node28" class="node">
<title>Node27</title>
<polygon fill="none" stroke="#bfbfbf" points="1171,-190.5 1171,-209.5 1257,-209.5 1257,-190.5 1171,-190.5"/>
<text text-anchor="middle" x="1214" y="-197.5" font-family="Helvetica,sans-Serif" font-size="10.00" fill="#000000">unordered_set</text>
</g>
<!-- Node0&#45;&gt;Node27 -->
<g id="edge145" class="edge">
<title>Node0&#45;&gt;Node27</title>
<path fill="none" stroke="#191970" d="M2101.6963,-581.8715C1912.0484,-570.1234 1343.857,-530.8059 1281,-478 1202.5463,-412.0914 1207.0448,-271.7611 1211.7345,-219.848"/>
<polygon fill="#191970" stroke="#191970" points="1215.2411,-219.9587 1212.766,-209.657 1208.2766,-219.2537 1215.2411,-219.9587"/>
</g>
<!-- Node37 -->
<g id="node38" class="node">
<title>Node37</title>
<polygon fill="none" stroke="#bfbfbf" points="3392.5,-.5 3392.5,-19.5 3461.5,-19.5 3461.5,-.5 3392.5,-.5"/>
<text text-anchor="middle" x="3427" y="-7.5" font-family="Helvetica,sans-Serif" font-size="10.00" fill="#000000">type_traits</text>
</g>
<!-- Node0&#45;&gt;Node37 -->
<g id="edge144" class="edge">
<title>Node0&#45;&gt;Node37</title>
<path fill="none" stroke="#191970" d="M2224.4836,-584.071C2518.7354,-576.8368 3769,-541.4535 3769,-462.5 3769,-462.5 3769,-462.5 3769,-138.5 3769,-96.7335 3758.1726,-80.0141 3724,-56 3684.1753,-28.014 3544.6457,-16.3875 3471.8954,-12.1396"/>
<polygon fill="#191970" stroke="#191970" points="3471.8466,-8.6315 3461.6661,-11.5654 3471.4542,-15.6205 3471.8466,-8.6315"/>
</g>
<!-- Node40 -->
<g id="node41" class="node">
<title>Node40</title>
<polygon fill="none" stroke="#bfbfbf" points="2842.5,-62 2842.5,-81 2887.5,-81 2887.5,-62 2842.5,-62"/>
<text text-anchor="middle" x="2865" y="-69" font-family="Helvetica,sans-Serif" font-size="10.00" fill="#000000">utility</text>
</g>
<!-- Node0&#45;&gt;Node40 -->
<g id="edge146" class="edge">
<title>Node0&#45;&gt;Node40</title>
<path fill="none" stroke="#191970" d="M2224.0394,-583.51C2366.1636,-578.5221 2730.1388,-563.7038 3033,-534 3215.1594,-516.1343 3274.3427,-553.6742 3441,-478 3482.3051,-459.2446 3499.1978,-452.2838 3518,-411 3579.965,-274.9436 3493.6175,-316.7775 3275,-246 3150.1772,-205.5886 3093.1216,-279.7553 2982,-210 2943.0533,-185.5517 2956.3484,-157.5477 2926,-123 2914.2574,-109.6326 2898.9523,-96.7212 2886.6106,-87.17"/>
<polygon fill="#191970" stroke="#191970" points="2888.7079,-84.3679 2878.6199,-81.1301 2884.4869,-89.9521 2888.7079,-84.3679"/>
</g>
<!-- Node48 -->
<g id="node49" class="node">
<title>Node48</title>
<polygon fill="none" stroke="#bfbfbf" points="1432,-190.5 1432,-209.5 1476,-209.5 1476,-190.5 1432,-190.5"/>
<text text-anchor="middle" x="1454" y="-197.5" font-family="Helvetica,sans-Serif" font-size="10.00" fill="#000000">limits</text>
</g>
<!-- Node0&#45;&gt;Node48 -->
<g id="edge141" class="edge">
<title>Node0&#45;&gt;Node48</title>
<path fill="none" stroke="#191970" d="M2166.8406,-570.3598C2175.5347,-532.1161 2192.0689,-431.0472 2139,-380 2064.4644,-308.3038 1772.9255,-377.2642 1675,-344 1591.1019,-315.5008 1507.7793,-247.8211 1472.0894,-216.4676"/>
<polygon fill="#191970" stroke="#191970" points="1474.245,-213.7006 1464.4484,-209.6662 1469.5908,-218.9293 1474.245,-213.7006"/>
</g>
<!-- Node58 -->
<g id="node59" class="node">
<title>Node58</title>
<polygon fill="none" stroke="#bfbfbf" points="354,-319 354,-338 410,-338 410,-319 354,-319"/>
<text text-anchor="middle" x="382" y="-326" font-family="Helvetica,sans-Serif" font-size="10.00" fill="#000000">numeric</text>
</g>
<!-- Node0&#45;&gt;Node58 -->
<g id="edge142" class="edge">
<title>Node0&#45;&gt;Node58</title>
<path fill="none" stroke="#191970" d="M2101.9238,-583.6144C1952.1054,-578.6705 1554.513,-563.6221 1224,-534 1003.8525,-514.2694 383.3092,-576.6739 237,-411 227.8799,-400.6728 228.944,-391.1771 237,-380 266.5843,-338.954 297.6332,-361.7873 345,-344 346.8093,-343.3206 348.6611,-342.6063 350.5249,-341.8728"/>
<polygon fill="#191970" stroke="#191970" points="351.8477,-345.1132 359.8033,-338.1161 349.2206,-338.6249 351.8477,-345.1132"/>
</g>
<!-- Node72 -->
<g id="node73" class="node">
<title>Node72</title>
<polygon fill="none" stroke="#bfbfbf" points="3797.5,-514.5 3797.5,-533.5 3846.5,-533.5 3846.5,-514.5 3797.5,-514.5"/>
<text text-anchor="middle" x="3822" y="-521.5" font-family="Helvetica,sans-Serif" font-size="10.00" fill="#000000">cctype</text>
</g>
<!-- Node0&#45;&gt;Node72 -->
<g id="edge139" class="edge">
<title>Node0&#45;&gt;Node72</title>
<path fill="none" stroke="#191970" d="M2224.3376,-585.3468C2481.4819,-584.4276 3473.5976,-578.0406 3783,-534 3784.4705,-533.7907 3785.9656,-533.5472 3787.4711,-533.2767"/>
<polygon fill="#191970" stroke="#191970" points="3788.3479,-536.6688 3797.4067,-531.1744 3786.8987,-529.8204 3788.3479,-536.6688"/>
</g>
<!-- Node2 -->
<g id="node3" class="node">
<title>Node2</title>
<g id="a_node3"><a xlink:href="State_8h.html" target="_top" xlink:title="State.h">
<polygon fill="none" stroke="#000000" points="2642.5,-386 2642.5,-405 2693.5,-405 2693.5,-386 2642.5,-386"/>
<text text-anchor="middle" x="2668" y="-393" font-family="Helvetica,sans-Serif" font-size="10.00" fill="#000000">State.h</text>
</a>
</g>
</g>
<!-- Node1&#45;&gt;Node2 -->
<g id="edge2" class="edge">
<title>Node1&#45;&gt;Node2</title>
<path fill="none" stroke="#191970" d="M2983.5574,-514.3129C2983.9285,-497.8763 2982.0915,-464.5994 2963,-447 2925.7317,-412.6445 2774.0901,-400.7467 2703.9285,-397.027"/>
<polygon fill="#191970" stroke="#191970" points="2703.9573,-393.5242 2693.794,-396.5169 2703.6053,-400.5153 2703.9573,-393.5242"/>
</g>
<!-- Node15 -->
<g id="node16" class="node">
<title>Node15</title>
<polygon fill="none" stroke="#bfbfbf" points="3343,-62 3343,-81 3385,-81 3385,-62 3343,-62"/>
<text text-anchor="middle" x="3364" y="-69" font-family="Helvetica,sans-Serif" font-size="10.00" fill="#000000">array</text>
</g>
<!-- Node1&#45;&gt;Node15 -->
<g id="edge130" class="edge">
<title>Node1&#45;&gt;Node15</title>
<path fill="none" stroke="#191970" d="M3024.3968,-522.6664C3147.8609,-517.5766 3505,-494.3137 3505,-395.5 3505,-395.5 3505,-395.5 3505,-261.5 3505,-183.2132 3426.8515,-116.1852 3386.9138,-87.0422"/>
<polygon fill="#191970" stroke="#191970" points="3388.7342,-84.0418 3378.5584,-81.0916 3384.6734,-89.7436 3388.7342,-84.0418"/>
</g>
<!-- Node1&#45;&gt;Node16 -->
<g id="edge134" class="edge">
<title>Node1&#45;&gt;Node16</title>
<path fill="none" stroke="#191970" d="M2941.8688,-523.8504C2603.6114,-522.4364 290.5749,-509.188 185,-411 10.04,-248.2817 529.0985,-112.2519 669.166,-79.1779"/>
<polygon fill="#191970" stroke="#191970" points="670.3816,-82.4881 679.3225,-76.8039 668.7884,-75.6719 670.3816,-82.4881"/>
</g>
<!-- Node19 -->
<g id="node20" class="node">
<title>Node19</title>
<polygon fill="none" stroke="#bfbfbf" points="3219.5,-129 3219.5,-148 3362.5,-148 3362.5,-129 3219.5,-129"/>
<text text-anchor="middle" x="3291" y="-136" font-family="Helvetica,sans-Serif" font-size="10.00" fill="#000000">boost/functional/hash.hpp</text>
</g>
<!-- Node1&#45;&gt;Node19 -->
<g id="edge131" class="edge">
<title>Node1&#45;&gt;Node19</title>
<path fill="none" stroke="#191970" d="M3024.3665,-519.8796C3128.0919,-508.4081 3391,-471.8057 3391,-395.5 3391,-395.5 3391,-395.5 3391,-328.5 3391,-257.6685 3335.9044,-187.3068 3307.5042,-155.7424"/>
<polygon fill="#191970" stroke="#191970" points="3309.9388,-153.2195 3300.5884,-148.2373 3304.791,-157.963 3309.9388,-153.2195"/>
</g>
<!-- Node26 -->
<g id="node27" class="node">
<title>Node26</title>
<polygon fill="none" stroke="#bfbfbf" points="1969,-190.5 1969,-209.5 2001,-209.5 2001,-190.5 1969,-190.5"/>
<text text-anchor="middle" x="1985" y="-197.5" font-family="Helvetica,sans-Serif" font-size="10.00" fill="#000000">set</text>
</g>
<!-- Node1&#45;&gt;Node26 -->
<g id="edge135" class="edge">
<title>Node1&#45;&gt;Node26</title>
<path fill="none" stroke="#191970" d="M2941.9512,-516.4973C2743.38,-480.018 1890.5253,-321.1461 1855,-277 1846.3622,-266.2661 1847.0469,-257.2505 1855,-246 1867.2109,-228.7264 1924.5115,-213.3808 1958.8314,-205.5328"/>
<polygon fill="#191970" stroke="#191970" points="1959.6681,-208.9323 1968.6693,-203.344 1958.1478,-202.0993 1959.6681,-208.9323"/>
</g>
<!-- Node32 -->
<g id="node33" class="node">
<title>Node32</title>
<polygon fill="none" stroke="#bfbfbf" points="3594.5,-62 3594.5,-81 3687.5,-81 3687.5,-62 3594.5,-62"/>
<text text-anchor="middle" x="3641" y="-69" font-family="Helvetica,sans-Serif" font-size="10.00" fill="#000000">unordered_map</text>
</g>
<!-- Node1&#45;&gt;Node32 -->
<g id="edge137" class="edge">
<title>Node1&#45;&gt;Node32</title>
<path fill="none" stroke="#191970" d="M3024.1905,-523.0406C3122.1821,-520.2533 3366.5481,-510.1896 3441,-478 3596.9755,-410.5634 3605.6045,-319.535 3644,-154 3648.8414,-133.1272 3647.0051,-108.4976 3644.6393,-91.6174"/>
<polygon fill="#191970" stroke="#191970" points="3648.0265,-90.633 3642.9924,-81.3106 3641.1142,-91.7376 3648.0265,-90.633"/>
</g>
<!-- Node1&#45;&gt;Node37 -->
<g id="edge136" class="edge">
<title>Node1&#45;&gt;Node37</title>
<path fill="none" stroke="#191970" d="M3024.0215,-523.1095C3128.1324,-520.3938 3400.2755,-510.3223 3484,-478 3553.5926,-451.1334 3731,-263.6397 3731,-261.5 3731,-261.5 3731,-261.5 3731,-138.5 3731,-98.6701 3727.2327,-80.7171 3696,-56 3662.0565,-29.1376 3539.5226,-17.1869 3472.1572,-12.5463"/>
<polygon fill="#191970" stroke="#191970" points="3472.0507,-9.0317 3461.8412,-11.8631 3471.588,-16.0164 3472.0507,-9.0317"/>
</g>
<!-- Node51 -->
<g id="node52" class="node">
<title>Node51</title>
<polygon fill="none" stroke="#bfbfbf" points="3131.5,-246.5 3131.5,-276.5 3248.5,-276.5 3248.5,-246.5 3131.5,-246.5"/>
<text text-anchor="start" x="3139.5" y="-264.5" font-family="Helvetica,sans-Serif" font-size="10.00" fill="#000000">boost/serialization</text>
<text text-anchor="middle" x="3190" y="-253.5" font-family="Helvetica,sans-Serif" font-size="10.00" fill="#000000">/unordered_map.hpp</text>
</g>
<!-- Node1&#45;&gt;Node51 -->
<g id="edge133" class="edge">
<title>Node1&#45;&gt;Node51</title>
<path fill="none" stroke="#191970" d="M2990.6127,-514.3462C3020.1767,-476.8556 3127.8858,-340.268 3171.4881,-284.9752"/>
<polygon fill="#191970" stroke="#191970" points="3174.47,-286.8462 3177.9138,-276.8267 3168.9734,-282.5117 3174.47,-286.8462"/>
</g>
<!-- Node54 -->
<g id="node55" class="node">
<title>Node54</title>
<g id="a_node55"><a xlink:href="SystemBase_8h.html" target="_top" xlink:title="SystemBase.h">
<polygon fill="none" stroke="#000000" points="1290,-453 1290,-472 1376,-472 1376,-453 1290,-453"/>
<text text-anchor="middle" x="1333" y="-460" font-family="Helvetica,sans-Serif" font-size="10.00" fill="#000000">SystemBase.h</text>
</a>
</g>
</g>
<!-- Node1&#45;&gt;Node54 -->
<g id="edge92" class="edge">
<title>Node1&#45;&gt;Node54</title>
<path fill="none" stroke="#191970" d="M2941.8016,-522.4644C2716.9418,-514.0833 1638.7893,-473.8976 1386.0843,-464.4786"/>
<polygon fill="#191970" stroke="#191970" points="1386.1795,-460.9798 1376.056,-464.1048 1385.9187,-467.975 1386.1795,-460.9798"/>
</g>
<!-- Node71 -->
<g id="node72" class="node">
<title>Node71</title>
<polygon fill="none" stroke="#bfbfbf" points="2847.5,-447.5 2847.5,-477.5 2954.5,-477.5 2954.5,-447.5 2847.5,-447.5"/>
<text text-anchor="start" x="2855.5" y="-465.5" font-family="Helvetica,sans-Serif" font-size="10.00" fill="#000000">boost/serialization</text>
<text text-anchor="middle" x="2901" y="-454.5" font-family="Helvetica,sans-Serif" font-size="10.00" fill="#000000">/base_object.hpp</text>
</g>
<!-- Node1&#45;&gt;Node71 -->
<g id="edge132" class="edge">
<title>Node1&#45;&gt;Node71</title>
<path fill="none" stroke="#191970" d="M2970.1875,-514.3906C2959.2953,-506.2215 2943.2588,-494.1941 2929.3669,-483.7752"/>
<polygon fill="#191970" stroke="#191970" points="2931.1595,-480.7446 2921.0595,-477.5446 2926.9595,-486.3446 2931.1595,-480.7446"/>
</g>
<!-- Node3 -->
<g id="node4" class="node">
<title>Node3</title>
<g id="a_node4"><a xlink:href="MatrixElementCache_8h.html" target="_top" xlink:title="MatrixElementCache.h">
<polygon fill="none" stroke="#000000" points="2309.5,-319 2309.5,-338 2436.5,-338 2436.5,-319 2309.5,-319"/>
<text text-anchor="middle" x="2373" y="-326" font-family="Helvetica,sans-Serif" font-size="10.00" fill="#000000">MatrixElementCache.h</text>
</a>
</g>
</g>
<!-- Node2&#45;&gt;Node3 -->
<g id="edge3" class="edge">
<title>Node2&#45;&gt;Node3</title>
<path fill="none" stroke="#191970" d="M2642.3122,-390.5188C2592.6366,-380.0045 2483.3116,-355.2923 2420.2254,-340.4314"/>
<polygon fill="#191970" stroke="#191970" points="2420.6747,-336.9412 2410.1375,-338.0452 2419.0633,-343.7532 2420.6747,-336.9412"/>
</g>
<!-- Node2&#45;&gt;Node8 -->
<g id="edge87" class="edge">
<title>Node2&#45;&gt;Node8</title>
<path fill="none" stroke="#191970" d="M2662.8986,-385.8512C2643.239,-348.9919 2571.6141,-217.753 2534,-190 2496.9975,-162.6982 2476.5535,-177.454 2437,-154 2406.2048,-135.7393 2375.9017,-107.0446 2358.0834,-88.761"/>
<polygon fill="#191970" stroke="#191970" points="2360.2604,-85.9736 2350.8182,-81.1679 2355.2027,-90.813 2360.2604,-85.9736"/>
</g>
<!-- Node2&#45;&gt;Node12 -->
<g id="edge82" class="edge">
<title>Node2&#45;&gt;Node12</title>
<path fill="none" stroke="#191970" d="M2642.4049,-394.3665C2491.7031,-387.4545 1724.1421,-348.8708 1651,-277 1619.5335,-246.0804 1633.1695,-188.3427 1643.4223,-158.1075"/>
<polygon fill="#191970" stroke="#191970" points="1646.8544,-158.9076 1646.9567,-148.3132 1640.27,-156.5314 1646.8544,-158.9076"/>
</g>
<!-- Node2&#45;&gt;Node15 -->
<g id="edge83" class="edge">
<title>Node2&#45;&gt;Node15</title>
<path fill="none" stroke="#191970" d="M2693.7023,-394.3497C2761.2363,-390.9187 2948.9702,-378.7426 3101,-344 3190.3366,-323.5843 3218.2691,-325.536 3296,-277 3353.9054,-240.8432 3373.7731,-220.7678 3388,-154 3390.8713,-140.5247 3390.9805,-136.4515 3388,-123 3385.466,-111.5636 3380.1188,-99.6558 3375.1134,-90.1747"/>
<polygon fill="#191970" stroke="#191970" points="3378.0854,-88.318 3370.1534,-81.2943 3371.9741,-91.7315 3378.0854,-88.318"/>
</g>
<!-- Node2&#45;&gt;Node16 -->
<g id="edge85" class="edge">
<title>Node2&#45;&gt;Node16</title>
<path fill="none" stroke="#191970" d="M2642.4759,-394.7519C2503.2623,-390.5802 1838.6639,-369.4608 1751,-344 1619.8152,-305.8991 1613.6075,-236.0571 1485,-190 1342.9147,-139.1162 868.2552,-88.2452 736.9288,-74.8826"/>
<polygon fill="#191970" stroke="#191970" points="736.9838,-71.3703 726.6821,-73.8454 736.2788,-78.3347 736.9838,-71.3703"/>
</g>
<!-- Node2&#45;&gt;Node19 -->
<g id="edge84" class="edge">
<title>Node2&#45;&gt;Node19</title>
<path fill="none" stroke="#191970" d="M2693.5082,-386.1157C2764.6329,-359.8078 2970.9632,-282.5223 3139,-210 3182.4891,-191.2307 3231.9801,-167.4966 3262.3509,-152.6529"/>
<polygon fill="#191970" stroke="#191970" points="3264.0697,-155.7083 3271.5079,-148.1635 3260.9882,-149.4231 3264.0697,-155.7083"/>
</g>
<!-- Node20 -->
<g id="node21" class="node">
<title>Node20</title>
<polygon fill="none" stroke="#bfbfbf" points="3265,-62 3265,-81 3325,-81 3325,-62 3265,-62"/>
<text text-anchor="middle" x="3295" y="-69" font-family="Helvetica,sans-Serif" font-size="10.00" fill="#000000">iostream</text>
</g>
<!-- Node2&#45;&gt;Node20 -->
<g id="edge86" class="edge">
<title>Node2&#45;&gt;Node20</title>
<path fill="none" stroke="#191970" d="M2693.7297,-392.4575C2793.8603,-380.2952 3156.9174,-333.1065 3257,-277 3322.0161,-240.5519 3343.7884,-223.3908 3371,-154 3376.03,-141.1732 3377.4552,-135.172 3371,-123 3362.1358,-106.2856 3345.1517,-93.999 3329.4837,-85.6276"/>
<polygon fill="#191970" stroke="#191970" points="3330.9941,-82.4697 3320.4821,-81.1471 3327.8749,-88.7364 3330.9941,-82.4697"/>
</g>
<!-- Node21 -->
<g id="node22" class="node">
<title>Node21</title>
<polygon fill="none" stroke="#bfbfbf" points="2730.5,-123.5 2730.5,-153.5 2837.5,-153.5 2837.5,-123.5 2730.5,-123.5"/>
<text text-anchor="start" x="2738.5" y="-141.5" font-family="Helvetica,sans-Serif" font-size="10.00" fill="#000000">boost/serialization</text>
<text text-anchor="middle" x="2784" y="-130.5" font-family="Helvetica,sans-Serif" font-size="10.00" fill="#000000">/array.hpp</text>
</g>
<!-- Node2&#45;&gt;Node21 -->
<g id="edge89" class="edge">
<title>Node2&#45;&gt;Node21</title>
<path fill="none" stroke="#191970" d="M2693.7035,-385.8562C2712.0813,-377.59 2735.8098,-363.8463 2749,-344 2786.2377,-287.9711 2787.8509,-204.9583 2785.9415,-163.6909"/>
<polygon fill="#191970" stroke="#191970" points="2789.4341,-163.4604 2785.3681,-153.6769 2782.4456,-163.8606 2789.4341,-163.4604"/>
</g>
<!-- Node22 -->
<g id="node23" class="node">
<title>Node22</title>
<polygon fill="none" stroke="#bfbfbf" points="2446.5,-123.5 2446.5,-153.5 2553.5,-153.5 2553.5,-123.5 2446.5,-123.5"/>
<text text-anchor="start" x="2454.5" y="-141.5" font-family="Helvetica,sans-Serif" font-size="10.00" fill="#000000">boost/serialization</text>
<text text-anchor="middle" x="2500" y="-130.5" font-family="Helvetica,sans-Serif" font-size="10.00" fill="#000000">/string.hpp</text>
</g>
<!-- Node2&#45;&gt;Node22 -->
<g id="edge90" class="edge">
<title>Node2&#45;&gt;Node22</title>
<path fill="none" stroke="#191970" d="M2666.1833,-385.9094C2659.6341,-353.8213 2634.3548,-248.9249 2574,-190 2562.2613,-178.5395 2547.7304,-167.8305 2534.6614,-159.1788"/>
<polygon fill="#191970" stroke="#191970" points="2536.2014,-156.0076 2525.8994,-153.5339 2532.4103,-161.8921 2536.2014,-156.0076"/>
</g>
<!-- Node23 -->
<g id="node24" class="node">
<title>Node23</title>
<polygon fill="none" stroke="#bfbfbf" points="2610,-129 2610,-148 2712,-148 2712,-129 2610,-129"/>
<text text-anchor="middle" x="2661" y="-136" font-family="Helvetica,sans-Serif" font-size="10.00" fill="#000000">boost/variant.hpp</text>
</g>
<!-- Node2&#45;&gt;Node23 -->
<g id="edge91" class="edge">
<title>Node2&#45;&gt;Node23</title>
<path fill="none" stroke="#191970" d="M2687.9922,-385.9787C2703.4488,-377.3987 2723.7243,-363.1834 2733,-344 2738.9976,-331.5961 2734.5915,-326.6855 2733,-313 2726.5121,-257.2104 2729.1165,-240.2367 2704,-190 2697.5704,-177.14 2687.344,-164.708 2678.477,-155.2813"/>
<polygon fill="#191970" stroke="#191970" points="2680.9619,-152.8164 2671.4617,-148.1262 2675.9635,-157.7171 2680.9619,-152.8164"/>
</g>
<!-- Node53 -->
<g id="node54" class="node">
<title>Node53</title>
<polygon fill="none" stroke="#bfbfbf" points="2667.5,-319 2667.5,-338 2724.5,-338 2724.5,-319 2667.5,-319"/>
<text text-anchor="middle" x="2696" y="-326" font-family="Helvetica,sans-Serif" font-size="10.00" fill="#000000">typeinfo</text>
</g>
<!-- Node2&#45;&gt;Node53 -->
<g id="edge88" class="edge">
<title>Node2&#45;&gt;Node53</title>
<path fill="none" stroke="#191970" d="M2672.0117,-385.9005C2676.1702,-375.95 2682.7818,-360.1292 2688.0117,-347.6147"/>
<polygon fill="#191970" stroke="#191970" points="2691.3691,-348.658 2691.9957,-338.0817 2684.9104,-345.9588 2691.3691,-348.658"/>
</g>
<!-- Node3&#45;&gt;Node2 -->
<g id="edge34" class="edge">
<title>Node3&#45;&gt;Node2</title>
<path fill="none" stroke="#191970" d="M2419.9145,-338.0446C2479.0378,-350.904 2579.1144,-373.6386 2632.3659,-386.3123"/>
<polygon fill="#191970" stroke="#191970" points="2631.8257,-389.7818 2642.3659,-388.707 2633.456,-382.9743 2631.8257,-389.7818"/>
</g>
<!-- Node4 -->
<g id="node5" class="node">
<title>Node4</title>
<g id="a_node5"><a xlink:href="Basisnames_8h.html" target="_top" xlink:title="Basisnames.h">
<polygon fill="none" stroke="#000000" points="1684.5,-252 1684.5,-271 1769.5,-271 1769.5,-252 1684.5,-252"/>
<text text-anchor="middle" x="1727" y="-259" font-family="Helvetica,sans-Serif" font-size="10.00" fill="#000000">Basisnames.h</text>
</a>
</g>
</g>
<!-- Node3&#45;&gt;Node4 -->
<g id="edge4" class="edge">
<title>Node3&#45;&gt;Node4</title>
<path fill="none" stroke="#191970" d="M2309.1572,-322.5963C2211.3315,-313.4498 2018.49,-295.0239 1855,-277 1830.1915,-274.265 1802.7118,-270.9721 1779.594,-268.1261"/>
<polygon fill="#191970" stroke="#191970" points="1779.9942,-264.649 1769.6402,-266.8952 1779.1351,-271.5961 1779.9942,-264.649"/>
</g>
<!-- Node7 -->
<g id="node8" class="node">
<title>Node7</title>
<polygon fill="none" stroke="#bfbfbf" points="2200,-62 2200,-81 2256,-81 2256,-62 2200,-62"/>
<text text-anchor="middle" x="2228" y="-69" font-family="Helvetica,sans-Serif" font-size="10.00" fill="#000000">sstream</text>
</g>
<!-- Node3&#45;&gt;Node7 -->
<g id="edge78" class="edge">
<title>Node3&#45;&gt;Node7</title>
<path fill="none" stroke="#191970" d="M2371.34,-318.9549C2368.3547,-303.1721 2361.2245,-270.9068 2349,-246 2326.7131,-200.5917 2310.7489,-195.6187 2282,-154 2267.0352,-132.336 2250.5592,-106.9225 2239.7902,-90.0858"/>
<polygon fill="#191970" stroke="#191970" points="2242.4895,-87.8089 2234.1636,-81.2569 2236.5863,-91.571 2242.4895,-87.8089"/>
</g>
<!-- Node3&#45;&gt;Node8 -->
<g id="edge79" class="edge">
<title>Node3&#45;&gt;Node8</title>
<path fill="none" stroke="#191970" d="M2377.8363,-318.9887C2385.1402,-303.2545 2397.1133,-271.0576 2387,-246 2374.0595,-213.9376 2358.2914,-213.5755 2333,-190 2314.7681,-173.005 2300.5461,-176.5835 2290,-154 2284.1703,-141.5163 2284.6967,-135.7162 2290,-123 2295.9239,-108.7957 2307.8831,-96.5036 2318.8403,-87.4942"/>
<polygon fill="#191970" stroke="#191970" points="2321.13,-90.1482 2326.9074,-81.2672 2316.8528,-84.607 2321.13,-90.1482"/>
</g>
<!-- Node3&#45;&gt;Node12 -->
<g id="edge70" class="edge">
<title>Node3&#45;&gt;Node12</title>
<path fill="none" stroke="#191970" d="M2309.2417,-325.9087C2141.3543,-318.8057 1698.3216,-298.1426 1675,-277 1641.8144,-246.915 1643.8787,-188.7712 1647.7049,-158.2708"/>
<polygon fill="#191970" stroke="#191970" points="1651.2155,-158.4499 1649.1879,-148.0509 1644.2881,-157.4447 1651.2155,-158.4499"/>
</g>
<!-- Node3&#45;&gt;Node19 -->
<g id="edge74" class="edge">
<title>Node3&#45;&gt;Node19</title>
<path fill="none" stroke="#191970" d="M2436.7718,-323.8709C2565.2375,-313.306 2863.3562,-282.4994 3103,-210 3123.5607,-203.7798 3127.0918,-198.0683 3147,-190 3182.2184,-175.7269 3223.0673,-161.3159 3252.2426,-151.3827"/>
<polygon fill="#191970" stroke="#191970" points="3253.6974,-154.5854 3262.047,-148.0635 3251.4528,-147.955 3253.6974,-154.5854"/>
</g>
<!-- Node25 -->
<g id="node26" class="node">
<title>Node25</title>
<polygon fill="none" stroke="#bfbfbf" points="2044,-62 2044,-81 2102,-81 2102,-62 2044,-62"/>
<text text-anchor="middle" x="2073" y="-69" font-family="Helvetica,sans-Serif" font-size="10.00" fill="#000000">memory</text>
</g>
<!-- Node3&#45;&gt;Node25 -->
<g id="edge77" class="edge">
<title>Node3&#45;&gt;Node25</title>
<path fill="none" stroke="#191970" d="M2367.7807,-318.813C2358.7101,-302.5421 2338.8096,-269.228 2316,-246 2246.8884,-175.6207 2146.5826,-113.6275 2099.402,-86.3114"/>
<polygon fill="#191970" stroke="#191970" points="2100.8505,-83.1074 2090.4347,-81.168 2097.3677,-89.1795 2100.8505,-83.1074"/>
</g>
<!-- Node28 -->
<g id="node29" class="node">
<title>Node28</title>
<g id="a_node29"><a xlink:href="Wavefunction_8h.html" target="_top" xlink:title="Wavefunction.h">
<polygon fill="none" stroke="#000000" points="1864.5,-252 1864.5,-271 1957.5,-271 1957.5,-252 1864.5,-252"/>
<text text-anchor="middle" x="1911" y="-259" font-family="Helvetica,sans-Serif" font-size="10.00" fill="#000000">Wavefunction.h</text>
</a>
</g>
</g>
<!-- Node3&#45;&gt;Node28 -->
<g id="edge35" class="edge">
<title>Node3&#45;&gt;Node28</title>
<path fill="none" stroke="#191970" d="M2309.4252,-323.4074C2228.9266,-316.2849 2086.2296,-301.4068 1966,-277 1961.2665,-276.0391 1956.3441,-274.883 1951.4758,-273.6408"/>
<polygon fill="#191970" stroke="#191970" points="1952.2022,-270.2121 1941.6371,-271.0049 1950.3907,-276.9736 1952.2022,-270.2121"/>
</g>
<!-- Node3&#45;&gt;Node32 -->
<g id="edge81" class="edge">
<title>Node3&#45;&gt;Node32</title>
<path fill="none" stroke="#191970" d="M2436.8984,-324.0147C2537.2763,-316.5913 2737.9119,-300.2297 2907,-277 2945.4669,-271.7153 3563.388,-176.5458 3595,-154 3616.4166,-138.7256 3629.0548,-110.2011 3635.507,-91.0288"/>
<polygon fill="#191970" stroke="#191970" points="3638.9242,-91.8255 3638.5413,-81.2376 3632.238,-89.7533 3638.9242,-91.8255"/>
</g>
<!-- Node41 -->
<g id="node42" class="node">
<title>Node41</title>
<g id="a_node42"><a xlink:href="utils_8h.html" target="_top" xlink:title="utils.h">
<polygon fill="none" stroke="#000000" points="2382.5,-62 2382.5,-81 2429.5,-81 2429.5,-62 2382.5,-62"/>
<text text-anchor="middle" x="2406" y="-69" font-family="Helvetica,sans-Serif" font-size="10.00" fill="#000000">utils.h</text>
</a>
</g>
</g>
<!-- Node3&#45;&gt;Node41 -->
<g id="edge71" class="edge">
<title>Node3&#45;&gt;Node41</title>
<path fill="none" stroke="#191970" d="M2380.6223,-318.9346C2387.9569,-309.0807 2398.5676,-292.9514 2403,-277 2421.3533,-210.9506 2413.8484,-128.2955 2408.9607,-91.1606"/>
<polygon fill="#191970" stroke="#191970" points="2412.4141,-90.5833 2407.5594,-81.1662 2405.4819,-91.5554 2412.4141,-90.5833"/>
</g>
<!-- Node46 -->
<g id="node47" class="node">
<title>Node46</title>
<polygon fill="none" stroke="#bfbfbf" points="2855.5,-129 2855.5,-148 2896.5,-148 2896.5,-129 2855.5,-129"/>
<text text-anchor="middle" x="2876" y="-136" font-family="Helvetica,sans-Serif" font-size="10.00" fill="#000000">tuple</text>
</g>
<!-- Node3&#45;&gt;Node46 -->
<g id="edge80" class="edge">
<title>Node3&#45;&gt;Node46</title>
<path fill="none" stroke="#191970" d="M2400.5711,-318.9628C2457.4853,-299.2023 2592.0245,-252.1114 2704,-210 2767.4995,-186.1193 2784.2292,-182.0507 2846,-154 2846.9875,-153.5516 2847.9889,-153.087 2848.9972,-152.611"/>
<polygon fill="#191970" stroke="#191970" points="2850.6383,-155.7042 2858.0603,-148.1435 2847.5433,-149.4255 2850.6383,-155.7042"/>
</g>
<!-- Node49 -->
<g id="node50" class="node">
<title>Node49</title>
<polygon fill="none" stroke="#bfbfbf" points="1975.5,-246.5 1975.5,-276.5 2178.5,-276.5 2178.5,-246.5 1975.5,-246.5"/>
<text text-anchor="start" x="1983.5" y="-264.5" font-family="Helvetica,sans-Serif" font-size="10.00" fill="#000000">wignerSymbols/include</text>
<text text-anchor="middle" x="2077" y="-253.5" font-family="Helvetica,sans-Serif" font-size="10.00" fill="#000000">/wignerSymbols/wignerSymbols&#45;cpp.h</text>
</g>
<!-- Node3&#45;&gt;Node49 -->
<g id="edge72" class="edge">
<title>Node3&#45;&gt;Node49</title>
<path fill="none" stroke="#191970" d="M2330.9048,-318.9717C2284.8305,-308.5427 2209.9998,-291.6047 2153.4847,-278.8124"/>
<polygon fill="#191970" stroke="#191970" points="2154.0392,-275.3494 2143.5132,-276.5553 2152.4937,-282.1767 2154.0392,-275.3494"/>
</g>
<!-- Node50 -->
<g id="node51" class="node">
<title>Node50</title>
<polygon fill="none" stroke="#bfbfbf" points="1242.5,-252 1242.5,-271 1361.5,-271 1361.5,-252 1242.5,-252"/>
<text text-anchor="middle" x="1302" y="-259" font-family="Helvetica,sans-Serif" font-size="10.00" fill="#000000">boost/filesystem.hpp</text>
</g>
<!-- Node3&#45;&gt;Node50 -->
<g id="edge73" class="edge">
<title>Node3&#45;&gt;Node50</title>
<path fill="none" stroke="#191970" d="M2309.2114,-324.5095C2120.8557,-312.7263 1568.0646,-278.1446 1371.9742,-265.8775"/>
<polygon fill="#191970" stroke="#191970" points="1371.9942,-262.372 1361.7952,-265.2407 1371.5571,-269.3583 1371.9942,-262.372"/>
</g>
<!-- Node3&#45;&gt;Node51 -->
<g id="edge75" class="edge">
<title>Node3&#45;&gt;Node51</title>
<path fill="none" stroke="#191970" d="M2436.8912,-325.2539C2560.9099,-318.64 2842.8327,-302.0753 3079,-277 3092.7015,-275.5452 3107.3161,-273.7093 3121.2903,-271.8144"/>
<polygon fill="#191970" stroke="#191970" points="3121.9026,-275.2631 3131.3302,-270.4288 3120.9456,-268.3289 3121.9026,-275.2631"/>
</g>
<!-- Node52 -->
<g id="node53" class="node">
<title>Node52</title>
<polygon fill="none" stroke="#bfbfbf" points="2197,-246.5 2197,-276.5 2307,-276.5 2307,-246.5 2197,-246.5"/>
<text text-anchor="start" x="2205" y="-264.5" font-family="Helvetica,sans-Serif" font-size="10.00" fill="#000000">boost/serialization</text>
<text text-anchor="middle" x="2252" y="-253.5" font-family="Helvetica,sans-Serif" font-size="10.00" fill="#000000">/unordered_set.hpp</text>
</g>
<!-- Node3&#45;&gt;Node52 -->
<g id="edge76" class="edge">
<title>Node3&#45;&gt;Node52</title>
<path fill="none" stroke="#191970" d="M2355.6637,-318.9005C2338.0889,-309.1691 2310.3744,-293.823 2288.022,-281.4461"/>
<polygon fill="#191970" stroke="#191970" points="2289.5727,-278.304 2279.1289,-276.5218 2286.1818,-284.4279 2289.5727,-278.304"/>
</g>
<!-- Node5 -->
<g id="node6" class="node">
<title>Node5</title>
<g id="a_node6"><a xlink:href="ConfParser_8h.html" target="_top" xlink:title="ConfParser.h">
<polygon fill="none" stroke="#000000" points="1797.5,-129 1797.5,-148 1874.5,-148 1874.5,-129 1797.5,-129"/>
<text text-anchor="middle" x="1836" y="-136" font-family="Helvetica,sans-Serif" font-size="10.00" fill="#000000">ConfParser.h</text>
</a>
</g>
</g>
<!-- Node4&#45;&gt;Node5 -->
<g id="edge5" class="edge">
<title>Node4&#45;&gt;Node5</title>
<path fill="none" stroke="#191970" d="M1758.7433,-251.9893C1790.1884,-241.8501 1835.0527,-225.1948 1845,-210 1855.1333,-194.5211 1850.5569,-173.0675 1844.8834,-157.7065"/>
<polygon fill="#191970" stroke="#191970" points="1848.0048,-156.0958 1840.9476,-148.1935 1841.5366,-158.772 1848.0048,-156.0958"/>
</g>
<!-- Node4&#45;&gt;Node8 -->
<g id="edge31" class="edge">
<title>Node4&#45;&gt;Node8</title>
<path fill="none" stroke="#191970" d="M1757.9194,-251.9477C1862.7003,-219.5763 2203.7202,-114.2206 2310.0435,-81.3727"/>
<polygon fill="#191970" stroke="#191970" points="2311.3457,-84.6337 2319.8669,-78.3379 2309.2794,-77.9456 2311.3457,-84.6337"/>
</g>
<!-- Node10 -->
<g id="node11" class="node">
<title>Node10</title>
<g id="a_node11"><a xlink:href="Iter_8h.html" target="_top" xlink:title="Iter.h">
<polygon fill="none" stroke="#000000" points="1795.5,-190.5 1795.5,-209.5 1836.5,-209.5 1836.5,-190.5 1795.5,-190.5"/>
<text text-anchor="middle" x="1816" y="-197.5" font-family="Helvetica,sans-Serif" font-size="10.00" fill="#000000">Iter.h</text>
</a>
</g>
</g>
<!-- Node4&#45;&gt;Node10 -->
<g id="edge10" class="edge">
<title>Node4&#45;&gt;Node10</title>
<path fill="none" stroke="#191970" d="M1740.9063,-251.8906C1755.0138,-242.1421 1777.0724,-226.8994 1793.6385,-215.4521"/>
<polygon fill="#191970" stroke="#191970" points="1795.9542,-218.1063 1802.1914,-209.5419 1791.9747,-212.3474 1795.9542,-218.1063"/>
</g>
<!-- Node11 -->
<g id="node12" class="node">
<title>Node11</title>
<g id="a_node12"><a xlink:href="StateOld_8h.html" target="_top" xlink:title="StateOld.h">
<polygon fill="none" stroke="#000000" points="2627,-190.5 2627,-209.5 2695,-209.5 2695,-190.5 2627,-190.5"/>
<text text-anchor="middle" x="2661" y="-197.5" font-family="Helvetica,sans-Serif" font-size="10.00" fill="#000000">StateOld.h</text>
</a>
</g>
</g>
<!-- Node4&#45;&gt;Node11 -->
<g id="edge11" class="edge">
<title>Node4&#45;&gt;Node11</title>
<path fill="none" stroke="#191970" d="M1769.5954,-255.6548C1794.4606,-252.4148 1826.4606,-248.5398 1855,-246 2144.9579,-220.196 2494.9561,-205.9837 2616.7121,-201.539"/>
<polygon fill="#191970" stroke="#191970" points="2616.9024,-205.0345 2626.7693,-201.1753 2616.6493,-198.0391 2616.9024,-205.0345"/>
</g>
<!-- Node4&#45;&gt;Node12 -->
<g id="edge27" class="edge">
<title>Node4&#45;&gt;Node12</title>
<path fill="none" stroke="#191970" d="M1721.0364,-251.8484C1708.3832,-231.3703 1678.6702,-183.282 1662.3049,-156.7962"/>
<polygon fill="#191970" stroke="#191970" points="1665.1698,-154.7741 1656.9359,-148.1068 1659.2149,-158.4536 1665.1698,-154.7741"/>
</g>
<!-- Node4&#45;&gt;Node18 -->
<g id="edge33" class="edge">
<title>Node4&#45;&gt;Node18</title>
<path fill="none" stroke="#191970" d="M1705.281,-251.9477C1634.3361,-220.745 1409.2136,-121.7328 1326.1658,-85.2072"/>
<polygon fill="#191970" stroke="#191970" points="1327.3251,-81.8936 1316.7622,-81.0714 1324.5069,-88.3012 1327.3251,-81.8936"/>
</g>
<!-- Node24 -->
<g id="node25" class="node">
<title>Node24</title>
<polygon fill="none" stroke="#bfbfbf" points="1722.5,-190.5 1722.5,-209.5 1777.5,-209.5 1777.5,-190.5 1722.5,-190.5"/>
<text text-anchor="middle" x="1750" y="-197.5" font-family="Helvetica,sans-Serif" font-size="10.00" fill="#000000">fstream</text>
</g>
<!-- Node4&#45;&gt;Node24 -->
<g id="edge28" class="edge">
<title>Node4&#45;&gt;Node24</title>
<path fill="none" stroke="#191970" d="M1730.5938,-251.8906C1733.8491,-243.1862 1738.7425,-230.1015 1742.801,-219.2494"/>
<polygon fill="#191970" stroke="#191970" points="1746.1309,-220.3373 1746.3556,-209.7449 1739.5744,-217.8852 1746.1309,-220.3373"/>
</g>
<!-- Node4&#45;&gt;Node25 -->
<g id="edge29" class="edge">
<title>Node4&#45;&gt;Node25</title>
<path fill="none" stroke="#191970" d="M1757.9284,-251.9288C1792.2997,-240.9092 1845.1845,-222.6982 1862,-210 1900.518,-180.9132 1888.1168,-151.5967 1927,-123 1958.9037,-99.5363 2002.4479,-86.0218 2033.6642,-78.7765"/>
<polygon fill="#191970" stroke="#191970" points="2034.7314,-82.1254 2043.7433,-76.5544 2033.2243,-75.2895 2034.7314,-82.1254"/>
</g>
<!-- Node4&#45;&gt;Node26 -->
<g id="edge30" class="edge">
<title>Node4&#45;&gt;Node26</title>
<path fill="none" stroke="#191970" d="M1760.6739,-251.9956C1768.3212,-249.9341 1776.423,-247.8262 1784,-246 1859.504,-227.8025 1880.0375,-230.3132 1955,-210 1956.4241,-209.6141 1957.8798,-209.199 1959.3448,-208.7651"/>
<polygon fill="#191970" stroke="#191970" points="1960.4323,-212.0922 1968.9109,-205.739 1958.3209,-205.4181 1960.4323,-212.0922"/>
</g>
<!-- Node4&#45;&gt;Node27 -->
<g id="edge32" class="edge">
<title>Node4&#45;&gt;Node27</title>
<path fill="none" stroke="#191970" d="M1684.1443,-256.3623C1590.786,-245.1703 1369.2523,-218.6121 1267.1785,-206.3752"/>
<polygon fill="#191970" stroke="#191970" points="1267.4401,-202.8816 1257.0945,-205.1663 1266.6068,-209.8318 1267.4401,-202.8816"/>
</g>
<!-- Node6 -->
<g id="node7" class="node">
<title>Node6</title>
<polygon fill="none" stroke="#bfbfbf" points="1795,-62 1795,-81 1833,-81 1833,-62 1795,-62"/>
<text text-anchor="middle" x="1814" y="-69" font-family="Helvetica,sans-Serif" font-size="10.00" fill="#000000">map</text>
</g>
<!-- Node5&#45;&gt;Node6 -->
<g id="edge6" class="edge">
<title>Node5&#45;&gt;Node6</title>
<path fill="none" stroke="#191970" d="M1832.8479,-128.9005C1829.5806,-118.95 1824.3857,-103.1292 1820.2765,-90.6147"/>
<polygon fill="#191970" stroke="#191970" points="1823.5913,-89.4907 1817.1462,-81.0817 1816.9407,-91.6745 1823.5913,-89.4907"/>
</g>
<!-- Node5&#45;&gt;Node7 -->
<g id="edge7" class="edge">
<title>Node5&#45;&gt;Node7</title>
<path fill="none" stroke="#191970" d="M1874.6593,-131.8924C1949.9266,-119.0279 2115.2942,-90.7635 2190.0177,-77.9919"/>
<polygon fill="#191970" stroke="#191970" points="2190.6737,-81.4306 2199.9411,-76.2958 2189.4943,-74.5306 2190.6737,-81.4306"/>
</g>
<!-- Node5&#45;&gt;Node8 -->
<g id="edge8" class="edge">
<title>Node5&#45;&gt;Node8</title>
<path fill="none" stroke="#191970" d="M1874.8861,-131.3256C1890.9799,-128.5 1909.8549,-125.3708 1927,-123 2076.6479,-102.3065 2115.6786,-109.9308 2265,-87 2279.8218,-84.7239 2296.1183,-81.5431 2309.8875,-78.6548"/>
<polygon fill="#191970" stroke="#191970" points="2310.8108,-82.0366 2319.858,-76.523 2309.3472,-75.1913 2310.8108,-82.0366"/>
</g>
<!-- Node9 -->
<g id="node10" class="node">
<title>Node9</title>
<polygon fill="none" stroke="#bfbfbf" points="1851.5,-62 1851.5,-81 1976.5,-81 1976.5,-62 1851.5,-62"/>
<text text-anchor="middle" x="1914" y="-69" font-family="Helvetica,sans-Serif" font-size="10.00" fill="#000000">boost/lexical_cast.hpp</text>
</g>
<!-- Node5&#45;&gt;Node9 -->
<g id="edge9" class="edge">
<title>Node5&#45;&gt;Node9</title>
<path fill="none" stroke="#191970" d="M1847.1755,-128.9005C1859.6864,-118.1539 1880.1686,-100.5603 1895.1642,-87.6794"/>
<polygon fill="#191970" stroke="#191970" points="1897.5401,-90.2526 1902.8452,-81.0817 1892.9789,-84.9426 1897.5401,-90.2526"/>
</g>
<!-- Node11&#45;&gt;Node8 -->
<g id="edge23" class="edge">
<title>Node11&#45;&gt;Node8</title>
<path fill="none" stroke="#191970" d="M2648.0751,-190.1944C2635.8898,-180.9255 2617.1402,-166.6002 2601,-154 2583.5466,-140.3746 2582.1272,-132.2287 2562,-123 2484.2711,-87.36 2454.0083,-114.3799 2373,-87 2371.3932,-86.4569 2369.7644,-85.8455 2368.1379,-85.1874"/>
<polygon fill="#191970" stroke="#191970" points="2369.5709,-81.9942 2359.0175,-81.0583 2366.6838,-88.3712 2369.5709,-81.9942"/>
</g>
<!-- Node11&#45;&gt;Node12 -->
<g id="edge12" class="edge">
<title>Node11&#45;&gt;Node12</title>
<path fill="none" stroke="#191970" d="M2626.8386,-198.9378C2509.7608,-195.1402 2113.9538,-181.0021 1788,-154 1755.1079,-151.2752 1717.9039,-146.989 1690.5749,-143.6139"/>
<polygon fill="#191970" stroke="#191970" points="1690.9705,-140.1362 1680.6139,-142.3701 1690.1031,-147.0823 1690.9705,-140.1362"/>
</g>
<!-- Node11&#45;&gt;Node15 -->
<g id="edge19" class="edge">
<title>Node11&#45;&gt;Node15</title>
<path fill="none" stroke="#191970" d="M2695.0823,-199.3171C2789.4421,-197.011 3052.3229,-187.6576 3131,-154 3150.4129,-145.6953 3148.0954,-132.4043 3167,-123 3234.9802,-89.1825 3262.5367,-112.6502 3334,-87 3335.2415,-86.5544 3336.4965,-86.0674 3337.7531,-85.5497"/>
<polygon fill="#191970" stroke="#191970" points="3339.6192,-88.5423 3347.2172,-81.1584 3336.673,-82.1925 3339.6192,-88.5423"/>
</g>
<!-- Node11&#45;&gt;Node16 -->
<g id="edge21" class="edge">
<title>Node11&#45;&gt;Node16</title>
<path fill="none" stroke="#191970" d="M2626.5576,-199.0742C2494.8261,-195.4093 2010.3216,-180.7944 1612,-154 1269.7577,-130.9779 856.3675,-87.9025 736.8522,-75.1476"/>
<polygon fill="#191970" stroke="#191970" points="737.1596,-71.6606 726.844,-74.0769 736.415,-78.6209 737.1596,-71.6606"/>
</g>
<!-- Node11&#45;&gt;Node19 -->
<g id="edge20" class="edge">
<title>Node11&#45;&gt;Node19</title>
<path fill="none" stroke="#191970" d="M2695.0942,-197.2997C2776.6911,-190.7499 2989.6263,-173.1428 3167,-154 3180.6254,-152.5295 3195.0764,-150.841 3209.1161,-149.1315"/>
<polygon fill="#191970" stroke="#191970" points="3209.7506,-152.58 3219.2488,-147.8859 3208.8964,-145.6323 3209.7506,-152.58"/>
</g>
<!-- Node11&#45;&gt;Node20 -->
<g id="edge22" class="edge">
<title>Node11&#45;&gt;Node20</title>
<path fill="none" stroke="#191970" d="M2695.1907,-198.5941C2784.2919,-194.5794 3021.7744,-181.5358 3095,-154 3117.3909,-145.5801 3117.6324,-133.7552 3139,-123 3159.4628,-112.7003 3215.6735,-95.0475 3254.7094,-83.3258"/>
<polygon fill="#191970" stroke="#191970" points="3256.1447,-86.55 3264.7251,-80.3349 3254.1417,-79.8426 3256.1447,-86.55"/>
</g>
<!-- Node11&#45;&gt;Node21 -->
<g id="edge24" class="edge">
<title>Node11&#45;&gt;Node21</title>
<path fill="none" stroke="#191970" d="M2680.2188,-190.3906C2697.4818,-181.7591 2723.3596,-168.8202 2744.9553,-158.0224"/>
<polygon fill="#191970" stroke="#191970" points="2746.5318,-161.1473 2753.9108,-153.5446 2743.4013,-154.8863 2746.5318,-161.1473"/>
</g>
<!-- Node11&#45;&gt;Node22 -->
<g id="edge25" class="edge">
<title>Node11&#45;&gt;Node22</title>
<path fill="none" stroke="#191970" d="M2635.8438,-190.3906C2612.6421,-181.5279 2577.5521,-168.1239 2548.8482,-157.1594"/>
<polygon fill="#191970" stroke="#191970" points="2549.9757,-153.8435 2539.385,-153.5446 2547.4777,-160.3826 2549.9757,-153.8435"/>
</g>
<!-- Node11&#45;&gt;Node23 -->
<g id="edge26" class="edge">
<title>Node11&#45;&gt;Node23</title>
<path fill="none" stroke="#191970" d="M2661,-190.3906C2661,-181.8657 2661,-169.1392 2661,-158.4235"/>
<polygon fill="#191970" stroke="#191970" points="2664.5001,-158.2448 2661,-148.2449 2657.5001,-158.2449 2664.5001,-158.2448"/>
</g>
<!-- Node13 -->
<g id="node14" class="node">
<title>Node13</title>
<polygon fill="none" stroke="#bfbfbf" points="1494.5,-62 1494.5,-81 1571.5,-81 1571.5,-62 1494.5,-62"/>
<text text-anchor="middle" x="1533" y="-69" font-family="Helvetica,sans-Serif" font-size="10.00" fill="#000000">Eigen/Dense</text>
</g>
<!-- Node12&#45;&gt;Node13 -->
<g id="edge13" class="edge">
<title>Node12&#45;&gt;Node13</title>
<path fill="none" stroke="#191970" d="M1634.0935,-128.9005C1614.378,-117.7062 1581.5778,-99.0823 1558.7041,-86.0947"/>
<polygon fill="#191970" stroke="#191970" points="1560.2993,-82.9757 1549.8752,-81.0817 1556.843,-89.0629 1560.2993,-82.9757"/>
</g>
<!-- Node14 -->
<g id="node15" class="node">
<title>Node14</title>
<polygon fill="none" stroke="#bfbfbf" points="1028,-62 1028,-81 1108,-81 1108,-62 1028,-62"/>
<text text-anchor="middle" x="1068" y="-69" font-family="Helvetica,sans-Serif" font-size="10.00" fill="#000000">Eigen/Sparse</text>
</g>
<!-- Node12&#45;&gt;Node14 -->
<g id="edge14" class="edge">
<title>Node12&#45;&gt;Node14</title>
<path fill="none" stroke="#191970" d="M1624.8673,-128.931C1617.8472,-126.6728 1610.2032,-124.4913 1603,-123 1556.2296,-113.3166 1242.0582,-86.1804 1118.1274,-75.7022"/>
<polygon fill="#191970" stroke="#191970" points="1118.3956,-72.2125 1108.1366,-74.8588 1117.8067,-79.1877 1118.3956,-72.2125"/>
</g>
<!-- Node12&#45;&gt;Node15 -->
<g id="edge15" class="edge">
<title>Node12&#45;&gt;Node15</title>
<path fill="none" stroke="#191970" d="M1680.5949,-134.378C1708.2953,-130.7038 1750.8647,-125.528 1788,-123 1959.4276,-111.33 3167.5209,-129.5245 3334,-87 3335.7182,-86.5611 3337.4493,-86.0095 3339.1661,-85.378"/>
<polygon fill="#191970" stroke="#191970" points="3340.968,-88.4055 3348.6556,-81.115 3338.0995,-82.0202 3340.968,-88.4055"/>
</g>
<!-- Node12&#45;&gt;Node16 -->
<g id="edge16" class="edge">
<title>Node12&#45;&gt;Node16</title>
<path fill="none" stroke="#191970" d="M1625.6543,-128.9835C1618.4315,-126.638 1610.489,-124.3996 1603,-123 1559.6698,-114.9023 895.3907,-81.1625 736.8078,-73.1925"/>
<polygon fill="#191970" stroke="#191970" points="736.854,-69.6905 726.6911,-72.6846 736.503,-76.6817 736.854,-69.6905"/>
</g>
<!-- Node17 -->
<g id="node18" class="node">
<title>Node17</title>
<polygon fill="none" stroke="#bfbfbf" points="1589.5,-56.5 1589.5,-86.5 1732.5,-86.5 1732.5,-56.5 1589.5,-56.5"/>
<text text-anchor="start" x="1597.5" y="-74.5" font-family="Helvetica,sans-Serif" font-size="10.00" fill="#000000">unsupported/Eigen/CXX11</text>
<text text-anchor="middle" x="1661" y="-63.5" font-family="Helvetica,sans-Serif" font-size="10.00" fill="#000000">/Tensor</text>
</g>
<!-- Node12&#45;&gt;Node17 -->
<g id="edge17" class="edge">
<title>Node12&#45;&gt;Node17</title>
<path fill="none" stroke="#191970" d="M1652.4328,-128.9005C1653.6851,-120.5099 1655.5604,-107.9451 1657.2375,-96.7085"/>
<polygon fill="#191970" stroke="#191970" points="1660.7433,-96.9289 1658.7579,-86.5218 1653.82,-95.8955 1660.7433,-96.9289"/>
</g>
<!-- Node12&#45;&gt;Node18 -->
<g id="edge18" class="edge">
<title>Node12&#45;&gt;Node18</title>
<path fill="none" stroke="#191970" d="M1623.7842,-128.9467C1617.0464,-126.7941 1609.8065,-124.6585 1603,-123 1504.7739,-99.0654 1386.2182,-82.6734 1329.0725,-75.5357"/>
<polygon fill="#191970" stroke="#191970" points="1329.1636,-72.0205 1318.8106,-74.2714 1328.3076,-78.968 1329.1636,-72.0205"/>
</g>
<!-- Node28&#45;&gt;Node8 -->
<g id="edge68" class="edge">
<title>Node28&#45;&gt;Node8</title>
<path fill="none" stroke="#191970" d="M1943.167,-251.9606C1950.6328,-249.8787 1958.5693,-247.7709 1966,-246 2047.0582,-226.6825 2074.9566,-246.2228 2150,-210 2203.6596,-184.0989 2203.264,-157.2786 2252,-123 2271.8118,-109.0654 2295.6589,-95.5524 2313.8272,-85.8669"/>
<polygon fill="#191970" stroke="#191970" points="2315.5378,-88.9218 2322.7589,-81.169 2312.2791,-82.7266 2315.5378,-88.9218"/>
</g>
<!-- Node28&#45;&gt;Node12 -->
<g id="edge65" class="edge">
<title>Node28&#45;&gt;Node12</title>
<path fill="none" stroke="#191970" d="M1944.7875,-251.9434C1982.1243,-239.7655 2034.0108,-217.0219 2010,-190 1964.8141,-139.1474 1772.7213,-167.2671 1706,-154 1700.9601,-152.9979 1695.7081,-151.7667 1690.5361,-150.4402"/>
<polygon fill="#191970" stroke="#191970" points="1691.3319,-147.0299 1680.7656,-147.8071 1689.5103,-153.7887 1691.3319,-147.0299"/>
</g>
<!-- Node28&#45;&gt;Node18 -->
<g id="edge69" class="edge">
<title>Node28&#45;&gt;Node18</title>
<path fill="none" stroke="#191970" d="M1942.4784,-251.9522C1973.6603,-241.7824 2018.1471,-225.1021 2028,-210 2032.857,-202.5554 2033.8005,-196.7355 2028,-190 1992.8076,-149.1351 1840.5565,-166.0939 1788,-154 1743.0676,-143.6605 1734.0282,-132.9141 1689,-123 1557.5831,-94.0653 1397.6818,-79.3245 1329.0051,-73.9464"/>
<polygon fill="#191970" stroke="#191970" points="1329.0229,-70.4376 1318.7846,-73.1629 1328.4877,-77.4171 1329.0229,-70.4376"/>
</g>
<!-- Node29 -->
<g id="node30" class="node">
<title>Node29</title>
<g id="a_node30"><a xlink:href="QuantumDefect_8h.html" target="_top" xlink:title="QuantumDefect.h">
<polygon fill="none" stroke="#000000" points="2991.5,-190.5 2991.5,-209.5 3094.5,-209.5 3094.5,-190.5 2991.5,-190.5"/>
<text text-anchor="middle" x="3043" y="-197.5" font-family="Helvetica,sans-Serif" font-size="10.00" fill="#000000">QuantumDefect.h</text>
</a>
</g>
</g>
<!-- Node28&#45;&gt;Node29 -->
<g id="edge36" class="edge">
<title>Node28&#45;&gt;Node29</title>
<path fill="none" stroke="#191970" d="M1940.1186,-251.9369C1948.3956,-249.5909 1957.4776,-247.3639 1966,-246 2066.0581,-229.9872 2767.6571,-208.1447 2981.3656,-201.7973"/>
<polygon fill="#191970" stroke="#191970" points="2981.5761,-205.2927 2991.468,-201.4981 2981.3687,-198.2958 2981.5761,-205.2927"/>
</g>
<!-- Node47 -->
<g id="node48" class="node">
<title>Node47</title>
<polygon fill="none" stroke="#bfbfbf" points="2095,-190.5 2095,-209.5 2141,-209.5 2141,-190.5 2095,-190.5"/>
<text text-anchor="middle" x="2118" y="-197.5" font-family="Helvetica,sans-Serif" font-size="10.00" fill="#000000">cstdio</text>
</g>
<!-- Node28&#45;&gt;Node47 -->
<g id="edge66" class="edge">
<title>Node28&#45;&gt;Node47</title>
<path fill="none" stroke="#191970" d="M1943.3438,-251.8906C1981.9647,-240.4163 2046.2058,-221.3302 2085.0796,-209.7807"/>
<polygon fill="#191970" stroke="#191970" points="2086.2679,-213.0789 2094.857,-206.8758 2084.2743,-206.3688 2086.2679,-213.0789"/>
</g>
<!-- Node28&#45;&gt;Node48 -->
<g id="edge67" class="edge">
<title>Node28&#45;&gt;Node48</title>
<path fill="none" stroke="#191970" d="M1864.2406,-255.2074C1771.4668,-242.7226 1566.2105,-215.1005 1486.5207,-204.3764"/>
<polygon fill="#191970" stroke="#191970" points="1486.5118,-200.8437 1476.1343,-202.9787 1485.5781,-207.7812 1486.5118,-200.8437"/>
</g>
<!-- Node29&#45;&gt;Node8 -->
<g id="edge61" class="edge">
<title>Node29&#45;&gt;Node8</title>
<path fill="none" stroke="#191970" d="M3030.1776,-190.2399C3006.7855,-173.0558 2954.9768,-137.8187 2905,-123 2677.7924,-55.6301 2601.6749,-149.2074 2373,-87 2371.2835,-86.5331 2369.5501,-85.9673 2367.8265,-85.3317"/>
<polygon fill="#191970" stroke="#191970" points="2368.8129,-81.9425 2358.2493,-81.1305 2366.0009,-88.3529 2368.8129,-81.9425"/>
</g>
<!-- Node29&#45;&gt;Node12 -->
<g id="edge59" class="edge">
<title>Node29&#45;&gt;Node12</title>
<path fill="none" stroke="#191970" d="M2991.4855,-198.3439C2770.5829,-191.2105 1909.1443,-163.0601 1788,-154 1755.0872,-151.5385 1717.8847,-147.232 1690.5616,-143.7821"/>
<polygon fill="#191970" stroke="#191970" points="1690.9665,-140.3054 1680.6031,-142.5074 1690.0777,-147.2488 1690.9665,-140.3054"/>
</g>
<!-- Node29&#45;&gt;Node19 -->
<g id="edge64" class="edge">
<title>Node29&#45;&gt;Node19</title>
<path fill="none" stroke="#191970" d="M3081.4779,-190.4581C3124.8269,-179.7082 3195.3639,-162.2162 3242.4627,-150.5365"/>
<polygon fill="#191970" stroke="#191970" points="3243.5683,-153.8684 3252.4318,-148.0643 3241.8834,-147.0742 3243.5683,-153.8684"/>
</g>
<!-- Node30 -->
<g id="node31" class="node">
<title>Node30</title>
<g id="a_node31"><a xlink:href="Cache_8h.html" target="_top" xlink:title="Cache.h">
<polygon fill="none" stroke="#000000" points="3495,-129 3495,-148 3551,-148 3551,-129 3495,-129"/>
<text text-anchor="middle" x="3523" y="-136" font-family="Helvetica,sans-Serif" font-size="10.00" fill="#000000">Cache.h</text>
</a>
</g>
</g>
<!-- Node29&#45;&gt;Node30 -->
<g id="edge37" class="edge">
<title>Node29&#45;&gt;Node30</title>
<path fill="none" stroke="#191970" d="M3094.8245,-193.36C3191.9812,-180.9118 3399.3958,-154.3368 3484.9204,-143.3789"/>
<polygon fill="#191970" stroke="#191970" points="3485.4948,-146.8341 3494.9689,-142.0915 3484.6051,-139.8908 3485.4948,-146.8341"/>
</g>
<!-- Node31 -->
<g id="node32" class="node">
<title>Node31</title>
<polygon fill="none" stroke="#bfbfbf" points="3403,-62 3403,-81 3451,-81 3451,-62 3403,-62"/>
<text text-anchor="middle" x="3427" y="-69" font-family="Helvetica,sans-Serif" font-size="10.00" fill="#000000">mutex</text>
</g>
<!-- Node29&#45;&gt;Node31 -->
<g id="edge60" class="edge">
<title>Node29&#45;&gt;Node31</title>
<path fill="none" stroke="#191970" d="M3075.8875,-190.4745C3101.4956,-182.4312 3137.5213,-169.7211 3167,-154 3187.7883,-142.9136 3188.3828,-132.3679 3210,-123 3286.4578,-89.8669 3314.8018,-112.9085 3394,-87 3395.8499,-86.3948 3397.7315,-85.7114 3399.6106,-84.9773"/>
<polygon fill="#191970" stroke="#191970" points="3401.0236,-88.1796 3408.8252,-81.0113 3398.2562,-81.7498 3401.0236,-88.1796"/>
</g>
<!-- Node29&#45;&gt;Node32 -->
<g id="edge63" class="edge">
<title>Node29&#45;&gt;Node32</title>
<path fill="none" stroke="#191970" d="M3094.5343,-197.4385C3217.0505,-191.0617 3518.6057,-173.5715 3560,-154 3590.2342,-139.7051 3615.4238,-109.0717 3629.3285,-89.4222"/>
<polygon fill="#191970" stroke="#191970" points="3632.3155,-91.2544 3635.0609,-81.0215 3626.5334,-87.3089 3632.3155,-91.2544"/>
</g>
<!-- Node34 -->
<g id="node35" class="node">
<title>Node34</title>
<g id="a_node35"><a xlink:href="SQLite_8h.html" target="_top" xlink:title="SQLite.h">
<polygon fill="none" stroke="#000000" points="3029.5,-129 3029.5,-148 3086.5,-148 3086.5,-129 3029.5,-129"/>
<text text-anchor="middle" x="3058" y="-136" font-family="Helvetica,sans-Serif" font-size="10.00" fill="#000000">SQLite.h</text>
</a>
</g>
</g>
<!-- Node29&#45;&gt;Node34 -->
<g id="edge41" class="edge">
<title>Node29&#45;&gt;Node34</title>
<path fill="none" stroke="#191970" d="M3045.3438,-190.3906C3047.4449,-181.776 3050.5925,-168.8708 3053.223,-158.0858"/>
<polygon fill="#191970" stroke="#191970" points="3056.6539,-158.7894 3055.6232,-148.2449 3049.8532,-157.1307 3056.6539,-158.7894"/>
</g>
<!-- Node29&#45;&gt;Node46 -->
<g id="edge62" class="edge">
<title>Node29&#45;&gt;Node46</title>
<path fill="none" stroke="#191970" d="M3016.9063,-190.3906C2986.9409,-179.3555 2937.858,-161.2801 2906.2477,-149.6391"/>
<polygon fill="#191970" stroke="#191970" points="2907.2384,-146.2742 2896.645,-146.1028 2904.8194,-152.843 2907.2384,-146.2742"/>
</g>
<!-- Node30&#45;&gt;Node31 -->
<g id="edge38" class="edge">
<title>Node30&#45;&gt;Node31</title>
<path fill="none" stroke="#191970" d="M3509.2455,-128.9005C3493.5623,-117.9549 3467.7017,-99.9064 3449.1642,-86.9688"/>
<polygon fill="#191970" stroke="#191970" points="3450.9324,-83.9347 3440.7289,-81.0817 3446.9262,-89.675 3450.9324,-83.9347"/>
</g>
<!-- Node30&#45;&gt;Node32 -->
<g id="edge39" class="edge">
<title>Node30&#45;&gt;Node32</title>
<path fill="none" stroke="#191970" d="M3539.9065,-128.9005C3559.622,-117.7062 3592.4222,-99.0823 3615.2959,-86.0947"/>
<polygon fill="#191970" stroke="#191970" points="3617.157,-89.0629 3624.1248,-81.0817 3613.7007,-82.9757 3617.157,-89.0629"/>
</g>
<!-- Node33 -->
<g id="node34" class="node">
<title>Node33</title>
<polygon fill="none" stroke="#bfbfbf" points="3469.5,-62 3469.5,-81 3576.5,-81 3576.5,-62 3469.5,-62"/>
<text text-anchor="middle" x="3523" y="-69" font-family="Helvetica,sans-Serif" font-size="10.00" fill="#000000">boost/optional.hpp</text>
</g>
<!-- Node30&#45;&gt;Node33 -->
<g id="edge40" class="edge">
<title>Node30&#45;&gt;Node33</title>
<path fill="none" stroke="#191970" d="M3523,-128.9005C3523,-119.149 3523,-103.7597 3523,-91.3695"/>
<polygon fill="#191970" stroke="#191970" points="3526.5001,-91.0816 3523,-81.0817 3519.5001,-91.0817 3526.5001,-91.0816"/>
</g>
<!-- Node34&#45;&gt;Node7 -->
<g id="edge45" class="edge">
<title>Node34&#45;&gt;Node7</title>
<path fill="none" stroke="#191970" d="M3029.2686,-135.2392C2998.5437,-131.8342 2948.3767,-126.5102 2905,-123 2641.3774,-101.6668 2573.5,-119.3384 2311,-87 2296.2488,-85.1827 2280.1628,-82.3736 2266.1131,-79.6433"/>
<polygon fill="#191970" stroke="#191970" points="2266.7823,-76.208 2256.2909,-77.6845 2265.4133,-83.0728 2266.7823,-76.208"/>
</g>
<!-- Node34&#45;&gt;Node8 -->
<g id="edge46" class="edge">
<title>Node34&#45;&gt;Node8</title>
<path fill="none" stroke="#191970" d="M3035.1444,-128.8749C3028.7341,-126.5587 3021.6871,-124.3625 3015,-123 2734.9715,-65.9462 2649.1888,-160.4224 2373,-87 2371.081,-86.4898 2369.1416,-85.8537 2367.219,-85.1324"/>
<polygon fill="#191970" stroke="#191970" points="2368.4778,-81.8619 2357.9175,-81.0069 2365.6396,-88.2608 2368.4778,-81.8619"/>
</g>
<!-- Node34&#45;&gt;Node20 -->
<g id="edge42" class="edge">
<title>Node34&#45;&gt;Node20</title>
<path fill="none" stroke="#191970" d="M3083.3114,-128.8514C3089.0851,-126.7974 3095.2222,-124.7289 3101,-123 3166.6822,-103.3455 3185.2468,-106.4156 3251,-87 3253.7672,-86.1829 3256.6162,-85.2931 3259.4709,-84.3665"/>
<polygon fill="#191970" stroke="#191970" points="3260.7272,-87.6367 3269.0867,-81.1275 3258.4926,-81.0029 3260.7272,-87.6367"/>
</g>
<!-- Node34&#45;&gt;Node25 -->
<g id="edge43" class="edge">
<title>Node34&#45;&gt;Node25</title>
<path fill="none" stroke="#191970" d="M3029.2755,-135.152C2998.5563,-131.6742 2948.394,-126.2899 2905,-123 2588.1728,-98.9798 2507.4364,-115.7136 2191,-87 2164.59,-84.6035 2135.0023,-80.7141 2112.0611,-77.4311"/>
<polygon fill="#191970" stroke="#191970" points="2112.4229,-73.947 2102.0235,-75.9729 2111.4164,-80.8743 2112.4229,-73.947"/>
</g>
<!-- Node35 -->
<g id="node36" class="node">
<title>Node35</title>
<polygon fill="none" stroke="#bfbfbf" points="2981,-.5 2981,-19.5 3035,-19.5 3035,-.5 2981,-.5"/>
<text text-anchor="middle" x="3008" y="-7.5" font-family="Helvetica,sans-Serif" font-size="10.00" fill="#000000">random</text>
</g>
<!-- Node34&#45;&gt;Node35 -->
<g id="edge44" class="edge">
<title>Node34&#45;&gt;Node35</title>
<path fill="none" stroke="#191970" d="M3084.9496,-128.9191C3119.1565,-116.4902 3174.4242,-95.4059 3180,-87 3187.6159,-75.5185 3188.39,-66.9287 3180,-56 3163.716,-34.7887 3090.8743,-21.2368 3045.3646,-14.68"/>
<polygon fill="#191970" stroke="#191970" points="3045.6539,-11.1867 3035.2669,-13.2749 3044.689,-18.1198 3045.6539,-11.1867"/>
</g>
<!-- Node36 -->
<g id="node37" class="node">
<title>Node36</title>
<polygon fill="none" stroke="#bfbfbf" points="2983,-62 2983,-81 3031,-81 3031,-62 2983,-62"/>
<text text-anchor="middle" x="3007" y="-69" font-family="Helvetica,sans-Serif" font-size="10.00" fill="#000000">thread</text>
</g>
<!-- Node34&#45;&gt;Node36 -->
<g id="edge47" class="edge">
<title>Node34&#45;&gt;Node36</title>
<path fill="none" stroke="#191970" d="M3050.6929,-128.9005C3042.8157,-118.552 3030.1054,-101.8542 3020.4194,-89.1295"/>
<polygon fill="#191970" stroke="#191970" points="3023.1354,-86.9188 3014.2935,-81.0817 3017.5654,-91.1586 3023.1354,-86.9188"/>
</g>
<!-- Node34&#45;&gt;Node37 -->
<g id="edge48" class="edge">
<title>Node34&#45;&gt;Node37</title>
<path fill="none" stroke="#191970" d="M3084.3409,-128.9167C3123.3771,-114.6994 3192.5948,-89.4247 3198,-87 3224.6685,-75.037 3228.8219,-66.7551 3256,-56 3297.6283,-39.5265 3347.2298,-26.9098 3382.263,-19.0926"/>
<polygon fill="#191970" stroke="#191970" points="3383.1702,-22.477 3392.1901,-16.9189 3381.6728,-15.639 3383.1702,-22.477"/>
</g>
<!-- Node38 -->
<g id="node39" class="node">
<title>Node38</title>
<polygon fill="none" stroke="#bfbfbf" points="3049,-56.5 3049,-86.5 3171,-86.5 3171,-56.5 3049,-56.5"/>
<text text-anchor="start" x="3057" y="-74.5" font-family="Helvetica,sans-Serif" font-size="10.00" fill="#000000">boost/iterator/iterator</text>
<text text-anchor="middle" x="3110" y="-63.5" font-family="Helvetica,sans-Serif" font-size="10.00" fill="#000000">_facade.hpp</text>
</g>
<!-- Node34&#45;&gt;Node38 -->
<g id="edge49" class="edge">
<title>Node34&#45;&gt;Node38</title>
<path fill="none" stroke="#191970" d="M3065.4503,-128.9005C3072.3653,-119.9908 3082.933,-106.3748 3092.0407,-94.6399"/>
<polygon fill="#191970" stroke="#191970" points="3094.975,-96.5676 3098.3413,-86.5218 3089.4451,-92.2757 3094.975,-96.5676"/>
</g>
<!-- Node39 -->
<g id="node40" class="node">
<title>Node39</title>
<polygon fill="none" stroke="#bfbfbf" points="2905.5,-62 2905.5,-81 2964.5,-81 2964.5,-62 2905.5,-62"/>
<text text-anchor="middle" x="2935" y="-69" font-family="Helvetica,sans-Serif" font-size="10.00" fill="#000000">sqlite3.h</text>
</g>
<!-- Node34&#45;&gt;Node39 -->
<g id="edge50" class="edge">
<title>Node34&#45;&gt;Node39</title>
<path fill="none" stroke="#191970" d="M3040.3771,-128.9005C3019.7349,-117.6564 2985.332,-98.9166 2961.476,-85.9219"/>
<polygon fill="#191970" stroke="#191970" points="2963.0462,-82.7916 2952.5902,-81.0817 2959.6977,-88.9388 2963.0462,-82.7916"/>
</g>
<!-- Node34&#45;&gt;Node40 -->
<g id="edge51" class="edge">
<title>Node34&#45;&gt;Node40</title>
<path fill="none" stroke="#191970" d="M3032.1541,-128.9365C3026.519,-126.9206 3020.5744,-124.8465 3015,-123 2962.5467,-105.6252 2947.3408,-107.4293 2896,-87 2894.6372,-86.4577 2893.2529,-85.8782 2891.8636,-85.2734"/>
<polygon fill="#191970" stroke="#191970" points="2893.3373,-82.0989 2882.7952,-81.0433 2890.3781,-88.4426 2893.3373,-82.0989"/>
</g>
<!-- Node34&#45;&gt;Node41 -->
<g id="edge52" class="edge">
<title>Node34&#45;&gt;Node41</title>
<path fill="none" stroke="#191970" d="M3034.6697,-128.8387C3028.3803,-126.5813 3021.5121,-124.4232 3015,-123 2903.7711,-98.691 2551.0589,-78.9472 2439.8974,-73.1975"/>
<polygon fill="#191970" stroke="#191970" points="2439.7801,-69.6869 2429.6139,-72.67 2439.4214,-76.6778 2439.7801,-69.6869"/>
</g>
<!-- Node41&#45;&gt;Node35 -->
<g id="edge56" class="edge">
<title>Node41&#45;&gt;Node35</title>
<path fill="none" stroke="#191970" d="M2429.5991,-69.0891C2521.733,-59.6768 2857.6726,-25.3574 2970.645,-13.8162"/>
<polygon fill="#191970" stroke="#191970" points="2971.2736,-17.2703 2980.8661,-12.772 2970.5622,-10.3065 2971.2736,-17.2703"/>
</g>
<!-- Node41&#45;&gt;Node37 -->
<g id="edge57" class="edge">
<title>Node41&#45;&gt;Node37</title>
<path fill="none" stroke="#191970" d="M2429.7349,-70.0703C2561.6993,-62.1214 3205.4711,-23.3438 3382.0995,-12.7046"/>
<polygon fill="#191970" stroke="#191970" points="3382.5597,-16.1833 3392.3311,-12.0883 3382.1387,-9.196 3382.5597,-16.1833"/>
</g>
<!-- Node42 -->
<g id="node43" class="node">
<title>Node42</title>
<polygon fill="none" stroke="#bfbfbf" points="681,-.5 681,-19.5 745,-19.5 745,-.5 681,-.5"/>
<text text-anchor="middle" x="713" y="-7.5" font-family="Helvetica,sans-Serif" font-size="10.00" fill="#000000">algorithm</text>
</g>
<!-- Node41&#45;&gt;Node42 -->
<g id="edge53" class="edge">
<title>Node41&#45;&gt;Node42</title>
<path fill="none" stroke="#191970" d="M2389.0188,-61.9C2384.0119,-59.5225 2378.4191,-57.2883 2373,-56 2211.5776,-17.6232 998.168,-11.0693 755.2554,-10.1381"/>
<polygon fill="#191970" stroke="#191970" points="755.085,-6.6375 745.072,-10.1002 755.0588,-13.6375 755.085,-6.6375"/>
</g>
<!-- Node43 -->
<g id="node44" class="node">
<title>Node43</title>
<polygon fill="none" stroke="#bfbfbf" points="84.5,-.5 84.5,-19.5 143.5,-19.5 143.5,-.5 84.5,-.5"/>
<text text-anchor="middle" x="114" y="-7.5" font-family="Helvetica,sans-Serif" font-size="10.00" fill="#000000">complex</text>
</g>
<!-- Node41&#45;&gt;Node43 -->
<g id="edge54" class="edge">
<title>Node41&#45;&gt;Node43</title>
<path fill="none" stroke="#191970" d="M2389.0249,-61.8742C2384.0181,-59.4964 2378.4238,-57.2684 2373,-56 2358.9323,-52.7101 455.6324,-16.4806 154.0492,-10.7589"/>
<polygon fill="#191970" stroke="#191970" points="153.6734,-7.2513 143.6088,-10.5609 153.5406,-14.25 153.6734,-7.2513"/>
</g>
<!-- Node44 -->
<g id="node45" class="node">
<title>Node44</title>
<polygon fill="none" stroke="#bfbfbf" points="1784.5,-.5 1784.5,-19.5 1849.5,-19.5 1849.5,-.5 1784.5,-.5"/>
<text text-anchor="middle" x="1817" y="-7.5" font-family="Helvetica,sans-Serif" font-size="10.00" fill="#000000">functional</text>
</g>
<!-- Node41&#45;&gt;Node44 -->
<g id="edge55" class="edge">
<title>Node41&#45;&gt;Node44</title>
<path fill="none" stroke="#191970" d="M2388.6282,-61.9296C2383.7093,-59.6136 2378.2594,-57.4038 2373,-56 2276.2236,-30.1694 1972.9002,-16.0511 1859.9474,-11.5804"/>
<polygon fill="#191970" stroke="#191970" points="1859.7529,-8.0703 1849.6241,-11.1778 1859.48,-15.065 1859.7529,-8.0703"/>
</g>
<!-- Node45 -->
<g id="node46" class="node">
<title>Node45</title>
<polygon fill="none" stroke="#bfbfbf" points="2378,-.5 2378,-19.5 2434,-19.5 2434,-.5 2378,-.5"/>
<text text-anchor="middle" x="2406" y="-7.5" font-family="Helvetica,sans-Serif" font-size="10.00" fill="#000000">unistd.h</text>
</g>
<!-- Node41&#45;&gt;Node45 -->
<g id="edge58" class="edge">
<title>Node41&#45;&gt;Node45</title>
<path fill="none" stroke="#191970" d="M2406,-61.8906C2406,-53.3657 2406,-40.6392 2406,-29.9235"/>
<polygon fill="#191970" stroke="#191970" points="2409.5001,-29.7448 2406,-19.7449 2402.5001,-29.7449 2409.5001,-29.7448"/>
</g>
<!-- Node54&#45;&gt;Node2 -->
<g id="edge94" class="edge">
<title>Node54&#45;&gt;Node2</title>
<path fill="none" stroke="#191970" d="M1376.2616,-461.3497C1529.7233,-457.1078 2062.3312,-441.0107 2501,-411 2546.2172,-407.9066 2598.187,-402.8446 2631.9813,-399.3516"/>
<polygon fill="#191970" stroke="#191970" points="2632.7003,-402.7957 2642.2832,-398.2772 2631.9741,-395.8335 2632.7003,-402.7957"/>
</g>
<!-- Node54&#45;&gt;Node3 -->
<g id="edge93" class="edge">
<title>Node54&#45;&gt;Node3</title>
<path fill="none" stroke="#191970" d="M1376.0935,-460.5357C1511.8237,-454.1793 1929.3776,-433.2865 2063,-411 2162.499,-394.4049 2276.384,-359.9943 2334.4907,-341.2851"/>
<polygon fill="#191970" stroke="#191970" points="2335.9056,-344.5058 2344.3387,-338.0922 2333.7467,-337.847 2335.9056,-344.5058"/>
</g>
<!-- Node54&#45;&gt;Node8 -->
<g id="edge125" class="edge">
<title>Node54&#45;&gt;Node8</title>
<path fill="none" stroke="#191970" d="M1376.272,-461.4226C1573.0591,-456.0644 2376.8923,-429.0583 2445,-344 2502.1615,-272.6122 2402.5343,-237.8385 2366,-154 2357.0056,-133.3598 2350.2743,-108.3792 2346.2642,-91.3515"/>
<polygon fill="#191970" stroke="#191970" points="2349.642,-90.4195 2344.0255,-81.4359 2342.8138,-91.9612 2349.642,-90.4195"/>
</g>
<!-- Node54&#45;&gt;Node12 -->
<g id="edge102" class="edge">
<title>Node54&#45;&gt;Node12</title>
<path fill="none" stroke="#191970" d="M1344.452,-452.8757C1355.3372,-443.2236 1371.554,-427.4653 1382,-411 1399.1113,-384.0287 1402.1218,-375.3958 1408,-344 1420.6816,-276.2666 1346.2429,-243.2349 1390,-190 1417.5599,-156.4706 1545.3301,-144.4151 1611.315,-140.3749"/>
<polygon fill="#191970" stroke="#191970" points="1611.5692,-143.8662 1621.3499,-139.7933 1611.164,-136.8779 1611.5692,-143.8662"/>
</g>
<!-- Node54&#45;&gt;Node18 -->
<g id="edge129" class="edge">
<title>Node54&#45;&gt;Node18</title>
<path fill="none" stroke="#191970" d="M1322.7847,-452.6947C1290.8474,-421.2082 1193.1613,-318.3788 1162,-210 1145.3937,-152.2432 1218.1277,-107.1501 1262.6119,-85.526"/>
<polygon fill="#191970" stroke="#191970" points="1264.3468,-88.5777 1271.9012,-81.1493 1261.3632,-82.2453 1264.3468,-88.5777"/>
</g>
<!-- Node54&#45;&gt;Node25 -->
<g id="edge121" class="edge">
<title>Node54&#45;&gt;Node25</title>
<path fill="none" stroke="#191970" d="M1366.5391,-452.9272C1393.9465,-444.2752 1433.0738,-429.9868 1464,-411 1628.191,-310.1967 1614.7424,-207.2723 1788,-123 1790.7722,-121.6516 1956.6835,-92.1226 2034.0551,-78.3987"/>
<polygon fill="#191970" stroke="#191970" points="2034.683,-81.842 2043.9183,-76.6497 2033.4608,-74.9495 2034.683,-81.842"/>
</g>
<!-- Node54&#45;&gt;Node26 -->
<g id="edge123" class="edge">
<title>Node54&#45;&gt;Node26</title>
<path fill="none" stroke="#191970" d="M1376.0647,-460.9185C1524.5998,-455.2581 2007.6527,-435.0594 2030,-411 2039.3765,-400.9051 2038.8728,-390.5404 2030,-380 1969.5812,-308.2258 1882.4188,-415.7742 1822,-344 1793.9504,-310.6787 1795.7147,-280.7299 1822,-246 1826.2097,-240.4379 1913.762,-217.8412 1958.7715,-206.524"/>
<polygon fill="#191970" stroke="#191970" points="1959.8616,-209.8592 1968.7115,-204.0342 1958.1607,-203.069 1959.8616,-209.8592"/>
</g>
<!-- Node54&#45;&gt;Node27 -->
<g id="edge127" class="edge">
<title>Node54&#45;&gt;Node27</title>
<path fill="none" stroke="#191970" d="M1328.1167,-452.7678C1320.291,-437.2558 1304.3594,-406.0198 1290,-380 1264.7205,-334.1925 1251.797,-325.8268 1233,-277 1225.7553,-258.1812 1220.5814,-235.6938 1217.4801,-219.8942"/>
<polygon fill="#191970" stroke="#191970" points="1220.8574,-218.9114 1215.5881,-209.7198 1213.9753,-220.1911 1220.8574,-218.9114"/>
</g>
<!-- Node54&#45;&gt;Node32 -->
<g id="edge126" class="edge">
<title>Node54&#45;&gt;Node32</title>
<path fill="none" stroke="#191970" d="M1376.3643,-462.2361C1599.2805,-460.7071 2617.8776,-451.5809 2931,-411 3063.0459,-393.8868 3097.2508,-387.7736 3223,-344 3408.4953,-279.4286 3499.0527,-307.1729 3622,-154 3636.3999,-136.0599 3640.2941,-109.2184 3641.146,-91.0658"/>
<polygon fill="#191970" stroke="#191970" points="3644.6457,-91.1126 3641.3501,-81.0434 3637.6472,-90.97 3644.6457,-91.1126"/>
</g>
<!-- Node54&#45;&gt;Node40 -->
<g id="edge128" class="edge">
<title>Node54&#45;&gt;Node40</title>
<path fill="none" stroke="#191970" d="M1376.0257,-462.0358C1578.3825,-459.6758 2436.65,-447.6509 2702,-411 2953.368,-376.2804 3100.0305,-476.3788 3257,-277 3265.5228,-266.1746 3266.1594,-256.2923 3257,-246 3211.1887,-194.5222 3005.5036,-249.4459 2949,-210 2913.4708,-185.1966 2928.1743,-159.6126 2905,-123 2897.5072,-111.1623 2887.9114,-98.735 2879.9967,-89.0543"/>
<polygon fill="#191970" stroke="#191970" points="2882.6587,-86.7815 2873.5693,-81.338 2877.2802,-91.2617 2882.6587,-86.7815"/>
</g>
<!-- Node54&#45;&gt;Node42 -->
<g id="edge108" class="edge">
<title>Node54&#45;&gt;Node42</title>
<path fill="none" stroke="#191970" d="M1289.9174,-462.0792C1093.7851,-459.9605 290.3232,-449.0121 185,-411 127.8519,-390.3747 76,-389.2561 76,-328.5 76,-328.5 76,-328.5 76,-138.5 76,-75.597 132.0214,-77.8703 191,-56 278.7109,-23.4752 562.3656,-13.5211 670.5471,-10.8638"/>
<polygon fill="#191970" stroke="#191970" points="670.8425,-14.3579 680.7568,-10.622 670.6768,-7.3598 670.8425,-14.3579"/>
</g>
<!-- Node54&#45;&gt;Node43 -->
<g id="edge117" class="edge">
<title>Node54&#45;&gt;Node43</title>
<path fill="none" stroke="#191970" d="M1289.724,-461.7946C1077.1727,-458.1913 151.87,-440.8375 99,-411 29.5973,-371.8321 0,-341.1923 0,-261.5 0,-261.5 0,-261.5 0,-138.5 0,-86.4335 53.0205,-45.6189 86.744,-24.9249"/>
<polygon fill="#191970" stroke="#191970" points="88.8641,-27.7371 95.6839,-19.6291 85.2963,-21.7145 88.8641,-27.7371"/>
</g>
<!-- Node54&#45;&gt;Node44 -->
<g id="edge118" class="edge">
<title>Node54&#45;&gt;Node44</title>
<path fill="none" stroke="#191970" d="M1289.9375,-461.7067C1091.4272,-457.8965 272.3091,-440.4378 227,-411 164.6644,-370.5 152,-335.8369 152,-261.5 152,-261.5 152,-261.5 152,-138.5 152,-21.9381 554.009,-67.5221 670,-56 890.4493,-34.1014 1593.0622,-15.5453 1774.1148,-11.0419"/>
<polygon fill="#191970" stroke="#191970" points="1774.3955,-14.5361 1784.3058,-10.7896 1774.2222,-7.5383 1774.3955,-14.5361"/>
</g>
<!-- Node54&#45;&gt;Node48 -->
<g id="edge120" class="edge">
<title>Node54&#45;&gt;Node48</title>
<path fill="none" stroke="#191970" d="M1376.2696,-453.4107C1399.7761,-446.0892 1427.0261,-433.2142 1442,-411 1482.116,-351.4868 1467.933,-259.7297 1459.009,-219.7505"/>
<polygon fill="#191970" stroke="#191970" points="1462.3907,-218.8417 1456.6809,-209.9171 1455.579,-220.4545 1462.3907,-218.8417"/>
</g>
<!-- Node54&#45;&gt;Node50 -->
<g id="edge109" class="edge">
<title>Node54&#45;&gt;Node50</title>
<path fill="none" stroke="#191970" d="M1334.9525,-452.8592C1337.7082,-436.6564 1341.0602,-403.4402 1328,-380 1314.496,-355.7633 1289.7644,-368.6343 1277,-344 1266.1943,-323.1459 1278.0326,-296.8557 1288.8125,-279.6319"/>
<polygon fill="#191970" stroke="#191970" points="1291.8794,-281.3427 1294.542,-271.0879 1286.0655,-277.444 1291.8794,-281.3427"/>
</g>
<!-- Node55 -->
<g id="node56" class="node">
<title>Node55</title>
<g id="a_node56"><a xlink:href="WignerD_8h.html" target="_top" xlink:title="WignerD.h">
<polygon fill="none" stroke="#000000" points="1142,-386 1142,-405 1210,-405 1210,-386 1142,-386"/>
<text text-anchor="middle" x="1176" y="-393" font-family="Helvetica,sans-Serif" font-size="10.00" fill="#000000">WignerD.h</text>
</a>
</g>
</g>
<!-- Node54&#45;&gt;Node55 -->
<g id="edge95" class="edge">
<title>Node54&#45;&gt;Node55</title>
<path fill="none" stroke="#191970" d="M1310.5057,-452.9005C1283.5747,-441.4077 1238.2933,-422.0838 1207.7936,-409.068"/>
<polygon fill="#191970" stroke="#191970" points="1209.0238,-405.7876 1198.4525,-405.0817 1206.2763,-412.2259 1209.0238,-405.7876"/>
</g>
<!-- Node54&#45;&gt;Node58 -->
<g id="edge122" class="edge">
<title>Node54&#45;&gt;Node58</title>
<path fill="none" stroke="#191970" d="M1289.7095,-462.0972C1092.0808,-460.051 283.5772,-449.3529 247,-411 237.4912,-401.0296 239.1142,-391.2979 247,-380 273.5581,-341.9506 301.8126,-360.9686 345,-344 346.7988,-343.2932 348.6424,-342.5576 350.4999,-341.8076"/>
<polygon fill="#191970" stroke="#191970" points="351.8393,-345.0412 359.7608,-338.0056 349.1808,-338.5657 351.8393,-345.0412"/>
</g>
<!-- Node59 -->
<g id="node60" class="node">
<title>Node59</title>
<g id="a_node60"><a xlink:href="serialization__eigen_8h.html" target="_top" xlink:title="serialization_eigen.h">
<polygon fill="none" stroke="#000000" points="218,-319 218,-338 336,-338 336,-319 218,-319"/>
<text text-anchor="middle" x="277" y="-326" font-family="Helvetica,sans-Serif" font-size="10.00" fill="#000000">serialization_eigen.h</text>
</a>
</g>
</g>
<!-- Node54&#45;&gt;Node59 -->
<g id="edge103" class="edge">
<title>Node54&#45;&gt;Node59</title>
<path fill="none" stroke="#191970" d="M1289.9749,-462.1193C1091.6815,-460.1586 273.9627,-449.7403 237,-411 218.8284,-391.9544 240.8268,-363.0874 258.6791,-345.0361"/>
<polygon fill="#191970" stroke="#191970" points="261.1818,-347.485 265.947,-338.0222 256.3208,-342.448 261.1818,-347.485"/>
</g>
<!-- Node60 -->
<g id="node61" class="node">
<title>Node60</title>
<g id="a_node61"><a xlink:href="serialization__path_8h.html" target="_top" xlink:title="serialization_path.h">
<polygon fill="none" stroke="#000000" points="1286.5,-319 1286.5,-338 1399.5,-338 1399.5,-319 1286.5,-319"/>
<text text-anchor="middle" x="1343" y="-326" font-family="Helvetica,sans-Serif" font-size="10.00" fill="#000000">serialization_path.h</text>
</a>
</g>
</g>
<!-- Node54&#45;&gt;Node60 -->
<g id="edge105" class="edge">
<title>Node54&#45;&gt;Node60</title>
<path fill="none" stroke="#191970" d="M1341.732,-452.7158C1349.8188,-442.9452 1361.2838,-427.1016 1366,-411 1372.4287,-389.0516 1362.8294,-363.6955 1354.1415,-346.9499"/>
<polygon fill="#191970" stroke="#191970" points="1357.1803,-345.2127 1349.2596,-338.1761 1351.0635,-348.6163 1357.1803,-345.2127"/>
</g>
<!-- Node61 -->
<g id="node62" class="node">
<title>Node61</title>
<polygon fill="none" stroke="#bfbfbf" points="1532.5,-380.5 1532.5,-410.5 1673.5,-410.5 1673.5,-380.5 1532.5,-380.5"/>
<text text-anchor="start" x="1540.5" y="-398.5" font-family="Helvetica,sans-Serif" font-size="10.00" fill="#000000">unsupported/Eigen/Matrix</text>
<text text-anchor="middle" x="1603" y="-387.5" font-family="Helvetica,sans-Serif" font-size="10.00" fill="#000000">Functions</text>
</g>
<!-- Node54&#45;&gt;Node61 -->
<g id="edge107" class="edge">
<title>Node54&#45;&gt;Node61</title>
<path fill="none" stroke="#191970" d="M1371.3977,-452.9717C1413.2509,-442.5859 1481.1178,-425.7449 1532.5923,-412.9715"/>
<polygon fill="#191970" stroke="#191970" points="1533.4665,-416.3608 1542.3292,-410.5553 1531.7806,-409.5669 1533.4665,-416.3608"/>
</g>
<!-- Node62 -->
<g id="node63" class="node">
<title>Node62</title>
<polygon fill="none" stroke="#bfbfbf" points="1691.5,-380.5 1691.5,-410.5 1834.5,-410.5 1834.5,-380.5 1691.5,-380.5"/>
<text text-anchor="start" x="1699.5" y="-398.5" font-family="Helvetica,sans-Serif" font-size="10.00" fill="#000000">boost/multi_index/hashed</text>
<text text-anchor="middle" x="1763" y="-387.5" font-family="Helvetica,sans-Serif" font-size="10.00" fill="#000000">_index.hpp</text>
</g>
<!-- Node54&#45;&gt;Node62 -->
<g id="edge110" class="edge">
<title>Node54&#45;&gt;Node62</title>
<path fill="none" stroke="#191970" d="M1376.0758,-456.7446C1440.1976,-448.0455 1564.7833,-430.6377 1681.3097,-411.0737"/>
<polygon fill="#191970" stroke="#191970" points="1682.1982,-414.4733 1691.4762,-409.3577 1681.0331,-407.5709 1682.1982,-414.4733"/>
</g>
<!-- Node63 -->
<g id="node64" class="node">
<title>Node63</title>
<polygon fill="none" stroke="#bfbfbf" points="1853,-386 1853,-405 2021,-405 2021,-386 1853,-386"/>
<text text-anchor="middle" x="1937" y="-393" font-family="Helvetica,sans-Serif" font-size="10.00" fill="#000000">boost/multi_index/member.hpp</text>
</g>
<!-- Node54&#45;&gt;Node63 -->
<g id="edge111" class="edge">
<title>Node54&#45;&gt;Node63</title>
<path fill="none" stroke="#191970" d="M1376.0918,-459.0682C1464.054,-451.8602 1670.535,-433.904 1843,-411 1852.7145,-409.7099 1862.9676,-408.1866 1872.9895,-406.6073"/>
<polygon fill="#191970" stroke="#191970" points="1873.5869,-410.0563 1882.9059,-405.0159 1872.4776,-403.1448 1873.5869,-410.0563"/>
</g>
<!-- Node64 -->
<g id="node65" class="node">
<title>Node64</title>
<polygon fill="none" stroke="#bfbfbf" points="256.5,-380.5 256.5,-410.5 401.5,-410.5 401.5,-380.5 256.5,-380.5"/>
<text text-anchor="start" x="264.5" y="-398.5" font-family="Helvetica,sans-Serif" font-size="10.00" fill="#000000">boost/multi_index/random</text>
<text text-anchor="middle" x="329" y="-387.5" font-family="Helvetica,sans-Serif" font-size="10.00" fill="#000000">_access_index.hpp</text>
</g>
<!-- Node54&#45;&gt;Node64 -->
<g id="edge112" class="edge">
<title>Node54&#45;&gt;Node64</title>
<path fill="none" stroke="#191970" d="M1289.5669,-462.1296C1158.4221,-460.576 754.8872,-452.6036 411.9145,-411.1391"/>
<polygon fill="#191970" stroke="#191970" points="412.1359,-407.6402 401.7854,-409.9025 411.2876,-414.5886 412.1359,-407.6402"/>
</g>
<!-- Node65 -->
<g id="node66" class="node">
<title>Node65</title>
<polygon fill="none" stroke="#bfbfbf" points="419.5,-386 419.5,-405 594.5,-405 594.5,-386 419.5,-386"/>
<text text-anchor="middle" x="507" y="-393" font-family="Helvetica,sans-Serif" font-size="10.00" fill="#000000">boost/multi_index_container.hpp</text>
</g>
<!-- Node54&#45;&gt;Node65 -->
<g id="edge113" class="edge">
<title>Node54&#45;&gt;Node65</title>
<path fill="none" stroke="#191970" d="M1289.6776,-460.801C1176.4865,-456.068 862.6734,-441.0616 603,-411 592.5152,-409.7862 581.4258,-408.2408 570.6526,-406.5982"/>
<polygon fill="#191970" stroke="#191970" points="570.8716,-403.0899 560.4506,-405.0012 569.789,-410.0057 570.8716,-403.0899"/>
</g>
<!-- Node66 -->
<g id="node67" class="node">
<title>Node66</title>
<polygon fill="none" stroke="#bfbfbf" points="612.5,-380.5 612.5,-410.5 719.5,-410.5 719.5,-380.5 612.5,-380.5"/>
<text text-anchor="start" x="620.5" y="-398.5" font-family="Helvetica,sans-Serif" font-size="10.00" fill="#000000">boost/serialization</text>
<text text-anchor="middle" x="666" y="-387.5" font-family="Helvetica,sans-Serif" font-size="10.00" fill="#000000">/complex.hpp</text>
</g>
<!-- Node54&#45;&gt;Node66 -->
<g id="edge114" class="edge">
<title>Node54&#45;&gt;Node66</title>
<path fill="none" stroke="#191970" d="M1289.7932,-461.1946C1191.6496,-457.7215 944.3833,-446.1073 729.5405,-411.1035"/>
<polygon fill="#191970" stroke="#191970" points="730.0946,-407.6476 719.6582,-409.4729 728.9549,-414.5543 730.0946,-407.6476"/>
</g>
<!-- Node67 -->
<g id="node68" class="node">
<title>Node67</title>
<polygon fill="none" stroke="#bfbfbf" points="737.5,-380.5 737.5,-410.5 844.5,-410.5 844.5,-380.5 737.5,-380.5"/>
<text text-anchor="start" x="745.5" y="-398.5" font-family="Helvetica,sans-Serif" font-size="10.00" fill="#000000">boost/serialization</text>
<text text-anchor="middle" x="791" y="-387.5" font-family="Helvetica,sans-Serif" font-size="10.00" fill="#000000">/set.hpp</text>
</g>
<!-- Node54&#45;&gt;Node67 -->
<g id="edge115" class="edge">
<title>Node54&#45;&gt;Node67</title>
<path fill="none" stroke="#191970" d="M1289.6908,-459.8655C1206.8503,-454.3919 1020.1515,-439.9631 854.5417,-411.1393"/>
<polygon fill="#191970" stroke="#191970" points="855.1265,-407.6885 844.6708,-409.3995 853.9115,-414.5822 855.1265,-407.6885"/>
</g>
<!-- Node68 -->
<g id="node69" class="node">
<title>Node68</title>
<polygon fill="none" stroke="#bfbfbf" points="862.5,-380.5 862.5,-410.5 969.5,-410.5 969.5,-380.5 862.5,-380.5"/>
<text text-anchor="start" x="870.5" y="-398.5" font-family="Helvetica,sans-Serif" font-size="10.00" fill="#000000">boost/serialization</text>
<text text-anchor="middle" x="916" y="-387.5" font-family="Helvetica,sans-Serif" font-size="10.00" fill="#000000">/vector.hpp</text>
</g>
<!-- Node54&#45;&gt;Node68 -->
<g id="edge116" class="edge">
<title>Node54&#45;&gt;Node68</title>
<path fill="none" stroke="#191970" d="M1289.8657,-457.6671C1224.6458,-450.0484 1096.897,-433.9134 979.5633,-411.2063"/>
<polygon fill="#191970" stroke="#191970" points="980.1799,-407.7607 969.694,-409.2757 978.836,-414.6305 980.1799,-407.7607"/>
</g>
<!-- Node69 -->
<g id="node70" class="node">
<title>Node69</title>
<polygon fill="none" stroke="#bfbfbf" points="987.5,-386 987.5,-405 1040.5,-405 1040.5,-386 987.5,-386"/>
<text text-anchor="middle" x="1014" y="-393" font-family="Helvetica,sans-Serif" font-size="10.00" fill="#000000">iterator</text>
</g>
<!-- Node54&#45;&gt;Node69 -->
<g id="edge119" class="edge">
<title>Node54&#45;&gt;Node69</title>
<path fill="none" stroke="#191970" d="M1289.9049,-457.9167C1233.5934,-451.1994 1132.3443,-436.612 1049,-411 1046.8839,-410.3497 1044.7258,-409.6062 1042.5725,-408.8047"/>
<polygon fill="#191970" stroke="#191970" points="1043.8897,-405.5621 1033.3082,-405.0294 1041.248,-412.0445 1043.8897,-405.5621"/>
</g>
<!-- Node70 -->
<g id="node71" class="node">
<title>Node70</title>
<polygon fill="none" stroke="#bfbfbf" points="1058.5,-386 1058.5,-405 1123.5,-405 1123.5,-386 1058.5,-386"/>
<text text-anchor="middle" x="1091" y="-393" font-family="Helvetica,sans-Serif" font-size="10.00" fill="#000000">stdexcept</text>
</g>
<!-- Node54&#45;&gt;Node70 -->
<g id="edge124" class="edge">
<title>Node54&#45;&gt;Node70</title>
<path fill="none" stroke="#191970" d="M1290.8982,-452.9728C1250.1824,-443.4512 1186.9026,-427.8386 1133,-411 1130.4451,-410.2019 1127.8176,-409.338 1125.1832,-408.4405"/>
<polygon fill="#191970" stroke="#191970" points="1126.3252,-405.132 1115.7304,-405.1005 1123.9931,-411.7321 1126.3252,-405.132"/>
</g>
<!-- Node55&#45;&gt;Node16 -->
<g id="edge98" class="edge">
<title>Node55&#45;&gt;Node16</title>
<path fill="none" stroke="#191970" d="M1152.0893,-385.9435C1145.6539,-383.6853 1138.6356,-381.5006 1132,-380 984.649,-346.6774 934.5843,-399.3061 794,-344 737.1313,-321.6278 684,-322.6111 684,-261.5 684,-261.5 684,-261.5 684,-200 684,-161.0827 692.6339,-116.2416 698.2614,-91.1479"/>
<polygon fill="#191970" stroke="#191970" points="701.7419,-91.6325 700.5936,-81.1001 694.9232,-90.0497 701.7419,-91.6325"/>
</g>
<!-- Node55&#45;&gt;Node18 -->
<g id="edge101" class="edge">
<title>Node55&#45;&gt;Node18</title>
<path fill="none" stroke="#191970" d="M1152.0814,-385.978C1145.6461,-383.7195 1138.6298,-381.5261 1132,-380 1063.3399,-364.1954 869.5433,-390.9383 817,-344 788.9395,-318.9328 798,-299.1265 798,-261.5 798,-261.5 798,-261.5 798,-200 798,-152.029 1149.547,-93.8555 1261.3151,-76.5726"/>
<polygon fill="#191970" stroke="#191970" points="1262.0102,-80.0069 1271.363,-75.0294 1260.9476,-73.088 1262.0102,-80.0069"/>
</g>
<!-- Node55&#45;&gt;Node43 -->
<g id="edge99" class="edge">
<title>Node55&#45;&gt;Node43</title>
<path fill="none" stroke="#191970" d="M1152.1107,-385.8463C1145.6752,-383.5888 1138.6514,-381.4288 1132,-380 946.6628,-340.1864 888.1698,-399.7898 707,-344 462.3006,-268.6468 206.9812,-81.5552 134.3424,-25.8763"/>
<polygon fill="#191970" stroke="#191970" points="136.4589,-23.0887 126.4026,-19.754 132.1845,-28.6321 136.4589,-23.0887"/>
</g>
<!-- Node56 -->
<g id="node57" class="node">
<title>Node56</title>
<polygon fill="none" stroke="#bfbfbf" points="826,-313.5 826,-343.5 960,-343.5 960,-313.5 826,-313.5"/>
<text text-anchor="start" x="834" y="-331.5" font-family="Helvetica,sans-Serif" font-size="10.00" fill="#000000">boost/math/special</text>
<text text-anchor="middle" x="893" y="-320.5" font-family="Helvetica,sans-Serif" font-size="10.00" fill="#000000">_functions/binomial.hpp</text>
</g>
<!-- Node55&#45;&gt;Node56 -->
<g id="edge96" class="edge">
<title>Node55&#45;&gt;Node56</title>
<path fill="none" stroke="#191970" d="M1150.582,-385.9321C1144.5384,-383.8284 1138.0791,-381.7183 1132,-380 1116.3704,-375.5823 1033.9928,-358.037 970.2712,-344.6413"/>
<polygon fill="#191970" stroke="#191970" points="970.7235,-341.1599 960.2176,-342.5296 969.2846,-348.0105 970.7235,-341.1599"/>
</g>
<!-- Node57 -->
<g id="node58" class="node">
<title>Node57</title>
<polygon fill="none" stroke="#bfbfbf" points="978.5,-313.5 978.5,-343.5 1115.5,-343.5 1115.5,-313.5 978.5,-313.5"/>
<text text-anchor="start" x="986.5" y="-331.5" font-family="Helvetica,sans-Serif" font-size="10.00" fill="#000000">boost/math/special</text>
<text text-anchor="middle" x="1047" y="-320.5" font-family="Helvetica,sans-Serif" font-size="10.00" fill="#000000">_functions/factorials.hpp</text>
</g>
<!-- Node55&#45;&gt;Node57 -->
<g id="edge97" class="edge">
<title>Node55&#45;&gt;Node57</title>
<path fill="none" stroke="#191970" d="M1157.5174,-385.9005C1138.6975,-376.1258 1108.9711,-360.6865 1085.0862,-348.2812"/>
<polygon fill="#191970" stroke="#191970" points="1086.4102,-345.025 1075.9225,-343.5218 1083.1837,-351.2371 1086.4102,-345.025"/>
</g>
<!-- Node55&#45;&gt;Node58 -->
<g id="edge100" class="edge">
<title>Node55&#45;&gt;Node58</title>
<path fill="none" stroke="#191970" d="M1152.6007,-385.8556C1146.0413,-383.5394 1138.8335,-381.3479 1132,-380 822.883,-319.0264 732.656,-407.2662 424,-344 420.726,-343.3289 417.3668,-342.446 414.0435,-341.4412"/>
<polygon fill="#191970" stroke="#191970" points="414.8965,-338.0352 404.3023,-338.1519 412.657,-344.6673 414.8965,-338.0352"/>
</g>
<!-- Node59&#45;&gt;Node14 -->
<g id="edge104" class="edge">
<title>Node59&#45;&gt;Node14</title>
<path fill="none" stroke="#191970" d="M294.279,-318.9813C354.5406,-286.2143 561.7706,-177.1312 746,-123 839.7726,-95.4473 953.5083,-81.6351 1017.6363,-75.5613"/>
<polygon fill="#191970" stroke="#191970" points="1018.2366,-79.0209 1027.8731,-74.6178 1017.5941,-72.0505 1018.2366,-79.0209"/>
</g>
<!-- Node60&#45;&gt;Node50 -->
<g id="edge106" class="edge">
<title>Node60&#45;&gt;Node50</title>
<path fill="none" stroke="#191970" d="M1337.1257,-318.9005C1330.9148,-308.751 1320.9665,-292.4941 1313.2401,-279.8679"/>
<polygon fill="#191970" stroke="#191970" points="1316.0685,-277.7844 1307.8634,-271.0817 1310.0977,-281.4382 1316.0685,-277.7844"/>
</g>
</g>
</svg>
        <g id="navigator" transform="translate(0 0)" fill="#404254">
                <rect fill="#f2f5e9" fill-opacity="0.5" stroke="#606060" stroke-width=".5" x="0" y="0" width="60" height="60"/>
                <use id="zoomplus" xlink:href="#zoomPlus" x="17" y="9" onmousedown="handleZoom(evt,'in')"/>
                <use id="zoomminus" xlink:href="#zoomMin" x="42" y="9" onmousedown="handleZoom(evt,'out')"/>
                <use id="reset" xlink:href="#resetDef" x="30" y="36" onmousedown="handleReset()"/>
                <g id="arrowUp" xlink:href="#dirArrow" transform="translate(30 24)" onmousedown="handlePan(0,-1)">
                  <use xlink:href="#rim" fill="#404040">
                        <set attributeName="fill" to="#808080" begin="arrowUp.mouseover" end="arrowUp.mouseout"/>
                  </use>
                  <path fill="none" stroke="white" stroke-width="1.5" d="M0,-3.0v7 M-2.5,-0.5L0,-3.0L2.5,-0.5"/>
                </g>
                <g id="arrowRight" xlink:href="#dirArrow" transform="rotate(90) translate(36 -43)" onmousedown="handlePan(1,0)">
                  <use xlink:href="#rim" fill="#404040">
                        <set attributeName="fill" to="#808080" begin="arrowRight.mouseover" end="arrowRight.mouseout"/>
                  </use>
                  <path fill="none" stroke="white" stroke-width="1.5" d="M0,-3.0v7 M-2.5,-0.5L0,-3.0L2.5,-0.5"/>
                </g>
                <g id="arrowDown" xlink:href="#dirArrow" transform="rotate(180) translate(-30 -48)" onmousedown="handlePan(0,1)">
                  <use xlink:href="#rim" fill="#404040">
                        <set attributeName="fill" to="#808080" begin="arrowDown.mouseover" end="arrowDown.mouseout"/>
                  </use>
                  <path fill="none" stroke="white" stroke-width="1.5" d="M0,-3.0v7 M-2.5,-0.5L0,-3.0L2.5,-0.5"/>
                </g>
                <g id="arrowLeft" xlink:href="#dirArrow" transform="rotate(270) translate(-36 17)" onmousedown="handlePan(-1,0)">
                  <use xlink:href="#rim" fill="#404040">
                        <set attributeName="fill" to="#808080" begin="arrowLeft.mouseover" end="arrowLeft.mouseout"/>
                  </use>
                  <path fill="none" stroke="white" stroke-width="1.5" d="M0,-3.0v7 M-2.5,-0.5L0,-3.0L2.5,-0.5"/>
                </g>
        </g>
        <svg viewBox="0 0 15 15" width="100%" height="30px" preserveAspectRatio="xMaxYMin meet">
         <g id="arrow_out" transform="scale(0.3 0.3)">
          <a xlink:href="SystemOne_8cpp__incl_org.svg" target="_base">
           <rect id="button" ry="5" rx="5" y="6" x="6" height="38" width="38"
                fill="#f2f5e9" fill-opacity="0.5" stroke="#606060" stroke-width="1.0"/>
           <path id="arrow"
             d="M 11.500037,31.436501 C 11.940474,20.09759 22.043105,11.32322 32.158766,21.979434 L 37.068811,17.246167 C 37.068811,17.246167 37.088388,32 37.088388,32 L 22.160133,31.978069 C 22.160133,31.978069 26.997745,27.140456 26.997745,27.140456 C 18.528582,18.264221 13.291696,25.230495 11.500037,31.436501 z"
             style="fill:#404040;"/>
          </a>
         </g>
        </svg>
</svg>
