<?xml version="1.0" encoding="UTF-8" standalone="no"?>
<!DOCTYPE svg PUBLIC "-//W3C//DTD SVG 1.1//EN"
 "http://www.w3.org/Graphics/SVG/1.1/DTD/svg11.dtd">
<!-- Generated by graphviz version 2.40.1 (20161225.0304)
 -->
<!-- Title: /travis/pairinteraction/SystemTwo.cpp Pages: 1 -->
<svg width="3489pt" height="665pt"
 viewBox="0.00 0.00 3489.00 665.00" xmlns="http://www.w3.org/2000/svg" xmlns:xlink="http://www.w3.org/1999/xlink">
<g id="graph0" class="graph" transform="scale(1 1) rotate(0) translate(4 661)">
<title>/travis/pairinteraction/SystemTwo.cpp</title>
<!-- Node0 -->
<g id="node1" class="node">
<title>Node0</title>
<polygon fill="#bfbfbf" stroke="#000000" points="3135,-626.5 3135,-656.5 3257,-656.5 3257,-626.5 3135,-626.5"/>
<text text-anchor="start" x="3143" y="-644.5" font-family="Helvetica,sans-Serif" font-size="10.00" fill="#000000">/travis/pairinteraction</text>
<text text-anchor="middle" x="3196" y="-633.5" font-family="Helvetica,sans-Serif" font-size="10.00" fill="#000000">/SystemTwo.cpp</text>
</g>
<!-- Node1 -->
<g id="node2" class="node">
<title>Node1</title>
<g id="a_node2"><a xlink:href="SystemTwo_8h.html" target="_top" xlink:title="SystemTwo.h">
<polygon fill="none" stroke="#000000" points="973.5,-570.5 973.5,-589.5 1054.5,-589.5 1054.5,-570.5 973.5,-570.5"/>
<text text-anchor="middle" x="1014" y="-577.5" font-family="Helvetica,sans-Serif" font-size="10.00" fill="#000000">SystemTwo.h</text>
</a>
</g>
</g>
<!-- Node0&#45;&gt;Node1 -->
<g id="edge1" class="edge">
<title>Node0&#45;&gt;Node1</title>
<path fill="none" stroke="#191970" d="M3134.7889,-639.7748C2816.9198,-630.8156 1357.9418,-589.6941 1065.2256,-581.4438"/>
<polygon fill="#191970" stroke="#191970" points="1065.0069,-577.9363 1054.9122,-581.1531 1064.8096,-584.9336 1065.0069,-577.9363"/>
</g>
<!-- Node8 -->
<g id="node9" class="node">
<title>Node8</title>
<polygon fill="none" stroke="#bfbfbf" points="792,-62 792,-81 836,-81 836,-62 792,-62"/>
<text text-anchor="middle" x="814" y="-69" font-family="Helvetica,sans-Serif" font-size="10.00" fill="#000000">string</text>
</g>
<!-- Node0&#45;&gt;Node8 -->
<g id="edge157" class="edge">
<title>Node0&#45;&gt;Node8</title>
<path fill="none" stroke="#191970" d="M3134.8301,-640.8054C2713.8947,-635.8468 258.809,-603.9895 119,-534 55.561,-502.2419 50.4324,-445.7818 77,-380 107.5,-304.4816 131.0851,-286.0544 202,-246 334.574,-171.1191 386.3983,-198.5327 532,-154 573.664,-141.257 583.2989,-135.621 625,-123 679.7462,-106.4309 744.1351,-89.4043 781.8667,-79.673"/>
<polygon fill="#191970" stroke="#191970" points="782.9574,-83.0065 791.7719,-77.1281 781.2154,-76.2267 782.9574,-83.0065"/>
</g>
<!-- Node12 -->
<g id="node13" class="node">
<title>Node12</title>
<g id="a_node13"><a xlink:href="dtypes_8h.html" target="_top" xlink:title="dtypes.h">
<polygon fill="none" stroke="#000000" points="1817.5,-129 1817.5,-148 1876.5,-148 1876.5,-129 1817.5,-129"/>
<text text-anchor="middle" x="1847" y="-136" font-family="Helvetica,sans-Serif" font-size="10.00" fill="#000000">dtypes.h</text>
</a>
</g>
</g>
<!-- Node0&#45;&gt;Node12 -->
<g id="edge152" class="edge">
<title>Node0&#45;&gt;Node12</title>
<path fill="none" stroke="#191970" d="M3134.8063,-639.4063C2807.4753,-627.5943 1273.0815,-564.2754 1136,-411 1015.1638,-275.8889 749.9567,-440.4337 1385,-344 1572.3184,-315.555 1662.6183,-400.8506 1806,-277 1840.8327,-246.9121 1846.793,-188.7696 1847.3768,-158.2701"/>
<polygon fill="#191970" stroke="#191970" points="1850.8769,-158.0538 1847.3863,-148.0506 1843.8769,-158.0473 1850.8769,-158.0538"/>
</g>
<!-- Node16 -->
<g id="node17" class="node">
<title>Node16</title>
<polygon fill="none" stroke="#bfbfbf" points="2626.5,-62 2626.5,-81 2673.5,-81 2673.5,-62 2626.5,-62"/>
<text text-anchor="middle" x="2650" y="-69" font-family="Helvetica,sans-Serif" font-size="10.00" fill="#000000">cmath</text>
</g>
<!-- Node0&#45;&gt;Node16 -->
<g id="edge154" class="edge">
<title>Node0&#45;&gt;Node16</title>
<path fill="none" stroke="#191970" d="M3257.2519,-626.3482C3306.3186,-610.1134 3367,-578.9313 3367,-524 3367,-524 3367,-524 3367,-395.5 3367,-380.9105 2931.6708,-128.0953 2918,-123 2837.0083,-92.8131 2735.3507,-79.4966 2683.6114,-74.3359"/>
<polygon fill="#191970" stroke="#191970" points="2683.9398,-70.8514 2673.6518,-73.3826 2683.2728,-77.8196 2683.9398,-70.8514"/>
</g>
<!-- Node18 -->
<g id="node19" class="node">
<title>Node18</title>
<polygon fill="none" stroke="#bfbfbf" points="2933.5,-62 2933.5,-81 2980.5,-81 2980.5,-62 2933.5,-62"/>
<text text-anchor="middle" x="2957" y="-69" font-family="Helvetica,sans-Serif" font-size="10.00" fill="#000000">vector</text>
</g>
<!-- Node0&#45;&gt;Node18 -->
<g id="edge159" class="edge">
<title>Node0&#45;&gt;Node18</title>
<path fill="none" stroke="#191970" d="M3257.2095,-631.5882C3309.5678,-622.1629 3380.0039,-606.9396 3403,-590 3430.6163,-569.6571 3443,-558.3001 3443,-524 3443,-524 3443,-524 3443,-328.5 3443,-123.6696 3101.4683,-81.652 2991.0142,-73.4191"/>
<polygon fill="#191970" stroke="#191970" points="2990.9892,-69.9089 2980.7698,-72.7043 2990.5019,-76.8919 2990.9892,-69.9089"/>
</g>
<!-- Node27 -->
<g id="node28" class="node">
<title>Node27</title>
<polygon fill="none" stroke="#bfbfbf" points="2415,-190.5 2415,-209.5 2501,-209.5 2501,-190.5 2415,-190.5"/>
<text text-anchor="middle" x="2458" y="-197.5" font-family="Helvetica,sans-Serif" font-size="10.00" fill="#000000">unordered_set</text>
</g>
<!-- Node0&#45;&gt;Node27 -->
<g id="edge158" class="edge">
<title>Node0&#45;&gt;Node27</title>
<path fill="none" stroke="#191970" d="M3191.9706,-626.416C3186.3933,-604.1752 3177,-561.1957 3177,-524 3177,-524 3177,-524 3177,-462.5 3177,-373.5675 3121.3044,-356.9661 3044,-313 2952.6765,-261.0607 2638.2963,-220.4987 2511.5733,-205.8829"/>
<polygon fill="#191970" stroke="#191970" points="2511.6729,-202.3715 2501.3398,-204.712 2510.8771,-209.3261 2511.6729,-202.3715"/>
</g>
<!-- Node42 -->
<g id="node43" class="node">
<title>Node42</title>
<polygon fill="none" stroke="#bfbfbf" points="3373,-.5 3373,-19.5 3437,-19.5 3437,-.5 3373,-.5"/>
<text text-anchor="middle" x="3405" y="-7.5" font-family="Helvetica,sans-Serif" font-size="10.00" fill="#000000">algorithm</text>
</g>
<!-- Node0&#45;&gt;Node42 -->
<g id="edge153" class="edge">
<title>Node0&#45;&gt;Node42</title>
<path fill="none" stroke="#191970" d="M3257.0515,-632.7686C3316.1425,-623.4787 3400.7975,-607.7016 3429,-590 3460.6297,-570.1473 3481,-561.3439 3481,-524 3481,-524 3481,-524 3481,-138.5 3481,-93.2888 3445.7147,-50.0297 3423.2296,-27.0531"/>
<polygon fill="#191970" stroke="#191970" points="3425.4629,-24.3396 3415.8889,-19.8019 3420.5436,-29.3196 3425.4629,-24.3396"/>
</g>
<!-- Node48 -->
<g id="node49" class="node">
<title>Node48</title>
<polygon fill="none" stroke="#bfbfbf" points="2941,-190.5 2941,-209.5 2985,-209.5 2985,-190.5 2941,-190.5"/>
<text text-anchor="middle" x="2963" y="-197.5" font-family="Helvetica,sans-Serif" font-size="10.00" fill="#000000">limits</text>
</g>
<!-- Node0&#45;&gt;Node48 -->
<g id="edge155" class="edge">
<title>Node0&#45;&gt;Node48</title>
<path fill="none" stroke="#191970" d="M3200.0294,-626.416C3205.6067,-604.1752 3215,-561.1957 3215,-524 3215,-524 3215,-524 3215,-395.5 3215,-285.4234 3063.0393,-228.415 2995.1259,-208.4336"/>
<polygon fill="#191970" stroke="#191970" points="2995.94,-205.0263 2985.3633,-205.647 2994.0185,-211.7574 2995.94,-205.0263"/>
</g>
<!-- Node58 -->
<g id="node59" class="node">
<title>Node58</title>
<polygon fill="none" stroke="#bfbfbf" points="2979,-319 2979,-338 3035,-338 3035,-319 2979,-319"/>
<text text-anchor="middle" x="3007" y="-326" font-family="Helvetica,sans-Serif" font-size="10.00" fill="#000000">numeric</text>
</g>
<!-- Node0&#45;&gt;Node58 -->
<g id="edge156" class="edge">
<title>Node0&#45;&gt;Node58</title>
<path fill="none" stroke="#191970" d="M3186.0522,-626.2575C3179.435,-616.0497 3170.5963,-602.2827 3163,-590 3107.0219,-499.4863 3042.6119,-389.6145 3017.6499,-346.8069"/>
<polygon fill="#191970" stroke="#191970" points="3020.6153,-344.944 3012.5574,-338.065 3014.5668,-348.4676 3020.6153,-344.944"/>
</g>
<!-- Node73 -->
<g id="node74" class="node">
<title>Node73</title>
<g id="a_node74"><a xlink:href="GreenTensor_8h.html" target="_top" xlink:title="GreenTensor.h">
<polygon fill="none" stroke="#000000" points="3079.5,-190.5 3079.5,-209.5 3164.5,-209.5 3164.5,-190.5 3079.5,-190.5"/>
<text text-anchor="middle" x="3122" y="-197.5" font-family="Helvetica,sans-Serif" font-size="10.00" fill="#000000">GreenTensor.h</text>
</a>
</g>
</g>
<!-- Node0&#45;&gt;Node73 -->
<g id="edge148" class="edge">
<title>Node0&#45;&gt;Node73</title>
<path fill="none" stroke="#191970" d="M3257.3294,-630.6839C3303.8909,-621.3526 3362.8941,-606.7583 3381,-590 3403.9066,-568.7983 3405,-555.2125 3405,-524 3405,-524 3405,-524 3405,-328.5 3405,-270.8827 3356.421,-271.9929 3305,-246 3263.8455,-225.1967 3212.6194,-213.3632 3174.841,-206.9251"/>
<polygon fill="#191970" stroke="#191970" points="3174.9945,-203.404 3164.5616,-205.2494 3173.8682,-210.3128 3174.9945,-203.404"/>
</g>
<!-- Node2 -->
<g id="node3" class="node">
<title>Node2</title>
<g id="a_node3"><a xlink:href="State_8h.html" target="_top" xlink:title="State.h">
<polygon fill="none" stroke="#000000" points="779.5,-386 779.5,-405 830.5,-405 830.5,-386 779.5,-386"/>
<text text-anchor="middle" x="805" y="-393" font-family="Helvetica,sans-Serif" font-size="10.00" fill="#000000">State.h</text>
</a>
</g>
</g>
<!-- Node1&#45;&gt;Node2 -->
<g id="edge2" class="edge">
<title>Node1&#45;&gt;Node2</title>
<path fill="none" stroke="#191970" d="M973.3219,-578.6781C802.9753,-572.7244 153.0906,-545.6829 95,-478 86.0267,-467.545 85.6167,-457.0886 95,-447 118.1997,-422.0565 628.1981,-401.8741 769.1756,-396.757"/>
<polygon fill="#191970" stroke="#191970" points="769.5598,-400.2456 779.4274,-396.388 769.3079,-393.2501 769.5598,-400.2456"/>
</g>
<!-- Node14 -->
<g id="node15" class="node">
<title>Node14</title>
<polygon fill="none" stroke="#bfbfbf" points="2112,-62 2112,-81 2192,-81 2192,-62 2112,-62"/>
<text text-anchor="middle" x="2152" y="-69" font-family="Helvetica,sans-Serif" font-size="10.00" fill="#000000">Eigen/Sparse</text>
</g>
<!-- Node1&#45;&gt;Node14 -->
<g id="edge141" class="edge">
<title>Node1&#45;&gt;Node14</title>
<path fill="none" stroke="#191970" d="M1016.5447,-570.282C1025.8504,-536.909 1061.4525,-426.4837 1136,-380 1209.8539,-333.9488 1440.125,-358.1633 1526,-344 1652.2519,-323.1773 1687.4287,-325.1039 1806,-277 1937.8862,-223.4943 2078.9721,-125.0142 2131.1012,-87.0191"/>
<polygon fill="#191970" stroke="#191970" points="2133.2425,-89.7891 2139.2362,-81.0527 2129.1026,-84.1445 2133.2425,-89.7891"/>
</g>
<!-- Node1&#45;&gt;Node16 -->
<g id="edge145" class="edge">
<title>Node1&#45;&gt;Node16</title>
<path fill="none" stroke="#191970" d="M1054.731,-579.5637C1266.2703,-577.1777 2241.3387,-564.6742 2542,-534 2763.2311,-511.4295 2864.2008,-562.4895 3027,-411 3099.7036,-343.3472 3072.1127,-251.328 2994,-190 2897.7558,-114.4367 2750.1941,-85.3783 2684.0884,-75.7115"/>
<polygon fill="#191970" stroke="#191970" points="2684.2175,-72.1955 2673.8283,-74.2727 2683.2453,-79.1276 2684.2175,-72.1955"/>
</g>
<!-- Node26 -->
<g id="node27" class="node">
<title>Node26</title>
<polygon fill="none" stroke="#bfbfbf" points="2059,-190.5 2059,-209.5 2091,-209.5 2091,-190.5 2059,-190.5"/>
<text text-anchor="middle" x="2075" y="-197.5" font-family="Helvetica,sans-Serif" font-size="10.00" fill="#000000">set</text>
</g>
<!-- Node1&#45;&gt;Node26 -->
<g id="edge146" class="edge">
<title>Node1&#45;&gt;Node26</title>
<path fill="none" stroke="#191970" d="M1054.8658,-579.1472C1302.4531,-573.5686 2594.8924,-538.4418 2709,-411 2718.1906,-400.7355 2717.8089,-390.5939 2709,-380 2652.9323,-312.5709 2595.5758,-378.6094 2515,-344 2446.876,-314.739 2448.6086,-274.106 2380,-246 2329.409,-225.2751 2165.4874,-208.3467 2101.2066,-202.3433"/>
<polygon fill="#191970" stroke="#191970" points="2101.3709,-198.8437 2091.0921,-201.4124 2100.7293,-205.8142 2101.3709,-198.8437"/>
</g>
<!-- Node37 -->
<g id="node38" class="node">
<title>Node37</title>
<polygon fill="none" stroke="#bfbfbf" points="672.5,-.5 672.5,-19.5 741.5,-19.5 741.5,-.5 672.5,-.5"/>
<text text-anchor="middle" x="707" y="-7.5" font-family="Helvetica,sans-Serif" font-size="10.00" fill="#000000">type_traits</text>
</g>
<!-- Node1&#45;&gt;Node37 -->
<g id="edge147" class="edge">
<title>Node1&#45;&gt;Node37</title>
<path fill="none" stroke="#191970" d="M973.2756,-579.0692C809.1716,-575.1606 201.2651,-559.1049 119,-534 59.9854,-515.9905 0,-524.2014 0,-462.5 0,-462.5 0,-462.5 0,-138.5 0,-95.3929 14.1058,-78.2944 51,-56 103.0209,-24.5648 522.4242,-13.5976 662.0034,-10.7981"/>
<polygon fill="#191970" stroke="#191970" points="662.4017,-14.291 672.3312,-10.5957 662.2645,-7.2924 662.4017,-14.291"/>
</g>
<!-- Node51 -->
<g id="node52" class="node">
<title>Node51</title>
<polygon fill="none" stroke="#bfbfbf" points="211.5,-246.5 211.5,-276.5 328.5,-276.5 328.5,-246.5 211.5,-246.5"/>
<text text-anchor="start" x="219.5" y="-264.5" font-family="Helvetica,sans-Serif" font-size="10.00" fill="#000000">boost/serialization</text>
<text text-anchor="middle" x="270" y="-253.5" font-family="Helvetica,sans-Serif" font-size="10.00" fill="#000000">/unordered_map.hpp</text>
</g>
<!-- Node1&#45;&gt;Node51 -->
<g id="edge144" class="edge">
<title>Node1&#45;&gt;Node51</title>
<path fill="none" stroke="#191970" d="M973.4283,-579.8177C830.1581,-578.8464 348.6176,-572.7099 200,-534 144.9866,-519.6709 115.1405,-526.2012 85,-478 35.1804,-398.3276 161.3061,-317.6232 229.5853,-281.3341"/>
<polygon fill="#191970" stroke="#191970" points="231.5696,-284.2464 238.8116,-276.5131 228.3277,-278.0423 231.5696,-284.2464"/>
</g>
<!-- Node54 -->
<g id="node55" class="node">
<title>Node54</title>
<g id="a_node55"><a xlink:href="SystemBase_8h.html" target="_top" xlink:title="SystemBase.h">
<polygon fill="none" stroke="#000000" points="2009,-453 2009,-472 2095,-472 2095,-453 2009,-453"/>
<text text-anchor="middle" x="2052" y="-460" font-family="Helvetica,sans-Serif" font-size="10.00" fill="#000000">SystemBase.h</text>
</a>
</g>
</g>
<!-- Node1&#45;&gt;Node54 -->
<g id="edge92" class="edge">
<title>Node1&#45;&gt;Node54</title>
<path fill="none" stroke="#191970" d="M1054.6908,-575.3939C1216.6577,-557.0595 1815.6001,-489.2601 1998.5653,-468.5487"/>
<polygon fill="#191970" stroke="#191970" points="1999.2015,-471.9992 2008.7443,-467.3965 1998.4141,-465.0436 1999.2015,-471.9992"/>
</g>
<!-- Node56 -->
<g id="node57" class="node">
<title>Node56</title>
<polygon fill="none" stroke="#bfbfbf" points="2557,-313.5 2557,-343.5 2691,-343.5 2691,-313.5 2557,-313.5"/>
<text text-anchor="start" x="2565" y="-331.5" font-family="Helvetica,sans-Serif" font-size="10.00" fill="#000000">boost/math/special</text>
<text text-anchor="middle" x="2624" y="-320.5" font-family="Helvetica,sans-Serif" font-size="10.00" fill="#000000">_functions/binomial.hpp</text>
</g>
<!-- Node1&#45;&gt;Node56 -->
<g id="edge142" class="edge">
<title>Node1&#45;&gt;Node56</title>
<path fill="none" stroke="#191970" d="M1054.8579,-579.2909C1318.9355,-574.5146 2775.6583,-545.1689 2839,-478 2868.8824,-446.312 2865.9738,-414.198 2839,-380 2834.5248,-374.3263 2760.8944,-357.5023 2701.0314,-344.6122"/>
<polygon fill="#191970" stroke="#191970" points="2701.6876,-341.1735 2691.176,-342.4986 2700.2197,-348.0178 2701.6876,-341.1735"/>
</g>
<!-- Node71 -->
<g id="node72" class="node">
<title>Node71</title>
<g id="a_node72"><a xlink:href="SystemOne_8h.html" target="_top" xlink:title="SystemOne.h">
<polygon fill="none" stroke="#000000" points="764,-514.5 764,-533.5 846,-533.5 846,-514.5 764,-514.5"/>
<text text-anchor="middle" x="805" y="-521.5" font-family="Helvetica,sans-Serif" font-size="10.00" fill="#000000">SystemOne.h</text>
</a>
</g>
</g>
<!-- Node1&#45;&gt;Node71 -->
<g id="edge130" class="edge">
<title>Node1&#45;&gt;Node71</title>
<path fill="none" stroke="#191970" d="M978.0716,-570.3733C942.7163,-560.9001 888.612,-546.4032 850.3212,-536.1435"/>
<polygon fill="#191970" stroke="#191970" points="851.0247,-532.7086 840.4595,-533.5011 849.213,-539.4701 851.0247,-532.7086"/>
</g>
<!-- Node72 -->
<g id="node73" class="node">
<title>Node72</title>
<polygon fill="none" stroke="#bfbfbf" points="104.5,-447.5 104.5,-477.5 211.5,-477.5 211.5,-447.5 104.5,-447.5"/>
<text text-anchor="start" x="112.5" y="-465.5" font-family="Helvetica,sans-Serif" font-size="10.00" fill="#000000">boost/serialization</text>
<text text-anchor="middle" x="158" y="-454.5" font-family="Helvetica,sans-Serif" font-size="10.00" fill="#000000">/base_object.hpp</text>
</g>
<!-- Node1&#45;&gt;Node72 -->
<g id="edge143" class="edge">
<title>Node1&#45;&gt;Node72</title>
<path fill="none" stroke="#191970" d="M973.1916,-576.106C856.2643,-564.6506 510.1735,-528.6603 226,-478 224.5472,-477.741 223.0786,-477.4715 221.599,-477.1932"/>
<polygon fill="#191970" stroke="#191970" points="222.2137,-473.7471 211.7252,-475.2439 220.8579,-480.6145 222.2137,-473.7471"/>
</g>
<!-- Node3 -->
<g id="node4" class="node">
<title>Node3</title>
<g id="a_node4"><a xlink:href="MatrixElementCache_8h.html" target="_top" xlink:title="MatrixElementCache.h">
<polygon fill="none" stroke="#000000" points="1026.5,-319 1026.5,-338 1153.5,-338 1153.5,-319 1026.5,-319"/>
<text text-anchor="middle" x="1090" y="-326" font-family="Helvetica,sans-Serif" font-size="10.00" fill="#000000">MatrixElementCache.h</text>
</a>
</g>
</g>
<!-- Node2&#45;&gt;Node3 -->
<g id="edge3" class="edge">
<title>Node2&#45;&gt;Node3</title>
<path fill="none" stroke="#191970" d="M830.6224,-388.4565C876.4969,-376.9991 973.1374,-354.2063 1034.6924,-340.2606"/>
<polygon fill="#191970" stroke="#191970" points="1035.6477,-343.6331 1044.6317,-338.0172 1034.1065,-336.8048 1035.6477,-343.6331"/>
</g>
<!-- Node2&#45;&gt;Node8 -->
<g id="edge87" class="edge">
<title>Node2&#45;&gt;Node8</title>
<path fill="none" stroke="#191970" d="M779.4182,-392.3884C732.3479,-386.0808 634.9873,-370.1261 615,-344 576.3262,-293.4481 462.4813,-335.7704 652,-123 669.3266,-103.5476 739.7962,-86.433 781.8737,-77.6827"/>
<polygon fill="#191970" stroke="#191970" points="782.8079,-81.0644 791.91,-75.6419 781.413,-74.2048 782.8079,-81.0644"/>
</g>
<!-- Node2&#45;&gt;Node12 -->
<g id="edge82" class="edge">
<title>Node2&#45;&gt;Node12</title>
<path fill="none" stroke="#191970" d="M830.8389,-392.8967C963.156,-379.4213 1561.4601,-316.6909 1634,-277 1678.7855,-252.4952 1667.1052,-219.1727 1709,-190 1738.942,-169.1505 1778.3744,-155.5442 1807.4179,-147.5837"/>
<polygon fill="#191970" stroke="#191970" points="1808.4463,-150.9323 1817.2251,-145.0009 1806.6634,-144.1632 1808.4463,-150.9323"/>
</g>
<!-- Node15 -->
<g id="node16" class="node">
<title>Node15</title>
<polygon fill="none" stroke="#bfbfbf" points="231,-62 231,-81 273,-81 273,-62 231,-62"/>
<text text-anchor="middle" x="252" y="-69" font-family="Helvetica,sans-Serif" font-size="10.00" fill="#000000">array</text>
</g>
<!-- Node2&#45;&gt;Node15 -->
<g id="edge83" class="edge">
<title>Node2&#45;&gt;Node15</title>
<path fill="none" stroke="#191970" d="M779.4497,-394.1941C734.0291,-390.99 637.2226,-380.1302 565,-344 430.3593,-276.6444 306.9845,-137.697 266.1857,-88.9022"/>
<polygon fill="#191970" stroke="#191970" points="268.8184,-86.5938 259.7453,-81.1231 263.4265,-91.0579 268.8184,-86.5938"/>
</g>
<!-- Node2&#45;&gt;Node16 -->
<g id="edge85" class="edge">
<title>Node2&#45;&gt;Node16</title>
<path fill="none" stroke="#191970" d="M830.5073,-393.8686C911.693,-388.5407 1171.3088,-370.4588 1385,-344 1573.0299,-320.7185 1622.4319,-323.9045 1806,-277 1917.5479,-248.4978 1939.001,-220.5703 2050,-190 2262.2,-131.5579 2524.1516,-90.064 2616.1497,-76.39"/>
<polygon fill="#191970" stroke="#191970" points="2616.8826,-79.8198 2626.2645,-74.8973 2615.8606,-72.8948 2616.8826,-79.8198"/>
</g>
<!-- Node19 -->
<g id="node20" class="node">
<title>Node19</title>
<polygon fill="none" stroke="#bfbfbf" points="1256.5,-129 1256.5,-148 1399.5,-148 1399.5,-129 1256.5,-129"/>
<text text-anchor="middle" x="1328" y="-136" font-family="Helvetica,sans-Serif" font-size="10.00" fill="#000000">boost/functional/hash.hpp</text>
</g>
<!-- Node2&#45;&gt;Node19 -->
<g id="edge84" class="edge">
<title>Node2&#45;&gt;Node19</title>
<path fill="none" stroke="#191970" d="M812.4471,-385.7379C839.4689,-351.1904 936.6384,-234.4204 1048,-190 1083.662,-175.775 1179.1618,-159.8484 1248.7375,-149.5244"/>
<polygon fill="#191970" stroke="#191970" points="1249.4207,-152.9617 1258.8044,-148.0428 1248.4013,-146.0363 1249.4207,-152.9617"/>
</g>
<!-- Node20 -->
<g id="node21" class="node">
<title>Node20</title>
<polygon fill="none" stroke="#bfbfbf" points="1097,-62 1097,-81 1157,-81 1157,-62 1097,-62"/>
<text text-anchor="middle" x="1127" y="-69" font-family="Helvetica,sans-Serif" font-size="10.00" fill="#000000">iostream</text>
</g>
<!-- Node2&#45;&gt;Node20 -->
<g id="edge86" class="edge">
<title>Node2&#45;&gt;Node20</title>
<path fill="none" stroke="#191970" d="M793.2675,-385.7861C782.6878,-376.3022 767.6513,-360.8682 760,-344 719.4258,-254.5487 693.6127,-194.4616 761,-123 783.126,-99.5363 996.2184,-81.1644 1086.6951,-74.3574"/>
<polygon fill="#191970" stroke="#191970" points="1087.1326,-77.8347 1096.8459,-73.6037 1086.6142,-70.8539 1087.1326,-77.8347"/>
</g>
<!-- Node21 -->
<g id="node22" class="node">
<title>Node21</title>
<polygon fill="none" stroke="#bfbfbf" points="770.5,-123.5 770.5,-153.5 877.5,-153.5 877.5,-123.5 770.5,-123.5"/>
<text text-anchor="start" x="778.5" y="-141.5" font-family="Helvetica,sans-Serif" font-size="10.00" fill="#000000">boost/serialization</text>
<text text-anchor="middle" x="824" y="-130.5" font-family="Helvetica,sans-Serif" font-size="10.00" fill="#000000">/array.hpp</text>
</g>
<!-- Node2&#45;&gt;Node21 -->
<g id="edge89" class="edge">
<title>Node2&#45;&gt;Node21</title>
<path fill="none" stroke="#191970" d="M796.268,-385.7158C788.1812,-375.9452 776.7162,-360.1016 772,-344 752.7608,-278.3152 745.6548,-253.171 772,-190 776.7283,-178.6624 785.3017,-168.5431 794.1416,-160.3389"/>
<polygon fill="#191970" stroke="#191970" points="796.6139,-162.8281 801.8886,-153.6396 792.0351,-157.5333 796.6139,-162.8281"/>
</g>
<!-- Node22 -->
<g id="node23" class="node">
<title>Node22</title>
<polygon fill="none" stroke="#bfbfbf" points="934.5,-123.5 934.5,-153.5 1041.5,-153.5 1041.5,-123.5 934.5,-123.5"/>
<text text-anchor="start" x="942.5" y="-141.5" font-family="Helvetica,sans-Serif" font-size="10.00" fill="#000000">boost/serialization</text>
<text text-anchor="middle" x="988" y="-130.5" font-family="Helvetica,sans-Serif" font-size="10.00" fill="#000000">/string.hpp</text>
</g>
<!-- Node2&#45;&gt;Node22 -->
<g id="edge90" class="edge">
<title>Node2&#45;&gt;Node22</title>
<path fill="none" stroke="#191970" d="M801.5944,-385.6051C791.2062,-353.4483 763.372,-250.4851 810,-190 824.1973,-171.5835 879.1241,-157.5437 924.2519,-148.8104"/>
<polygon fill="#191970" stroke="#191970" points="925.1202,-152.2086 934.301,-146.9204 923.8263,-145.3292 925.1202,-152.2086"/>
</g>
<!-- Node23 -->
<g id="node24" class="node">
<title>Node23</title>
<polygon fill="none" stroke="#bfbfbf" points="1060,-129 1060,-148 1162,-148 1162,-129 1060,-129"/>
<text text-anchor="middle" x="1111" y="-136" font-family="Helvetica,sans-Serif" font-size="10.00" fill="#000000">boost/variant.hpp</text>
</g>
<!-- Node2&#45;&gt;Node23 -->
<g id="edge91" class="edge">
<title>Node2&#45;&gt;Node23</title>
<path fill="none" stroke="#191970" d="M805.7299,-385.9039C808.0382,-360.8445 816.977,-292.1822 848,-246 870.4105,-212.6387 883.0766,-208.02 919,-190 922.3466,-188.3213 1009.4246,-165.2425 1065.149,-150.5557"/>
<polygon fill="#191970" stroke="#191970" points="1066.0438,-153.9394 1074.8223,-148.0074 1064.2606,-147.1704 1066.0438,-153.9394"/>
</g>
<!-- Node53 -->
<g id="node54" class="node">
<title>Node53</title>
<polygon fill="none" stroke="#bfbfbf" points="624.5,-319 624.5,-338 681.5,-338 681.5,-319 624.5,-319"/>
<text text-anchor="middle" x="653" y="-326" font-family="Helvetica,sans-Serif" font-size="10.00" fill="#000000">typeinfo</text>
</g>
<!-- Node2&#45;&gt;Node53 -->
<g id="edge88" class="edge">
<title>Node2&#45;&gt;Node53</title>
<path fill="none" stroke="#191970" d="M783.2221,-385.9005C757.2616,-374.4574 713.6887,-355.2509 684.1654,-342.2374"/>
<polygon fill="#191970" stroke="#191970" points="685.2997,-338.9125 674.7375,-338.0817 682.4763,-345.3178 685.2997,-338.9125"/>
</g>
<!-- Node3&#45;&gt;Node2 -->
<g id="edge34" class="edge">
<title>Node3&#45;&gt;Node2</title>
<path fill="none" stroke="#191970" d="M1054.0546,-338.1025C999.1518,-351.6251 895.3703,-375.9845 840.6425,-388.1581"/>
<polygon fill="#191970" stroke="#191970" points="839.7087,-384.78 830.6986,-390.3539 841.218,-391.6153 839.7087,-384.78"/>
</g>
<!-- Node4 -->
<g id="node5" class="node">
<title>Node4</title>
<g id="a_node5"><a xlink:href="Basisnames_8h.html" target="_top" xlink:title="Basisnames.h">
<polygon fill="none" stroke="#000000" points="1151.5,-252 1151.5,-271 1236.5,-271 1236.5,-252 1151.5,-252"/>
<text text-anchor="middle" x="1194" y="-259" font-family="Helvetica,sans-Serif" font-size="10.00" fill="#000000">Basisnames.h</text>
</a>
</g>
</g>
<!-- Node3&#45;&gt;Node4 -->
<g id="edge4" class="edge">
<title>Node3&#45;&gt;Node4</title>
<path fill="none" stroke="#191970" d="M1104.9007,-318.9005C1122.0453,-307.8554 1150.4168,-289.5776 1170.5345,-276.6172"/>
<polygon fill="#191970" stroke="#191970" points="1172.616,-279.4397 1179.127,-271.0817 1168.8249,-273.5552 1172.616,-279.4397"/>
</g>
<!-- Node7 -->
<g id="node8" class="node">
<title>Node7</title>
<polygon fill="none" stroke="#bfbfbf" points="627,-62 627,-81 683,-81 683,-62 627,-62"/>
<text text-anchor="middle" x="655" y="-69" font-family="Helvetica,sans-Serif" font-size="10.00" fill="#000000">sstream</text>
</g>
<!-- Node3&#45;&gt;Node7 -->
<g id="edge78" class="edge">
<title>Node3&#45;&gt;Node7</title>
<path fill="none" stroke="#191970" d="M1055.1506,-318.9652C1026.3786,-310.2929 985.0523,-295.9569 952,-277 933.0931,-266.1561 933.2983,-256.1311 914,-246 863.1893,-219.3258 839.21,-239.523 790,-210 736.2457,-177.7507 689.0985,-118.8822 667.5086,-89.3688"/>
<polygon fill="#191970" stroke="#191970" points="670.327,-87.293 661.6498,-81.2138 664.642,-91.3774 670.327,-87.293"/>
</g>
<!-- Node3&#45;&gt;Node8 -->
<g id="edge79" class="edge">
<title>Node3&#45;&gt;Node8</title>
<path fill="none" stroke="#191970" d="M1074.9428,-318.8884C1049.8497,-303.01 997.7151,-270.6104 952,-246 869.0351,-201.3363 811.1265,-233.7832 761,-154 746.3537,-130.6884 771.3623,-103.9067 791.7694,-87.3419"/>
<polygon fill="#191970" stroke="#191970" points="794.056,-89.9981 799.8266,-81.1127 789.7744,-84.4602 794.056,-89.9981"/>
</g>
<!-- Node3&#45;&gt;Node12 -->
<g id="edge70" class="edge">
<title>Node3&#45;&gt;Node12</title>
<path fill="none" stroke="#191970" d="M1153.5342,-327.4411C1315.1915,-324.2366 1732.9955,-312.5709 1784,-277 1794.5011,-269.6764 1825.2263,-194.0191 1839.523,-157.7233"/>
<polygon fill="#191970" stroke="#191970" points="1842.8536,-158.8167 1843.2413,-148.229 1836.3356,-156.264 1842.8536,-158.8167"/>
</g>
<!-- Node3&#45;&gt;Node19 -->
<g id="edge74" class="edge">
<title>Node3&#45;&gt;Node19</title>
<path fill="none" stroke="#191970" d="M1089.2274,-318.8112C1087.7951,-293.6677 1087.6757,-225.8039 1124,-190 1142.1014,-172.1579 1200.8059,-158.4954 1250.6204,-149.7408"/>
<polygon fill="#191970" stroke="#191970" points="1251.5079,-153.1398 1260.7733,-148.0015 1250.3259,-146.2403 1251.5079,-153.1398"/>
</g>
<!-- Node25 -->
<g id="node26" class="node">
<title>Node25</title>
<polygon fill="none" stroke="#bfbfbf" points="351,-62 351,-81 409,-81 409,-62 351,-62"/>
<text text-anchor="middle" x="380" y="-69" font-family="Helvetica,sans-Serif" font-size="10.00" fill="#000000">memory</text>
</g>
<!-- Node3&#45;&gt;Node25 -->
<g id="edge77" class="edge">
<title>Node3&#45;&gt;Node25</title>
<path fill="none" stroke="#191970" d="M1026.1652,-319.216C921.3623,-303.0296 706.987,-265.939 532,-210 472.4655,-190.9683 444.0513,-201.1313 403,-154 387.7148,-136.4509 382.5227,-109.5223 380.7956,-91.2429"/>
<polygon fill="#191970" stroke="#191970" points="384.2791,-90.8799 380.1088,-81.1404 377.2952,-91.3548 384.2791,-90.8799"/>
</g>
<!-- Node28 -->
<g id="node29" class="node">
<title>Node28</title>
<g id="a_node29"><a xlink:href="Wavefunction_8h.html" target="_top" xlink:title="Wavefunction.h">
<polygon fill="none" stroke="#000000" points="1681.5,-252 1681.5,-271 1774.5,-271 1774.5,-252 1681.5,-252"/>
<text text-anchor="middle" x="1728" y="-259" font-family="Helvetica,sans-Serif" font-size="10.00" fill="#000000">Wavefunction.h</text>
</a>
</g>
</g>
<!-- Node3&#45;&gt;Node28 -->
<g id="edge35" class="edge">
<title>Node3&#45;&gt;Node28</title>
<path fill="none" stroke="#191970" d="M1153.8097,-323.8951C1255.5963,-316.2268 1460.8935,-299.4388 1634,-277 1646.0457,-275.4386 1658.9158,-273.4975 1671.1461,-271.523"/>
<polygon fill="#191970" stroke="#191970" points="1671.9371,-274.9401 1681.2369,-269.8642 1670.8016,-268.0328 1671.9371,-274.9401"/>
</g>
<!-- Node32 -->
<g id="node33" class="node">
<title>Node32</title>
<polygon fill="none" stroke="#bfbfbf" points="105.5,-62 105.5,-81 198.5,-81 198.5,-62 105.5,-62"/>
<text text-anchor="middle" x="152" y="-69" font-family="Helvetica,sans-Serif" font-size="10.00" fill="#000000">unordered_map</text>
</g>
<!-- Node3&#45;&gt;Node32 -->
<g id="edge81" class="edge">
<title>Node3&#45;&gt;Node32</title>
<path fill="none" stroke="#191970" d="M1026.3017,-324.5298C942.1517,-318.4462 789.6677,-304.5123 662,-277 564.9875,-256.0939 541.5039,-245.9377 449,-210 347.3652,-170.5149 231.4522,-112.5278 179.5995,-85.87"/>
<polygon fill="#191970" stroke="#191970" points="180.8848,-82.5947 170.3931,-81.1195 177.6749,-88.8154 180.8848,-82.5947"/>
</g>
<!-- Node41 -->
<g id="node42" class="node">
<title>Node41</title>
<g id="a_node42"><a xlink:href="utils_8h.html" target="_top" xlink:title="utils.h">
<polygon fill="none" stroke="#000000" points="1727.5,-62 1727.5,-81 1774.5,-81 1774.5,-62 1727.5,-62"/>
<text text-anchor="middle" x="1751" y="-69" font-family="Helvetica,sans-Serif" font-size="10.00" fill="#000000">utils.h</text>
</a>
</g>
</g>
<!-- Node3&#45;&gt;Node41 -->
<g id="edge71" class="edge">
<title>Node3&#45;&gt;Node41</title>
<path fill="none" stroke="#191970" d="M1132.0297,-318.9346C1164.3984,-310.5655 1209.6131,-296.6537 1246,-277 1265.4819,-266.4772 1264.5978,-254.6035 1285,-246 1401.8286,-196.734 1444.4839,-238.6326 1568,-210 1586.7579,-205.6517 1719.1012,-168.2964 1732,-154 1747.4103,-136.92 1751.0793,-109.8868 1751.6038,-91.4554"/>
<polygon fill="#191970" stroke="#191970" points="1755.1038,-91.2557 1751.6008,-81.2568 1748.1038,-91.2578 1755.1038,-91.2557"/>
</g>
<!-- Node46 -->
<g id="node47" class="node">
<title>Node46</title>
<polygon fill="none" stroke="#bfbfbf" points="1417.5,-129 1417.5,-148 1458.5,-148 1458.5,-129 1417.5,-129"/>
<text text-anchor="middle" x="1438" y="-136" font-family="Helvetica,sans-Serif" font-size="10.00" fill="#000000">tuple</text>
</g>
<!-- Node3&#45;&gt;Node46 -->
<g id="edge80" class="edge">
<title>Node3&#45;&gt;Node46</title>
<path fill="none" stroke="#191970" d="M1093.4456,-318.706C1103.768,-289.9287 1135.1388,-206.6134 1158,-190 1249.1668,-123.7486 1301.9059,-189.0925 1409,-154 1410.424,-153.5334 1411.861,-152.9995 1413.2931,-152.417"/>
<polygon fill="#191970" stroke="#191970" points="1414.9464,-155.5068 1422.4891,-148.0665 1411.9529,-149.1792 1414.9464,-155.5068"/>
</g>
<!-- Node49 -->
<g id="node50" class="node">
<title>Node49</title>
<polygon fill="none" stroke="#bfbfbf" points="1293.5,-246.5 1293.5,-276.5 1496.5,-276.5 1496.5,-246.5 1293.5,-246.5"/>
<text text-anchor="start" x="1301.5" y="-264.5" font-family="Helvetica,sans-Serif" font-size="10.00" fill="#000000">wignerSymbols/include</text>
<text text-anchor="middle" x="1395" y="-253.5" font-family="Helvetica,sans-Serif" font-size="10.00" fill="#000000">/wignerSymbols/wignerSymbols&#45;cpp.h</text>
</g>
<!-- Node3&#45;&gt;Node49 -->
<g id="edge72" class="edge">
<title>Node3&#45;&gt;Node49</title>
<path fill="none" stroke="#191970" d="M1133.3752,-318.9717C1180.9487,-308.5211 1258.2757,-291.5345 1316.5512,-278.733"/>
<polygon fill="#191970" stroke="#191970" points="1317.4483,-282.1195 1326.4645,-276.5553 1315.9464,-275.2825 1317.4483,-282.1195"/>
</g>
<!-- Node50 -->
<g id="node51" class="node">
<title>Node50</title>
<polygon fill="none" stroke="#bfbfbf" points="2251.5,-252 2251.5,-271 2370.5,-271 2370.5,-252 2251.5,-252"/>
<text text-anchor="middle" x="2311" y="-259" font-family="Helvetica,sans-Serif" font-size="10.00" fill="#000000">boost/filesystem.hpp</text>
</g>
<!-- Node3&#45;&gt;Node50 -->
<g id="edge73" class="edge">
<title>Node3&#45;&gt;Node50</title>
<path fill="none" stroke="#191970" d="M1153.5005,-325.0155C1361.9056,-313.5797 2024.061,-277.2452 2241.2555,-265.3271"/>
<polygon fill="#191970" stroke="#191970" points="2241.465,-268.821 2251.2582,-264.7782 2241.0814,-261.8315 2241.465,-268.821"/>
</g>
<!-- Node3&#45;&gt;Node51 -->
<g id="edge75" class="edge">
<title>Node3&#45;&gt;Node51</title>
<path fill="none" stroke="#191970" d="M1026.1145,-324.1747C906.7608,-315.9657 641.8322,-297.1379 419,-277 392.8197,-274.634 364.0858,-271.7201 338.8958,-269.0598"/>
<polygon fill="#191970" stroke="#191970" points="339.0155,-265.5529 328.7017,-267.9767 338.2759,-272.5137 339.0155,-265.5529"/>
</g>
<!-- Node52 -->
<g id="node53" class="node">
<title>Node52</title>
<polygon fill="none" stroke="#bfbfbf" points="1515,-246.5 1515,-276.5 1625,-276.5 1625,-246.5 1515,-246.5"/>
<text text-anchor="start" x="1523" y="-264.5" font-family="Helvetica,sans-Serif" font-size="10.00" fill="#000000">boost/serialization</text>
<text text-anchor="middle" x="1570" y="-253.5" font-family="Helvetica,sans-Serif" font-size="10.00" fill="#000000">/unordered_set.hpp</text>
</g>
<!-- Node3&#45;&gt;Node52 -->
<g id="edge76" class="edge">
<title>Node3&#45;&gt;Node52</title>
<path fill="none" stroke="#191970" d="M1153.7733,-322.8929C1233.6281,-315.3622 1374.75,-300.374 1504.788,-277.0975"/>
<polygon fill="#191970" stroke="#191970" points="1505.7112,-280.4874 1514.9275,-275.2614 1504.4638,-273.5994 1505.7112,-280.4874"/>
</g>
<!-- Node5 -->
<g id="node6" class="node">
<title>Node5</title>
<g id="a_node6"><a xlink:href="ConfParser_8h.html" target="_top" xlink:title="ConfParser.h">
<polygon fill="none" stroke="#000000" points="446.5,-129 446.5,-148 523.5,-148 523.5,-129 446.5,-129"/>
<text text-anchor="middle" x="485" y="-136" font-family="Helvetica,sans-Serif" font-size="10.00" fill="#000000">ConfParser.h</text>
</a>
</g>
</g>
<!-- Node4&#45;&gt;Node5 -->
<g id="edge5" class="edge">
<title>Node4&#45;&gt;Node5</title>
<path fill="none" stroke="#191970" d="M1151.3766,-254.522C1091.9116,-244.7529 980.6928,-226.3583 886,-210 758.8826,-188.0404 609.3127,-161.0713 533.8346,-147.3824"/>
<polygon fill="#191970" stroke="#191970" points="534.1503,-143.8826 523.6861,-145.5408 532.9005,-150.7701 534.1503,-143.8826"/>
</g>
<!-- Node4&#45;&gt;Node8 -->
<g id="edge31" class="edge">
<title>Node4&#45;&gt;Node8</title>
<path fill="none" stroke="#191970" d="M1151.3321,-258.5559C1083.1178,-253.0386 953.6463,-238.9867 919,-210 887.2821,-183.4633 911.2316,-155.7657 886,-123 874.2747,-107.7736 856.8252,-95.1345 842.0412,-86.1881"/>
<polygon fill="#191970" stroke="#191970" points="843.664,-83.0835 833.2556,-81.1048 840.1583,-89.1424 843.664,-83.0835"/>
</g>
<!-- Node10 -->
<g id="node11" class="node">
<title>Node10</title>
<g id="a_node11"><a xlink:href="Iter_8h.html" target="_top" xlink:title="Iter.h">
<polygon fill="none" stroke="#000000" points="1239.5,-190.5 1239.5,-209.5 1280.5,-209.5 1280.5,-190.5 1239.5,-190.5"/>
<text text-anchor="middle" x="1260" y="-197.5" font-family="Helvetica,sans-Serif" font-size="10.00" fill="#000000">Iter.h</text>
</a>
</g>
</g>
<!-- Node4&#45;&gt;Node10 -->
<g id="edge10" class="edge">
<title>Node4&#45;&gt;Node10</title>
<path fill="none" stroke="#191970" d="M1204.3125,-251.8906C1214.4242,-242.4683 1230.0442,-227.9134 1242.1707,-216.6137"/>
<polygon fill="#191970" stroke="#191970" points="1244.612,-219.1228 1249.5421,-209.7449 1239.8399,-214.0015 1244.612,-219.1228"/>
</g>
<!-- Node11 -->
<g id="node12" class="node">
<title>Node11</title>
<g id="a_node12"><a xlink:href="StateOld_8h.html" target="_top" xlink:title="StateOld.h">
<polygon fill="none" stroke="#000000" points="928,-190.5 928,-209.5 996,-209.5 996,-190.5 928,-190.5"/>
<text text-anchor="middle" x="962" y="-197.5" font-family="Helvetica,sans-Serif" font-size="10.00" fill="#000000">StateOld.h</text>
</a>
</g>
</g>
<!-- Node4&#45;&gt;Node11 -->
<g id="edge11" class="edge">
<title>Node4&#45;&gt;Node11</title>
<path fill="none" stroke="#191970" d="M1158.0046,-251.9581C1117.0319,-241.0968 1050.0953,-223.3529 1006.0428,-211.6751"/>
<polygon fill="#191970" stroke="#191970" points="1006.7511,-208.2421 996.1881,-209.0628 1004.9574,-215.0084 1006.7511,-208.2421"/>
</g>
<!-- Node4&#45;&gt;Node12 -->
<g id="edge27" class="edge">
<title>Node4&#45;&gt;Node12</title>
<path fill="none" stroke="#191970" d="M1236.5324,-253.8735C1251.7951,-251.2379 1269.1482,-248.3572 1285,-246 1410.4124,-227.351 1443.3559,-233.2356 1568,-210 1604.4532,-203.2046 1612.9455,-198.665 1649,-190 1717.3437,-173.575 1735.5293,-173.7065 1803,-154 1805.7696,-153.1911 1808.6204,-152.3071 1811.4762,-151.3847"/>
<polygon fill="#191970" stroke="#191970" points="1812.7297,-154.6559 1821.0943,-148.1534 1810.5003,-148.0204 1812.7297,-154.6559"/>
</g>
<!-- Node4&#45;&gt;Node18 -->
<g id="edge33" class="edge">
<title>Node4&#45;&gt;Node18</title>
<path fill="none" stroke="#191970" d="M1236.9257,-253.3109C1252.0711,-250.6548 1269.2489,-247.9051 1285,-246 1505.7454,-219.3009 1563.3399,-237.3954 1784,-210 2004.3672,-182.641 2055.6805,-150.7403 2276,-123 2403.609,-106.9328 2804.0257,-81.111 2923.2084,-73.6076"/>
<polygon fill="#191970" stroke="#191970" points="2923.455,-77.0991 2933.2159,-72.979 2923.0161,-70.1129 2923.455,-77.0991"/>
</g>
<!-- Node24 -->
<g id="node25" class="node">
<title>Node24</title>
<polygon fill="none" stroke="#bfbfbf" points="1166.5,-190.5 1166.5,-209.5 1221.5,-209.5 1221.5,-190.5 1166.5,-190.5"/>
<text text-anchor="middle" x="1194" y="-197.5" font-family="Helvetica,sans-Serif" font-size="10.00" fill="#000000">fstream</text>
</g>
<!-- Node4&#45;&gt;Node24 -->
<g id="edge28" class="edge">
<title>Node4&#45;&gt;Node24</title>
<path fill="none" stroke="#191970" d="M1194,-251.8906C1194,-243.3657 1194,-230.6392 1194,-219.9235"/>
<polygon fill="#191970" stroke="#191970" points="1197.5001,-219.7448 1194,-209.7449 1190.5001,-219.7449 1197.5001,-219.7448"/>
</g>
<!-- Node4&#45;&gt;Node25 -->
<g id="edge29" class="edge">
<title>Node4&#45;&gt;Node25</title>
<path fill="none" stroke="#191970" d="M1151.237,-259.9988C1009.5225,-254.3318 557.451,-230.5129 437,-154 413.084,-138.8081 396.5393,-109.5886 387.6594,-90.3174"/>
<polygon fill="#191970" stroke="#191970" points="390.8169,-88.8018 383.6161,-81.0302 384.3988,-91.5961 390.8169,-88.8018"/>
</g>
<!-- Node4&#45;&gt;Node26 -->
<g id="edge30" class="edge">
<title>Node4&#45;&gt;Node26</title>
<path fill="none" stroke="#191970" d="M1236.9112,-253.1877C1252.0554,-250.5208 1269.2361,-247.7959 1285,-246 1323.7521,-241.5851 1915.5291,-208.7986 2048.5775,-201.4561"/>
<polygon fill="#191970" stroke="#191970" points="2048.8963,-204.9439 2058.6883,-200.8984 2048.5107,-197.9545 2048.8963,-204.9439"/>
</g>
<!-- Node4&#45;&gt;Node27 -->
<g id="edge32" class="edge">
<title>Node4&#45;&gt;Node27</title>
<path fill="none" stroke="#191970" d="M1236.8928,-253.0189C1252.0354,-250.3374 1269.2198,-247.6463 1285,-246 1397.0581,-234.3091 2190.7291,-208.4934 2404.8723,-201.6773"/>
<polygon fill="#191970" stroke="#191970" points="2405.0379,-205.1739 2414.9216,-201.3578 2404.8154,-198.1774 2405.0379,-205.1739"/>
</g>
<!-- Node6 -->
<g id="node7" class="node">
<title>Node6</title>
<polygon fill="none" stroke="#bfbfbf" points="427,-62 427,-81 465,-81 465,-62 427,-62"/>
<text text-anchor="middle" x="446" y="-69" font-family="Helvetica,sans-Serif" font-size="10.00" fill="#000000">map</text>
</g>
<!-- Node5&#45;&gt;Node6 -->
<g id="edge6" class="edge">
<title>Node5&#45;&gt;Node6</title>
<path fill="none" stroke="#191970" d="M479.4123,-128.9005C473.5043,-118.751 464.0413,-102.4941 456.6918,-89.8679"/>
<polygon fill="#191970" stroke="#191970" points="459.633,-87.9634 451.5774,-81.0817 453.5833,-91.4849 459.633,-87.9634"/>
</g>
<!-- Node5&#45;&gt;Node7 -->
<g id="edge7" class="edge">
<title>Node5&#45;&gt;Node7</title>
<path fill="none" stroke="#191970" d="M509.8597,-128.9314C536.4275,-118.6748 579.7585,-101.8592 617,-87 618.6379,-86.3465 620.3142,-85.6745 622.0063,-84.9936"/>
<polygon fill="#191970" stroke="#191970" points="623.7551,-88.0617 631.7111,-81.0651 621.1285,-81.5731 623.7551,-88.0617"/>
</g>
<!-- Node5&#45;&gt;Node8 -->
<g id="edge8" class="edge">
<title>Node5&#45;&gt;Node8</title>
<path fill="none" stroke="#191970" d="M523.7079,-130.6172C589.2458,-117.2706 720.8601,-90.4677 781.7448,-78.0687"/>
<polygon fill="#191970" stroke="#191970" points="782.8166,-81.4223 791.9171,-75.9971 781.4197,-74.5631 782.8166,-81.4223"/>
</g>
<!-- Node9 -->
<g id="node10" class="node">
<title>Node9</title>
<polygon fill="none" stroke="#bfbfbf" points="483.5,-62 483.5,-81 608.5,-81 608.5,-62 483.5,-62"/>
<text text-anchor="middle" x="546" y="-69" font-family="Helvetica,sans-Serif" font-size="10.00" fill="#000000">boost/lexical_cast.hpp</text>
</g>
<!-- Node5&#45;&gt;Node9 -->
<g id="edge9" class="edge">
<title>Node5&#45;&gt;Node9</title>
<path fill="none" stroke="#191970" d="M493.7398,-128.9005C503.2522,-118.4525 518.657,-101.5325 530.2825,-88.7635"/>
<polygon fill="#191970" stroke="#191970" points="533.1322,-90.8324 537.2764,-81.0817 527.9561,-86.1198 533.1322,-90.8324"/>
</g>
<!-- Node11&#45;&gt;Node8 -->
<g id="edge23" class="edge">
<title>Node11&#45;&gt;Node8</title>
<path fill="none" stroke="#191970" d="M996.2365,-192.7469C1055.1613,-180.2253 1169.6179,-155.7193 1171,-154 1179.632,-143.2615 1180.0201,-133.4147 1171,-123 1149.8159,-98.5407 930.1223,-80.0063 846.275,-73.7736"/>
<polygon fill="#191970" stroke="#191970" points="846.2893,-70.2654 836.0604,-73.0255 845.778,-77.2467 846.2893,-70.2654"/>
</g>
<!-- Node11&#45;&gt;Node12 -->
<g id="edge12" class="edge">
<title>Node11&#45;&gt;Node12</title>
<path fill="none" stroke="#191970" d="M996.152,-198.2641C1151.2798,-190.3628 1782.8783,-158.0092 1803,-154 1806.6289,-153.277 1810.3639,-152.3183 1814.0517,-151.2312"/>
<polygon fill="#191970" stroke="#191970" points="1815.1699,-154.548 1823.5973,-148.127 1813.0051,-147.8912 1815.1699,-154.548"/>
</g>
<!-- Node11&#45;&gt;Node15 -->
<g id="edge19" class="edge">
<title>Node11&#45;&gt;Node15</title>
<path fill="none" stroke="#191970" d="M927.699,-198.4791C826.503,-193.7582 530.4438,-178.2025 437,-154 377.2535,-138.5253 312.4797,-105.495 277.6509,-86.2521"/>
<polygon fill="#191970" stroke="#191970" points="279.0864,-83.0447 268.6506,-81.2163 275.6685,-89.1536 279.0864,-83.0447"/>
</g>
<!-- Node11&#45;&gt;Node16 -->
<g id="edge21" class="edge">
<title>Node11&#45;&gt;Node16</title>
<path fill="none" stroke="#191970" d="M996.2391,-198.2628C1140.8273,-190.8874 1695.6614,-162.1721 1732,-154 1767.9926,-145.9057 1773.0134,-131.1211 1809,-123 1888.6098,-105.0345 2468.5224,-79.2551 2615.9726,-72.9377"/>
<polygon fill="#191970" stroke="#191970" points="2616.3738,-76.4238 2626.2153,-72.5004 2616.0751,-69.4302 2616.3738,-76.4238"/>
</g>
<!-- Node11&#45;&gt;Node19 -->
<g id="edge20" class="edge">
<title>Node11&#45;&gt;Node19</title>
<path fill="none" stroke="#191970" d="M996.0462,-192.6815C1000.727,-191.7413 1005.4774,-190.8214 1010,-190 1112.6654,-171.353 1139.0915,-171.2554 1242,-154 1249.8715,-152.6801 1258.1398,-151.2481 1266.3092,-149.8058"/>
<polygon fill="#191970" stroke="#191970" points="1266.9592,-153.2452 1276.1919,-148.0483 1265.7335,-146.3534 1266.9592,-153.2452"/>
</g>
<!-- Node11&#45;&gt;Node20 -->
<g id="edge22" class="edge">
<title>Node11&#45;&gt;Node20</title>
<path fill="none" stroke="#191970" d="M996.0833,-192.8737C1000.7584,-191.9037 1005.4973,-190.9244 1010,-190 1089.0641,-173.7691 1136.8964,-216.4739 1188,-154 1206.5828,-131.2827 1175.9765,-103.6329 1151.8011,-86.8103"/>
<polygon fill="#191970" stroke="#191970" points="1153.5496,-83.7695 1143.2884,-81.1316 1149.665,-89.5927 1153.5496,-83.7695"/>
</g>
<!-- Node11&#45;&gt;Node21 -->
<g id="edge24" class="edge">
<title>Node11&#45;&gt;Node21</title>
<path fill="none" stroke="#191970" d="M940.4375,-190.3906C920.8962,-181.682 891.5163,-168.5888 867.1584,-157.7336"/>
<polygon fill="#191970" stroke="#191970" points="868.3174,-154.4183 857.7586,-153.5446 865.4679,-160.8122 868.3174,-154.4183"/>
</g>
<!-- Node11&#45;&gt;Node22 -->
<g id="edge25" class="edge">
<title>Node11&#45;&gt;Node22</title>
<path fill="none" stroke="#191970" d="M966.0625,-190.3906C969.1903,-182.9922 973.656,-172.4291 977.7428,-162.7623"/>
<polygon fill="#191970" stroke="#191970" points="980.9694,-164.1182 981.6397,-153.5446 974.5219,-161.3924 980.9694,-164.1182"/>
</g>
<!-- Node11&#45;&gt;Node23 -->
<g id="edge26" class="edge">
<title>Node11&#45;&gt;Node23</title>
<path fill="none" stroke="#191970" d="M985.2813,-190.3906C1010.321,-180.0554 1050.3225,-163.5447 1078.466,-151.9284"/>
<polygon fill="#191970" stroke="#191970" points="1079.974,-155.0925 1087.8822,-148.0419 1077.3033,-148.622 1079.974,-155.0925"/>
</g>
<!-- Node13 -->
<g id="node14" class="node">
<title>Node13</title>
<polygon fill="none" stroke="#bfbfbf" points="1953.5,-62 1953.5,-81 2030.5,-81 2030.5,-62 1953.5,-62"/>
<text text-anchor="middle" x="1992" y="-69" font-family="Helvetica,sans-Serif" font-size="10.00" fill="#000000">Eigen/Dense</text>
</g>
<!-- Node12&#45;&gt;Node13 -->
<g id="edge13" class="edge">
<title>Node12&#45;&gt;Node13</title>
<path fill="none" stroke="#191970" d="M1867.775,-128.9005C1892.4323,-117.5072 1933.7451,-98.4178 1961.9018,-85.4075"/>
<polygon fill="#191970" stroke="#191970" points="1963.6539,-88.4535 1971.2636,-81.0817 1960.7177,-82.099 1963.6539,-88.4535"/>
</g>
<!-- Node12&#45;&gt;Node14 -->
<g id="edge14" class="edge">
<title>Node12&#45;&gt;Node14</title>
<path fill="none" stroke="#191970" d="M1876.8005,-133.5811C1924.7888,-125.4197 2022.0083,-107.8916 2103,-87 2106.58,-86.0765 2110.2849,-85.0459 2113.9805,-83.967"/>
<polygon fill="#191970" stroke="#191970" points="2115.0925,-87.2873 2123.6486,-81.0389 2113.0634,-80.5878 2115.0925,-87.2873"/>
</g>
<!-- Node12&#45;&gt;Node15 -->
<g id="edge15" class="edge">
<title>Node12&#45;&gt;Node15</title>
<path fill="none" stroke="#191970" d="M1817.3107,-133.6004C1794.1447,-129.9954 1761.1182,-125.3325 1732,-123 1115.9883,-73.6544 957.0064,-147.6017 342,-87 322.4,-85.0686 300.6307,-81.3622 283.4121,-78.058"/>
<polygon fill="#191970" stroke="#191970" points="283.8274,-74.5725 273.3392,-76.0721 282.4734,-81.4403 283.8274,-74.5725"/>
</g>
<!-- Node12&#45;&gt;Node16 -->
<g id="edge16" class="edge">
<title>Node12&#45;&gt;Node16</title>
<path fill="none" stroke="#191970" d="M1876.7802,-135.6962C1910.7137,-132.522 1967.8381,-127.241 2017,-123 2246.0017,-103.2451 2521.795,-81.5133 2616.3184,-74.1241"/>
<polygon fill="#191970" stroke="#191970" points="2616.7292,-77.6027 2626.4263,-73.3346 2616.1841,-70.624 2616.7292,-77.6027"/>
</g>
<!-- Node17 -->
<g id="node18" class="node">
<title>Node17</title>
<polygon fill="none" stroke="#bfbfbf" points="1792.5,-56.5 1792.5,-86.5 1935.5,-86.5 1935.5,-56.5 1792.5,-56.5"/>
<text text-anchor="start" x="1800.5" y="-74.5" font-family="Helvetica,sans-Serif" font-size="10.00" fill="#000000">unsupported/Eigen/CXX11</text>
<text text-anchor="middle" x="1864" y="-63.5" font-family="Helvetica,sans-Serif" font-size="10.00" fill="#000000">/Tensor</text>
</g>
<!-- Node12&#45;&gt;Node17 -->
<g id="edge17" class="edge">
<title>Node12&#45;&gt;Node17</title>
<path fill="none" stroke="#191970" d="M1849.4357,-128.9005C1851.5866,-120.4234 1854.8186,-107.6856 1857.6919,-96.3614"/>
<polygon fill="#191970" stroke="#191970" points="1861.1216,-97.0754 1860.1885,-86.5218 1854.3366,-95.3538 1861.1216,-97.0754"/>
</g>
<!-- Node12&#45;&gt;Node18 -->
<g id="edge18" class="edge">
<title>Node12&#45;&gt;Node18</title>
<path fill="none" stroke="#191970" d="M1876.7607,-135.4511C1910.6766,-132.0546 1967.785,-126.5725 2017,-123 2312.6542,-101.5383 2387.0203,-103.3711 2683,-87 2769.3846,-82.2219 2871.0778,-76.4237 2922.9004,-73.4565"/>
<polygon fill="#191970" stroke="#191970" points="2923.3949,-76.934 2933.1783,-72.8677 2922.9945,-69.9455 2923.3949,-76.934"/>
</g>
<!-- Node28&#45;&gt;Node8 -->
<g id="edge68" class="edge">
<title>Node28&#45;&gt;Node8</title>
<path fill="none" stroke="#191970" d="M1681.4159,-253.7411C1602.5256,-240.495 1450.7557,-214.5066 1447,-210 1429.9825,-189.5801 1461.0628,-179.6601 1468,-154 1471.5957,-140.6997 1477.3521,-133.1175 1468,-123 1457.3082,-111.4332 976.4706,-81.3848 846.2375,-73.4467"/>
<polygon fill="#191970" stroke="#191970" points="846.2975,-69.944 836.1034,-72.8306 845.8726,-76.9311 846.2975,-69.944"/>
</g>
<!-- Node28&#45;&gt;Node12 -->
<g id="edge65" class="edge">
<title>Node28&#45;&gt;Node12</title>
<path fill="none" stroke="#191970" d="M1723.1975,-251.7572C1716.7012,-237.0387 1707.2999,-208.8546 1720,-190 1722.7606,-185.9016 1775.4357,-165.4291 1812.0701,-151.5637"/>
<polygon fill="#191970" stroke="#191970" points="1813.339,-154.8258 1821.4599,-148.0212 1810.8681,-148.2764 1813.339,-154.8258"/>
</g>
<!-- Node28&#45;&gt;Node18 -->
<g id="edge69" class="edge">
<title>Node28&#45;&gt;Node18</title>
<path fill="none" stroke="#191970" d="M1765.9484,-251.9267C1825.94,-237.0528 1946.5104,-208.2135 2050,-190 2388.9333,-130.3499 2803.9928,-86.7731 2923.4145,-74.8019"/>
<polygon fill="#191970" stroke="#191970" points="2923.8061,-78.2803 2933.4093,-73.8048 2923.1112,-71.3149 2923.8061,-78.2803"/>
</g>
<!-- Node29 -->
<g id="node30" class="node">
<title>Node29</title>
<g id="a_node30"><a xlink:href="QuantumDefect_8h.html" target="_top" xlink:title="QuantumDefect.h">
<polygon fill="none" stroke="#000000" points="1455.5,-190.5 1455.5,-209.5 1558.5,-209.5 1558.5,-190.5 1455.5,-190.5"/>
<text text-anchor="middle" x="1507" y="-197.5" font-family="Helvetica,sans-Serif" font-size="10.00" fill="#000000">QuantumDefect.h</text>
</a>
</g>
</g>
<!-- Node28&#45;&gt;Node29 -->
<g id="edge36" class="edge">
<title>Node28&#45;&gt;Node29</title>
<path fill="none" stroke="#191970" d="M1693.4688,-251.8906C1655.0318,-241.1944 1592.8256,-223.8836 1550.9464,-212.2294"/>
<polygon fill="#191970" stroke="#191970" points="1551.8611,-208.851 1541.2888,-209.5419 1549.9843,-215.5948 1551.8611,-208.851"/>
</g>
<!-- Node47 -->
<g id="node48" class="node">
<title>Node47</title>
<polygon fill="none" stroke="#bfbfbf" points="1729,-190.5 1729,-209.5 1775,-209.5 1775,-190.5 1729,-190.5"/>
<text text-anchor="middle" x="1752" y="-197.5" font-family="Helvetica,sans-Serif" font-size="10.00" fill="#000000">cstdio</text>
</g>
<!-- Node28&#45;&gt;Node47 -->
<g id="edge66" class="edge">
<title>Node28&#45;&gt;Node47</title>
<path fill="none" stroke="#191970" d="M1731.75,-251.8906C1735.1468,-243.1862 1740.2531,-230.1015 1744.488,-219.2494"/>
<polygon fill="#191970" stroke="#191970" points="1747.8222,-220.3331 1748.1971,-209.7449 1741.3011,-217.7882 1747.8222,-220.3331"/>
</g>
<!-- Node28&#45;&gt;Node48 -->
<g id="edge67" class="edge">
<title>Node28&#45;&gt;Node48</title>
<path fill="none" stroke="#191970" d="M1774.5318,-259.1828C1974.9247,-249.2037 2761.7997,-210.0193 2930.8864,-201.5992"/>
<polygon fill="#191970" stroke="#191970" points="2931.0874,-205.0936 2940.9009,-201.1005 2930.7392,-198.1023 2931.0874,-205.0936"/>
</g>
<!-- Node29&#45;&gt;Node8 -->
<g id="edge61" class="edge">
<title>Node29&#45;&gt;Node8</title>
<path fill="none" stroke="#191970" d="M1509.7334,-190.3551C1513.7192,-173.9821 1518.851,-140.7986 1501,-123 1489.2359,-111.2704 980.1838,-81.096 846.0929,-73.3396"/>
<polygon fill="#191970" stroke="#191970" points="846.2263,-69.8415 836.0412,-72.7595 845.8229,-76.8299 846.2263,-69.8415"/>
</g>
<!-- Node29&#45;&gt;Node12 -->
<g id="edge59" class="edge">
<title>Node29&#45;&gt;Node12</title>
<path fill="none" stroke="#191970" d="M1558.6455,-194.8981C1618.173,-188.3461 1718.6482,-175.2185 1803,-154 1806.2203,-153.1899 1809.5377,-152.2418 1812.8384,-151.2205"/>
<polygon fill="#191970" stroke="#191970" points="1814.1803,-154.4633 1822.5773,-148.0025 1811.9841,-147.8168 1814.1803,-154.4633"/>
</g>
<!-- Node29&#45;&gt;Node19 -->
<g id="edge64" class="edge">
<title>Node29&#45;&gt;Node19</title>
<path fill="none" stroke="#191970" d="M1479.0313,-190.3906C1448.4245,-179.8749 1399.2101,-162.966 1365.3259,-151.3243"/>
<polygon fill="#191970" stroke="#191970" points="1366.367,-147.9812 1355.7724,-148.0419 1364.0924,-154.6014 1366.367,-147.9812"/>
</g>
<!-- Node30 -->
<g id="node31" class="node">
<title>Node30</title>
<g id="a_node31"><a xlink:href="Cache_8h.html" target="_top" xlink:title="Cache.h">
<polygon fill="none" stroke="#000000" points="1553,-129 1553,-148 1609,-148 1609,-129 1553,-129"/>
<text text-anchor="middle" x="1581" y="-136" font-family="Helvetica,sans-Serif" font-size="10.00" fill="#000000">Cache.h</text>
</a>
</g>
</g>
<!-- Node29&#45;&gt;Node30 -->
<g id="edge37" class="edge">
<title>Node29&#45;&gt;Node30</title>
<path fill="none" stroke="#191970" d="M1518.5625,-190.3906C1530.0079,-180.8786 1547.7473,-166.1357 1561.397,-154.7917"/>
<polygon fill="#191970" stroke="#191970" points="1563.8208,-157.3283 1569.2745,-148.2449 1559.3467,-151.9447 1563.8208,-157.3283"/>
</g>
<!-- Node31 -->
<g id="node32" class="node">
<title>Node31</title>
<polygon fill="none" stroke="#bfbfbf" points="1301,-62 1301,-81 1349,-81 1349,-62 1301,-62"/>
<text text-anchor="middle" x="1325" y="-69" font-family="Helvetica,sans-Serif" font-size="10.00" fill="#000000">mutex</text>
</g>
<!-- Node29&#45;&gt;Node31 -->
<g id="edge60" class="edge">
<title>Node29&#45;&gt;Node31</title>
<path fill="none" stroke="#191970" d="M1558.5099,-191.7451C1580.7144,-185.3541 1604.6161,-174.0341 1618,-154 1625.6535,-142.5435 1627.0358,-133.401 1618,-123 1580.4681,-79.7973 1418.2492,-101.9208 1363,-87 1360.5323,-86.3336 1358.01,-85.5495 1355.4969,-84.6939"/>
<polygon fill="#191970" stroke="#191970" points="1356.5766,-81.361 1345.9841,-81.1368 1354.1248,-87.9176 1356.5766,-81.361"/>
</g>
<!-- Node29&#45;&gt;Node32 -->
<g id="edge63" class="edge">
<title>Node29&#45;&gt;Node32</title>
<path fill="none" stroke="#191970" d="M1455.2655,-197.5595C1411.3028,-195.4992 1346.5154,-192.4948 1290,-190 910.9206,-173.2662 811.4819,-215.1929 437,-154 344.8265,-138.9382 240.2535,-103.8271 187.0823,-84.6224"/>
<polygon fill="#191970" stroke="#191970" points="188.0534,-81.2512 177.4594,-81.1171 185.6574,-87.8284 188.0534,-81.2512"/>
</g>
<!-- Node34 -->
<g id="node35" class="node">
<title>Node34</title>
<g id="a_node35"><a xlink:href="SQLite_8h.html" target="_top" xlink:title="SQLite.h">
<polygon fill="none" stroke="#000000" points="1665.5,-129 1665.5,-148 1722.5,-148 1722.5,-129 1665.5,-129"/>
<text text-anchor="middle" x="1694" y="-136" font-family="Helvetica,sans-Serif" font-size="10.00" fill="#000000">SQLite.h</text>
</a>
</g>
</g>
<!-- Node29&#45;&gt;Node34 -->
<g id="edge41" class="edge">
<title>Node29&#45;&gt;Node34</title>
<path fill="none" stroke="#191970" d="M1538.0069,-190.4567C1567.2427,-181.3731 1612.2356,-167.1732 1651,-154 1653.2822,-153.2244 1655.6282,-152.4147 1657.9908,-151.5898"/>
<polygon fill="#191970" stroke="#191970" points="1659.4156,-154.7983 1667.6748,-148.1623 1657.0801,-148.1995 1659.4156,-154.7983"/>
</g>
<!-- Node29&#45;&gt;Node46 -->
<g id="edge62" class="edge">
<title>Node29&#45;&gt;Node46</title>
<path fill="none" stroke="#191970" d="M1496.2188,-190.3906C1485.6474,-180.9683 1469.3175,-166.4134 1456.6397,-155.1137"/>
<polygon fill="#191970" stroke="#191970" points="1458.7272,-152.2858 1448.9333,-148.2449 1454.0696,-157.5114 1458.7272,-152.2858"/>
</g>
<!-- Node30&#45;&gt;Node31 -->
<g id="edge38" class="edge">
<title>Node30&#45;&gt;Node31</title>
<path fill="none" stroke="#191970" d="M1556.7773,-128.8501C1551.0068,-126.7497 1544.8303,-124.6617 1539,-123 1462.216,-101.1155 1439.4038,-110.1771 1363,-87 1360.6989,-86.302 1358.344,-85.5186 1355.9896,-84.6845"/>
<polygon fill="#191970" stroke="#191970" points="1357.0433,-81.3407 1346.4522,-81.0588 1354.5559,-87.8839 1357.0433,-81.3407"/>
</g>
<!-- Node30&#45;&gt;Node32 -->
<g id="edge39" class="edge">
<title>Node30&#45;&gt;Node32</title>
<path fill="none" stroke="#191970" d="M1552.765,-133.7691C1529.9624,-130.1559 1497.0093,-125.4017 1468,-123 915.88,-77.2904 771.7962,-155.1905 222,-87 214.4418,-86.0626 206.4977,-84.6878 198.784,-83.1383"/>
<polygon fill="#191970" stroke="#191970" points="199.3371,-79.6777 188.828,-81.0227 197.8821,-86.5248 199.3371,-79.6777"/>
</g>
<!-- Node33 -->
<g id="node34" class="node">
<title>Node33</title>
<polygon fill="none" stroke="#bfbfbf" points="1175.5,-62 1175.5,-81 1282.5,-81 1282.5,-62 1175.5,-62"/>
<text text-anchor="middle" x="1229" y="-69" font-family="Helvetica,sans-Serif" font-size="10.00" fill="#000000">boost/optional.hpp</text>
</g>
<!-- Node30&#45;&gt;Node33 -->
<g id="edge40" class="edge">
<title>Node30&#45;&gt;Node33</title>
<path fill="none" stroke="#191970" d="M1557.7273,-128.93C1551.7055,-126.7265 1545.1766,-124.5715 1539,-123 1431.4875,-95.6465 1400.8782,-108.2767 1292,-87 1286.5418,-85.9334 1280.8455,-84.7016 1275.206,-83.4081"/>
<polygon fill="#191970" stroke="#191970" points="1275.7172,-79.9324 1265.1799,-81.0353 1274.1051,-86.7443 1275.7172,-79.9324"/>
</g>
<!-- Node34&#45;&gt;Node7 -->
<g id="edge45" class="edge">
<title>Node34&#45;&gt;Node7</title>
<path fill="none" stroke="#191970" d="M1665.305,-131.5313C1651.1509,-128.3804 1633.7716,-124.9359 1618,-123 1249.3113,-77.744 1153.2139,-117.3501 783,-87 752.7054,-84.5165 718.5353,-80.3065 693.1248,-76.9005"/>
<polygon fill="#191970" stroke="#191970" points="693.534,-73.424 683.1536,-75.545 692.591,-80.3602 693.534,-73.424"/>
</g>
<!-- Node34&#45;&gt;Node8 -->
<g id="edge46" class="edge">
<title>Node34&#45;&gt;Node8</title>
<path fill="none" stroke="#191970" d="M1665.2867,-131.6748C1651.1282,-128.5578 1633.7505,-125.1005 1618,-123 1540.6428,-112.6836 987.0742,-81.2118 846.4307,-73.3131"/>
<polygon fill="#191970" stroke="#191970" points="846.4754,-69.8102 836.295,-72.7445 846.0833,-76.7992 846.4754,-69.8102"/>
</g>
<!-- Node34&#45;&gt;Node20 -->
<g id="edge42" class="edge">
<title>Node34&#45;&gt;Node20</title>
<path fill="none" stroke="#191970" d="M1665.2719,-131.7824C1651.1099,-128.6909 1633.7335,-125.224 1618,-123 1418.8972,-94.8566 1363.0284,-131.7978 1167,-87 1163.9756,-86.3088 1160.8763,-85.4322 1157.8067,-84.4488"/>
<polygon fill="#191970" stroke="#191970" points="1158.8248,-81.0961 1148.2301,-81.0398 1156.4773,-87.6908 1158.8248,-81.0961"/>
</g>
<!-- Node34&#45;&gt;Node25 -->
<g id="edge43" class="edge">
<title>Node34&#45;&gt;Node25</title>
<path fill="none" stroke="#191970" d="M1665.3158,-131.4413C1651.1642,-128.269 1633.7839,-124.8326 1618,-123 1352.9936,-92.2309 679.0008,-142.26 418,-87 415.1247,-86.3912 412.1894,-85.5762 409.2881,-84.6372"/>
<polygon fill="#191970" stroke="#191970" points="410.2845,-81.274 399.6913,-81.0866 407.8555,-87.8391 410.2845,-81.274"/>
</g>
<!-- Node35 -->
<g id="node36" class="node">
<title>Node35</title>
<polygon fill="none" stroke="#bfbfbf" points="1672,-.5 1672,-19.5 1726,-19.5 1726,-.5 1672,-.5"/>
<text text-anchor="middle" x="1699" y="-7.5" font-family="Helvetica,sans-Serif" font-size="10.00" fill="#000000">random</text>
</g>
<!-- Node34&#45;&gt;Node35 -->
<g id="edge44" class="edge">
<title>Node34&#45;&gt;Node35</title>
<path fill="none" stroke="#191970" d="M1694.3758,-128.8416C1695.1902,-107.9114 1697.1321,-58.004 1698.2227,-29.9762"/>
<polygon fill="#191970" stroke="#191970" points="1701.7283,-29.899 1698.6198,-19.7705 1694.7336,-29.6268 1701.7283,-29.899"/>
</g>
<!-- Node36 -->
<g id="node37" class="node">
<title>Node36</title>
<polygon fill="none" stroke="#bfbfbf" points="1623,-62 1623,-81 1671,-81 1671,-62 1623,-62"/>
<text text-anchor="middle" x="1647" y="-69" font-family="Helvetica,sans-Serif" font-size="10.00" fill="#000000">thread</text>
</g>
<!-- Node34&#45;&gt;Node36 -->
<g id="edge47" class="edge">
<title>Node34&#45;&gt;Node36</title>
<path fill="none" stroke="#191970" d="M1687.266,-128.9005C1680.0764,-118.6515 1668.5181,-102.1747 1659.6252,-89.4976"/>
<polygon fill="#191970" stroke="#191970" points="1662.3296,-87.2582 1653.7215,-81.0817 1656.599,-91.2783 1662.3296,-87.2582"/>
</g>
<!-- Node34&#45;&gt;Node37 -->
<g id="edge48" class="edge">
<title>Node34&#45;&gt;Node37</title>
<path fill="none" stroke="#191970" d="M1665.3373,-130.3087C1655.7441,-127.7444 1644.9578,-125.0518 1635,-123 1529.7897,-101.3215 1494.2198,-130.4975 1396,-87 1376.0709,-78.1742 1378.2619,-64.0323 1358,-56 1301.9895,-33.7961 889.6174,-16.7327 751.7488,-11.5966"/>
<polygon fill="#191970" stroke="#191970" points="751.666,-8.0912 741.5436,-11.2196 751.4075,-15.0865 751.666,-8.0912"/>
</g>
<!-- Node38 -->
<g id="node39" class="node">
<title>Node38</title>
<polygon fill="none" stroke="#bfbfbf" points="1405,-56.5 1405,-86.5 1527,-86.5 1527,-56.5 1405,-56.5"/>
<text text-anchor="start" x="1413" y="-74.5" font-family="Helvetica,sans-Serif" font-size="10.00" fill="#000000">boost/iterator/iterator</text>
<text text-anchor="middle" x="1466" y="-63.5" font-family="Helvetica,sans-Serif" font-size="10.00" fill="#000000">_facade.hpp</text>
</g>
<!-- Node34&#45;&gt;Node38 -->
<g id="edge49" class="edge">
<title>Node34&#45;&gt;Node38</title>
<path fill="none" stroke="#191970" d="M1668.1848,-128.8422C1662.5478,-126.8322 1656.5946,-124.7843 1651,-123 1612.5308,-110.7309 1569.0539,-98.5439 1533.9179,-89.1075"/>
<polygon fill="#191970" stroke="#191970" points="1534.8046,-85.7217 1524.24,-86.5211 1532.9972,-92.4843 1534.8046,-85.7217"/>
</g>
<!-- Node39 -->
<g id="node40" class="node">
<title>Node39</title>
<polygon fill="none" stroke="#bfbfbf" points="1545.5,-62 1545.5,-81 1604.5,-81 1604.5,-62 1545.5,-62"/>
<text text-anchor="middle" x="1575" y="-69" font-family="Helvetica,sans-Serif" font-size="10.00" fill="#000000">sqlite3.h</text>
</g>
<!-- Node34&#45;&gt;Node39 -->
<g id="edge50" class="edge">
<title>Node34&#45;&gt;Node39</title>
<path fill="none" stroke="#191970" d="M1676.9502,-128.9005C1657.0677,-117.7062 1623.9895,-99.0823 1600.922,-86.0947"/>
<polygon fill="#191970" stroke="#191970" points="1602.4491,-82.938 1592.0182,-81.0817 1599.0148,-89.0376 1602.4491,-82.938"/>
</g>
<!-- Node40 -->
<g id="node41" class="node">
<title>Node40</title>
<polygon fill="none" stroke="#bfbfbf" points="2048.5,-62 2048.5,-81 2093.5,-81 2093.5,-62 2048.5,-62"/>
<text text-anchor="middle" x="2071" y="-69" font-family="Helvetica,sans-Serif" font-size="10.00" fill="#000000">utility</text>
</g>
<!-- Node34&#45;&gt;Node40 -->
<g id="edge51" class="edge">
<title>Node34&#45;&gt;Node40</title>
<path fill="none" stroke="#191970" d="M1722.7986,-132.5968C1738.2422,-129.5305 1757.62,-125.8413 1775,-123 1892.3024,-103.8233 1926.4258,-122.0499 2040,-87 2041.6602,-86.4876 2043.3403,-85.8937 2045.0146,-85.243"/>
<polygon fill="#191970" stroke="#191970" points="2046.6582,-88.3423 2054.3632,-81.0702 2043.805,-81.9502 2046.6582,-88.3423"/>
</g>
<!-- Node34&#45;&gt;Node41 -->
<g id="edge52" class="edge">
<title>Node34&#45;&gt;Node41</title>
<path fill="none" stroke="#191970" d="M1702.1667,-128.9005C1711.0554,-118.4525 1725.45,-101.5325 1736.3131,-88.7635"/>
<polygon fill="#191970" stroke="#191970" points="1739.0344,-90.9662 1742.8484,-81.0817 1733.7028,-86.4303 1739.0344,-90.9662"/>
</g>
<!-- Node41&#45;&gt;Node35 -->
<g id="edge56" class="edge">
<title>Node41&#45;&gt;Node35</title>
<path fill="none" stroke="#191970" d="M1742.875,-61.8906C1735.1358,-52.7376 1723.3013,-38.7409 1713.8728,-27.59"/>
<polygon fill="#191970" stroke="#191970" points="1716.3689,-25.1213 1707.2396,-19.7449 1711.0235,-29.6409 1716.3689,-25.1213"/>
</g>
<!-- Node41&#45;&gt;Node37 -->
<g id="edge57" class="edge">
<title>Node41&#45;&gt;Node37</title>
<path fill="none" stroke="#191970" d="M1727.1852,-65.2547C1713.4836,-61.9255 1695.8857,-58.0945 1680,-56 1496.8689,-31.855 917.7632,-15.4212 751.8327,-11.1201"/>
<polygon fill="#191970" stroke="#191970" points="751.596,-7.6129 741.5092,-10.8544 751.4158,-14.6106 751.596,-7.6129"/>
</g>
<!-- Node41&#45;&gt;Node42 -->
<g id="edge53" class="edge">
<title>Node41&#45;&gt;Node42</title>
<path fill="none" stroke="#191970" d="M1767.9786,-61.8889C1772.9854,-59.5112 1778.5789,-57.2797 1784,-56 1942.6873,-18.539 3088.1137,-27.2842 3251,-20 3288.8745,-18.3063 3331.9307,-15.4296 3362.8684,-13.1953"/>
<polygon fill="#191970" stroke="#191970" points="3363.1522,-16.684 3372.8707,-12.4648 3362.6423,-9.7026 3363.1522,-16.684"/>
</g>
<!-- Node43 -->
<g id="node44" class="node">
<title>Node43</title>
<polygon fill="none" stroke="#bfbfbf" points="3182.5,-.5 3182.5,-19.5 3241.5,-19.5 3241.5,-.5 3182.5,-.5"/>
<text text-anchor="middle" x="3212" y="-7.5" font-family="Helvetica,sans-Serif" font-size="10.00" fill="#000000">complex</text>
</g>
<!-- Node41&#45;&gt;Node43 -->
<g id="edge54" class="edge">
<title>Node41&#45;&gt;Node43</title>
<path fill="none" stroke="#191970" d="M1767.985,-61.9157C1772.9919,-59.5385 1778.5838,-57.3005 1784,-56 1853.2629,-39.3687 2948.2492,-15.5416 3172.1845,-10.8279"/>
<polygon fill="#191970" stroke="#191970" points="3172.5533,-14.321 3182.4776,-10.6118 3172.4063,-7.3226 3172.5533,-14.321"/>
</g>
<!-- Node44 -->
<g id="node45" class="node">
<title>Node44</title>
<polygon fill="none" stroke="#bfbfbf" points="2465.5,-.5 2465.5,-19.5 2530.5,-19.5 2530.5,-.5 2465.5,-.5"/>
<text text-anchor="middle" x="2498" y="-7.5" font-family="Helvetica,sans-Serif" font-size="10.00" fill="#000000">functional</text>
</g>
<!-- Node41&#45;&gt;Node44 -->
<g id="edge55" class="edge">
<title>Node41&#45;&gt;Node44</title>
<path fill="none" stroke="#191970" d="M1768.3552,-61.8661C1773.274,-59.55 1778.728,-57.3558 1784,-56 1912.1094,-23.0528 2321.2569,-13.0879 2455.1445,-10.6692"/>
<polygon fill="#191970" stroke="#191970" points="2455.4684,-14.1641 2465.4054,-10.489 2455.3454,-7.1652 2455.4684,-14.1641"/>
</g>
<!-- Node45 -->
<g id="node46" class="node">
<title>Node45</title>
<polygon fill="none" stroke="#bfbfbf" points="1744,-.5 1744,-19.5 1800,-19.5 1800,-.5 1744,-.5"/>
<text text-anchor="middle" x="1772" y="-7.5" font-family="Helvetica,sans-Serif" font-size="10.00" fill="#000000">unistd.h</text>
</g>
<!-- Node41&#45;&gt;Node45 -->
<g id="edge58" class="edge">
<title>Node41&#45;&gt;Node45</title>
<path fill="none" stroke="#191970" d="M1754.2813,-61.8906C1757.2535,-53.1862 1761.7214,-40.1015 1765.427,-29.2494"/>
<polygon fill="#191970" stroke="#191970" points="1768.7532,-30.3394 1768.6725,-19.7449 1762.1288,-28.0773 1768.7532,-30.3394"/>
</g>
<!-- Node54&#45;&gt;Node2 -->
<g id="edge94" class="edge">
<title>Node54&#45;&gt;Node2</title>
<path fill="none" stroke="#191970" d="M2008.8273,-461.4324C1825.3997,-456.7673 1109.8928,-437.2262 886,-411 871.0097,-409.2441 854.6304,-406.3061 840.5478,-403.4573"/>
<polygon fill="#191970" stroke="#191970" points="841.2557,-400.0297 830.7521,-401.4168 839.8282,-406.8826 841.2557,-400.0297"/>
</g>
<!-- Node54&#45;&gt;Node3 -->
<g id="edge93" class="edge">
<title>Node54&#45;&gt;Node3</title>
<path fill="none" stroke="#191970" d="M2008.9369,-461.5129C1829.5679,-457.2264 1149.4584,-439.1657 1114,-411 1095.2533,-396.1089 1090.5795,-367.4616 1089.7013,-348.1602"/>
<polygon fill="#191970" stroke="#191970" points="1093.1993,-347.9953 1089.5451,-338.0506 1086.2001,-348.1035 1093.1993,-347.9953"/>
</g>
<!-- Node54&#45;&gt;Node8 -->
<g id="edge125" class="edge">
<title>Node54&#45;&gt;Node8</title>
<path fill="none" stroke="#191970" d="M2008.7842,-461.5356C1833.1232,-457.4325 1177.8098,-440.284 1090,-411 937.7497,-360.2254 903.1204,-323.8508 790,-210 760.3844,-180.1932 735.2999,-161.1082 753,-123 760.0682,-107.7823 774.093,-95.4403 786.9141,-86.6574"/>
<polygon fill="#191970" stroke="#191970" points="788.9686,-89.4979 795.4977,-81.1539 785.1903,-83.6051 788.9686,-89.4979"/>
</g>
<!-- Node54&#45;&gt;Node12 -->
<g id="edge102" class="edge">
<title>Node54&#45;&gt;Node12</title>
<path fill="none" stroke="#191970" d="M2008.8907,-460.8434C1831.0463,-453.9098 1162.9695,-426.8466 1148,-411 1138.5388,-400.9844 1138.4897,-389.969 1148,-380 1206.6609,-318.5099 1853.3391,-405.4901 1912,-344 1963.6281,-289.8819 1895.0082,-194.9935 1862.4433,-155.9934"/>
<polygon fill="#191970" stroke="#191970" points="1864.8968,-153.4768 1855.741,-148.1455 1859.5738,-158.0228 1864.8968,-153.4768"/>
</g>
<!-- Node54&#45;&gt;Node18 -->
<g id="edge129" class="edge">
<title>Node54&#45;&gt;Node18</title>
<path fill="none" stroke="#191970" d="M2095.2789,-461.247C2278.8351,-455.8011 2985.5151,-433.4514 3027,-411 3130.7474,-354.8526 3226.3742,-295.7024 3174,-190 3138.9654,-119.2927 3042.3464,-89.0285 2990.6576,-77.5845"/>
<polygon fill="#191970" stroke="#191970" points="2991.1553,-74.1127 2980.6491,-75.4802 2989.7149,-80.963 2991.1553,-74.1127"/>
</g>
<!-- Node54&#45;&gt;Node25 -->
<g id="edge121" class="edge">
<title>Node54&#45;&gt;Node25</title>
<path fill="none" stroke="#191970" d="M2008.7503,-462.3594C1813.8054,-461.4811 1015.6732,-455.2021 770,-411 675.661,-394.0263 646.0713,-395.1409 565,-344 466.3579,-281.7753 429.9318,-261.2028 384,-154 375.3833,-133.8889 375.6169,-108.4444 377.212,-91.168"/>
<polygon fill="#191970" stroke="#191970" points="380.7004,-91.4697 378.3775,-81.1326 373.7472,-90.6621 380.7004,-91.4697"/>
</g>
<!-- Node54&#45;&gt;Node26 -->
<g id="edge123" class="edge">
<title>Node54&#45;&gt;Node26</title>
<path fill="none" stroke="#191970" d="M2052.8459,-452.8462C2056.2058,-414.4987 2068.65,-272.4727 2073.264,-219.8136"/>
<polygon fill="#191970" stroke="#191970" points="2076.7602,-220.009 2074.1464,-209.7416 2069.7869,-219.3979 2076.7602,-220.009"/>
</g>
<!-- Node54&#45;&gt;Node27 -->
<g id="edge127" class="edge">
<title>Node54&#45;&gt;Node27</title>
<path fill="none" stroke="#191970" d="M2095.0531,-460.7188C2237.8613,-454.605 2688.1002,-433.6022 2709,-411 2718.3539,-400.8841 2717.8089,-390.5939 2709,-380 2652.9323,-312.5709 2582.7072,-399.7315 2515,-344 2495.0581,-327.5854 2472.9443,-254.7032 2463.1505,-219.3552"/>
<polygon fill="#191970" stroke="#191970" points="2466.5247,-218.4249 2460.5226,-209.6942 2459.7701,-220.2623 2466.5247,-218.4249"/>
</g>
<!-- Node54&#45;&gt;Node32 -->
<g id="edge126" class="edge">
<title>Node54&#45;&gt;Node32</title>
<path fill="none" stroke="#191970" d="M2008.7754,-462.1966C1785.0909,-460.4581 764.1266,-450.4066 629,-411 521.6505,-379.6939 246.4829,-151.4241 171.2565,-87.8781"/>
<polygon fill="#191970" stroke="#191970" points="173.3643,-85.0767 163.4709,-81.2857 168.8409,-90.4189 173.3643,-85.0767"/>
</g>
<!-- Node54&#45;&gt;Node40 -->
<g id="edge128" class="edge">
<title>Node54&#45;&gt;Node40</title>
<path fill="none" stroke="#191970" d="M2056.2688,-452.8215C2060.6044,-442.6131 2067.2049,-425.965 2071,-411 2095.3519,-314.9755 2111.8596,-288.3518 2100,-190 2095.7097,-154.4205 2084.422,-114.1062 2077.2609,-90.8592"/>
<polygon fill="#191970" stroke="#191970" points="2080.5564,-89.6713 2074.2133,-81.185 2073.8798,-91.7746 2080.5564,-89.6713"/>
</g>
<!-- Node54&#45;&gt;Node42 -->
<g id="edge108" class="edge">
<title>Node54&#45;&gt;Node42</title>
<path fill="none" stroke="#191970" d="M2095.202,-462.1326C2286.4382,-460.2832 3051.7077,-450.4577 3151,-411 3264.6725,-365.8277 3284.1234,-319.3185 3339,-210 3370.516,-147.2178 3391.9006,-66.0237 3400.6099,-29.4145"/>
<polygon fill="#191970" stroke="#191970" points="3404.0468,-30.087 3402.9031,-19.5541 3397.2288,-28.5014 3404.0468,-30.087"/>
</g>
<!-- Node54&#45;&gt;Node43 -->
<g id="edge117" class="edge">
<title>Node54&#45;&gt;Node43</title>
<path fill="none" stroke="#191970" d="M2095.0304,-462.0458C2282.039,-459.8522 3019.0782,-448.8571 3115,-411 3176.2523,-386.8258 3329,-206.7001 3329,-200 3329,-200 3329,-200 3329,-138.5 3329,-85.6005 3274.1182,-44.8856 3239.5307,-24.4789"/>
<polygon fill="#191970" stroke="#191970" points="3241.2189,-21.4126 3230.7981,-19.5005 3237.752,-27.4938 3241.2189,-21.4126"/>
</g>
<!-- Node54&#45;&gt;Node44 -->
<g id="edge118" class="edge">
<title>Node54&#45;&gt;Node44</title>
<path fill="none" stroke="#191970" d="M2095.1341,-461.7249C2276.7679,-458.2699 2974.2809,-443.015 3067,-411 3146.3155,-383.6132 3178.5935,-358.1341 3200,-277 3234.5661,-145.9889 3121.1403,-90.0725 2990,-56 2905.5101,-34.0481 2644.425,-17.9276 2540.9132,-12.2399"/>
<polygon fill="#191970" stroke="#191970" points="2540.9948,-8.7393 2530.8194,-11.691 2540.6146,-15.729 2540.9948,-8.7393"/>
</g>
<!-- Node54&#45;&gt;Node48 -->
<g id="edge120" class="edge">
<title>Node54&#45;&gt;Node48</title>
<path fill="none" stroke="#191970" d="M2095.2409,-462.2751C2269.4343,-461.0809 2914.2029,-453.7837 2994,-411 3037.0938,-387.895 3058.9612,-359.5519 3044,-313 3031.5469,-274.2519 3000.3579,-237.5243 2980.5169,-216.9657"/>
<polygon fill="#191970" stroke="#191970" points="2982.8102,-214.3075 2973.2858,-209.6665 2977.8372,-219.234 2982.8102,-214.3075"/>
</g>
<!-- Node54&#45;&gt;Node50 -->
<g id="edge109" class="edge">
<title>Node54&#45;&gt;Node50</title>
<path fill="none" stroke="#191970" d="M2095.4056,-460.6103C2236.1097,-454.2777 2671.7313,-432.9652 2692,-411 2701.3435,-400.8745 2701.0301,-390.406 2692,-380 2654.7802,-337.1092 2492.2093,-363.842 2439,-344 2396.6402,-328.2038 2353.7591,-296.7003 2329.9534,-277.5215"/>
<polygon fill="#191970" stroke="#191970" points="2332.0336,-274.701 2322.0822,-271.0651 2327.5942,-280.1132 2332.0336,-274.701"/>
</g>
<!-- Node55 -->
<g id="node56" class="node">
<title>Node55</title>
<g id="a_node56"><a xlink:href="WignerD_8h.html" target="_top" xlink:title="WignerD.h">
<polygon fill="none" stroke="#000000" points="2891,-386 2891,-405 2959,-405 2959,-386 2891,-386"/>
<text text-anchor="middle" x="2925" y="-393" font-family="Helvetica,sans-Serif" font-size="10.00" fill="#000000">WignerD.h</text>
</a>
</g>
</g>
<!-- Node54&#45;&gt;Node55 -->
<g id="edge95" class="edge">
<title>Node54&#45;&gt;Node55</title>
<path fill="none" stroke="#191970" d="M2095.132,-460.377C2210.0456,-454.5386 2533.0966,-436.9339 2801,-411 2827.5231,-408.4325 2857.1393,-404.7607 2880.7751,-401.6353"/>
<polygon fill="#191970" stroke="#191970" points="2881.3978,-405.0833 2890.8459,-400.289 2880.4702,-398.145 2881.3978,-405.0833"/>
</g>
<!-- Node54&#45;&gt;Node58 -->
<g id="edge122" class="edge">
<title>Node54&#45;&gt;Node58</title>
<path fill="none" stroke="#191970" d="M2095.1324,-461.2969C2271.6513,-456.2173 2931.4006,-435.6479 2968,-411 2989.1892,-396.7301 2999.1583,-367.7049 3003.6352,-348.1742"/>
<polygon fill="#191970" stroke="#191970" points="3007.0998,-348.6981 3005.6369,-338.2048 3000.2367,-347.3201 3007.0998,-348.6981"/>
</g>
<!-- Node59 -->
<g id="node60" class="node">
<title>Node59</title>
<g id="a_node60"><a xlink:href="serialization__eigen_8h.html" target="_top" xlink:title="serialization_eigen.h">
<polygon fill="none" stroke="#000000" points="2118,-319 2118,-338 2236,-338 2236,-319 2118,-319"/>
<text text-anchor="middle" x="2177" y="-326" font-family="Helvetica,sans-Serif" font-size="10.00" fill="#000000">serialization_eigen.h</text>
</a>
</g>
</g>
<!-- Node54&#45;&gt;Node59 -->
<g id="edge103" class="edge">
<title>Node54&#45;&gt;Node59</title>
<path fill="none" stroke="#191970" d="M2062.1648,-452.8187C2072.7922,-442.608 2089.8597,-425.958 2104,-411 2124.586,-389.2236 2147.3193,-363.1982 2161.8596,-346.2829"/>
<polygon fill="#191970" stroke="#191970" points="2164.8164,-348.2109 2168.6615,-338.3384 2159.4991,-343.6582 2164.8164,-348.2109"/>
</g>
<!-- Node60 -->
<g id="node61" class="node">
<title>Node60</title>
<g id="a_node61"><a xlink:href="serialization__path_8h.html" target="_top" xlink:title="serialization_path.h">
<polygon fill="none" stroke="#000000" points="2254.5,-319 2254.5,-338 2367.5,-338 2367.5,-319 2254.5,-319"/>
<text text-anchor="middle" x="2311" y="-326" font-family="Helvetica,sans-Serif" font-size="10.00" fill="#000000">serialization_path.h</text>
</a>
</g>
</g>
<!-- Node54&#45;&gt;Node60 -->
<g id="edge105" class="edge">
<title>Node54&#45;&gt;Node60</title>
<path fill="none" stroke="#191970" d="M2067.1565,-452.74C2096.9413,-433.6318 2162.2679,-392.095 2186,-380 2214.9841,-365.2283 2249.2245,-351.3557 2274.5334,-341.7386"/>
<polygon fill="#191970" stroke="#191970" points="2275.9768,-344.9353 2284.1068,-338.1416 2273.5147,-338.3825 2275.9768,-344.9353"/>
</g>
<!-- Node61 -->
<g id="node62" class="node">
<title>Node61</title>
<polygon fill="none" stroke="#bfbfbf" points="2194.5,-380.5 2194.5,-410.5 2335.5,-410.5 2335.5,-380.5 2194.5,-380.5"/>
<text text-anchor="start" x="2202.5" y="-398.5" font-family="Helvetica,sans-Serif" font-size="10.00" fill="#000000">unsupported/Eigen/Matrix</text>
<text text-anchor="middle" x="2265" y="-387.5" font-family="Helvetica,sans-Serif" font-size="10.00" fill="#000000">Functions</text>
</g>
<!-- Node54&#45;&gt;Node61 -->
<g id="edge107" class="edge">
<title>Node54&#45;&gt;Node61</title>
<path fill="none" stroke="#191970" d="M2082.5177,-452.9005C2115.0363,-442.6717 2167.2754,-426.2397 2207.5451,-413.5727"/>
<polygon fill="#191970" stroke="#191970" points="2208.7553,-416.8612 2217.2442,-410.5218 2206.6548,-410.1837 2208.7553,-416.8612"/>
</g>
<!-- Node62 -->
<g id="node63" class="node">
<title>Node62</title>
<polygon fill="none" stroke="#bfbfbf" points="2353.5,-380.5 2353.5,-410.5 2496.5,-410.5 2496.5,-380.5 2353.5,-380.5"/>
<text text-anchor="start" x="2361.5" y="-398.5" font-family="Helvetica,sans-Serif" font-size="10.00" fill="#000000">boost/multi_index/hashed</text>
<text text-anchor="middle" x="2425" y="-387.5" font-family="Helvetica,sans-Serif" font-size="10.00" fill="#000000">_index.hpp</text>
</g>
<!-- Node54&#45;&gt;Node62 -->
<g id="edge110" class="edge">
<title>Node54&#45;&gt;Node62</title>
<path fill="none" stroke="#191970" d="M2095.2334,-455.1428C2150.4775,-445.6883 2249.3235,-428.5927 2343.5031,-411.2611"/>
<polygon fill="#191970" stroke="#191970" points="2344.2831,-414.6763 2353.4823,-409.4204 2343.0133,-407.7924 2344.2831,-414.6763"/>
</g>
<!-- Node63 -->
<g id="node64" class="node">
<title>Node63</title>
<polygon fill="none" stroke="#bfbfbf" points="2515,-386 2515,-405 2683,-405 2683,-386 2515,-386"/>
<text text-anchor="middle" x="2599" y="-393" font-family="Helvetica,sans-Serif" font-size="10.00" fill="#000000">boost/multi_index/member.hpp</text>
</g>
<!-- Node54&#45;&gt;Node63 -->
<g id="edge111" class="edge">
<title>Node54&#45;&gt;Node63</title>
<path fill="none" stroke="#191970" d="M2095.2875,-458.3494C2176.1452,-450.4277 2355.559,-432.0549 2506,-411 2515.2641,-409.7035 2525.0266,-408.2133 2534.6034,-406.6807"/>
<polygon fill="#191970" stroke="#191970" points="2535.1783,-410.1333 2544.4874,-405.0745 2534.0555,-403.2239 2535.1783,-410.1333"/>
</g>
<!-- Node64 -->
<g id="node65" class="node">
<title>Node64</title>
<polygon fill="none" stroke="#bfbfbf" points="1156.5,-380.5 1156.5,-410.5 1301.5,-410.5 1301.5,-380.5 1156.5,-380.5"/>
<text text-anchor="start" x="1164.5" y="-398.5" font-family="Helvetica,sans-Serif" font-size="10.00" fill="#000000">boost/multi_index/random</text>
<text text-anchor="middle" x="1229" y="-387.5" font-family="Helvetica,sans-Serif" font-size="10.00" fill="#000000">_access_index.hpp</text>
</g>
<!-- Node54&#45;&gt;Node64 -->
<g id="edge112" class="edge">
<title>Node54&#45;&gt;Node64</title>
<path fill="none" stroke="#191970" d="M2008.8097,-461.2709C1895.9032,-457.6795 1582.5676,-445.2868 1311.8242,-411.0027"/>
<polygon fill="#191970" stroke="#191970" points="1312.1699,-407.5185 1301.8067,-409.7216 1311.2819,-414.4619 1312.1699,-407.5185"/>
</g>
<!-- Node65 -->
<g id="node66" class="node">
<title>Node65</title>
<polygon fill="none" stroke="#bfbfbf" points="1319.5,-386 1319.5,-405 1494.5,-405 1494.5,-386 1319.5,-386"/>
<text text-anchor="middle" x="1407" y="-393" font-family="Helvetica,sans-Serif" font-size="10.00" fill="#000000">boost/multi_index_container.hpp</text>
</g>
<!-- Node54&#45;&gt;Node65 -->
<g id="edge113" class="edge">
<title>Node54&#45;&gt;Node65</title>
<path fill="none" stroke="#191970" d="M2008.9127,-459.405C1916.3011,-452.5432 1691.4662,-434.7615 1504,-411 1493.8072,-409.7081 1483.0397,-408.1658 1472.5326,-406.5625"/>
<polygon fill="#191970" stroke="#191970" points="1472.9847,-403.0908 1462.5657,-405.0128 1471.9092,-410.0077 1472.9847,-403.0908"/>
</g>
<!-- Node66 -->
<g id="node67" class="node">
<title>Node66</title>
<polygon fill="none" stroke="#bfbfbf" points="1512.5,-380.5 1512.5,-410.5 1619.5,-410.5 1619.5,-380.5 1512.5,-380.5"/>
<text text-anchor="start" x="1520.5" y="-398.5" font-family="Helvetica,sans-Serif" font-size="10.00" fill="#000000">boost/serialization</text>
<text text-anchor="middle" x="1566" y="-387.5" font-family="Helvetica,sans-Serif" font-size="10.00" fill="#000000">/complex.hpp</text>
</g>
<!-- Node54&#45;&gt;Node66 -->
<g id="edge114" class="edge">
<title>Node54&#45;&gt;Node66</title>
<path fill="none" stroke="#191970" d="M2008.8103,-458.9679C1933.712,-452.4517 1774.0943,-436.9474 1629.4662,-410.9411"/>
<polygon fill="#191970" stroke="#191970" points="1629.9868,-407.4785 1619.5218,-409.1318 1628.7337,-414.3654 1629.9868,-407.4785"/>
</g>
<!-- Node67 -->
<g id="node68" class="node">
<title>Node67</title>
<polygon fill="none" stroke="#bfbfbf" points="1637.5,-380.5 1637.5,-410.5 1744.5,-410.5 1744.5,-380.5 1637.5,-380.5"/>
<text text-anchor="start" x="1645.5" y="-398.5" font-family="Helvetica,sans-Serif" font-size="10.00" fill="#000000">boost/serialization</text>
<text text-anchor="middle" x="1691" y="-387.5" font-family="Helvetica,sans-Serif" font-size="10.00" fill="#000000">/set.hpp</text>
</g>
<!-- Node54&#45;&gt;Node67 -->
<g id="edge115" class="edge">
<title>Node54&#45;&gt;Node67</title>
<path fill="none" stroke="#191970" d="M2008.8867,-456.0214C1952.7037,-447.3647 1851.2155,-430.9974 1754.5032,-411.0188"/>
<polygon fill="#191970" stroke="#191970" points="1755.0614,-407.5601 1744.5579,-408.9478 1753.6343,-414.4131 1755.0614,-407.5601"/>
</g>
<!-- Node68 -->
<g id="node69" class="node">
<title>Node68</title>
<polygon fill="none" stroke="#bfbfbf" points="1762.5,-380.5 1762.5,-410.5 1869.5,-410.5 1869.5,-380.5 1762.5,-380.5"/>
<text text-anchor="start" x="1770.5" y="-398.5" font-family="Helvetica,sans-Serif" font-size="10.00" fill="#000000">boost/serialization</text>
<text text-anchor="middle" x="1816" y="-387.5" font-family="Helvetica,sans-Serif" font-size="10.00" fill="#000000">/vector.hpp</text>
</g>
<!-- Node54&#45;&gt;Node68 -->
<g id="edge116" class="edge">
<title>Node54&#45;&gt;Node68</title>
<path fill="none" stroke="#191970" d="M2018.4376,-452.9717C1982.159,-442.6723 1923.5192,-426.0245 1878.6669,-413.291"/>
<polygon fill="#191970" stroke="#191970" points="1879.6065,-409.9195 1869.0308,-410.5553 1877.6947,-416.6534 1879.6065,-409.9195"/>
</g>
<!-- Node69 -->
<g id="node70" class="node">
<title>Node69</title>
<polygon fill="none" stroke="#bfbfbf" points="1887.5,-386 1887.5,-405 1940.5,-405 1940.5,-386 1887.5,-386"/>
<text text-anchor="middle" x="1914" y="-393" font-family="Helvetica,sans-Serif" font-size="10.00" fill="#000000">iterator</text>
</g>
<!-- Node54&#45;&gt;Node69 -->
<g id="edge119" class="edge">
<title>Node54&#45;&gt;Node69</title>
<path fill="none" stroke="#191970" d="M2032.228,-452.9005C2008.8635,-441.5569 1969.7857,-422.5844 1942.997,-409.5783"/>
<polygon fill="#191970" stroke="#191970" points="1944.2598,-406.3007 1933.7354,-405.0817 1941.2025,-412.5978 1944.2598,-406.3007"/>
</g>
<!-- Node70 -->
<g id="node71" class="node">
<title>Node70</title>
<polygon fill="none" stroke="#bfbfbf" points="1958.5,-386 1958.5,-405 2023.5,-405 2023.5,-386 1958.5,-386"/>
<text text-anchor="middle" x="1991" y="-393" font-family="Helvetica,sans-Serif" font-size="10.00" fill="#000000">stdexcept</text>
</g>
<!-- Node54&#45;&gt;Node70 -->
<g id="edge124" class="edge">
<title>Node54&#45;&gt;Node70</title>
<path fill="none" stroke="#191970" d="M2043.2602,-452.9005C2033.7478,-442.4525 2018.343,-425.5325 2006.7175,-412.7635"/>
<polygon fill="#191970" stroke="#191970" points="2009.0439,-410.1198 1999.7236,-405.0817 2003.8678,-414.8324 2009.0439,-410.1198"/>
</g>
<!-- Node55&#45;&gt;Node16 -->
<g id="edge98" class="edge">
<title>Node55&#45;&gt;Node16</title>
<path fill="none" stroke="#191970" d="M2916.957,-385.8217C2904.1158,-370.3835 2878.1694,-339.2468 2856,-313 2784.9219,-228.8489 2699.2531,-128.8796 2665.1101,-89.0952"/>
<polygon fill="#191970" stroke="#191970" points="2667.4454,-86.4421 2658.2761,-81.1341 2662.1339,-91.0016 2667.4454,-86.4421"/>
</g>
<!-- Node55&#45;&gt;Node18 -->
<g id="edge101" class="edge">
<title>Node55&#45;&gt;Node18</title>
<path fill="none" stroke="#191970" d="M2924.7302,-385.6142C2924.0487,-355.8906 2922.9093,-264.7717 2932,-190 2936.2937,-154.6838 2945.8329,-114.2848 2951.8079,-90.95"/>
<polygon fill="#191970" stroke="#191970" points="2955.2045,-91.7951 2954.3435,-81.2353 2948.4314,-90.0272 2955.2045,-91.7951"/>
</g>
<!-- Node55&#45;&gt;Node43 -->
<g id="edge99" class="edge">
<title>Node55&#45;&gt;Node43</title>
<path fill="none" stroke="#191970" d="M2928.0825,-385.9137C2933.8794,-369.1976 2947.8523,-334.4547 2970,-313 3042.9517,-242.331 3112.8971,-291.1325 3174,-210 3215.2359,-155.247 3215.8023,-68.6703 3213.6534,-29.9105"/>
<polygon fill="#191970" stroke="#191970" points="3217.116,-29.2425 3212.9414,-19.5049 3210.1323,-29.7205 3217.116,-29.2425"/>
</g>
<!-- Node55&#45;&gt;Node56 -->
<g id="edge96" class="edge">
<title>Node55&#45;&gt;Node56</title>
<path fill="none" stroke="#191970" d="M2897.2352,-385.954C2890.6438,-383.8494 2883.6069,-381.7334 2877,-380 2872.6456,-378.8576 2774.073,-358.8578 2701.28,-344.1244"/>
<polygon fill="#191970" stroke="#191970" points="2701.6877,-340.6361 2691.1921,-342.0829 2700.2992,-347.497 2701.6877,-340.6361"/>
</g>
<!-- Node57 -->
<g id="node58" class="node">
<title>Node57</title>
<polygon fill="none" stroke="#bfbfbf" points="2709.5,-313.5 2709.5,-343.5 2846.5,-343.5 2846.5,-313.5 2709.5,-313.5"/>
<text text-anchor="start" x="2717.5" y="-331.5" font-family="Helvetica,sans-Serif" font-size="10.00" fill="#000000">boost/math/special</text>
<text text-anchor="middle" x="2778" y="-320.5" font-family="Helvetica,sans-Serif" font-size="10.00" fill="#000000">_functions/factorials.hpp</text>
</g>
<!-- Node55&#45;&gt;Node57 -->
<g id="edge97" class="edge">
<title>Node55&#45;&gt;Node57</title>
<path fill="none" stroke="#191970" d="M2903.9385,-385.9005C2882.2078,-375.9961 2847.7167,-360.2756 2820.3202,-347.7888"/>
<polygon fill="#191970" stroke="#191970" points="2821.5092,-344.4844 2810.9582,-343.5218 2818.606,-350.854 2821.5092,-344.4844"/>
</g>
<!-- Node55&#45;&gt;Node58 -->
<g id="edge100" class="edge">
<title>Node55&#45;&gt;Node58</title>
<path fill="none" stroke="#191970" d="M2936.7486,-385.9005C2949.9011,-375.1539 2971.4336,-357.5603 2987.1983,-344.6794"/>
<polygon fill="#191970" stroke="#191970" points="2989.7439,-347.1193 2995.2732,-338.0817 2985.3148,-341.6986 2989.7439,-347.1193"/>
</g>
<!-- Node59&#45;&gt;Node14 -->
<g id="edge104" class="edge">
<title>Node59&#45;&gt;Node14</title>
<path fill="none" stroke="#191970" d="M2176.0505,-318.7391C2172.3689,-280.8921 2158.9913,-143.3702 2153.9447,-91.4916"/>
<polygon fill="#191970" stroke="#191970" points="2157.4023,-90.8847 2152.9504,-81.2706 2150.4352,-91.5625 2157.4023,-90.8847"/>
</g>
<!-- Node60&#45;&gt;Node50 -->
<g id="edge106" class="edge">
<title>Node60&#45;&gt;Node50</title>
<path fill="none" stroke="#191970" d="M2311,-318.9005C2311,-309.149 2311,-293.7597 2311,-281.3695"/>
<polygon fill="#191970" stroke="#191970" points="2314.5001,-281.0816 2311,-271.0817 2307.5001,-281.0817 2314.5001,-281.0816"/>
</g>
<!-- Node71&#45;&gt;Node2 -->
<g id="edge131" class="edge">
<title>Node71&#45;&gt;Node2</title>
<path fill="none" stroke="#191970" d="M805,-514.3416C805,-493.4114 805,-443.504 805,-415.4762"/>
<polygon fill="#191970" stroke="#191970" points="808.5001,-415.2704 805,-405.2705 801.5001,-415.2705 808.5001,-415.2704"/>
</g>
<!-- Node71&#45;&gt;Node15 -->
<g id="edge133" class="edge">
<title>Node71&#45;&gt;Node15</title>
<path fill="none" stroke="#191970" d="M763.8455,-520.97C683.6106,-514.6795 509.2116,-499.0191 453,-478 402.5443,-459.1333 389.3919,-449.776 352,-411 316.5498,-374.2375 331.0291,-345.9382 292,-313 259.0764,-285.2145 226.1526,-312.6742 202,-277 161.3894,-217.0168 213.0638,-127.4429 238.9055,-89.5075"/>
<polygon fill="#191970" stroke="#191970" points="241.9766,-91.2236 244.8469,-81.025 236.2432,-87.2077 241.9766,-91.2236"/>
</g>
<!-- Node71&#45;&gt;Node16 -->
<g id="edge137" class="edge">
<title>Node71&#45;&gt;Node16</title>
<path fill="none" stroke="#191970" d="M846.2742,-523.1984C1119.6892,-517.689 2660.9161,-483.4711 2726,-411 2735.2059,-400.7492 2734.7234,-390.6644 2726,-380 2674.8964,-317.5261 2605.8323,-400.3027 2548,-344 2521.0399,-317.753 2529,-299.1265 2529,-261.5 2529,-261.5 2529,-261.5 2529,-200 2529,-146.5546 2585.1653,-106.2877 2620.9646,-86.0503"/>
<polygon fill="#191970" stroke="#191970" points="2622.9175,-88.9719 2630.0193,-81.1097 2619.5646,-82.8271 2622.9175,-88.9719"/>
</g>
<!-- Node71&#45;&gt;Node19 -->
<g id="edge134" class="edge">
<title>Node71&#45;&gt;Node19</title>
<path fill="none" stroke="#191970" d="M810.4872,-514.4129C836.6753,-469.5871 953.9525,-279.1047 1105,-190 1130.7341,-174.8191 1203.192,-159.7015 1258.5959,-149.8118"/>
<polygon fill="#191970" stroke="#191970" points="1259.4862,-153.2089 1268.7274,-148.0272 1258.2719,-146.3151 1259.4862,-153.2089"/>
</g>
<!-- Node71&#45;&gt;Node26 -->
<g id="edge138" class="edge">
<title>Node71&#45;&gt;Node26</title>
<path fill="none" stroke="#191970" d="M841.2088,-514.422C871.3138,-506.0443 915.0493,-492.907 952,-478 1042.3201,-441.5622 1053.8478,-404.9159 1148,-380 1435.8547,-303.8239 1530.9495,-426.6936 1817,-344 1913.3824,-316.1371 2013.0891,-246.794 2054.7802,-215.6178"/>
<polygon fill="#191970" stroke="#191970" points="2056.9087,-218.3963 2062.774,-209.5731 2052.6867,-212.8129 2056.9087,-218.3963"/>
</g>
<!-- Node71&#45;&gt;Node32 -->
<g id="edge140" class="edge">
<title>Node71&#45;&gt;Node32</title>
<path fill="none" stroke="#191970" d="M763.8832,-522.9169C672.014,-519.9488 452.9831,-509.6705 387,-478 273.1039,-423.3323 243.7427,-389.3684 186,-277 154.0957,-214.9135 150.9739,-129.6182 151.3684,-91.414"/>
<polygon fill="#191970" stroke="#191970" points="154.873,-91.2159 151.5758,-81.1472 147.8745,-91.0745 154.873,-91.2159"/>
</g>
<!-- Node71&#45;&gt;Node37 -->
<g id="edge139" class="edge">
<title>Node71&#45;&gt;Node37</title>
<path fill="none" stroke="#191970" d="M763.8523,-523.1302C662.7742,-520.5049 404.7999,-510.7058 326,-478 226.5614,-436.7281 38,-255.9069 38,-200 38,-200 38,-200 38,-138.5 38,-93.6788 57.0276,-78.1381 96,-56 144.8556,-28.2478 529.2399,-14.9717 662.0483,-11.1802"/>
<polygon fill="#191970" stroke="#191970" points="662.3752,-14.6725 672.2729,-10.8929 662.1786,-7.6752 662.3752,-14.6725"/>
</g>
<!-- Node71&#45;&gt;Node51 -->
<g id="edge136" class="edge">
<title>Node71&#45;&gt;Node51</title>
<path fill="none" stroke="#191970" d="M763.6577,-517.5368C668.5483,-501.9757 437.8058,-460.0616 378,-411 340.5033,-380.2397 359.6771,-351.3597 330,-313 321.4497,-301.9481 310.213,-291.543 299.7781,-283.0177"/>
<polygon fill="#191970" stroke="#191970" points="301.6676,-280.0504 291.6479,-276.607 297.3333,-285.5472 301.6676,-280.0504"/>
</g>
<!-- Node71&#45;&gt;Node54 -->
<g id="edge132" class="edge">
<title>Node71&#45;&gt;Node54</title>
<path fill="none" stroke="#191970" d="M846.1347,-521.9713C1031.5871,-512.8251 1789.9082,-475.4259 1998.6128,-465.133"/>
<polygon fill="#191970" stroke="#191970" points="1998.892,-468.6235 2008.7075,-464.6351 1998.5472,-461.632 1998.892,-468.6235"/>
</g>
<!-- Node71&#45;&gt;Node72 -->
<g id="edge135" class="edge">
<title>Node71&#45;&gt;Node72</title>
<path fill="none" stroke="#191970" d="M763.6961,-522.7716C668.4232,-519.4912 426.1067,-508.5905 226,-478 224.5412,-477.777 223.0673,-477.5401 221.5828,-477.2911"/>
<polygon fill="#191970" stroke="#191970" points="222.1488,-473.8367 211.6841,-475.4922 220.8971,-480.7239 222.1488,-473.8367"/>
</g>
<!-- Node73&#45;&gt;Node12 -->
<g id="edge149" class="edge">
<title>Node73&#45;&gt;Node12</title>
<path fill="none" stroke="#191970" d="M3079.358,-196.3134C3054.4773,-194.2512 3022.4773,-191.7512 2994,-190 2560.6731,-163.3524 2034.4493,-144.7702 1887.0514,-139.8179"/>
<polygon fill="#191970" stroke="#191970" points="1886.816,-136.3082 1876.7046,-139.4718 1886.5819,-143.3043 1886.816,-136.3082"/>
</g>
<!-- Node73&#45;&gt;Node16 -->
<g id="edge150" class="edge">
<title>Node73&#45;&gt;Node16</title>
<path fill="none" stroke="#191970" d="M3116.858,-190.4482C3107.219,-173.5944 3084.6972,-138.8633 3055,-123 2990.8491,-88.7327 2769.2805,-76.31 2683.9085,-72.7302"/>
<polygon fill="#191970" stroke="#191970" points="2683.8582,-69.2254 2673.7249,-72.3183 2683.5753,-76.2196 2683.8582,-69.2254"/>
</g>
<!-- Node73&#45;&gt;Node43 -->
<g id="edge151" class="edge">
<title>Node73&#45;&gt;Node43</title>
<path fill="none" stroke="#191970" d="M3126.5868,-190.3167C3140.7563,-160.4033 3184.0142,-69.0811 3202.9559,-29.0931"/>
<polygon fill="#191970" stroke="#191970" points="3206.1966,-30.4274 3207.3145,-19.8917 3199.8705,-27.4307 3206.1966,-30.4274"/>
</g>
</g>
</svg>
