<?xml version="1.0" encoding="UTF-8" standalone="no"?>
<!DOCTYPE svg PUBLIC "-//W3C//DTD SVG 1.1//EN"
 "http://www.w3.org/Graphics/SVG/1.1/DTD/svg11.dtd">
<!-- Generated by graphviz version 2.40.1 (20161225.0304)
 -->
<!-- Title: /travis/pairinteraction/SystemTwo.h Pages: 1 -->
<!--zoomable 609 -->
<svg id="main" version="1.1" xmlns="http://www.w3.org/2000/svg" xmlns:xlink="http://www.w3.org/1999/xlink" xml:space="preserve" onload="init(evt)">
<style type="text/css"><![CDATA[
.edge:hover path { stroke: red; }
.edge:hover polygon { stroke: red; fill: red; }
]]></style>
<script type="text/javascript"><![CDATA[
var edges = document.getElementsByTagName('g');
if (edges && edges.length) {
  for (var i=0;i<edges.length;i++) {
    if (edges[i].id.substr(0,4)=='edge') {
      edges[i].setAttribute('class','edge');
    }
  }
}
]]></script>
        <defs>
                <circle id="rim" cx="0" cy="0" r="7"/>
                <circle id="rim2" cx="0" cy="0" r="3.5"/>
                <g id="zoomPlus">
                        <use xlink:href="#rim" fill="#404040">
                                <set attributeName="fill" to="#808080" begin="zoomplus.mouseover" end="zoomplus.mouseout"/>
                        </use>
                        <path d="M-4,0h8M0,-4v8" fill="none" stroke="white" stroke-width="1.5" pointer-events="none"/>
                </g>
                <g id="zoomMin">
                        <use xlink:href="#rim" fill="#404040">
                                <set attributeName="fill" to="#808080" begin="zoomminus.mouseover" end="zoomminus.mouseout"/>
                        </use>
                        <path d="M-4,0h8" fill="none" stroke="white" stroke-width="1.5" pointer-events="none"/>
                </g>
                <g id="dirArrow">
                        <path fill="none" stroke="white" stroke-width="1.5" d="M0,-3.0v7 M-2.5,-0.5L0,-3.0L2.5,-0.5"/>
                </g>
               <g id="resetDef">
                       <use xlink:href="#rim2" fill="#404040">
                               <set attributeName="fill" to="#808080" begin="reset.mouseover" end="reset.mouseout"/>
                       </use>
               </g>
        </defs>

<script type="text/javascript">
var viewWidth = 3159;
var viewHeight = 609;
var sectionId = 'dynsection-0';
</script>
<script xlink:href="svgpan.js"/>
<svg id="graph" class="graph">
<g id="viewport">
<title>/travis/pairinteraction/SystemTwo.h</title>
<!-- Node0 -->
<g id="node1" class="node">
<title>Node0</title>
<polygon fill="#bfbfbf" stroke="#000000" points="877,-570.5 877,-600.5 999,-600.5 999,-570.5 877,-570.5"/>
<text text-anchor="start" x="885" y="-588.5" font-family="Helvetica,sans-Serif" font-size="10.00" fill="#000000">/travis/pairinteraction</text>
<text text-anchor="middle" x="938" y="-577.5" font-family="Helvetica,sans-Serif" font-size="10.00" fill="#000000">/SystemTwo.h</text>
</g>
<!-- Node1 -->
<g id="node2" class="node">
<title>Node1</title>
<g id="a_node2"><a xlink:href="State_8h.html" target="_top" xlink:title="State.h">
<polygon fill="none" stroke="#000000" points="763.5,-386 763.5,-405 814.5,-405 814.5,-386 763.5,-386"/>
<text text-anchor="middle" x="789" y="-393" font-family="Helvetica,sans-Serif" font-size="10.00" fill="#000000">State.h</text>
</a>
</g>
</g>
<!-- Node0&#45;&gt;Node1 -->
<g id="edge1" class="edge">
<title>Node0&#45;&gt;Node1</title>
<path fill="none" stroke="#191970" d="M926.0586,-570.2727C898.6959,-535.3806 831.5986,-449.8204 802.6555,-412.913"/>
<polygon fill="#191970" stroke="#191970" points="805.3953,-410.7349 796.4703,-405.0258 799.8871,-415.0546 805.3953,-410.7349"/>
</g>
<!-- Node13 -->
<g id="node14" class="node">
<title>Node13</title>
<polygon fill="none" stroke="#bfbfbf" points="904,-62 904,-81 984,-81 984,-62 904,-62"/>
<text text-anchor="middle" x="944" y="-69" font-family="Helvetica,sans-Serif" font-size="10.00" fill="#000000">Eigen/Sparse</text>
</g>
<!-- Node0&#45;&gt;Node13 -->
<g id="edge140" class="edge">
<title>Node0&#45;&gt;Node13</title>
<path fill="none" stroke="#191970" d="M940.0159,-570.317C945.6561,-528.8122 962.6578,-410.0779 985,-313 1001.4993,-241.3095 1020.6756,-226.8365 1031,-154 1032.9336,-140.3586 1037.8239,-134.9692 1031,-123 1021.0245,-105.5028 1002.5118,-93.3441 985.1196,-85.2536"/>
<polygon fill="#191970" stroke="#191970" points="986.2028,-81.9094 975.6339,-81.1694 983.4345,-88.3388 986.2028,-81.9094"/>
</g>
<!-- Node15 -->
<g id="node16" class="node">
<title>Node15</title>
<polygon fill="none" stroke="#bfbfbf" points="211.5,-62 211.5,-81 258.5,-81 258.5,-62 211.5,-62"/>
<text text-anchor="middle" x="235" y="-69" font-family="Helvetica,sans-Serif" font-size="10.00" fill="#000000">cmath</text>
</g>
<!-- Node0&#45;&gt;Node15 -->
<g id="edge144" class="edge">
<title>Node0&#45;&gt;Node15</title>
<path fill="none" stroke="#191970" d="M876.8469,-583.5933C674.2809,-576.4755 38,-547.3636 38,-462.5 38,-462.5 38,-462.5 38,-200 38,-122.9247 145.095,-89.6502 201.3601,-77.4871"/>
<polygon fill="#191970" stroke="#191970" points="202.1472,-80.8986 211.2372,-75.4559 200.7371,-74.042 202.1472,-80.8986"/>
</g>
<!-- Node25 -->
<g id="node26" class="node">
<title>Node25</title>
<polygon fill="none" stroke="#bfbfbf" points="290,-190.5 290,-209.5 322,-209.5 322,-190.5 290,-190.5"/>
<text text-anchor="middle" x="306" y="-197.5" font-family="Helvetica,sans-Serif" font-size="10.00" fill="#000000">set</text>
</g>
<!-- Node0&#45;&gt;Node25 -->
<g id="edge145" class="edge">
<title>Node0&#45;&gt;Node25</title>
<path fill="none" stroke="#191970" d="M876.7216,-579.9073C744.8228,-566.978 438.8488,-531.939 351,-478 284.3725,-437.0908 284.5059,-390.9911 290,-313 292.3226,-280.0291 298.4122,-242.0459 302.3731,-219.5827"/>
<polygon fill="#191970" stroke="#191970" points="305.8384,-220.0879 304.1701,-209.6253 298.9497,-218.8447 305.8384,-220.0879"/>
</g>
<!-- Node36 -->
<g id="node37" class="node">
<title>Node36</title>
<polygon fill="none" stroke="#bfbfbf" points="800.5,-.5 800.5,-19.5 869.5,-19.5 869.5,-.5 800.5,-.5"/>
<text text-anchor="middle" x="835" y="-7.5" font-family="Helvetica,sans-Serif" font-size="10.00" fill="#000000">type_traits</text>
</g>
<!-- Node0&#45;&gt;Node36 -->
<g id="edge146" class="edge">
<title>Node0&#45;&gt;Node36</title>
<path fill="none" stroke="#191970" d="M876.8974,-585.1029C713.2951,-583.4865 268.2359,-575.3075 128,-534 65.4926,-515.588 0,-527.6627 0,-462.5 0,-462.5 0,-462.5 0,-138.5 0,-54.917 88.2595,-77.6125 169,-56 286.6092,-24.5185 659.7397,-13.7278 789.7783,-10.8701"/>
<polygon fill="#191970" stroke="#191970" points="790.2353,-14.3612 800.158,-10.6476 790.0853,-7.3628 790.2353,-14.3612"/>
</g>
<!-- Node50 -->
<g id="node51" class="node">
<title>Node50</title>
<polygon fill="none" stroke="#bfbfbf" points="2167.5,-246.5 2167.5,-276.5 2284.5,-276.5 2284.5,-246.5 2167.5,-246.5"/>
<text text-anchor="start" x="2175.5" y="-264.5" font-family="Helvetica,sans-Serif" font-size="10.00" fill="#000000">boost/serialization</text>
<text text-anchor="middle" x="2226" y="-253.5" font-family="Helvetica,sans-Serif" font-size="10.00" fill="#000000">/unordered_map.hpp</text>
</g>
<!-- Node0&#45;&gt;Node50 -->
<g id="edge143" class="edge">
<title>Node0&#45;&gt;Node50</title>
<path fill="none" stroke="#191970" d="M999.2194,-584.0555C1233.7633,-578.3966 2075.2873,-556.9182 2342,-534 2588.1071,-512.8524 2755.7571,-622.1153 2884,-411 2891.153,-399.2246 2892.8369,-390.5705 2884,-380 2865.0404,-357.3209 2459.5093,-295.6867 2294.711,-271.4653"/>
<polygon fill="#191970" stroke="#191970" points="2295.0843,-267.9826 2284.6821,-269.9938 2294.0681,-274.9085 2295.0843,-267.9826"/>
</g>
<!-- Node53 -->
<g id="node54" class="node">
<title>Node53</title>
<g id="a_node54"><a xlink:href="SystemBase_8h.html" target="_top" xlink:title="SystemBase.h">
<polygon fill="none" stroke="#000000" points="1681,-453 1681,-472 1767,-472 1767,-453 1681,-453"/>
<text text-anchor="middle" x="1724" y="-460" font-family="Helvetica,sans-Serif" font-size="10.00" fill="#000000">SystemBase.h</text>
</a>
</g>
</g>
<!-- Node0&#45;&gt;Node53 -->
<g id="edge91" class="edge">
<title>Node0&#45;&gt;Node53</title>
<path fill="none" stroke="#191970" d="M999.0221,-575.9507C1148.2216,-552.6027 1529.5456,-492.9299 1670.5394,-470.866"/>
<polygon fill="#191970" stroke="#191970" points="1671.327,-474.2854 1680.6656,-469.2813 1670.2447,-467.3696 1671.327,-474.2854"/>
</g>
<!-- Node55 -->
<g id="node56" class="node">
<title>Node55</title>
<polygon fill="none" stroke="#bfbfbf" points="2113,-313.5 2113,-343.5 2247,-343.5 2247,-313.5 2113,-313.5"/>
<text text-anchor="start" x="2121" y="-331.5" font-family="Helvetica,sans-Serif" font-size="10.00" fill="#000000">boost/math/special</text>
<text text-anchor="middle" x="2180" y="-320.5" font-family="Helvetica,sans-Serif" font-size="10.00" fill="#000000">_functions/binomial.hpp</text>
</g>
<!-- Node0&#45;&gt;Node55 -->
<g id="edge141" class="edge">
<title>Node0&#45;&gt;Node55</title>
<path fill="none" stroke="#191970" d="M999.0539,-584.748C1313.1155,-580.2624 2737.0004,-552.2024 2866,-411 2957.2351,-311.1344 2395.2235,-360.7641 2261,-344 2259.7213,-343.8403 2258.4325,-343.6727 2257.1357,-343.4979"/>
<polygon fill="#191970" stroke="#191970" points="2257.4779,-340.0108 2247.0772,-342.0298 2256.4668,-346.9374 2257.4779,-340.0108"/>
</g>
<!-- Node70 -->
<g id="node71" class="node">
<title>Node70</title>
<g id="a_node71"><a xlink:href="SystemOne_8h.html" target="_top" xlink:title="SystemOne.h">
<polygon fill="none" stroke="#000000" points="748,-514.5 748,-533.5 830,-533.5 830,-514.5 748,-514.5"/>
<text text-anchor="middle" x="789" y="-521.5" font-family="Helvetica,sans-Serif" font-size="10.00" fill="#000000">SystemOne.h</text>
</a>
</g>
</g>
<!-- Node0&#45;&gt;Node70 -->
<g id="edge129" class="edge">
<title>Node0&#45;&gt;Node70</title>
<path fill="none" stroke="#191970" d="M901.5505,-570.4554C877.1256,-560.374 845.2419,-547.2139 821.6479,-537.4755"/>
<polygon fill="#191970" stroke="#191970" points="822.6687,-534.1104 812.0897,-533.5303 819.9979,-540.5809 822.6687,-534.1104"/>
</g>
<!-- Node71 -->
<g id="node72" class="node">
<title>Node71</title>
<polygon fill="none" stroke="#bfbfbf" points="1785.5,-447.5 1785.5,-477.5 1892.5,-477.5 1892.5,-447.5 1785.5,-447.5"/>
<text text-anchor="start" x="1793.5" y="-465.5" font-family="Helvetica,sans-Serif" font-size="10.00" fill="#000000">boost/serialization</text>
<text text-anchor="middle" x="1839" y="-454.5" font-family="Helvetica,sans-Serif" font-size="10.00" fill="#000000">/base_object.hpp</text>
</g>
<!-- Node0&#45;&gt;Node71 -->
<g id="edge142" class="edge">
<title>Node0&#45;&gt;Node71</title>
<path fill="none" stroke="#191970" d="M999.1025,-580.0981C1136.3813,-567.4372 1479.6566,-532.8487 1775.4138,-477.9796"/>
<polygon fill="#191970" stroke="#191970" points="1776.2847,-481.3776 1785.4727,-476.1021 1775.0003,-474.4964 1776.2847,-481.3776"/>
</g>
<!-- Node2 -->
<g id="node3" class="node">
<title>Node2</title>
<g id="a_node3"><a xlink:href="MatrixElementCache_8h.html" target="_top" xlink:title="MatrixElementCache.h">
<polygon fill="none" stroke="#000000" points="1693.5,-319 1693.5,-338 1820.5,-338 1820.5,-319 1693.5,-319"/>
<text text-anchor="middle" x="1757" y="-326" font-family="Helvetica,sans-Serif" font-size="10.00" fill="#000000">MatrixElementCache.h</text>
</a>
</g>
</g>
<!-- Node1&#45;&gt;Node2 -->
<g id="edge2" class="edge">
<title>Node1&#45;&gt;Node2</title>
<path fill="none" stroke="#191970" d="M814.7116,-393.5491C939.5849,-384.5424 1483.7992,-346.8461 1683.3588,-333.3403"/>
<polygon fill="#191970" stroke="#191970" points="1683.7103,-336.8246 1693.4514,-332.658 1683.2381,-329.8405 1683.7103,-336.8246"/>
</g>
<!-- Node7 -->
<g id="node8" class="node">
<title>Node7</title>
<polygon fill="none" stroke="#bfbfbf" points="2005,-62 2005,-81 2049,-81 2049,-62 2005,-62"/>
<text text-anchor="middle" x="2027" y="-69" font-family="Helvetica,sans-Serif" font-size="10.00" fill="#000000">string</text>
</g>
<!-- Node1&#45;&gt;Node7 -->
<g id="edge86" class="edge">
<title>Node1&#45;&gt;Node7</title>
<path fill="none" stroke="#191970" d="M814.6,-394.4676C972.2817,-388.08 1805.7303,-353.8954 1830,-344 1849.2419,-336.1546 1846.7798,-322.9912 1865,-313 1916.0669,-284.997 1946.2947,-314.3287 1991,-277 2045.8312,-231.2162 2043.8395,-194.1044 2037,-123 2035.9846,-112.4436 2033.8241,-100.836 2031.7703,-91.3173"/>
<polygon fill="#191970" stroke="#191970" points="2035.1196,-90.2621 2029.4832,-81.2909 2028.2949,-91.8189 2035.1196,-90.2621"/>
</g>
<!-- Node11 -->
<g id="node12" class="node">
<title>Node11</title>
<g id="a_node12"><a xlink:href="dtypes_8h.html" target="_top" xlink:title="dtypes.h">
<polygon fill="none" stroke="#000000" points="1176.5,-129 1176.5,-148 1235.5,-148 1235.5,-129 1176.5,-129"/>
<text text-anchor="middle" x="1206" y="-136" font-family="Helvetica,sans-Serif" font-size="10.00" fill="#000000">dtypes.h</text>
</a>
</g>
</g>
<!-- Node1&#45;&gt;Node11 -->
<g id="edge81" class="edge">
<title>Node1&#45;&gt;Node11</title>
<path fill="none" stroke="#191970" d="M793.795,-385.9308C802.5612,-369.2412 822.6287,-334.538 848,-313 947.9783,-228.1275 1096.3286,-173.2298 1166.4905,-150.4799"/>
<polygon fill="#191970" stroke="#191970" points="1167.8005,-153.7357 1176.2598,-147.3569 1165.6689,-147.0681 1167.8005,-153.7357"/>
</g>
<!-- Node14 -->
<g id="node15" class="node">
<title>Node14</title>
<polygon fill="none" stroke="#bfbfbf" points="433,-62 433,-81 475,-81 475,-62 433,-62"/>
<text text-anchor="middle" x="454" y="-69" font-family="Helvetica,sans-Serif" font-size="10.00" fill="#000000">array</text>
</g>
<!-- Node1&#45;&gt;Node14 -->
<g id="edge82" class="edge">
<title>Node1&#45;&gt;Node14</title>
<path fill="none" stroke="#191970" d="M763.266,-393.8255C697.1685,-389.1295 523.2473,-374.1621 475,-344 403.8969,-299.5494 417.6388,-256.0677 366,-190 352.9973,-173.364 342.3482,-173.7947 335,-154 330.2051,-141.0835 327.4359,-134.5157 335,-123 354.2878,-93.6362 394.2838,-80.9346 422.5717,-75.4927"/>
<polygon fill="#191970" stroke="#191970" points="423.5083,-78.8833 432.7725,-73.7429 422.3247,-71.984 423.5083,-78.8833"/>
</g>
<!-- Node1&#45;&gt;Node15 -->
<g id="edge84" class="edge">
<title>Node1&#45;&gt;Node15</title>
<path fill="none" stroke="#191970" d="M763.321,-394.4524C691.3095,-391.1029 489.112,-378.7586 434,-344 364.3526,-300.074 379.8563,-256.282 331,-190 303.6973,-152.9591 269.2197,-111.5956 249.893,-88.8507"/>
<polygon fill="#191970" stroke="#191970" points="252.4274,-86.4287 243.2742,-81.0929 247.1022,-90.9721 252.4274,-86.4287"/>
</g>
<!-- Node18 -->
<g id="node19" class="node">
<title>Node18</title>
<polygon fill="none" stroke="#bfbfbf" points="862.5,-129 862.5,-148 1005.5,-148 1005.5,-129 862.5,-129"/>
<text text-anchor="middle" x="934" y="-136" font-family="Helvetica,sans-Serif" font-size="10.00" fill="#000000">boost/functional/hash.hpp</text>
</g>
<!-- Node1&#45;&gt;Node18 -->
<g id="edge83" class="edge">
<title>Node1&#45;&gt;Node18</title>
<path fill="none" stroke="#191970" d="M787.5046,-385.7361C784.1608,-361.3983 777.596,-296.3739 794,-246 803.3134,-217.4001 809.4085,-209.8574 832,-190 850.9082,-173.3801 876.1349,-160.5824 896.7694,-151.9016"/>
<polygon fill="#191970" stroke="#191970" points="898.2297,-155.0864 906.1843,-148.0881 895.6017,-148.5984 898.2297,-155.0864"/>
</g>
<!-- Node19 -->
<g id="node20" class="node">
<title>Node19</title>
<polygon fill="none" stroke="#bfbfbf" points="826,-62 826,-81 886,-81 886,-62 826,-62"/>
<text text-anchor="middle" x="856" y="-69" font-family="Helvetica,sans-Serif" font-size="10.00" fill="#000000">iostream</text>
</g>
<!-- Node1&#45;&gt;Node19 -->
<g id="edge85" class="edge">
<title>Node1&#45;&gt;Node19</title>
<path fill="none" stroke="#191970" d="M802.163,-385.7995C814.8054,-376.091 833.998,-360.292 848,-344 900.8787,-282.473 886.2253,-244.8518 946,-190 971.4855,-166.6134 997.0694,-183.5794 1015,-154 1022.1421,-142.2179 1023.2244,-134.0538 1015,-123 981.7619,-78.327 947.5886,-105.2999 895,-87 892.8754,-86.2607 890.696,-85.4742 888.5059,-84.6628"/>
<polygon fill="#191970" stroke="#191970" points="889.563,-81.3198 878.9726,-81.0137 887.0606,-87.8573 889.563,-81.3198"/>
</g>
<!-- Node20 -->
<g id="node21" class="node">
<title>Node20</title>
<polygon fill="none" stroke="#bfbfbf" points="497.5,-123.5 497.5,-153.5 604.5,-153.5 604.5,-123.5 497.5,-123.5"/>
<text text-anchor="start" x="505.5" y="-141.5" font-family="Helvetica,sans-Serif" font-size="10.00" fill="#000000">boost/serialization</text>
<text text-anchor="middle" x="551" y="-130.5" font-family="Helvetica,sans-Serif" font-size="10.00" fill="#000000">/array.hpp</text>
</g>
<!-- Node1&#45;&gt;Node20 -->
<g id="edge88" class="edge">
<title>Node1&#45;&gt;Node20</title>
<path fill="none" stroke="#191970" d="M778.8691,-385.7864C768.2694,-375.5494 751.2242,-358.8782 737,-344 674.9095,-279.0548 604.4445,-199.5257 570.8522,-161.2365"/>
<polygon fill="#191970" stroke="#191970" points="573.4823,-158.9272 564.2599,-153.712 568.2171,-163.5401 573.4823,-158.9272"/>
</g>
<!-- Node21 -->
<g id="node22" class="node">
<title>Node21</title>
<polygon fill="none" stroke="#bfbfbf" points="622.5,-123.5 622.5,-153.5 729.5,-153.5 729.5,-123.5 622.5,-123.5"/>
<text text-anchor="start" x="630.5" y="-141.5" font-family="Helvetica,sans-Serif" font-size="10.00" fill="#000000">boost/serialization</text>
<text text-anchor="middle" x="676" y="-130.5" font-family="Helvetica,sans-Serif" font-size="10.00" fill="#000000">/string.hpp</text>
</g>
<!-- Node1&#45;&gt;Node21 -->
<g id="edge89" class="edge">
<title>Node1&#45;&gt;Node21</title>
<path fill="none" stroke="#191970" d="M782.091,-385.9619C774.973,-375.8681 763.8408,-359.3121 756,-344 723.8832,-281.2798 696.5957,-202.5233 683.7945,-163.2091"/>
<polygon fill="#191970" stroke="#191970" points="687.1142,-162.0993 680.7166,-153.6541 680.4514,-164.2456 687.1142,-162.0993"/>
</g>
<!-- Node22 -->
<g id="node23" class="node">
<title>Node22</title>
<polygon fill="none" stroke="#bfbfbf" points="377,-129 377,-148 479,-148 479,-129 377,-129"/>
<text text-anchor="middle" x="428" y="-136" font-family="Helvetica,sans-Serif" font-size="10.00" fill="#000000">boost/variant.hpp</text>
</g>
<!-- Node1&#45;&gt;Node22 -->
<g id="edge90" class="edge">
<title>Node1&#45;&gt;Node22</title>
<path fill="none" stroke="#191970" d="M772.0925,-385.8951C754.7241,-375.8808 727.0462,-359.5101 704,-344 605.2646,-277.5512 493.0571,-190.0738 448.1388,-154.5376"/>
<polygon fill="#191970" stroke="#191970" points="450.0866,-151.6152 440.0763,-148.1445 445.7373,-157.1001 450.0866,-151.6152"/>
</g>
<!-- Node52 -->
<g id="node53" class="node">
<title>Node52</title>
<polygon fill="none" stroke="#bfbfbf" points="484.5,-319 484.5,-338 541.5,-338 541.5,-319 484.5,-319"/>
<text text-anchor="middle" x="513" y="-326" font-family="Helvetica,sans-Serif" font-size="10.00" fill="#000000">typeinfo</text>
</g>
<!-- Node1&#45;&gt;Node52 -->
<g id="edge87" class="edge">
<title>Node1&#45;&gt;Node52</title>
<path fill="none" stroke="#191970" d="M763.2155,-390.9236C719.9584,-382.9968 630.2163,-365.4819 556,-344 553.213,-343.1933 550.345,-342.3009 547.4759,-341.3636"/>
<polygon fill="#191970" stroke="#191970" points="548.4281,-337.9903 537.8335,-338.064 546.1617,-344.6132 548.4281,-337.9903"/>
</g>
<!-- Node2&#45;&gt;Node1 -->
<g id="edge33" class="edge">
<title>Node2&#45;&gt;Node1</title>
<path fill="none" stroke="#191970" d="M1693.2639,-333.1642C1507.1463,-346.3535 968.9037,-383.5851 824.7884,-393.2073"/>
<polygon fill="#191970" stroke="#191970" points="824.4667,-389.7209 814.7211,-393.877 824.9314,-396.7054 824.4667,-389.7209"/>
</g>
<!-- Node3 -->
<g id="node4" class="node">
<title>Node3</title>
<g id="a_node4"><a xlink:href="Basisnames_8h.html" target="_top" xlink:title="Basisnames.h">
<polygon fill="none" stroke="#000000" points="1830.5,-252 1830.5,-271 1915.5,-271 1915.5,-252 1830.5,-252"/>
<text text-anchor="middle" x="1873" y="-259" font-family="Helvetica,sans-Serif" font-size="10.00" fill="#000000">Basisnames.h</text>
</a>
</g>
</g>
<!-- Node2&#45;&gt;Node3 -->
<g id="edge3" class="edge">
<title>Node2&#45;&gt;Node3</title>
<path fill="none" stroke="#191970" d="M1773.62,-318.9005C1793.0012,-307.7062 1825.2455,-289.0823 1847.7315,-276.0947"/>
<polygon fill="#191970" stroke="#191970" points="1849.502,-279.114 1856.4109,-271.0817 1846.0009,-273.0525 1849.502,-279.114"/>
</g>
<!-- Node6 -->
<g id="node7" class="node">
<title>Node6</title>
<polygon fill="none" stroke="#bfbfbf" points="2199,-62 2199,-81 2255,-81 2255,-62 2199,-62"/>
<text text-anchor="middle" x="2227" y="-69" font-family="Helvetica,sans-Serif" font-size="10.00" fill="#000000">sstream</text>
</g>
<!-- Node2&#45;&gt;Node6 -->
<g id="edge77" class="edge">
<title>Node2&#45;&gt;Node6</title>
<path fill="none" stroke="#191970" d="M1820.6891,-319.1854C1957.5414,-297.6783 2271.9794,-239.7502 2330,-154 2337.721,-142.5889 2337.2434,-134.7201 2330,-123 2325.8214,-116.2388 2287.0894,-98.0052 2258.3446,-85.161"/>
<polygon fill="#191970" stroke="#191970" points="2259.6039,-81.8908 2249.0435,-81.0362 2256.766,-88.2898 2259.6039,-81.8908"/>
</g>
<!-- Node2&#45;&gt;Node7 -->
<g id="edge78" class="edge">
<title>Node2&#45;&gt;Node7</title>
<path fill="none" stroke="#191970" d="M1805.9519,-318.9685C1863.672,-307.3325 1953.292,-287.8661 1965,-277 2018.6792,-227.1806 2026.4802,-132.7463 2027.2076,-91.5555"/>
<polygon fill="#191970" stroke="#191970" points="2030.7081,-91.448 2027.2575,-81.4308 2023.7082,-91.4134 2030.7081,-91.448"/>
</g>
<!-- Node2&#45;&gt;Node11 -->
<g id="edge69" class="edge">
<title>Node2&#45;&gt;Node11</title>
<path fill="none" stroke="#191970" d="M1693.2829,-326.6798C1588.3694,-322.7433 1384.6299,-310.8668 1322,-277 1270.4424,-249.1205 1232.3438,-188.1413 1215.5281,-157.2428"/>
<polygon fill="#191970" stroke="#191970" points="1218.4168,-155.2176 1210.6527,-148.0087 1212.2266,-158.486 1218.4168,-155.2176"/>
</g>
<!-- Node2&#45;&gt;Node18 -->
<g id="edge73" class="edge">
<title>Node2&#45;&gt;Node18</title>
<path fill="none" stroke="#191970" d="M1693.2385,-325.0432C1569.5731,-317.9165 1301.4444,-300.2865 1212,-277 1110.2121,-250.5 1002.139,-183.9733 956.4549,-153.8027"/>
<polygon fill="#191970" stroke="#191970" points="958.1845,-150.7492 947.9237,-148.1097 954.299,-156.5718 958.1845,-150.7492"/>
</g>
<!-- Node24 -->
<g id="node25" class="node">
<title>Node24</title>
<polygon fill="none" stroke="#bfbfbf" points="2067,-62 2067,-81 2125,-81 2125,-62 2067,-62"/>
<text text-anchor="middle" x="2096" y="-69" font-family="Helvetica,sans-Serif" font-size="10.00" fill="#000000">memory</text>
</g>
<!-- Node2&#45;&gt;Node24 -->
<g id="edge76" class="edge">
<title>Node2&#45;&gt;Node24</title>
<path fill="none" stroke="#191970" d="M1820.7611,-319.7871C1880.1524,-310.7322 1963.5389,-295.3321 1991,-277 2046.4778,-239.965 2049.9064,-214.9534 2077,-154 2086.1088,-133.5075 2091.1091,-108.1363 2093.6625,-90.9813"/>
<polygon fill="#191970" stroke="#191970" points="2097.1368,-91.4067 2095.0058,-81.0284 2090.1997,-90.4704 2097.1368,-91.4067"/>
</g>
<!-- Node27 -->
<g id="node28" class="node">
<title>Node27</title>
<g id="a_node28"><a xlink:href="Wavefunction_8h.html" target="_top" xlink:title="Wavefunction.h">
<polygon fill="none" stroke="#000000" points="1330.5,-252 1330.5,-271 1423.5,-271 1423.5,-252 1330.5,-252"/>
<text text-anchor="middle" x="1377" y="-259" font-family="Helvetica,sans-Serif" font-size="10.00" fill="#000000">Wavefunction.h</text>
</a>
</g>
</g>
<!-- Node2&#45;&gt;Node27 -->
<g id="edge34" class="edge">
<title>Node2&#45;&gt;Node27</title>
<path fill="none" stroke="#191970" d="M1702.9588,-318.9717C1631.5283,-306.3774 1506.2594,-284.2905 1433.5793,-271.4758"/>
<polygon fill="#191970" stroke="#191970" points="1434.1398,-268.0207 1423.6839,-269.7311 1432.9243,-274.9144 1434.1398,-268.0207"/>
</g>
<!-- Node31 -->
<g id="node32" class="node">
<title>Node31</title>
<polygon fill="none" stroke="#bfbfbf" points="714.5,-62 714.5,-81 807.5,-81 807.5,-62 714.5,-62"/>
<text text-anchor="middle" x="761" y="-69" font-family="Helvetica,sans-Serif" font-size="10.00" fill="#000000">unordered_map</text>
</g>
<!-- Node2&#45;&gt;Node31 -->
<g id="edge80" class="edge">
<title>Node2&#45;&gt;Node31</title>
<path fill="none" stroke="#191970" d="M1693.3926,-324.9826C1581.3625,-318.2375 1353.5622,-301.9078 1278,-277 1149.3554,-234.5946 1142.0174,-170.0557 1015,-123 931.1278,-91.9281 904.1894,-106.95 817,-87 812.5656,-85.9854 807.9559,-84.8473 803.3702,-83.6606"/>
<polygon fill="#191970" stroke="#191970" points="804.0112,-80.2093 793.4471,-81.0146 802.2076,-86.973 804.0112,-80.2093"/>
</g>
<!-- Node40 -->
<g id="node41" class="node">
<title>Node40</title>
<g id="a_node41"><a xlink:href="utils_8h.html" target="_top" xlink:title="utils.h">
<polygon fill="none" stroke="#000000" points="1939.5,-62 1939.5,-81 1986.5,-81 1986.5,-62 1939.5,-62"/>
<text text-anchor="middle" x="1963" y="-69" font-family="Helvetica,sans-Serif" font-size="10.00" fill="#000000">utils.h</text>
</a>
</g>
</g>
<!-- Node2&#45;&gt;Node40 -->
<g id="edge70" class="edge">
<title>Node2&#45;&gt;Node40</title>
<path fill="none" stroke="#191970" d="M1801.3961,-318.966C1853.4228,-307.3736 1933.7578,-287.9983 1943,-277 1988.32,-223.0685 1975.8447,-130.8355 1967.6017,-90.8896"/>
<polygon fill="#191970" stroke="#191970" points="1971.0111,-90.0968 1965.4406,-81.0846 1964.1752,-91.6036 1971.0111,-90.0968"/>
</g>
<!-- Node45 -->
<g id="node46" class="node">
<title>Node45</title>
<polygon fill="none" stroke="#bfbfbf" points="1783.5,-129 1783.5,-148 1824.5,-148 1824.5,-129 1783.5,-129"/>
<text text-anchor="middle" x="1804" y="-136" font-family="Helvetica,sans-Serif" font-size="10.00" fill="#000000">tuple</text>
</g>
<!-- Node2&#45;&gt;Node45 -->
<g id="edge79" class="edge">
<title>Node2&#45;&gt;Node45</title>
<path fill="none" stroke="#191970" d="M1796.8745,-318.9113C1844.0442,-307.1698 1917.2012,-287.5477 1925,-277 1960.518,-228.9626 1879.4768,-177.158 1833.2877,-152.755"/>
<polygon fill="#191970" stroke="#191970" points="1834.7788,-149.586 1824.287,-148.1117 1831.5695,-155.807 1834.7788,-149.586"/>
</g>
<!-- Node48 -->
<g id="node49" class="node">
<title>Node48</title>
<polygon fill="none" stroke="#bfbfbf" points="1480.5,-246.5 1480.5,-276.5 1683.5,-276.5 1683.5,-246.5 1480.5,-246.5"/>
<text text-anchor="start" x="1488.5" y="-264.5" font-family="Helvetica,sans-Serif" font-size="10.00" fill="#000000">wignerSymbols/include</text>
<text text-anchor="middle" x="1582" y="-253.5" font-family="Helvetica,sans-Serif" font-size="10.00" fill="#000000">/wignerSymbols/wignerSymbols&#45;cpp.h</text>
</g>
<!-- Node2&#45;&gt;Node48 -->
<g id="edge71" class="edge">
<title>Node2&#45;&gt;Node48</title>
<path fill="none" stroke="#191970" d="M1731.9268,-318.9005C1705.605,-308.8231 1663.557,-292.7247 1630.68,-280.1375"/>
<polygon fill="#191970" stroke="#191970" points="1631.8263,-276.8287 1621.236,-276.5218 1629.3235,-283.3659 1631.8263,-276.8287"/>
</g>
<!-- Node49 -->
<g id="node50" class="node">
<title>Node49</title>
<polygon fill="none" stroke="#bfbfbf" points="2778.5,-252 2778.5,-271 2897.5,-271 2897.5,-252 2778.5,-252"/>
<text text-anchor="middle" x="2838" y="-259" font-family="Helvetica,sans-Serif" font-size="10.00" fill="#000000">boost/filesystem.hpp</text>
</g>
<!-- Node2&#45;&gt;Node49 -->
<g id="edge72" class="edge">
<title>Node2&#45;&gt;Node49</title>
<path fill="none" stroke="#191970" d="M1820.6298,-321.4493C1848.3615,-318.5437 1881.2634,-315.3213 1911,-313 2230.6728,-288.0454 2613.2847,-270.7762 2767.9907,-264.3166"/>
<polygon fill="#191970" stroke="#191970" points="2768.4443,-267.8009 2778.2903,-263.8885 2768.1535,-260.8069 2768.4443,-267.8009"/>
</g>
<!-- Node2&#45;&gt;Node50 -->
<g id="edge74" class="edge">
<title>Node2&#45;&gt;Node50</title>
<path fill="none" stroke="#191970" d="M1820.6865,-320.1127C1838.2814,-317.8014 1857.3798,-315.2981 1875,-313 1998.5409,-296.8871 2030.1877,-297.9552 2153,-277 2154.2931,-276.7794 2155.5981,-276.5519 2156.9121,-276.3186"/>
<polygon fill="#191970" stroke="#191970" points="2157.9167,-279.6921 2167.1115,-274.4285 2156.6411,-272.8093 2157.9167,-279.6921"/>
</g>
<!-- Node51 -->
<g id="node52" class="node">
<title>Node51</title>
<polygon fill="none" stroke="#bfbfbf" points="1702,-246.5 1702,-276.5 1812,-276.5 1812,-246.5 1702,-246.5"/>
<text text-anchor="start" x="1710" y="-264.5" font-family="Helvetica,sans-Serif" font-size="10.00" fill="#000000">boost/serialization</text>
<text text-anchor="middle" x="1757" y="-253.5" font-family="Helvetica,sans-Serif" font-size="10.00" fill="#000000">/unordered_set.hpp</text>
</g>
<!-- Node2&#45;&gt;Node51 -->
<g id="edge75" class="edge">
<title>Node2&#45;&gt;Node51</title>
<path fill="none" stroke="#191970" d="M1757,-318.9005C1757,-310.5099 1757,-297.9451 1757,-286.7085"/>
<polygon fill="#191970" stroke="#191970" points="1760.5001,-286.5217 1757,-276.5218 1753.5001,-286.5218 1760.5001,-286.5217"/>
</g>
<!-- Node4 -->
<g id="node5" class="node">
<title>Node4</title>
<g id="a_node5"><a xlink:href="ConfParser_8h.html" target="_top" xlink:title="ConfParser.h">
<polygon fill="none" stroke="#000000" points="2243.5,-129 2243.5,-148 2320.5,-148 2320.5,-129 2243.5,-129"/>
<text text-anchor="middle" x="2282" y="-136" font-family="Helvetica,sans-Serif" font-size="10.00" fill="#000000">ConfParser.h</text>
</a>
</g>
</g>
<!-- Node3&#45;&gt;Node4 -->
<g id="edge4" class="edge">
<title>Node3&#45;&gt;Node4</title>
<path fill="none" stroke="#191970" d="M1904.7532,-251.9507C1977.9937,-229.9249 2158.7288,-175.5718 2240.559,-150.9627"/>
<polygon fill="#191970" stroke="#191970" points="2241.6987,-154.2749 2250.267,-148.0432 2239.6827,-147.5714 2241.6987,-154.2749"/>
</g>
<!-- Node3&#45;&gt;Node7 -->
<g id="edge30" class="edge">
<title>Node3&#45;&gt;Node7</title>
<path fill="none" stroke="#191970" d="M1876.8164,-251.8404C1886.626,-227.8919 1914.6659,-164.7059 1953,-123 1966.5083,-108.3035 1984.9225,-95.4689 2000.0023,-86.2882"/>
<polygon fill="#191970" stroke="#191970" points="2002.0434,-89.1482 2008.8871,-81.0602 1998.4934,-83.1152 2002.0434,-89.1482"/>
</g>
<!-- Node9 -->
<g id="node10" class="node">
<title>Node9</title>
<g id="a_node10"><a xlink:href="Iter_8h.html" target="_top" xlink:title="Iter.h">
<polygon fill="none" stroke="#000000" points="1803.5,-190.5 1803.5,-209.5 1844.5,-209.5 1844.5,-190.5 1803.5,-190.5"/>
<text text-anchor="middle" x="1824" y="-197.5" font-family="Helvetica,sans-Serif" font-size="10.00" fill="#000000">Iter.h</text>
</a>
</g>
</g>
<!-- Node3&#45;&gt;Node9 -->
<g id="edge9" class="edge">
<title>Node3&#45;&gt;Node9</title>
<path fill="none" stroke="#191970" d="M1865.3438,-251.8906C1858.0511,-242.7376 1846.8993,-228.7409 1838.0148,-217.59"/>
<polygon fill="#191970" stroke="#191970" points="1840.733,-215.3849 1831.7642,-209.7449 1835.2583,-219.747 1840.733,-215.3849"/>
</g>
<!-- Node10 -->
<g id="node11" class="node">
<title>Node10</title>
<g id="a_node11"><a xlink:href="StateOld_8h.html" target="_top" xlink:title="StateOld.h">
<polygon fill="none" stroke="#000000" points="712,-190.5 712,-209.5 780,-209.5 780,-190.5 712,-190.5"/>
<text text-anchor="middle" x="746" y="-197.5" font-family="Helvetica,sans-Serif" font-size="10.00" fill="#000000">StateOld.h</text>
</a>
</g>
</g>
<!-- Node3&#45;&gt;Node10 -->
<g id="edge10" class="edge">
<title>Node3&#45;&gt;Node10</title>
<path fill="none" stroke="#191970" d="M1845.5025,-251.9267C1837.6774,-249.5806 1829.0827,-247.3561 1821,-246 1617.78,-211.9045 966.4436,-202.412 790.2824,-200.4393"/>
<polygon fill="#191970" stroke="#191970" points="790.1268,-196.9375 780.089,-200.3277 790.0501,-203.9371 790.1268,-196.9375"/>
</g>
<!-- Node3&#45;&gt;Node11 -->
<g id="edge26" class="edge">
<title>Node3&#45;&gt;Node11</title>
<path fill="none" stroke="#191970" d="M1844.6342,-251.9917C1837.0295,-249.7331 1828.7625,-247.5362 1821,-246 1665.4302,-215.2125 1621.8892,-239.127 1466,-210 1444.2238,-205.9312 1312.5093,-168.7906 1245.3354,-149.7084"/>
<polygon fill="#191970" stroke="#191970" points="1246.1002,-146.2872 1235.5242,-146.9193 1244.186,-153.0204 1246.1002,-146.2872"/>
</g>
<!-- Node17 -->
<g id="node18" class="node">
<title>Node17</title>
<polygon fill="none" stroke="#bfbfbf" points="1258.5,-62 1258.5,-81 1305.5,-81 1305.5,-62 1258.5,-62"/>
<text text-anchor="middle" x="1282" y="-69" font-family="Helvetica,sans-Serif" font-size="10.00" fill="#000000">vector</text>
</g>
<!-- Node3&#45;&gt;Node17 -->
<g id="edge32" class="edge">
<title>Node3&#45;&gt;Node17</title>
<path fill="none" stroke="#191970" d="M1844.3511,-251.9669C1836.8217,-249.7359 1828.6619,-247.5586 1821,-246 1680.3202,-217.3821 1635.3985,-257.718 1500,-210 1489.3061,-206.2312 1359.383,-121.9323 1305.3436,-86.7301"/>
<polygon fill="#191970" stroke="#191970" points="1307.0534,-83.6667 1296.7645,-81.1386 1303.2312,-89.5311 1307.0534,-83.6667"/>
</g>
<!-- Node23 -->
<g id="node24" class="node">
<title>Node23</title>
<polygon fill="none" stroke="#bfbfbf" points="1730.5,-190.5 1730.5,-209.5 1785.5,-209.5 1785.5,-190.5 1730.5,-190.5"/>
<text text-anchor="middle" x="1758" y="-197.5" font-family="Helvetica,sans-Serif" font-size="10.00" fill="#000000">fstream</text>
</g>
<!-- Node3&#45;&gt;Node23 -->
<g id="edge27" class="edge">
<title>Node3&#45;&gt;Node23</title>
<path fill="none" stroke="#191970" d="M1855.0313,-251.8906C1836.2116,-241.8262 1806.4415,-225.9057 1784.8359,-214.3514"/>
<polygon fill="#191970" stroke="#191970" points="1786.3114,-211.1714 1775.8426,-209.5419 1783.0102,-217.3442 1786.3114,-211.1714"/>
</g>
<!-- Node3&#45;&gt;Node24 -->
<g id="edge28" class="edge">
<title>Node3&#45;&gt;Node24</title>
<path fill="none" stroke="#191970" d="M1884.3652,-251.8167C1920.3029,-221.1971 2031.758,-126.2354 2076.812,-87.8485"/>
<polygon fill="#191970" stroke="#191970" points="2079.3158,-90.3134 2084.6577,-81.1638 2074.776,-84.9851 2079.3158,-90.3134"/>
</g>
<!-- Node3&#45;&gt;Node25 -->
<g id="edge29" class="edge">
<title>Node3&#45;&gt;Node25</title>
<path fill="none" stroke="#191970" d="M1845.7828,-251.9421C1837.886,-249.5652 1829.184,-247.3209 1821,-246 1782.7162,-239.8209 529.6939,-206 332.1139,-200.6991"/>
<polygon fill="#191970" stroke="#191970" points="332.1451,-197.1988 322.0549,-200.4294 331.9574,-204.1963 332.1451,-197.1988"/>
</g>
<!-- Node26 -->
<g id="node27" class="node">
<title>Node26</title>
<polygon fill="none" stroke="#bfbfbf" points="2632,-190.5 2632,-209.5 2718,-209.5 2718,-190.5 2632,-190.5"/>
<text text-anchor="middle" x="2675" y="-197.5" font-family="Helvetica,sans-Serif" font-size="10.00" fill="#000000">unordered_set</text>
</g>
<!-- Node3&#45;&gt;Node26 -->
<g id="edge31" class="edge">
<title>Node3&#45;&gt;Node26</title>
<path fill="none" stroke="#191970" d="M1915.5528,-258.2369C2050.9052,-247.8576 2471.3795,-215.6143 2621.2584,-204.1211"/>
<polygon fill="#191970" stroke="#191970" points="2621.8713,-207.5845 2631.5744,-203.33 2621.336,-200.6049 2621.8713,-207.5845"/>
</g>
<!-- Node5 -->
<g id="node6" class="node">
<title>Node5</title>
<polygon fill="none" stroke="#bfbfbf" points="2143,-62 2143,-81 2181,-81 2181,-62 2143,-62"/>
<text text-anchor="middle" x="2162" y="-69" font-family="Helvetica,sans-Serif" font-size="10.00" fill="#000000">map</text>
</g>
<!-- Node4&#45;&gt;Node5 -->
<g id="edge5" class="edge">
<title>Node4&#45;&gt;Node5</title>
<path fill="none" stroke="#191970" d="M2264.8069,-128.9005C2244.7573,-117.7062 2211.4012,-99.0823 2188.1398,-86.0947"/>
<polygon fill="#191970" stroke="#191970" points="2189.5987,-82.9007 2179.1612,-81.0817 2186.1862,-89.0126 2189.5987,-82.9007"/>
</g>
<!-- Node4&#45;&gt;Node6 -->
<g id="edge6" class="edge">
<title>Node4&#45;&gt;Node6</title>
<path fill="none" stroke="#191970" d="M2274.1198,-128.9005C2265.6248,-118.552 2251.9176,-101.8542 2241.472,-89.1295"/>
<polygon fill="#191970" stroke="#191970" points="2243.9158,-86.5902 2234.8655,-81.0817 2238.5053,-91.0317 2243.9158,-86.5902"/>
</g>
<!-- Node4&#45;&gt;Node7 -->
<g id="edge7" class="edge">
<title>Node4&#45;&gt;Node7</title>
<path fill="none" stroke="#191970" d="M2243.1566,-132.4603C2197.8444,-124.7582 2121.0918,-109.6603 2058,-87 2056.5842,-86.4915 2055.1494,-85.9345 2053.7126,-85.3433"/>
<polygon fill="#191970" stroke="#191970" points="2054.9376,-82.0554 2044.3861,-81.0978 2052.0374,-88.4264 2054.9376,-82.0554"/>
</g>
<!-- Node8 -->
<g id="node9" class="node">
<title>Node8</title>
<polygon fill="none" stroke="#bfbfbf" points="2273.5,-62 2273.5,-81 2398.5,-81 2398.5,-62 2273.5,-62"/>
<text text-anchor="middle" x="2336" y="-69" font-family="Helvetica,sans-Serif" font-size="10.00" fill="#000000">boost/lexical_cast.hpp</text>
</g>
<!-- Node4&#45;&gt;Node8 -->
<g id="edge8" class="edge">
<title>Node4&#45;&gt;Node8</title>
<path fill="none" stroke="#191970" d="M2289.7369,-128.9005C2298.0775,-118.552 2311.5354,-101.8542 2321.7912,-89.1295"/>
<polygon fill="#191970" stroke="#191970" points="2324.7273,-91.064 2328.2775,-81.0817 2319.2771,-86.6713 2324.7273,-91.064"/>
</g>
<!-- Node10&#45;&gt;Node7 -->
<g id="edge22" class="edge">
<title>Node10&#45;&gt;Node7</title>
<path fill="none" stroke="#191970" d="M780.194,-199.7435C940.3601,-198.3553 1612.2193,-190.3909 1698,-154 1716.525,-146.1411 1712.8331,-131.6547 1731,-123 1838.3049,-71.8799 1882.4258,-122.0499 1996,-87 1997.6602,-86.4876 1999.3403,-85.8937 2001.0146,-85.243"/>
<polygon fill="#191970" stroke="#191970" points="2002.6582,-88.3423 2010.3632,-81.0702 1999.805,-81.9502 2002.6582,-88.3423"/>
</g>
<!-- Node10&#45;&gt;Node11 -->
<g id="edge11" class="edge">
<title>Node10&#45;&gt;Node11</title>
<path fill="none" stroke="#191970" d="M780.199,-195.4277C863.7178,-184.2616 1077.717,-155.6509 1166.4898,-143.7823"/>
<polygon fill="#191970" stroke="#191970" points="1166.9816,-147.2478 1176.4296,-142.4534 1166.054,-140.3096 1166.9816,-147.2478"/>
</g>
<!-- Node10&#45;&gt;Node14 -->
<g id="edge18" class="edge">
<title>Node10&#45;&gt;Node14</title>
<path fill="none" stroke="#191970" d="M754.5841,-190.3599C767.5767,-174.5774 789.0093,-142.9855 772,-123 753.4784,-101.2375 561.8321,-81.3976 485.3077,-74.2822"/>
<polygon fill="#191970" stroke="#191970" points="485.582,-70.7928 475.3038,-73.3638 484.9419,-77.7635 485.582,-70.7928"/>
</g>
<!-- Node10&#45;&gt;Node15 -->
<g id="edge20" class="edge">
<title>Node10&#45;&gt;Node15</title>
<path fill="none" stroke="#191970" d="M748.5366,-190.3857C752.2018,-174.0592 756.7443,-140.9436 739,-123 730.6777,-114.5842 379.8557,-83.8964 268.5284,-74.3525"/>
<polygon fill="#191970" stroke="#191970" points="268.784,-70.8616 258.522,-73.4963 268.1872,-77.8362 268.784,-70.8616"/>
</g>
<!-- Node10&#45;&gt;Node18 -->
<g id="edge19" class="edge">
<title>Node10&#45;&gt;Node18</title>
<path fill="none" stroke="#191970" d="M775.375,-190.3906C807.6586,-179.8298 859.6535,-162.8208 895.2547,-151.1747"/>
<polygon fill="#191970" stroke="#191970" points="896.4151,-154.4776 904.8313,-148.0419 894.2387,-147.8246 896.4151,-154.4776"/>
</g>
<!-- Node10&#45;&gt;Node19 -->
<g id="edge21" class="edge">
<title>Node10&#45;&gt;Node19</title>
<path fill="none" stroke="#191970" d="M763.3654,-190.4178C777.2385,-182.1288 796.5234,-169.1162 810,-154 827.0591,-134.8655 840.4365,-108.3377 848.2678,-90.5803"/>
<polygon fill="#191970" stroke="#191970" points="851.5381,-91.8333 852.2237,-81.2607 845.0946,-89.0982 851.5381,-91.8333"/>
</g>
<!-- Node10&#45;&gt;Node20 -->
<g id="edge23" class="edge">
<title>Node10&#45;&gt;Node20</title>
<path fill="none" stroke="#191970" d="M715.5313,-190.3906C686.9411,-181.3737 643.447,-167.6563 608.3572,-156.5896"/>
<polygon fill="#191970" stroke="#191970" points="609.2921,-153.2145 598.7024,-153.5446 607.1866,-159.8904 609.2921,-153.2145"/>
</g>
<!-- Node10&#45;&gt;Node21 -->
<g id="edge24" class="edge">
<title>Node10&#45;&gt;Node21</title>
<path fill="none" stroke="#191970" d="M735.0625,-190.3906C725.9397,-182.3756 712.5897,-170.6466 700.8888,-160.3666"/>
<polygon fill="#191970" stroke="#191970" points="702.9465,-157.5155 693.1239,-153.5446 698.3263,-162.7742 702.9465,-157.5155"/>
</g>
<!-- Node10&#45;&gt;Node22 -->
<g id="edge25" class="edge">
<title>Node10&#45;&gt;Node22</title>
<path fill="none" stroke="#191970" d="M711.9408,-192.7516C707.262,-191.8006 702.5156,-190.859 698,-190 605.4037,-172.3853 581.1919,-173.6214 489,-154 483.9853,-152.9327 478.7595,-151.7359 473.5686,-150.493"/>
<polygon fill="#191970" stroke="#191970" points="474.24,-147.0539 463.6938,-148.0678 472.5704,-153.8519 474.24,-147.0539"/>
</g>
<!-- Node12 -->
<g id="node13" class="node">
<title>Node12</title>
<polygon fill="none" stroke="#bfbfbf" points="1002.5,-62 1002.5,-81 1079.5,-81 1079.5,-62 1002.5,-62"/>
<text text-anchor="middle" x="1041" y="-69" font-family="Helvetica,sans-Serif" font-size="10.00" fill="#000000">Eigen/Dense</text>
</g>
<!-- Node11&#45;&gt;Node12 -->
<g id="edge12" class="edge">
<title>Node11&#45;&gt;Node12</title>
<path fill="none" stroke="#191970" d="M1182.3595,-128.9005C1153.9336,-117.3579 1106.0551,-97.9163 1073.9983,-84.8993"/>
<polygon fill="#191970" stroke="#191970" points="1075.1787,-81.6011 1064.5966,-81.0817 1072.5451,-88.0868 1075.1787,-81.6011"/>
</g>
<!-- Node11&#45;&gt;Node13 -->
<g id="edge13" class="edge">
<title>Node11&#45;&gt;Node13</title>
<path fill="none" stroke="#191970" d="M1180.5834,-128.927C1174.5398,-126.8236 1168.08,-124.7148 1162,-123 1088.5054,-102.2719 1067.876,-106.3247 994,-87 990.4034,-86.0592 986.6796,-85.0233 982.961,-83.9467"/>
<polygon fill="#191970" stroke="#191970" points="983.8043,-80.5459 973.221,-81.0393 981.8021,-87.2534 983.8043,-80.5459"/>
</g>
<!-- Node11&#45;&gt;Node14 -->
<g id="edge14" class="edge">
<title>Node11&#45;&gt;Node14</title>
<path fill="none" stroke="#191970" d="M1176.0567,-135.8322C1055.8035,-125.1181 608.5602,-85.2707 485.5106,-74.3075"/>
<polygon fill="#191970" stroke="#191970" points="485.5443,-70.7967 475.2732,-73.3953 484.9231,-77.7691 485.5443,-70.7967"/>
</g>
<!-- Node11&#45;&gt;Node15 -->
<g id="edge15" class="edge">
<title>Node11&#45;&gt;Node15</title>
<path fill="none" stroke="#191970" d="M1176.2389,-135.8981C1138.6782,-132.6574 1072.0784,-127.054 1015,-123 752.5077,-104.3563 686.4843,-105.7556 424,-87 369.7523,-83.1238 306.8166,-77.796 268.9939,-74.504"/>
<polygon fill="#191970" stroke="#191970" points="268.8266,-70.9761 258.5598,-73.592 268.217,-77.9495 268.8266,-70.9761"/>
</g>
<!-- Node16 -->
<g id="node17" class="node">
<title>Node16</title>
<polygon fill="none" stroke="#bfbfbf" points="1097.5,-56.5 1097.5,-86.5 1240.5,-86.5 1240.5,-56.5 1097.5,-56.5"/>
<text text-anchor="start" x="1105.5" y="-74.5" font-family="Helvetica,sans-Serif" font-size="10.00" fill="#000000">unsupported/Eigen/CXX11</text>
<text text-anchor="middle" x="1169" y="-63.5" font-family="Helvetica,sans-Serif" font-size="10.00" fill="#000000">/Tensor</text>
</g>
<!-- Node11&#45;&gt;Node16 -->
<g id="edge16" class="edge">
<title>Node11&#45;&gt;Node16</title>
<path fill="none" stroke="#191970" d="M1200.6988,-128.9005C1195.8741,-120.1638 1188.5502,-106.9018 1182.1574,-95.3256"/>
<polygon fill="#191970" stroke="#191970" points="1185.1937,-93.5836 1177.2956,-86.5218 1179.066,-96.9676 1185.1937,-93.5836"/>
</g>
<!-- Node11&#45;&gt;Node17 -->
<g id="edge17" class="edge">
<title>Node11&#45;&gt;Node17</title>
<path fill="none" stroke="#191970" d="M1216.8889,-128.9005C1228.9662,-118.2535 1248.6671,-100.8856 1263.24,-88.0385"/>
<polygon fill="#191970" stroke="#191970" points="1265.9445,-90.3201 1271.1313,-81.0817 1261.3154,-85.0692 1265.9445,-90.3201"/>
</g>
<!-- Node27&#45;&gt;Node7 -->
<g id="edge67" class="edge">
<title>Node27&#45;&gt;Node7</title>
<path fill="none" stroke="#191970" d="M1413.0478,-251.9935C1421.2311,-249.9321 1429.8986,-247.8247 1438,-246 1518.8664,-227.7862 1542.8353,-237.5934 1621,-210 1638.9968,-203.6468 1641.0308,-196.4309 1659,-190 1733.7628,-163.2436 1758.0822,-177.2781 1834,-154 1894.7639,-135.3684 1962.3164,-103.8299 1999.2021,-85.6198"/>
<polygon fill="#191970" stroke="#191970" points="2000.937,-88.6659 2008.3292,-81.076 1997.8173,-82.3995 2000.937,-88.6659"/>
</g>
<!-- Node27&#45;&gt;Node11 -->
<g id="edge64" class="edge">
<title>Node27&#45;&gt;Node11</title>
<path fill="none" stroke="#191970" d="M1363.5819,-251.8484C1334.1134,-230.6517 1263.5191,-179.8734 1227.674,-154.0901"/>
<polygon fill="#191970" stroke="#191970" points="1229.5176,-151.1048 1219.3558,-148.1068 1225.43,-156.7874 1229.5176,-151.1048"/>
</g>
<!-- Node27&#45;&gt;Node17 -->
<g id="edge68" class="edge">
<title>Node27&#45;&gt;Node17</title>
<path fill="none" stroke="#191970" d="M1380.7783,-251.9049C1385.7197,-237.8526 1392.8732,-211.0596 1385,-190 1376.1819,-166.4131 1326.4409,-115.1476 1299.4404,-88.4422"/>
<polygon fill="#191970" stroke="#191970" points="1301.7575,-85.8122 1292.1705,-81.302 1296.8524,-90.8063 1301.7575,-85.8122"/>
</g>
<!-- Node28 -->
<g id="node29" class="node">
<title>Node28</title>
<g id="a_node29"><a xlink:href="QuantumDefect_8h.html" target="_top" xlink:title="QuantumDefect.h">
<polygon fill="none" stroke="#000000" points="1508.5,-190.5 1508.5,-209.5 1611.5,-209.5 1611.5,-190.5 1508.5,-190.5"/>
<text text-anchor="middle" x="1560" y="-197.5" font-family="Helvetica,sans-Serif" font-size="10.00" fill="#000000">QuantumDefect.h</text>
</a>
</g>
</g>
<!-- Node27&#45;&gt;Node28 -->
<g id="edge35" class="edge">
<title>Node27&#45;&gt;Node28</title>
<path fill="none" stroke="#191970" d="M1405.5938,-251.8906C1436.8845,-241.3749 1487.1986,-224.466 1521.84,-212.8243"/>
<polygon fill="#191970" stroke="#191970" points="1523.243,-216.0452 1531.607,-209.5419 1521.013,-209.4099 1523.243,-216.0452"/>
</g>
<!-- Node46 -->
<g id="node47" class="node">
<title>Node46</title>
<polygon fill="none" stroke="#bfbfbf" points="1330,-190.5 1330,-209.5 1376,-209.5 1376,-190.5 1330,-190.5"/>
<text text-anchor="middle" x="1353" y="-197.5" font-family="Helvetica,sans-Serif" font-size="10.00" fill="#000000">cstdio</text>
</g>
<!-- Node27&#45;&gt;Node46 -->
<g id="edge65" class="edge">
<title>Node27&#45;&gt;Node46</title>
<path fill="none" stroke="#191970" d="M1373.25,-251.8906C1369.8532,-243.1862 1364.7469,-230.1015 1360.512,-219.2494"/>
<polygon fill="#191970" stroke="#191970" points="1363.6989,-217.7882 1356.8029,-209.7449 1357.1778,-220.3331 1363.6989,-217.7882"/>
</g>
<!-- Node47 -->
<g id="node48" class="node">
<title>Node47</title>
<polygon fill="none" stroke="#bfbfbf" points="1668,-190.5 1668,-209.5 1712,-209.5 1712,-190.5 1668,-190.5"/>
<text text-anchor="middle" x="1690" y="-197.5" font-family="Helvetica,sans-Serif" font-size="10.00" fill="#000000">limits</text>
</g>
<!-- Node27&#45;&gt;Node47 -->
<g id="edge66" class="edge">
<title>Node27&#45;&gt;Node47</title>
<path fill="none" stroke="#191970" d="M1412.3645,-251.9804C1420.7379,-249.8747 1429.659,-247.7516 1438,-246 1533.2467,-225.9984 1558.9803,-231.0536 1654,-210 1655.2468,-209.7237 1656.5148,-209.4308 1657.7933,-209.1255"/>
<polygon fill="#191970" stroke="#191970" points="1658.8033,-212.4799 1667.6236,-206.6103 1657.0681,-205.6983 1658.8033,-212.4799"/>
</g>
<!-- Node28&#45;&gt;Node7 -->
<g id="edge60" class="edge">
<title>Node28&#45;&gt;Node7</title>
<path fill="none" stroke="#191970" d="M1611.7754,-191.0084C1646.5715,-183.7912 1692.863,-171.874 1731,-154 1752.6607,-143.8481 1752.8531,-132.0421 1775,-123 1867.1337,-85.3837 1901.3049,-117.6012 1996,-87 1997.6139,-86.4785 1999.2483,-85.8838 2000.879,-85.2386"/>
<polygon fill="#191970" stroke="#191970" points="2002.3176,-88.4293 2010.0112,-81.1451 1999.4544,-82.0417 2002.3176,-88.4293"/>
</g>
<!-- Node28&#45;&gt;Node11 -->
<g id="edge58" class="edge">
<title>Node28&#45;&gt;Node11</title>
<path fill="none" stroke="#191970" d="M1508.1462,-190.9915C1436.8346,-178.6026 1310.0353,-156.5739 1245.7422,-145.4044"/>
<polygon fill="#191970" stroke="#191970" points="1246.0577,-141.9068 1235.6061,-143.6434 1244.8594,-148.8035 1246.0577,-141.9068"/>
</g>
<!-- Node28&#45;&gt;Node18 -->
<g id="edge63" class="edge">
<title>Node28&#45;&gt;Node18</title>
<path fill="none" stroke="#191970" d="M1508.2392,-194.9149C1399.4655,-184.2286 1146.4276,-159.3695 1015.5927,-146.5159"/>
<polygon fill="#191970" stroke="#191970" points="1015.915,-143.0308 1005.6207,-145.5362 1015.2305,-149.9973 1015.915,-143.0308"/>
</g>
<!-- Node29 -->
<g id="node30" class="node">
<title>Node29</title>
<g id="a_node30"><a xlink:href="Cache_8h.html" target="_top" xlink:title="Cache.h">
<polygon fill="none" stroke="#000000" points="1445,-129 1445,-148 1501,-148 1501,-129 1445,-129"/>
<text text-anchor="middle" x="1473" y="-136" font-family="Helvetica,sans-Serif" font-size="10.00" fill="#000000">Cache.h</text>
</a>
</g>
</g>
<!-- Node28&#45;&gt;Node29 -->
<g id="edge36" class="edge">
<title>Node28&#45;&gt;Node29</title>
<path fill="none" stroke="#191970" d="M1546.4063,-190.3906C1532.6157,-180.6421 1511.0528,-165.3994 1494.859,-153.9521"/>
<polygon fill="#191970" stroke="#191970" points="1496.6844,-150.9563 1486.4983,-148.0419 1492.6437,-156.6723 1496.6844,-150.9563"/>
</g>
<!-- Node30 -->
<g id="node31" class="node">
<title>Node30</title>
<polygon fill="none" stroke="#bfbfbf" points="1449,-62 1449,-81 1497,-81 1497,-62 1449,-62"/>
<text text-anchor="middle" x="1473" y="-69" font-family="Helvetica,sans-Serif" font-size="10.00" fill="#000000">mutex</text>
</g>
<!-- Node28&#45;&gt;Node30 -->
<g id="edge59" class="edge">
<title>Node28&#45;&gt;Node30</title>
<path fill="none" stroke="#191970" d="M1553.9845,-190.4218C1544.7337,-175.7651 1526.3669,-146.9513 1510,-123 1502.296,-111.7259 1493.3718,-99.2874 1486.2182,-89.4592"/>
<polygon fill="#191970" stroke="#191970" points="1488.961,-87.2804 1480.2322,-81.2754 1483.3111,-91.4131 1488.961,-87.2804"/>
</g>
<!-- Node28&#45;&gt;Node31 -->
<g id="edge62" class="edge">
<title>Node28&#45;&gt;Node31</title>
<path fill="none" stroke="#191970" d="M1528.1435,-190.4609C1471.6611,-173.9433 1350.0124,-140.144 1245,-123 1056.6002,-92.2425 1004.9125,-120.6065 817,-87 811.917,-86.0909 806.6278,-84.9257 801.418,-83.6431"/>
<polygon fill="#191970" stroke="#191970" points="802.1327,-80.2124 791.5725,-81.0685 800.3617,-86.9847 802.1327,-80.2124"/>
</g>
<!-- Node33 -->
<g id="node34" class="node">
<title>Node33</title>
<g id="a_node34"><a xlink:href="SQLite_8h.html" target="_top" xlink:title="SQLite.h">
<polygon fill="none" stroke="#000000" points="1631.5,-129 1631.5,-148 1688.5,-148 1688.5,-129 1631.5,-129"/>
<text text-anchor="middle" x="1660" y="-136" font-family="Helvetica,sans-Serif" font-size="10.00" fill="#000000">SQLite.h</text>
</a>
</g>
</g>
<!-- Node28&#45;&gt;Node33 -->
<g id="edge40" class="edge">
<title>Node28&#45;&gt;Node33</title>
<path fill="none" stroke="#191970" d="M1575.625,-190.3906C1591.7698,-180.4616 1617.1822,-164.833 1635.9023,-153.3201"/>
<polygon fill="#191970" stroke="#191970" points="1637.8002,-156.2619 1644.4847,-148.0419 1634.1331,-150.2992 1637.8002,-156.2619"/>
</g>
<!-- Node28&#45;&gt;Node45 -->
<g id="edge61" class="edge">
<title>Node28&#45;&gt;Node45</title>
<path fill="none" stroke="#191970" d="M1611.8759,-191.5697C1654.6426,-183.9123 1716.5725,-171.1862 1769,-154 1770.8945,-153.379 1772.8256,-152.6906 1774.7587,-151.9593"/>
<polygon fill="#191970" stroke="#191970" points="1776.3554,-155.0876 1784.2812,-148.0568 1773.7008,-148.6104 1776.3554,-155.0876"/>
</g>
<!-- Node29&#45;&gt;Node30 -->
<g id="edge37" class="edge">
<title>Node29&#45;&gt;Node30</title>
<path fill="none" stroke="#191970" d="M1473,-128.9005C1473,-119.149 1473,-103.7597 1473,-91.3695"/>
<polygon fill="#191970" stroke="#191970" points="1476.5001,-91.0816 1473,-81.0817 1469.5001,-91.0817 1476.5001,-91.0816"/>
</g>
<!-- Node29&#45;&gt;Node31 -->
<g id="edge38" class="edge">
<title>Node29&#45;&gt;Node31</title>
<path fill="none" stroke="#191970" d="M1450.6908,-128.8817C1444.4296,-126.5656 1437.5428,-124.3676 1431,-123 1163.4251,-67.0715 1086.6765,-131.7096 817,-87 811.7846,-86.1353 806.3577,-84.9751 801.0245,-83.6766"/>
<polygon fill="#191970" stroke="#191970" points="801.5239,-80.1898 790.9641,-81.0504 799.7558,-86.9628 801.5239,-80.1898"/>
</g>
<!-- Node32 -->
<g id="node33" class="node">
<title>Node32</title>
<polygon fill="none" stroke="#bfbfbf" points="1323.5,-62 1323.5,-81 1430.5,-81 1430.5,-62 1323.5,-62"/>
<text text-anchor="middle" x="1377" y="-69" font-family="Helvetica,sans-Serif" font-size="10.00" fill="#000000">boost/optional.hpp</text>
</g>
<!-- Node29&#45;&gt;Node32 -->
<g id="edge39" class="edge">
<title>Node29&#45;&gt;Node32</title>
<path fill="none" stroke="#191970" d="M1459.2455,-128.9005C1443.5623,-117.9549 1417.7017,-99.9064 1399.1642,-86.9688"/>
<polygon fill="#191970" stroke="#191970" points="1400.9324,-83.9347 1390.7289,-81.0817 1396.9262,-89.675 1400.9324,-83.9347"/>
</g>
<!-- Node33&#45;&gt;Node6 -->
<g id="edge44" class="edge">
<title>Node33&#45;&gt;Node6</title>
<path fill="none" stroke="#191970" d="M1688.7828,-134.2351C1712.016,-130.8855 1745.5655,-126.2585 1775,-123 1959.013,-102.6294 2010.2408,-131.2988 2190,-87 2192.6351,-86.3506 2195.3254,-85.5398 2197.9929,-84.6317"/>
<polygon fill="#191970" stroke="#191970" points="2199.3227,-87.8704 2207.4148,-81.0316 2196.8242,-81.3315 2199.3227,-87.8704"/>
</g>
<!-- Node33&#45;&gt;Node7 -->
<g id="edge45" class="edge">
<title>Node33&#45;&gt;Node7</title>
<path fill="none" stroke="#191970" d="M1683.8186,-128.8442C1689.9839,-126.6423 1696.6704,-124.5095 1703,-123 1830.6224,-92.5641 1870.3882,-124.8882 1996,-87 1997.6634,-86.4983 1999.346,-85.9125 2001.0223,-85.2681"/>
<polygon fill="#191970" stroke="#191970" points="2002.6586,-88.371 2010.376,-81.112 1999.8162,-81.974 2002.6586,-88.371"/>
</g>
<!-- Node33&#45;&gt;Node19 -->
<g id="edge41" class="edge">
<title>Node33&#45;&gt;Node19</title>
<path fill="none" stroke="#191970" d="M1631.279,-135.1485C1601.1127,-131.7184 1552.274,-126.4197 1510,-123 1237.0903,-100.9231 1162.2983,-146.3191 895,-87 892.1326,-86.3637 889.2012,-85.5434 886.297,-84.6129"/>
<polygon fill="#191970" stroke="#191970" points="887.255,-81.2376 876.6606,-81.1316 884.8765,-87.8212 887.255,-81.2376"/>
</g>
<!-- Node33&#45;&gt;Node24 -->
<g id="edge42" class="edge">
<title>Node33&#45;&gt;Node24</title>
<path fill="none" stroke="#191970" d="M1688.8214,-134.5549C1712.0765,-131.3862 1745.6365,-126.8464 1775,-123 1900.7173,-106.5318 1935.37,-119.217 2058,-87 2060.6229,-86.3109 2063.3059,-85.4841 2065.9731,-84.5757"/>
<polygon fill="#191970" stroke="#191970" points="2067.2943,-87.8184 2075.4281,-81.0292 2064.8359,-81.2642 2067.2943,-87.8184"/>
</g>
<!-- Node34 -->
<g id="node35" class="node">
<title>Node34</title>
<polygon fill="none" stroke="#bfbfbf" points="1840,-.5 1840,-19.5 1894,-19.5 1894,-.5 1840,-.5"/>
<text text-anchor="middle" x="1867" y="-7.5" font-family="Helvetica,sans-Serif" font-size="10.00" fill="#000000">random</text>
</g>
<!-- Node33&#45;&gt;Node34 -->
<g id="edge43" class="edge">
<title>Node33&#45;&gt;Node34</title>
<path fill="none" stroke="#191970" d="M1685.8333,-128.8982C1691.4692,-126.8847 1697.4173,-124.8213 1703,-123 1757.1512,-105.334 1781.8215,-122.9542 1826,-87 1844.2879,-72.1166 1855.496,-46.8574 1861.4717,-29.3473"/>
<polygon fill="#191970" stroke="#191970" points="1864.8732,-30.1975 1864.5328,-19.6082 1858.1953,-28.0986 1864.8732,-30.1975"/>
</g>
<!-- Node35 -->
<g id="node36" class="node">
<title>Node35</title>
<polygon fill="none" stroke="#bfbfbf" points="1873,-62 1873,-81 1921,-81 1921,-62 1873,-62"/>
<text text-anchor="middle" x="1897" y="-69" font-family="Helvetica,sans-Serif" font-size="10.00" fill="#000000">thread</text>
</g>
<!-- Node33&#45;&gt;Node35 -->
<g id="edge46" class="edge">
<title>Node33&#45;&gt;Node35</title>
<path fill="none" stroke="#191970" d="M1684.8452,-128.9759C1690.7512,-126.8704 1697.0624,-124.7485 1703,-123 1771.2575,-102.8997 1791.1724,-108.5064 1859,-87 1861.1521,-86.3176 1863.3537,-85.5667 1865.5595,-84.7746"/>
<polygon fill="#191970" stroke="#191970" points="1867.0241,-87.9619 1875.1169,-81.1238 1864.5262,-81.4227 1867.0241,-87.9619"/>
</g>
<!-- Node33&#45;&gt;Node36 -->
<g id="edge47" class="edge">
<title>Node33&#45;&gt;Node36</title>
<path fill="none" stroke="#191970" d="M1650.3642,-128.9795C1629.1983,-108.1691 1579.7524,-60.1488 1570,-56 1506.6654,-29.0563 1029.8519,-14.8937 879.9577,-11.0739"/>
<polygon fill="#191970" stroke="#191970" points="879.8254,-7.5696 869.7405,-10.8167 879.6492,-14.5673 879.8254,-7.5696"/>
</g>
<!-- Node37 -->
<g id="node38" class="node">
<title>Node37</title>
<polygon fill="none" stroke="#bfbfbf" points="1617,-56.5 1617,-86.5 1739,-86.5 1739,-56.5 1617,-56.5"/>
<text text-anchor="start" x="1625" y="-74.5" font-family="Helvetica,sans-Serif" font-size="10.00" fill="#000000">boost/iterator/iterator</text>
<text text-anchor="middle" x="1678" y="-63.5" font-family="Helvetica,sans-Serif" font-size="10.00" fill="#000000">_facade.hpp</text>
</g>
<!-- Node33&#45;&gt;Node37 -->
<g id="edge48" class="edge">
<title>Node33&#45;&gt;Node37</title>
<path fill="none" stroke="#191970" d="M1662.579,-128.9005C1664.8564,-120.4234 1668.2785,-107.6856 1671.3208,-96.3614"/>
<polygon fill="#191970" stroke="#191970" points="1674.7498,-97.0874 1673.9643,-86.5218 1667.9895,-95.2712 1674.7498,-97.0874"/>
</g>
<!-- Node38 -->
<g id="node39" class="node">
<title>Node38</title>
<polygon fill="none" stroke="#bfbfbf" points="1757.5,-62 1757.5,-81 1816.5,-81 1816.5,-62 1757.5,-62"/>
<text text-anchor="middle" x="1787" y="-69" font-family="Helvetica,sans-Serif" font-size="10.00" fill="#000000">sqlite3.h</text>
</g>
<!-- Node33&#45;&gt;Node38 -->
<g id="edge49" class="edge">
<title>Node33&#45;&gt;Node38</title>
<path fill="none" stroke="#191970" d="M1678.196,-128.9005C1699.6038,-117.6067 1735.3458,-98.7506 1759.9893,-85.7497"/>
<polygon fill="#191970" stroke="#191970" points="1761.6262,-88.8434 1768.8378,-81.0817 1758.3599,-82.6522 1761.6262,-88.8434"/>
</g>
<!-- Node39 -->
<g id="node40" class="node">
<title>Node39</title>
<polygon fill="none" stroke="#bfbfbf" points="1515.5,-62 1515.5,-81 1560.5,-81 1560.5,-62 1515.5,-62"/>
<text text-anchor="middle" x="1538" y="-69" font-family="Helvetica,sans-Serif" font-size="10.00" fill="#000000">utility</text>
</g>
<!-- Node33&#45;&gt;Node39 -->
<g id="edge50" class="edge">
<title>Node33&#45;&gt;Node39</title>
<path fill="none" stroke="#191970" d="M1642.5204,-128.9005C1622.046,-117.6564 1587.9228,-98.9166 1564.2607,-85.9219"/>
<polygon fill="#191970" stroke="#191970" points="1565.8972,-82.8276 1555.4472,-81.0817 1562.5276,-88.9632 1565.8972,-82.8276"/>
</g>
<!-- Node33&#45;&gt;Node40 -->
<g id="edge51" class="edge">
<title>Node33&#45;&gt;Node40</title>
<path fill="none" stroke="#191970" d="M1683.8566,-128.9975C1690.0212,-126.7926 1696.6978,-124.6201 1703,-123 1801.933,-97.5671 1832.3584,-117.0113 1930,-87 1931.8605,-86.4282 1933.7501,-85.7701 1935.6351,-85.0547"/>
<polygon fill="#191970" stroke="#191970" points="1937.0286,-88.2655 1944.8643,-81.1345 1934.2919,-81.8226 1937.0286,-88.2655"/>
</g>
<!-- Node40&#45;&gt;Node34 -->
<g id="edge55" class="edge">
<title>Node40&#45;&gt;Node34</title>
<path fill="none" stroke="#191970" d="M1948,-61.8906C1932.6419,-52.0519 1908.5479,-36.6167 1890.6255,-25.1351"/>
<polygon fill="#191970" stroke="#191970" points="1892.203,-21.9891 1881.8947,-19.5419 1888.427,-27.8833 1892.203,-21.9891"/>
</g>
<!-- Node40&#45;&gt;Node36 -->
<g id="edge56" class="edge">
<title>Node40&#45;&gt;Node36</title>
<path fill="none" stroke="#191970" d="M1946.0067,-61.9499C1940.9997,-59.5732 1935.4097,-57.327 1930,-56 1826.9677,-30.7264 1072.4022,-14.5766 879.7034,-10.8352"/>
<polygon fill="#191970" stroke="#191970" points="879.7109,-7.3348 869.6452,-10.6413 879.5759,-14.3335 879.7109,-7.3348"/>
</g>
<!-- Node41 -->
<g id="node42" class="node">
<title>Node41</title>
<polygon fill="none" stroke="#bfbfbf" points="2756,-.5 2756,-19.5 2820,-19.5 2820,-.5 2756,-.5"/>
<text text-anchor="middle" x="2788" y="-7.5" font-family="Helvetica,sans-Serif" font-size="10.00" fill="#000000">algorithm</text>
</g>
<!-- Node40&#45;&gt;Node41 -->
<g id="edge52" class="edge">
<title>Node40&#45;&gt;Node41</title>
<path fill="none" stroke="#191970" d="M1980.3495,-61.8441C1985.2683,-59.5278 1990.7238,-57.3392 1996,-56 2068.7539,-37.5341 2591.8832,-17.1621 2745.6193,-11.5198"/>
<polygon fill="#191970" stroke="#191970" points="2745.756,-15.0172 2755.6215,-11.1544 2745.5004,-8.0219 2745.756,-15.0172"/>
</g>
<!-- Node42 -->
<g id="node43" class="node">
<title>Node42</title>
<polygon fill="none" stroke="#bfbfbf" points="2397.5,-.5 2397.5,-19.5 2456.5,-19.5 2456.5,-.5 2397.5,-.5"/>
<text text-anchor="middle" x="2427" y="-7.5" font-family="Helvetica,sans-Serif" font-size="10.00" fill="#000000">complex</text>
</g>
<!-- Node40&#45;&gt;Node42 -->
<g id="edge53" class="edge">
<title>Node40&#45;&gt;Node42</title>
<path fill="none" stroke="#191970" d="M1980.7384,-61.8507C1985.5665,-59.5932 1990.8796,-57.4321 1996,-56 2069.1827,-35.5317 2295.1528,-18.7286 2387.2831,-12.5472"/>
<polygon fill="#191970" stroke="#191970" points="2387.5763,-16.0356 2397.3223,-11.8803 2387.1122,-9.051 2387.5763,-16.0356"/>
</g>
<!-- Node43 -->
<g id="node44" class="node">
<title>Node43</title>
<polygon fill="none" stroke="#bfbfbf" points="2978.5,-.5 2978.5,-19.5 3043.5,-19.5 3043.5,-.5 2978.5,-.5"/>
<text text-anchor="middle" x="3011" y="-7.5" font-family="Helvetica,sans-Serif" font-size="10.00" fill="#000000">functional</text>
</g>
<!-- Node40&#45;&gt;Node43 -->
<g id="edge54" class="edge">
<title>Node40&#45;&gt;Node43</title>
<path fill="none" stroke="#191970" d="M1979.9943,-61.9541C1985.0014,-59.5775 1990.5911,-57.3303 1996,-56 2175.9225,-11.7503 2643.9389,-29.0827 2829,-20 2876.6097,-17.6633 2931.2035,-14.6143 2968.0793,-12.5002"/>
<polygon fill="#191970" stroke="#191970" points="2968.6755,-15.9718 2978.4579,-11.9031 2968.2733,-8.9833 2968.6755,-15.9718"/>
</g>
<!-- Node44 -->
<g id="node45" class="node">
<title>Node44</title>
<polygon fill="none" stroke="#bfbfbf" points="1935,-.5 1935,-19.5 1991,-19.5 1991,-.5 1935,-.5"/>
<text text-anchor="middle" x="1963" y="-7.5" font-family="Helvetica,sans-Serif" font-size="10.00" fill="#000000">unistd.h</text>
</g>
<!-- Node40&#45;&gt;Node44 -->
<g id="edge57" class="edge">
<title>Node40&#45;&gt;Node44</title>
<path fill="none" stroke="#191970" d="M1963,-61.8906C1963,-53.3657 1963,-40.6392 1963,-29.9235"/>
<polygon fill="#191970" stroke="#191970" points="1966.5001,-29.7448 1963,-19.7449 1959.5001,-29.7449 1966.5001,-29.7448"/>
</g>
<!-- Node53&#45;&gt;Node1 -->
<g id="edge93" class="edge">
<title>Node53&#45;&gt;Node1</title>
<path fill="none" stroke="#191970" d="M1680.5887,-459.8997C1564.1654,-452.8538 1235.2945,-432.4757 962,-411 914.5954,-407.2749 859.9513,-402.2579 824.9723,-398.954"/>
<polygon fill="#191970" stroke="#191970" points="825.0638,-395.447 814.7779,-397.9869 824.4027,-402.4157 825.0638,-395.447"/>
</g>
<!-- Node53&#45;&gt;Node2 -->
<g id="edge92" class="edge">
<title>Node53&#45;&gt;Node2</title>
<path fill="none" stroke="#191970" d="M1680.9726,-460.3057C1580.1403,-454.7245 1335.2427,-438.4534 1311,-411 1301.8803,-400.6725 1301.8334,-390.286 1311,-380 1335.2814,-352.7534 1562.7546,-337.8091 1683.1101,-331.7499"/>
<polygon fill="#191970" stroke="#191970" points="1683.5384,-335.2331 1693.353,-331.2427 1683.1921,-328.2417 1683.5384,-335.2331"/>
</g>
<!-- Node53&#45;&gt;Node7 -->
<g id="edge124" class="edge">
<title>Node53&#45;&gt;Node7</title>
<path fill="none" stroke="#191970" d="M1753.5011,-452.9594C1761.0975,-450.7553 1769.3018,-448.5927 1777,-447 1904.1847,-420.6867 1946.1032,-458.4585 2067,-411 2088.9305,-402.3911 2088.6165,-389.8897 2110,-380 2170.6591,-351.9456 2202.7276,-384.3562 2256,-344 2293.237,-315.7913 2317.4477,-286.4046 2294,-246 2277.8133,-218.1075 2258.3609,-227.0699 2231,-210 2163.3668,-167.8051 2086.185,-113.7115 2049.1334,-87.3567"/>
<polygon fill="#191970" stroke="#191970" points="2050.7825,-84.2339 2040.6084,-81.278 2046.7186,-89.9335 2050.7825,-84.2339"/>
</g>
<!-- Node53&#45;&gt;Node11 -->
<g id="edge101" class="edge">
<title>Node53&#45;&gt;Node11</title>
<path fill="none" stroke="#191970" d="M1680.5764,-460.8207C1542.6003,-455.2492 1119.971,-436.2832 1064,-411 1015.4546,-389.0711 972.952,-361.4914 995,-313 1031.5224,-232.674 1126.017,-177.0901 1175.2104,-152.6002"/>
<polygon fill="#191970" stroke="#191970" points="1176.9559,-155.6432 1184.4145,-148.1187 1173.8914,-149.3496 1176.9559,-155.6432"/>
</g>
<!-- Node53&#45;&gt;Node17 -->
<g id="edge128" class="edge">
<title>Node53&#45;&gt;Node17</title>
<path fill="none" stroke="#191970" d="M1680.669,-461.0311C1564.7764,-456.6945 1254.202,-442.2455 1221,-411 1173.9059,-366.681 1249.6918,-155.4998 1274.5399,-90.5503"/>
<polygon fill="#191970" stroke="#191970" points="1277.8455,-91.706 1278.1862,-81.1167 1271.3162,-89.1823 1277.8455,-91.706"/>
</g>
<!-- Node53&#45;&gt;Node24 -->
<g id="edge120" class="edge">
<title>Node53&#45;&gt;Node24</title>
<path fill="none" stroke="#191970" d="M1753.2091,-452.9697C1760.8832,-450.7387 1769.1975,-448.5607 1777,-447 1919.5051,-418.4955 1966.6693,-463.9697 2102,-411 2123.6047,-402.5437 2123.0296,-389.9254 2144,-380 2202.8489,-352.1465 2237.2435,-387.1488 2286,-344 2319.7454,-314.1358 2331.4234,-286.6614 2312,-246 2291.2214,-202.5016 2171.0825,-120.4688 2119.5089,-86.6564"/>
<polygon fill="#191970" stroke="#191970" points="2121.2854,-83.6365 2110.9971,-81.1063 2117.462,-89.5001 2121.2854,-83.6365"/>
</g>
<!-- Node53&#45;&gt;Node25 -->
<g id="edge122" class="edge">
<title>Node53&#45;&gt;Node25</title>
<path fill="none" stroke="#191970" d="M1680.9898,-461.5805C1464.35,-456.8469 500.6969,-434.536 442,-411 360.1598,-378.1841 322.7338,-265.4502 310.6365,-219.614"/>
<polygon fill="#191970" stroke="#191970" points="313.9824,-218.5677 308.15,-209.7228 307.1937,-220.2743 313.9824,-218.5677"/>
</g>
<!-- Node53&#45;&gt;Node26 -->
<g id="edge126" class="edge">
<title>Node53&#45;&gt;Node26</title>
<path fill="none" stroke="#191970" d="M1751.7538,-452.952C1759.8027,-450.5753 1768.6689,-448.3286 1777,-447 1839.1904,-437.0823 2862.0552,-451.8326 2910,-411 2965.8391,-363.4442 2959.8563,-296.8504 2907,-246 2881.9642,-221.9143 2788.6652,-209.5718 2728.2822,-203.9713"/>
<polygon fill="#191970" stroke="#191970" points="2728.4244,-200.4702 2718.1525,-203.0661 2727.8013,-207.4424 2728.4244,-200.4702"/>
</g>
<!-- Node53&#45;&gt;Node31 -->
<g id="edge125" class="edge">
<title>Node53&#45;&gt;Node31</title>
<path fill="none" stroke="#191970" d="M1680.8466,-461.2507C1517.5735,-456.3618 937.6663,-437.4842 755,-411 628.3665,-392.6398 577.1439,-421.0698 475,-344 470.1648,-340.3517 369.5364,-159.8591 368,-154 364.5054,-140.6728 358.9126,-133.356 368,-123 389.8027,-98.1537 600.2857,-81.5919 703.9229,-74.876"/>
<polygon fill="#191970" stroke="#191970" points="704.4541,-78.3493 714.2106,-74.219 704.0078,-71.3636 704.4541,-78.3493"/>
</g>
<!-- Node53&#45;&gt;Node39 -->
<g id="edge127" class="edge">
<title>Node53&#45;&gt;Node39</title>
<path fill="none" stroke="#191970" d="M1680.722,-460.7013C1569.5558,-455.6813 1280.4813,-439.9522 1249,-411 1172.963,-341.0716 1234.4301,-246.3671 1321,-190 1392.6589,-143.3417 1445.4829,-210.1208 1510,-154 1528.1357,-138.2245 1534.5452,-110.2428 1536.7983,-91.2888"/>
<polygon fill="#191970" stroke="#191970" points="1540.3058,-91.3617 1537.717,-81.088 1533.334,-90.7338 1540.3058,-91.3617"/>
</g>
<!-- Node53&#45;&gt;Node41 -->
<g id="edge107" class="edge">
<title>Node53&#45;&gt;Node41</title>
<path fill="none" stroke="#191970" d="M1751.7523,-452.943C1759.8013,-450.5662 1768.6678,-448.3216 1777,-447 2039.6151,-405.3452 2717.5527,-484.814 2973,-411 3042.3836,-390.9509 3113,-400.7222 3113,-328.5 3113,-328.5 3113,-328.5 3113,-138.5 3113,-78.3131 2917.8072,-34.2372 2829.9624,-17.4488"/>
<polygon fill="#191970" stroke="#191970" points="2830.5265,-13.9935 2820.0517,-15.5836 2829.2318,-20.8728 2830.5265,-13.9935"/>
</g>
<!-- Node53&#45;&gt;Node42 -->
<g id="edge116" class="edge">
<title>Node53&#45;&gt;Node42</title>
<path fill="none" stroke="#191970" d="M1751.7531,-452.948C1759.8021,-450.5713 1768.6684,-448.3255 1777,-447 1904.3494,-426.7395 2822.5424,-470.3953 2937,-411 2977.7115,-389.8736 2999,-374.3667 2999,-328.5 2999,-328.5 2999,-328.5 2999,-138.5 2999,-83.8657 2596.6201,-30.483 2466.8333,-14.6856"/>
<polygon fill="#191970" stroke="#191970" points="2466.8963,-11.1678 2456.5487,-13.4432 2466.0568,-18.1173 2466.8963,-11.1678"/>
</g>
<!-- Node53&#45;&gt;Node43 -->
<g id="edge117" class="edge">
<title>Node53&#45;&gt;Node43</title>
<path fill="none" stroke="#191970" d="M1751.7509,-452.934C1759.7998,-450.5571 1768.6667,-448.3147 1777,-447 1916.0043,-425.0703 2910.3501,-457.9798 3043,-411 3099.937,-390.835 3151,-388.9024 3151,-328.5 3151,-328.5 3151,-328.5 3151,-138.5 3151,-81.2639 3086.7048,-42.5896 3045.2577,-23.6049"/>
<polygon fill="#191970" stroke="#191970" points="3046.5907,-20.3675 3036.0292,-19.5274 3043.7616,-26.7704 3046.5907,-20.3675"/>
</g>
<!-- Node53&#45;&gt;Node47 -->
<g id="edge119" class="edge">
<title>Node53&#45;&gt;Node47</title>
<path fill="none" stroke="#191970" d="M1680.7939,-459.8192C1575.4489,-452.9574 1311.5911,-433.6917 1279,-411 1251.5956,-391.9196 1252.7687,-376.4763 1245,-344 1241.7946,-330.6003 1236.2214,-323.619 1245,-313 1299.2049,-247.4305 1355.6852,-312.4959 1433,-277 1453.1227,-267.7615 1451.9055,-255.2996 1472,-246 1546.831,-211.3685 1573.7742,-229.0481 1654,-210 1655.278,-209.6966 1656.5791,-209.3786 1657.8916,-209.0502"/>
<polygon fill="#191970" stroke="#191970" points="1659.2006,-212.3252 1667.9836,-206.3998 1657.4225,-205.5548 1659.2006,-212.3252"/>
</g>
<!-- Node53&#45;&gt;Node49 -->
<g id="edge108" class="edge">
<title>Node53&#45;&gt;Node49</title>
<path fill="none" stroke="#191970" d="M1751.7544,-452.9561C1759.8034,-450.5795 1768.6694,-448.3318 1777,-447 1837.7061,-437.2949 2834.0517,-448.1952 2883,-411 2918.4664,-384.0495 2923.5392,-353.0302 2904,-313 2896.3124,-297.2502 2881.2232,-284.9113 2867.411,-276.2644"/>
<polygon fill="#191970" stroke="#191970" points="2869.0084,-273.1441 2858.6094,-271.1166 2865.4744,-279.1865 2869.0084,-273.1441"/>
</g>
<!-- Node54 -->
<g id="node55" class="node">
<title>Node54</title>
<g id="a_node55"><a xlink:href="WignerD_8h.html" target="_top" xlink:title="WignerD.h">
<polygon fill="none" stroke="#000000" points="1990,-386 1990,-405 2058,-405 2058,-386 1990,-386"/>
<text text-anchor="middle" x="2024" y="-393" font-family="Helvetica,sans-Serif" font-size="10.00" fill="#000000">WignerD.h</text>
</a>
</g>
</g>
<!-- Node53&#45;&gt;Node54 -->
<g id="edge94" class="edge">
<title>Node53&#45;&gt;Node54</title>
<path fill="none" stroke="#191970" d="M1754.397,-452.9891C1761.7548,-450.8595 1769.6252,-448.7236 1777,-447 1866.6516,-426.0469 1892.0344,-434.6972 1981,-411 1983.9714,-410.2085 1987.0285,-409.3015 1990.0772,-408.3321"/>
<polygon fill="#191970" stroke="#191970" points="1991.3196,-411.6068 1999.6717,-405.0881 1989.0774,-404.9755 1991.3196,-411.6068"/>
</g>
<!-- Node57 -->
<g id="node58" class="node">
<title>Node57</title>
<polygon fill="none" stroke="#bfbfbf" points="1254,-319 1254,-338 1310,-338 1310,-319 1254,-319"/>
<text text-anchor="middle" x="1282" y="-326" font-family="Helvetica,sans-Serif" font-size="10.00" fill="#000000">numeric</text>
</g>
<!-- Node53&#45;&gt;Node57 -->
<g id="edge121" class="edge">
<title>Node53&#45;&gt;Node57</title>
<path fill="none" stroke="#191970" d="M1680.961,-460.0718C1578.7512,-453.915 1327.8644,-436.3623 1300,-411 1282.7711,-395.3181 1279.9962,-367.3139 1280.3693,-348.3292"/>
<polygon fill="#191970" stroke="#191970" points="1283.8765,-348.2742 1280.8872,-338.1098 1276.8855,-347.9198 1283.8765,-348.2742"/>
</g>
<!-- Node58 -->
<g id="node59" class="node">
<title>Node58</title>
<g id="a_node59"><a xlink:href="serialization__eigen_8h.html" target="_top" xlink:title="serialization_eigen.h">
<polygon fill="none" stroke="#000000" points="1004,-319 1004,-338 1122,-338 1122,-319 1004,-319"/>
<text text-anchor="middle" x="1063" y="-326" font-family="Helvetica,sans-Serif" font-size="10.00" fill="#000000">serialization_eigen.h</text>
</a>
</g>
</g>
<!-- Node53&#45;&gt;Node58 -->
<g id="edge102" class="edge">
<title>Node53&#45;&gt;Node58</title>
<path fill="none" stroke="#191970" d="M1680.9544,-461.8079C1545.29,-459.2476 1132.8917,-448.4297 1087,-411 1068.5437,-395.9469 1063.7737,-367.5793 1062.7972,-348.3608"/>
<polygon fill="#191970" stroke="#191970" points="1066.2947,-348.1968 1062.5859,-338.2723 1059.2962,-348.3435 1066.2947,-348.1968"/>
</g>
<!-- Node59 -->
<g id="node60" class="node">
<title>Node59</title>
<g id="a_node60"><a xlink:href="serialization__path_8h.html" target="_top" xlink:title="serialization_path.h">
<polygon fill="none" stroke="#000000" points="2781.5,-319 2781.5,-338 2894.5,-338 2894.5,-319 2781.5,-319"/>
<text text-anchor="middle" x="2838" y="-326" font-family="Helvetica,sans-Serif" font-size="10.00" fill="#000000">serialization_path.h</text>
</a>
</g>
</g>
<!-- Node53&#45;&gt;Node59 -->
<g id="edge104" class="edge">
<title>Node53&#45;&gt;Node59</title>
<path fill="none" stroke="#191970" d="M1751.7549,-452.9589C1759.8038,-450.5823 1768.6697,-448.3339 1777,-447 1836.7716,-437.4288 2823.9097,-454.5047 2866,-411 2883.2505,-393.1699 2866.9011,-364.3201 2852.9262,-345.8913"/>
<polygon fill="#191970" stroke="#191970" points="2855.5921,-343.6209 2846.6082,-338.0048 2850.129,-347.9975 2855.5921,-343.6209"/>
</g>
<!-- Node60 -->
<g id="node61" class="node">
<title>Node60</title>
<polygon fill="none" stroke="#bfbfbf" points="1319.5,-380.5 1319.5,-410.5 1460.5,-410.5 1460.5,-380.5 1319.5,-380.5"/>
<text text-anchor="start" x="1327.5" y="-398.5" font-family="Helvetica,sans-Serif" font-size="10.00" fill="#000000">unsupported/Eigen/Matrix</text>
<text text-anchor="middle" x="1390" y="-387.5" font-family="Helvetica,sans-Serif" font-size="10.00" fill="#000000">Functions</text>
</g>
<!-- Node53&#45;&gt;Node60 -->
<g id="edge106" class="edge">
<title>Node53&#45;&gt;Node60</title>
<path fill="none" stroke="#191970" d="M1680.6777,-453.8096C1627.6246,-443.1672 1536.6852,-424.9249 1470.6256,-411.6734"/>
<polygon fill="#191970" stroke="#191970" points="1471.1504,-408.209 1460.6573,-409.6738 1469.7736,-415.0723 1471.1504,-408.209"/>
</g>
<!-- Node61 -->
<g id="node62" class="node">
<title>Node61</title>
<polygon fill="none" stroke="#bfbfbf" points="1478.5,-380.5 1478.5,-410.5 1621.5,-410.5 1621.5,-380.5 1478.5,-380.5"/>
<text text-anchor="start" x="1486.5" y="-398.5" font-family="Helvetica,sans-Serif" font-size="10.00" fill="#000000">boost/multi_index/hashed</text>
<text text-anchor="middle" x="1550" y="-387.5" font-family="Helvetica,sans-Serif" font-size="10.00" fill="#000000">_index.hpp</text>
</g>
<!-- Node53&#45;&gt;Node61 -->
<g id="edge109" class="edge">
<title>Node53&#45;&gt;Node61</title>
<path fill="none" stroke="#191970" d="M1699.07,-452.9005C1672.8987,-442.8231 1631.0909,-426.7247 1598.4018,-414.1375"/>
<polygon fill="#191970" stroke="#191970" points="1599.6015,-410.849 1589.0117,-410.5218 1597.0861,-417.3814 1599.6015,-410.849"/>
</g>
<!-- Node62 -->
<g id="node63" class="node">
<title>Node62</title>
<polygon fill="none" stroke="#bfbfbf" points="1640,-386 1640,-405 1808,-405 1808,-386 1640,-386"/>
<text text-anchor="middle" x="1724" y="-393" font-family="Helvetica,sans-Serif" font-size="10.00" fill="#000000">boost/multi_index/member.hpp</text>
</g>
<!-- Node53&#45;&gt;Node62 -->
<g id="edge110" class="edge">
<title>Node53&#45;&gt;Node62</title>
<path fill="none" stroke="#191970" d="M1724,-452.9005C1724,-443.149 1724,-427.7597 1724,-415.3695"/>
<polygon fill="#191970" stroke="#191970" points="1727.5001,-415.0816 1724,-405.0817 1720.5001,-415.0817 1727.5001,-415.0816"/>
</g>
<!-- Node63 -->
<g id="node64" class="node">
<title>Node63</title>
<polygon fill="none" stroke="#bfbfbf" points="1826.5,-380.5 1826.5,-410.5 1971.5,-410.5 1971.5,-380.5 1826.5,-380.5"/>
<text text-anchor="start" x="1834.5" y="-398.5" font-family="Helvetica,sans-Serif" font-size="10.00" fill="#000000">boost/multi_index/random</text>
<text text-anchor="middle" x="1899" y="-387.5" font-family="Helvetica,sans-Serif" font-size="10.00" fill="#000000">_access_index.hpp</text>
</g>
<!-- Node53&#45;&gt;Node63 -->
<g id="edge111" class="edge">
<title>Node53&#45;&gt;Node63</title>
<path fill="none" stroke="#191970" d="M1749.0732,-452.9005C1775.395,-442.8231 1817.443,-426.7247 1850.32,-414.1375"/>
<polygon fill="#191970" stroke="#191970" points="1851.6765,-417.3659 1859.764,-410.5218 1849.1737,-410.8287 1851.6765,-417.3659"/>
</g>
<!-- Node64 -->
<g id="node65" class="node">
<title>Node64</title>
<polygon fill="none" stroke="#bfbfbf" points="2152.5,-386 2152.5,-405 2327.5,-405 2327.5,-386 2152.5,-386"/>
<text text-anchor="middle" x="2240" y="-393" font-family="Helvetica,sans-Serif" font-size="10.00" fill="#000000">boost/multi_index_container.hpp</text>
</g>
<!-- Node53&#45;&gt;Node64 -->
<g id="edge112" class="edge">
<title>Node53&#45;&gt;Node64</title>
<path fill="none" stroke="#191970" d="M1752.9205,-452.9919C1760.6713,-450.7333 1769.095,-448.5363 1777,-447 1935.2787,-416.2386 1978.0198,-431.1187 2138,-411 2148.613,-409.6653 2159.8251,-408.1099 2170.7793,-406.5093"/>
<polygon fill="#191970" stroke="#191970" points="2171.3638,-409.961 2180.7421,-405.0317 2170.3368,-403.0367 2171.3638,-409.961"/>
</g>
<!-- Node65 -->
<g id="node66" class="node">
<title>Node65</title>
<polygon fill="none" stroke="#bfbfbf" points="2345.5,-380.5 2345.5,-410.5 2452.5,-410.5 2452.5,-380.5 2345.5,-380.5"/>
<text text-anchor="start" x="2353.5" y="-398.5" font-family="Helvetica,sans-Serif" font-size="10.00" fill="#000000">boost/serialization</text>
<text text-anchor="middle" x="2399" y="-387.5" font-family="Helvetica,sans-Serif" font-size="10.00" fill="#000000">/complex.hpp</text>
</g>
<!-- Node53&#45;&gt;Node65 -->
<g id="edge113" class="edge">
<title>Node53&#45;&gt;Node65</title>
<path fill="none" stroke="#191970" d="M1752.3331,-452.9646C1760.2348,-450.6488 1768.8803,-448.4302 1777,-447 2019.3831,-404.3051 2088.7489,-448.2126 2335.3728,-411.0744"/>
<polygon fill="#191970" stroke="#191970" points="2336,-414.5192 2345.353,-409.5422 2334.9377,-407.6003 2336,-414.5192"/>
</g>
<!-- Node66 -->
<g id="node67" class="node">
<title>Node66</title>
<polygon fill="none" stroke="#bfbfbf" points="2470.5,-380.5 2470.5,-410.5 2577.5,-410.5 2577.5,-380.5 2470.5,-380.5"/>
<text text-anchor="start" x="2478.5" y="-398.5" font-family="Helvetica,sans-Serif" font-size="10.00" fill="#000000">boost/serialization</text>
<text text-anchor="middle" x="2524" y="-387.5" font-family="Helvetica,sans-Serif" font-size="10.00" fill="#000000">/set.hpp</text>
</g>
<!-- Node53&#45;&gt;Node66 -->
<g id="edge114" class="edge">
<title>Node53&#45;&gt;Node66</title>
<path fill="none" stroke="#191970" d="M1752.0469,-452.9826C1760.0227,-450.6371 1768.7776,-448.3988 1777,-447 2074.3178,-396.4186 2158.6943,-454.8964 2460.4514,-411.0463"/>
<polygon fill="#191970" stroke="#191970" points="2460.9785,-414.5065 2470.359,-409.5813 2459.9546,-407.5818 2460.9785,-414.5065"/>
</g>
<!-- Node67 -->
<g id="node68" class="node">
<title>Node67</title>
<polygon fill="none" stroke="#bfbfbf" points="2595.5,-380.5 2595.5,-410.5 2702.5,-410.5 2702.5,-380.5 2595.5,-380.5"/>
<text text-anchor="start" x="2603.5" y="-398.5" font-family="Helvetica,sans-Serif" font-size="10.00" fill="#000000">boost/serialization</text>
<text text-anchor="middle" x="2649" y="-387.5" font-family="Helvetica,sans-Serif" font-size="10.00" fill="#000000">/vector.hpp</text>
</g>
<!-- Node53&#45;&gt;Node67 -->
<g id="edge115" class="edge">
<title>Node53&#45;&gt;Node67</title>
<path fill="none" stroke="#191970" d="M1752.0396,-452.9391C1760.0153,-450.5931 1768.772,-448.3656 1777,-447 2129.1946,-388.5477 2228.5715,-461.5812 2585.2742,-411.0604"/>
<polygon fill="#191970" stroke="#191970" points="2585.9636,-414.4973 2595.363,-409.6084 2584.9664,-407.5687 2585.9636,-414.4973"/>
</g>
<!-- Node68 -->
<g id="node69" class="node">
<title>Node68</title>
<polygon fill="none" stroke="#bfbfbf" points="2720.5,-386 2720.5,-405 2773.5,-405 2773.5,-386 2720.5,-386"/>
<text text-anchor="middle" x="2747" y="-393" font-family="Helvetica,sans-Serif" font-size="10.00" fill="#000000">iterator</text>
</g>
<!-- Node53&#45;&gt;Node68 -->
<g id="edge118" class="edge">
<title>Node53&#45;&gt;Node68</title>
<path fill="none" stroke="#191970" d="M1751.7596,-452.9881C1759.8086,-450.612 1768.6734,-448.3566 1777,-447 1982.2259,-413.5646 2509.4349,-457.9361 2712,-411 2714.4925,-410.4225 2717.0269,-409.6681 2719.5343,-408.8031"/>
<polygon fill="#191970" stroke="#191970" points="2720.932,-412.0138 2728.9246,-405.059 2718.3394,-405.5116 2720.932,-412.0138"/>
</g>
<!-- Node69 -->
<g id="node70" class="node">
<title>Node69</title>
<polygon fill="none" stroke="#bfbfbf" points="2791.5,-386 2791.5,-405 2856.5,-405 2856.5,-386 2791.5,-386"/>
<text text-anchor="middle" x="2824" y="-393" font-family="Helvetica,sans-Serif" font-size="10.00" fill="#000000">stdexcept</text>
</g>
<!-- Node53&#45;&gt;Node69 -->
<g id="edge123" class="edge">
<title>Node53&#45;&gt;Node69</title>
<path fill="none" stroke="#191970" d="M1751.7572,-452.9735C1759.8062,-450.5972 1768.6716,-448.3453 1777,-447 2218.6725,-375.6578 2344.3973,-499.2726 2783,-411 2786.2825,-410.3394 2789.6478,-409.448 2792.9705,-408.4246"/>
<polygon fill="#191970" stroke="#191970" points="2794.3829,-411.6394 2802.6853,-405.0575 2792.0905,-405.0254 2794.3829,-411.6394"/>
</g>
<!-- Node54&#45;&gt;Node15 -->
<g id="edge97" class="edge">
<title>Node54&#45;&gt;Node15</title>
<path fill="none" stroke="#191970" d="M2001.1408,-385.8922C1994.7305,-383.5761 1987.6844,-381.3755 1981,-380 1719.3365,-326.1547 1639.0442,-413.1396 1381,-344 1351.2416,-336.0266 1348.2955,-322.5347 1319,-313 1268.0633,-296.4218 418.1246,-172.892 368,-154 324.5586,-137.6269 279.8612,-106.3609 254.9343,-87.3742"/>
<polygon fill="#191970" stroke="#191970" points="257.0267,-84.5678 246.9764,-81.215 252.7423,-90.1035 257.0267,-84.5678"/>
</g>
<!-- Node54&#45;&gt;Node17 -->
<g id="edge100" class="edge">
<title>Node54&#45;&gt;Node17</title>
<path fill="none" stroke="#191970" d="M2000.1827,-385.8388C1994.0173,-383.637 1987.3305,-381.5056 1981,-380 1836.7999,-345.7041 1427.3174,-381.2982 1322,-277 1295.8707,-251.1236 1286.0569,-137.7604 1283.0912,-91.383"/>
<polygon fill="#191970" stroke="#191970" points="1286.5689,-90.9031 1282.479,-81.1295 1279.5813,-91.3203 1286.5689,-90.9031"/>
</g>
<!-- Node54&#45;&gt;Node42 -->
<g id="edge98" class="edge">
<title>Node54&#45;&gt;Node42</title>
<path fill="none" stroke="#191970" d="M2032.0321,-385.8585C2048.6505,-366.1498 2086.6978,-322.3183 2104,-313 2179.6706,-272.2468 2223.4955,-326.1527 2294,-277 2381.4815,-216.0117 2414.2816,-80.3773 2423.766,-29.6499"/>
<polygon fill="#191970" stroke="#191970" points="2427.2366,-30.123 2425.5315,-19.6663 2420.3435,-28.904 2427.2366,-30.123"/>
</g>
<!-- Node54&#45;&gt;Node55 -->
<g id="edge95" class="edge">
<title>Node54&#45;&gt;Node55</title>
<path fill="none" stroke="#191970" d="M2046.351,-385.9005C2069.5128,-375.9528 2106.3349,-360.1382 2135.4692,-347.6254"/>
<polygon fill="#191970" stroke="#191970" points="2137.2168,-350.6841 2145.024,-343.5218 2134.4543,-344.2522 2137.2168,-350.6841"/>
</g>
<!-- Node56 -->
<g id="node57" class="node">
<title>Node56</title>
<polygon fill="none" stroke="#bfbfbf" points="1919.5,-313.5 1919.5,-343.5 2056.5,-343.5 2056.5,-313.5 1919.5,-313.5"/>
<text text-anchor="start" x="1927.5" y="-331.5" font-family="Helvetica,sans-Serif" font-size="10.00" fill="#000000">boost/math/special</text>
<text text-anchor="middle" x="1988" y="-320.5" font-family="Helvetica,sans-Serif" font-size="10.00" fill="#000000">_functions/factorials.hpp</text>
</g>
<!-- Node54&#45;&gt;Node56 -->
<g id="edge96" class="edge">
<title>Node54&#45;&gt;Node56</title>
<path fill="none" stroke="#191970" d="M2018.8421,-385.9005C2014.1942,-377.2503 2007.1627,-364.164 2000.9868,-352.6699"/>
<polygon fill="#191970" stroke="#191970" points="2003.8877,-350.6741 1996.0714,-343.5218 1997.7215,-353.9873 2003.8877,-350.6741"/>
</g>
<!-- Node54&#45;&gt;Node57 -->
<g id="edge99" class="edge">
<title>Node54&#45;&gt;Node57</title>
<path fill="none" stroke="#191970" d="M2001.1455,-385.8692C1994.7352,-383.5531 1987.688,-381.3582 1981,-380 1694.4118,-321.8002 1610.3657,-403.2848 1324,-344 1320.7273,-343.3225 1317.369,-342.4352 1314.0463,-341.4279"/>
<polygon fill="#191970" stroke="#191970" points="1314.9,-338.0219 1304.3058,-338.1349 1312.6581,-344.6532 1314.9,-338.0219"/>
</g>
<!-- Node58&#45;&gt;Node13 -->
<g id="edge103" class="edge">
<title>Node58&#45;&gt;Node13</title>
<path fill="none" stroke="#191970" d="M1068.0006,-318.8952C1086.4905,-282.7657 1148.6725,-155.4334 1124,-123 1087.7024,-75.2847 1051.5275,-103.8778 994,-87 990.817,-86.0661 987.5252,-85.0835 984.2204,-84.085"/>
<polygon fill="#191970" stroke="#191970" points="984.9488,-80.6479 974.3625,-81.0745 982.9042,-87.3427 984.9488,-80.6479"/>
</g>
<!-- Node59&#45;&gt;Node49 -->
<g id="edge105" class="edge">
<title>Node59&#45;&gt;Node49</title>
<path fill="none" stroke="#191970" d="M2838,-318.9005C2838,-309.149 2838,-293.7597 2838,-281.3695"/>
<polygon fill="#191970" stroke="#191970" points="2841.5001,-281.0816 2838,-271.0817 2834.5001,-281.0817 2841.5001,-281.0816"/>
</g>
<!-- Node70&#45;&gt;Node1 -->
<g id="edge130" class="edge">
<title>Node70&#45;&gt;Node1</title>
<path fill="none" stroke="#191970" d="M789,-514.3416C789,-493.4114 789,-443.504 789,-415.4762"/>
<polygon fill="#191970" stroke="#191970" points="792.5001,-415.2704 789,-405.2705 785.5001,-415.2705 792.5001,-415.2704"/>
</g>
<!-- Node70&#45;&gt;Node14 -->
<g id="edge132" class="edge">
<title>Node70&#45;&gt;Node14</title>
<path fill="none" stroke="#191970" d="M747.9015,-522.1565C631.6199,-516.697 305.9252,-499.6333 263,-478 219.2785,-455.9655 190,-444.46 190,-395.5 190,-395.5 190,-395.5 190,-328.5 190,-218.731 233.2741,-180.1374 327,-123 357.8036,-104.2214 396.6714,-89.6207 423.2439,-80.8367"/>
<polygon fill="#191970" stroke="#191970" points="424.3417,-84.1603 432.7837,-77.7584 422.192,-77.4985 424.3417,-84.1603"/>
</g>
<!-- Node70&#45;&gt;Node15 -->
<g id="edge136" class="edge">
<title>Node70&#45;&gt;Node15</title>
<path fill="none" stroke="#191970" d="M747.5791,-521.9747C618.2387,-515.4871 229.2034,-494.6701 208,-478 87.1532,-382.9903 190.9645,-156.3038 225.0721,-90.0088"/>
<polygon fill="#191970" stroke="#191970" points="228.1954,-91.5892 229.734,-81.1067 221.9942,-88.3418 228.1954,-91.5892"/>
</g>
<!-- Node70&#45;&gt;Node18 -->
<g id="edge133" class="edge">
<title>Node70&#45;&gt;Node18</title>
<path fill="none" stroke="#191970" d="M792.5843,-514.4707C811.5852,-463.9545 900.6518,-227.1602 926.7788,-157.6986"/>
<polygon fill="#191970" stroke="#191970" points="930.1665,-158.6333 930.4112,-148.0413 923.6147,-156.1689 930.1665,-158.6333"/>
</g>
<!-- Node70&#45;&gt;Node25 -->
<g id="edge137" class="edge">
<title>Node70&#45;&gt;Node25</title>
<path fill="none" stroke="#191970" d="M747.6492,-521.9034C630.3626,-514.8384 304,-486.962 304,-395.5 304,-395.5 304,-395.5 304,-328.5 304,-289.9966 304.9088,-245.0114 305.5012,-219.7797"/>
<polygon fill="#191970" stroke="#191970" points="309.0028,-219.7531 305.7467,-209.6711 302.0048,-219.5831 309.0028,-219.7531"/>
</g>
<!-- Node70&#45;&gt;Node31 -->
<g id="edge139" class="edge">
<title>Node70&#45;&gt;Node31</title>
<path fill="none" stroke="#191970" d="M747.7483,-523.3703C618.1923,-520.2909 228,-502.1626 228,-395.5 228,-395.5 228,-395.5 228,-328.5 228,-219.9479 260.6867,-166.8228 360,-123 420.4095,-96.3439 608.6189,-81.052 704.1485,-74.8183"/>
<polygon fill="#191970" stroke="#191970" points="704.4558,-78.3058 714.2112,-74.1728 704.0076,-71.3202 704.4558,-78.3058"/>
</g>
<!-- Node70&#45;&gt;Node36 -->
<g id="edge138" class="edge">
<title>Node70&#45;&gt;Node36</title>
<path fill="none" stroke="#191970" d="M747.6987,-522.1204C613.7809,-515.8671 198.8786,-495.1869 176,-478 116.5295,-433.3245 144.6794,-387.3076 148,-313 153.2105,-196.4 112.5759,-131.0069 202,-56 246.841,-18.3884 653.2627,-11.5227 790.1974,-10.2753"/>
<polygon fill="#191970" stroke="#191970" points="790.3701,-13.7741 800.3399,-10.1888 790.3104,-6.7743 790.3701,-13.7741"/>
</g>
<!-- Node70&#45;&gt;Node50 -->
<g id="edge135" class="edge">
<title>Node70&#45;&gt;Node50</title>
<path fill="none" stroke="#191970" d="M816.0065,-514.4286C892.4747,-487.7931 1117.4852,-412.6266 1311,-380 1554.3076,-338.9783 1631.488,-423.7089 1865,-344 1888.3318,-336.0357 1888.0825,-322.088 1911,-313 1933.483,-304.0843 2071.8064,-283.3767 2157.5111,-271.1076"/>
<polygon fill="#191970" stroke="#191970" points="2158.0284,-274.5693 2167.4334,-269.6912 2157.0391,-267.6396 2158.0284,-274.5693"/>
</g>
<!-- Node70&#45;&gt;Node53 -->
<g id="edge131" class="edge">
<title>Node70&#45;&gt;Node53</title>
<path fill="none" stroke="#191970" d="M830.0791,-521.298C980.5975,-511.3976 1501.9409,-477.106 1670.7811,-466.0005"/>
<polygon fill="#191970" stroke="#191970" points="1671.1673,-469.4828 1680.916,-465.3339 1670.7078,-462.4978 1671.1673,-469.4828"/>
</g>
<!-- Node70&#45;&gt;Node71 -->
<g id="edge134" class="edge">
<title>Node70&#45;&gt;Node71</title>
<path fill="none" stroke="#191970" d="M830.154,-523.1503C989.8296,-519.6908 1569.2548,-505.586 1775.0788,-477.8866"/>
<polygon fill="#191970" stroke="#191970" points="1775.7617,-481.3252 1785.1796,-476.4721 1774.7909,-474.3929 1775.7617,-481.3252"/>
</g>
</g>
</svg>
        <g id="navigator" transform="translate(0 0)" fill="#404254">
                <rect fill="#f2f5e9" fill-opacity="0.5" stroke="#606060" stroke-width=".5" x="0" y="0" width="60" height="60"/>
                <use id="zoomplus" xlink:href="#zoomPlus" x="17" y="9" onmousedown="handleZoom(evt,'in')"/>
                <use id="zoomminus" xlink:href="#zoomMin" x="42" y="9" onmousedown="handleZoom(evt,'out')"/>
                <use id="reset" xlink:href="#resetDef" x="30" y="36" onmousedown="handleReset()"/>
                <g id="arrowUp" xlink:href="#dirArrow" transform="translate(30 24)" onmousedown="handlePan(0,-1)">
                  <use xlink:href="#rim" fill="#404040">
                        <set attributeName="fill" to="#808080" begin="arrowUp.mouseover" end="arrowUp.mouseout"/>
                  </use>
                  <path fill="none" stroke="white" stroke-width="1.5" d="M0,-3.0v7 M-2.5,-0.5L0,-3.0L2.5,-0.5"/>
                </g>
                <g id="arrowRight" xlink:href="#dirArrow" transform="rotate(90) translate(36 -43)" onmousedown="handlePan(1,0)">
                  <use xlink:href="#rim" fill="#404040">
                        <set attributeName="fill" to="#808080" begin="arrowRight.mouseover" end="arrowRight.mouseout"/>
                  </use>
                  <path fill="none" stroke="white" stroke-width="1.5" d="M0,-3.0v7 M-2.5,-0.5L0,-3.0L2.5,-0.5"/>
                </g>
                <g id="arrowDown" xlink:href="#dirArrow" transform="rotate(180) translate(-30 -48)" onmousedown="handlePan(0,1)">
                  <use xlink:href="#rim" fill="#404040">
                        <set attributeName="fill" to="#808080" begin="arrowDown.mouseover" end="arrowDown.mouseout"/>
                  </use>
                  <path fill="none" stroke="white" stroke-width="1.5" d="M0,-3.0v7 M-2.5,-0.5L0,-3.0L2.5,-0.5"/>
                </g>
                <g id="arrowLeft" xlink:href="#dirArrow" transform="rotate(270) translate(-36 17)" onmousedown="handlePan(-1,0)">
                  <use xlink:href="#rim" fill="#404040">
                        <set attributeName="fill" to="#808080" begin="arrowLeft.mouseover" end="arrowLeft.mouseout"/>
                  </use>
                  <path fill="none" stroke="white" stroke-width="1.5" d="M0,-3.0v7 M-2.5,-0.5L0,-3.0L2.5,-0.5"/>
                </g>
        </g>
        <svg viewBox="0 0 15 15" width="100%" height="30px" preserveAspectRatio="xMaxYMin meet">
         <g id="arrow_out" transform="scale(0.3 0.3)">
          <a xlink:href="SystemTwo_8h__incl_org.svg" target="_base">
           <rect id="button" ry="5" rx="5" y="6" x="6" height="38" width="38"
                fill="#f2f5e9" fill-opacity="0.5" stroke="#606060" stroke-width="1.0"/>
           <path id="arrow"
             d="M 11.500037,31.436501 C 11.940474,20.09759 22.043105,11.32322 32.158766,21.979434 L 37.068811,17.246167 C 37.068811,17.246167 37.088388,32 37.088388,32 L 22.160133,31.978069 C 22.160133,31.978069 26.997745,27.140456 26.997745,27.140456 C 18.528582,18.264221 13.291696,25.230495 11.500037,31.436501 z"
             style="fill:#404040;"/>
          </a>
         </g>
        </svg>
</svg>
