<?xml version="1.0" encoding="UTF-8" standalone="no"?>
<!DOCTYPE svg PUBLIC "-//W3C//DTD SVG 1.1//EN"
 "http://www.w3.org/Graphics/SVG/1.1/DTD/svg11.dtd">
<!-- Generated by graphviz version 2.40.1 (20161225.0304)
 -->
<!-- Title: /travis/pairinteraction/SystemBase.h Pages: 1 -->
<svg width="3847pt" height="419pt"
 viewBox="0.00 0.00 3847.00 419.00" xmlns="http://www.w3.org/2000/svg" xmlns:xlink="http://www.w3.org/1999/xlink">
<g id="graph0" class="graph" transform="scale(1 1) rotate(0) translate(4 415)">
<title>/travis/pairinteraction/SystemBase.h</title>
<!-- Node0 -->
<g id="node1" class="node">
<title>Node0</title>
<polygon fill="#bfbfbf" stroke="#000000" points="2223.5,-380.5 2223.5,-410.5 2345.5,-410.5 2345.5,-380.5 2223.5,-380.5"/>
<text text-anchor="start" x="2231.5" y="-398.5" font-family="Helvetica,sans-Serif" font-size="10.00" fill="#000000">/travis/pairinteraction</text>
<text text-anchor="middle" x="2284.5" y="-387.5" font-family="Helvetica,sans-Serif" font-size="10.00" fill="#000000">/SystemBase.h</text>
</g>
<!-- Node1 -->
<g id="node2" class="node">
<title>Node1</title>
<g id="a_node2"><a xlink:href="MatrixElementCache_8h.html" target="_top" xlink:title="MatrixElementCache.h">
<polygon fill="none" stroke="#000000" points="861,-319 861,-338 988,-338 988,-319 861,-319"/>
<text text-anchor="middle" x="924.5" y="-326" font-family="Helvetica,sans-Serif" font-size="10.00" fill="#000000">MatrixElementCache.h</text>
</a>
</g>
</g>
<!-- Node0&#45;&gt;Node1 -->
<g id="edge1" class="edge">
<title>Node0&#45;&gt;Node1</title>
<path fill="none" stroke="#191970" d="M2223.247,-393.2865C2052.3392,-386.9914 1555.7514,-367.8886 1143.5,-344 1095.0616,-341.1932 1040.6463,-337.3453 998.1746,-334.1856"/>
<polygon fill="#191970" stroke="#191970" points="998.4326,-330.6953 988.1994,-333.4399 997.9106,-337.6758 998.4326,-330.6953"/>
</g>
<!-- Node6 -->
<g id="node7" class="node">
<title>Node6</title>
<polygon fill="none" stroke="#bfbfbf" points="1142.5,-62 1142.5,-81 1186.5,-81 1186.5,-62 1142.5,-62"/>
<text text-anchor="middle" x="1164.5" y="-69" font-family="Helvetica,sans-Serif" font-size="10.00" fill="#000000">string</text>
</g>
<!-- Node0&#45;&gt;Node6 -->
<g id="edge122" class="edge">
<title>Node0&#45;&gt;Node6</title>
<path fill="none" stroke="#191970" d="M2223.2705,-394.6273C2047.0235,-391.7021 1540.8077,-380.2888 1379.5,-344 1302.2813,-326.6284 1285.6506,-311.6711 1214.5,-277 1189.6228,-264.8776 1185.0606,-258.7516 1160.5,-246 1108.2657,-218.8804 1094.7221,-212.8881 1040.5,-190 998.9021,-172.4408 971.1543,-191.1561 945.5,-154 871.3925,-46.6672 940.1188,-150.8872 1132.5,-87 1134.1513,-86.4516 1135.827,-85.8361 1137.5015,-85.1748"/>
<polygon fill="#191970" stroke="#191970" points="1139.1611,-88.2685 1146.9041,-81.0369 1136.3414,-81.8615 1139.1611,-88.2685"/>
</g>
<!-- Node10 -->
<g id="node11" class="node">
<title>Node10</title>
<g id="a_node11"><a xlink:href="dtypes_8h.html" target="_top" xlink:title="dtypes.h">
<polygon fill="none" stroke="#000000" points="1907,-129 1907,-148 1966,-148 1966,-129 1907,-129"/>
<text text-anchor="middle" x="1936.5" y="-136" font-family="Helvetica,sans-Serif" font-size="10.00" fill="#000000">dtypes.h</text>
</a>
</g>
</g>
<!-- Node0&#45;&gt;Node10 -->
<g id="edge99" class="edge">
<title>Node0&#45;&gt;Node10</title>
<path fill="none" stroke="#191970" d="M2223.3086,-391.0537C2171.2464,-385.3885 2095.5803,-372.6162 2035.5,-344 1993.0106,-323.7623 1973.6679,-319.5226 1953.5,-277 1947.5958,-264.5514 1949.7683,-259.2628 1953.5,-246 1958.5787,-227.9498 1970.4213,-228.0502 1975.5,-210 1977.9075,-201.4434 1978.3305,-198.4262 1975.5,-190 1971.191,-177.1723 1962.2804,-164.9963 1954.0631,-155.7072"/>
<polygon fill="#191970" stroke="#191970" points="1956.5483,-153.2408 1947.1533,-148.3434 1951.4437,-158.0307 1956.5483,-153.2408"/>
</g>
<!-- Node16 -->
<g id="node17" class="node">
<title>Node16</title>
<polygon fill="none" stroke="#bfbfbf" points="2071,-62 2071,-81 2118,-81 2118,-62 2071,-62"/>
<text text-anchor="middle" x="2094.5" y="-69" font-family="Helvetica,sans-Serif" font-size="10.00" fill="#000000">vector</text>
</g>
<!-- Node0&#45;&gt;Node16 -->
<g id="edge126" class="edge">
<title>Node0&#45;&gt;Node16</title>
<path fill="none" stroke="#191970" d="M2223.3547,-386.3478C2175.8995,-377.8625 2115.702,-363.5895 2100.5,-344 2085.1671,-324.2419 2091.0665,-151.2837 2093.587,-91.6266"/>
<polygon fill="#191970" stroke="#191970" points="2097.0989,-91.4281 2094.0388,-81.2849 2090.1056,-91.1226 2097.0989,-91.4281"/>
</g>
<!-- Node23 -->
<g id="node24" class="node">
<title>Node23</title>
<polygon fill="none" stroke="#bfbfbf" points="111.5,-62 111.5,-81 169.5,-81 169.5,-62 111.5,-62"/>
<text text-anchor="middle" x="140.5" y="-69" font-family="Helvetica,sans-Serif" font-size="10.00" fill="#000000">memory</text>
</g>
<!-- Node0&#45;&gt;Node23 -->
<g id="edge118" class="edge">
<title>Node0&#45;&gt;Node23</title>
<path fill="none" stroke="#191970" d="M2223.4503,-394.6659C1905.9427,-389.9617 451.0663,-363.7853 271.5,-277 203.5695,-244.1688 187.2138,-221.9872 154.5,-154 144.889,-134.026 141.7613,-108.5552 140.8028,-91.2351"/>
<polygon fill="#191970" stroke="#191970" points="144.298,-91.0374 140.4398,-81.1701 137.3026,-91.2898 144.298,-91.0374"/>
</g>
<!-- Node24 -->
<g id="node25" class="node">
<title>Node24</title>
<polygon fill="none" stroke="#bfbfbf" points="1830.5,-190.5 1830.5,-209.5 1862.5,-209.5 1862.5,-190.5 1830.5,-190.5"/>
<text text-anchor="middle" x="1846.5" y="-197.5" font-family="Helvetica,sans-Serif" font-size="10.00" fill="#000000">set</text>
</g>
<!-- Node0&#45;&gt;Node24 -->
<g id="edge120" class="edge">
<title>Node0&#45;&gt;Node24</title>
<path fill="none" stroke="#191970" d="M2223.4247,-390.7071C2121.7058,-382.2239 1926.2529,-363.6028 1901.5,-344 1862.6356,-313.2217 1851.2179,-251.583 1847.8753,-219.864"/>
<polygon fill="#191970" stroke="#191970" points="1851.339,-219.2978 1846.9733,-209.6443 1844.3661,-219.9133 1851.339,-219.2978"/>
</g>
<!-- Node25 -->
<g id="node26" class="node">
<title>Node25</title>
<polygon fill="none" stroke="#bfbfbf" points="1880.5,-190.5 1880.5,-209.5 1966.5,-209.5 1966.5,-190.5 1880.5,-190.5"/>
<text text-anchor="middle" x="1923.5" y="-197.5" font-family="Helvetica,sans-Serif" font-size="10.00" fill="#000000">unordered_set</text>
</g>
<!-- Node0&#45;&gt;Node25 -->
<g id="edge124" class="edge">
<title>Node0&#45;&gt;Node25</title>
<path fill="none" stroke="#191970" d="M2223.2929,-391.1721C2124.7766,-383.5778 1940.0387,-366.4977 1920.5,-344 1890.1393,-309.0414 1905.2687,-249.3167 1915.9652,-218.9429"/>
<polygon fill="#191970" stroke="#191970" points="1919.2673,-220.1047 1919.482,-209.512 1912.7085,-217.6589 1919.2673,-220.1047"/>
</g>
<!-- Node26 -->
<g id="node27" class="node">
<title>Node26</title>
<g id="a_node27"><a xlink:href="State_8h.html" target="_top" xlink:title="State.h">
<polygon fill="none" stroke="#000000" points="1571,-190.5 1571,-209.5 1622,-209.5 1622,-190.5 1571,-190.5"/>
<text text-anchor="middle" x="1596.5" y="-197.5" font-family="Helvetica,sans-Serif" font-size="10.00" fill="#000000">State.h</text>
</a>
</g>
</g>
<!-- Node0&#45;&gt;Node26 -->
<g id="edge91" class="edge">
<title>Node0&#45;&gt;Node26</title>
<path fill="none" stroke="#191970" d="M2223.4383,-390.5163C2125.3826,-382.0658 1937.351,-363.8936 1873.5,-344 1772.5617,-312.5515 1664.624,-245.4242 1618.9563,-215.2481"/>
<polygon fill="#191970" stroke="#191970" points="1620.6888,-212.1966 1610.427,-209.5611 1616.8056,-218.0207 1620.6888,-212.1966"/>
</g>
<!-- Node32 -->
<g id="node33" class="node">
<title>Node32</title>
<polygon fill="none" stroke="#bfbfbf" points="0,-62 0,-81 93,-81 93,-62 0,-62"/>
<text text-anchor="middle" x="46.5" y="-69" font-family="Helvetica,sans-Serif" font-size="10.00" fill="#000000">unordered_map</text>
</g>
<!-- Node0&#45;&gt;Node32 -->
<g id="edge123" class="edge">
<title>Node0&#45;&gt;Node32</title>
<path fill="none" stroke="#191970" d="M2223.1376,-395.2219C1945.2381,-393.7408 802.8515,-385.2143 447.5,-344 266.7566,-323.037 46.5,-443.455 46.5,-261.5 46.5,-261.5 46.5,-261.5 46.5,-200 46.5,-161.5012 46.5,-116.5145 46.5,-91.2812"/>
<polygon fill="#191970" stroke="#191970" points="50.0001,-91.1718 46.5,-81.1719 43.0001,-91.1719 50.0001,-91.1718"/>
</g>
<!-- Node40 -->
<g id="node41" class="node">
<title>Node40</title>
<polygon fill="none" stroke="#bfbfbf" points="1079,-62 1079,-81 1124,-81 1124,-62 1079,-62"/>
<text text-anchor="middle" x="1101.5" y="-69" font-family="Helvetica,sans-Serif" font-size="10.00" fill="#000000">utility</text>
</g>
<!-- Node0&#45;&gt;Node40 -->
<g id="edge125" class="edge">
<title>Node0&#45;&gt;Node40</title>
<path fill="none" stroke="#191970" d="M2223.1466,-392.5937C2129.2412,-387.3627 1944.5457,-373.9813 1790.5,-344 1579.3846,-302.9114 1525.4558,-289.219 1325.5,-210 1307.3899,-202.8251 1305.1689,-195.5612 1286.5,-190 1213.4724,-168.246 996.4739,-210.6386 945.5,-154 936.2832,-143.759 937.2265,-134.0171 945.5,-123 979.9605,-77.112 1015.9309,-107.5813 1069.5,-87 1070.9046,-86.4604 1072.3318,-85.883 1073.7646,-85.2799"/>
<polygon fill="#191970" stroke="#191970" points="1075.447,-88.3606 1083.1207,-81.0555 1072.5663,-81.9807 1075.447,-88.3606"/>
</g>
<!-- Node42 -->
<g id="node43" class="node">
<title>Node42</title>
<polygon fill="none" stroke="#bfbfbf" points="1169.5,-.5 1169.5,-19.5 1233.5,-19.5 1233.5,-.5 1169.5,-.5"/>
<text text-anchor="middle" x="1201.5" y="-7.5" font-family="Helvetica,sans-Serif" font-size="10.00" fill="#000000">algorithm</text>
</g>
<!-- Node0&#45;&gt;Node42 -->
<g id="edge105" class="edge">
<title>Node0&#45;&gt;Node42</title>
<path fill="none" stroke="#191970" d="M2223.2934,-382.258C2186.391,-372.8949 2144.4598,-359.3176 2133.5,-344 2125.4828,-332.795 2132.7114,-326.7552 2133.5,-313 2136.3936,-262.5294 2146.5,-250.5535 2146.5,-200 2146.5,-200 2146.5,-200 2146.5,-138.5 2146.5,-100.7713 2155.5663,-80.0543 2126.5,-56 2092.0929,-27.5259 1420.4839,-13.8251 1243.792,-10.7044"/>
<polygon fill="#191970" stroke="#191970" points="1243.6522,-7.2015 1233.5926,-10.5264 1243.53,-14.2005 1243.6522,-7.2015"/>
</g>
<!-- Node43 -->
<g id="node44" class="node">
<title>Node43</title>
<polygon fill="none" stroke="#bfbfbf" points="2193,-.5 2193,-19.5 2252,-19.5 2252,-.5 2193,-.5"/>
<text text-anchor="middle" x="2222.5" y="-7.5" font-family="Helvetica,sans-Serif" font-size="10.00" fill="#000000">complex</text>
</g>
<!-- Node0&#45;&gt;Node43 -->
<g id="edge114" class="edge">
<title>Node0&#45;&gt;Node43</title>
<path fill="none" stroke="#191970" d="M2320.5906,-380.3527C2340.1601,-371.2709 2364.2155,-358.649 2383.5,-344 2516.1793,-243.2132 2734.4006,-180.3497 2623.5,-56 2599.7014,-29.3153 2358.9644,-15.9412 2262.3291,-11.6151"/>
<polygon fill="#191970" stroke="#191970" points="2262.2315,-8.1076 2252.0879,-11.1665 2261.9251,-15.1009 2262.2315,-8.1076"/>
</g>
<!-- Node44 -->
<g id="node45" class="node">
<title>Node44</title>
<polygon fill="none" stroke="#bfbfbf" points="1824,-.5 1824,-19.5 1889,-19.5 1889,-.5 1824,-.5"/>
<text text-anchor="middle" x="1856.5" y="-7.5" font-family="Helvetica,sans-Serif" font-size="10.00" fill="#000000">functional</text>
</g>
<!-- Node0&#45;&gt;Node44 -->
<g id="edge115" class="edge">
<title>Node0&#45;&gt;Node44</title>
<path fill="none" stroke="#191970" d="M2290.78,-380.2142C2301.1601,-352.6609 2319.2596,-293.1467 2303.5,-246 2269.9939,-145.7627 2251.2646,-110.1476 2160.5,-56 2117.2448,-30.1952 1972.5583,-17.4379 1899.4939,-12.5147"/>
<polygon fill="#191970" stroke="#191970" points="1899.4614,-9.0052 1889.2542,-11.8445 1899.0042,-15.9902 1899.4614,-9.0052"/>
</g>
<!-- Node48 -->
<g id="node49" class="node">
<title>Node48</title>
<polygon fill="none" stroke="#bfbfbf" points="987.5,-190.5 987.5,-209.5 1031.5,-209.5 1031.5,-190.5 987.5,-190.5"/>
<text text-anchor="middle" x="1009.5" y="-197.5" font-family="Helvetica,sans-Serif" font-size="10.00" fill="#000000">limits</text>
</g>
<!-- Node0&#45;&gt;Node48 -->
<g id="edge117" class="edge">
<title>Node0&#45;&gt;Node48</title>
<path fill="none" stroke="#191970" d="M2223.2166,-394.4053C1997.7031,-390.1496 1224.7805,-373.4654 1181.5,-344 1142.0338,-317.1314 1172.5347,-278.4357 1137.5,-246 1130.2059,-239.247 1077.133,-221.4773 1041.6569,-210.1043"/>
<polygon fill="#191970" stroke="#191970" points="1042.3171,-206.6414 1031.7265,-206.9401 1040.1919,-213.311 1042.3171,-206.6414"/>
</g>
<!-- Node50 -->
<g id="node51" class="node">
<title>Node50</title>
<polygon fill="none" stroke="#bfbfbf" points="2175,-252 2175,-271 2294,-271 2294,-252 2175,-252"/>
<text text-anchor="middle" x="2234.5" y="-259" font-family="Helvetica,sans-Serif" font-size="10.00" fill="#000000">boost/filesystem.hpp</text>
</g>
<!-- Node0&#45;&gt;Node50 -->
<g id="edge106" class="edge">
<title>Node0&#45;&gt;Node50</title>
<path fill="none" stroke="#191970" d="M2282.2093,-380.4947C2279.3323,-363.6466 2273.6347,-335.6954 2264.5,-313 2259.8638,-301.4812 2252.9822,-289.4454 2246.979,-279.9082"/>
<polygon fill="#191970" stroke="#191970" points="2249.7738,-277.786 2241.3843,-271.3156 2243.9077,-281.6056 2249.7738,-277.786"/>
</g>
<!-- Node53 -->
<g id="node54" class="node">
<title>Node53</title>
<g id="a_node54"><a xlink:href="WignerD_8h.html" target="_top" xlink:title="WignerD.h">
<polygon fill="none" stroke="#000000" points="2285.5,-129 2285.5,-148 2353.5,-148 2353.5,-129 2285.5,-129"/>
<text text-anchor="middle" x="2319.5" y="-136" font-family="Helvetica,sans-Serif" font-size="10.00" fill="#000000">WignerD.h</text>
</a>
</g>
</g>
<!-- Node0&#45;&gt;Node53 -->
<g id="edge92" class="edge">
<title>Node0&#45;&gt;Node53</title>
<path fill="none" stroke="#191970" d="M2306.6114,-380.3604C2317.8456,-371.2809 2330.3866,-358.6588 2336.5,-344 2363.088,-280.2469 2339.9383,-195.8539 2326.9233,-158.1526"/>
<polygon fill="#191970" stroke="#191970" points="2330.1001,-156.6434 2323.4229,-148.4175 2323.5129,-159.012 2330.1001,-156.6434"/>
</g>
<!-- Node56 -->
<g id="node57" class="node">
<title>Node56</title>
<polygon fill="none" stroke="#bfbfbf" points="2558.5,-62 2558.5,-81 2614.5,-81 2614.5,-62 2558.5,-62"/>
<text text-anchor="middle" x="2586.5" y="-69" font-family="Helvetica,sans-Serif" font-size="10.00" fill="#000000">numeric</text>
</g>
<!-- Node0&#45;&gt;Node56 -->
<g id="edge119" class="edge">
<title>Node0&#45;&gt;Node56</title>
<path fill="none" stroke="#191970" d="M2310.6539,-380.3547C2344.3106,-358.6793 2398.5,-315.4097 2398.5,-261.5 2398.5,-261.5 2398.5,-261.5 2398.5,-200 2398.5,-162.5027 2501.7244,-110.0207 2555.1967,-85.3495"/>
<polygon fill="#191970" stroke="#191970" points="2556.92,-88.4104 2564.5661,-81.0763 2554.0153,-82.0415 2556.92,-88.4104"/>
</g>
<!-- Node57 -->
<g id="node58" class="node">
<title>Node57</title>
<g id="a_node58"><a xlink:href="serialization__eigen_8h.html" target="_top" xlink:title="serialization_eigen.h">
<polygon fill="none" stroke="#000000" points="1962.5,-252 1962.5,-271 2080.5,-271 2080.5,-252 1962.5,-252"/>
<text text-anchor="middle" x="2021.5" y="-259" font-family="Helvetica,sans-Serif" font-size="10.00" fill="#000000">serialization_eigen.h</text>
</a>
</g>
</g>
<!-- Node0&#45;&gt;Node57 -->
<g id="edge100" class="edge">
<title>Node0&#45;&gt;Node57</title>
<path fill="none" stroke="#191970" d="M2223.397,-387.2804C2166.5896,-378.5979 2087.1399,-363.4715 2062.5,-344 2042.464,-328.1667 2031.472,-299.9921 2026.0364,-281.0294"/>
<polygon fill="#191970" stroke="#191970" points="2029.3563,-279.8888 2023.4518,-271.0918 2022.5817,-281.6509 2029.3563,-279.8888"/>
</g>
<!-- Node58 -->
<g id="node59" class="node">
<title>Node58</title>
<g id="a_node59"><a xlink:href="serialization__path_8h.html" target="_top" xlink:title="serialization_path.h">
<polygon fill="none" stroke="#000000" points="2143,-319 2143,-338 2256,-338 2256,-319 2143,-319"/>
<text text-anchor="middle" x="2199.5" y="-326" font-family="Helvetica,sans-Serif" font-size="10.00" fill="#000000">serialization_path.h</text>
</a>
</g>
</g>
<!-- Node0&#45;&gt;Node58 -->
<g id="edge102" class="edge">
<title>Node0&#45;&gt;Node58</title>
<path fill="none" stroke="#191970" d="M2265.2122,-380.2967C2251.5831,-369.5537 2233.3598,-355.1895 2219.5612,-344.3129"/>
<polygon fill="#191970" stroke="#191970" points="2221.6422,-341.4967 2211.622,-338.055 2217.3089,-346.9942 2221.6422,-341.4967"/>
</g>
<!-- Node59 -->
<g id="node60" class="node">
<title>Node59</title>
<polygon fill="none" stroke="#bfbfbf" points="2465,-313.5 2465,-343.5 2606,-343.5 2606,-313.5 2465,-313.5"/>
<text text-anchor="start" x="2473" y="-331.5" font-family="Helvetica,sans-Serif" font-size="10.00" fill="#000000">unsupported/Eigen/Matrix</text>
<text text-anchor="middle" x="2535.5" y="-320.5" font-family="Helvetica,sans-Serif" font-size="10.00" fill="#000000">Functions</text>
</g>
<!-- Node0&#45;&gt;Node59 -->
<g id="edge104" class="edge">
<title>Node0&#45;&gt;Node59</title>
<path fill="none" stroke="#191970" d="M2340.8293,-380.4639C2378.8847,-370.3057 2429.2802,-356.8535 2469.2607,-346.1814"/>
<polygon fill="#191970" stroke="#191970" points="2470.166,-349.5624 2478.925,-343.6017 2468.3606,-342.7992 2470.166,-349.5624"/>
</g>
<!-- Node60 -->
<g id="node61" class="node">
<title>Node60</title>
<polygon fill="none" stroke="#bfbfbf" points="2624,-313.5 2624,-343.5 2767,-343.5 2767,-313.5 2624,-313.5"/>
<text text-anchor="start" x="2632" y="-331.5" font-family="Helvetica,sans-Serif" font-size="10.00" fill="#000000">boost/multi_index/hashed</text>
<text text-anchor="middle" x="2695.5" y="-320.5" font-family="Helvetica,sans-Serif" font-size="10.00" fill="#000000">_index.hpp</text>
</g>
<!-- Node0&#45;&gt;Node60 -->
<g id="edge107" class="edge">
<title>Node0&#45;&gt;Node60</title>
<path fill="none" stroke="#191970" d="M2345.6175,-386.6831C2409.9836,-377.2414 2514.5368,-361.4632 2614.0699,-344.2177"/>
<polygon fill="#191970" stroke="#191970" points="2614.7432,-347.6532 2623.9949,-342.4902 2613.5428,-340.7569 2614.7432,-347.6532"/>
</g>
<!-- Node61 -->
<g id="node62" class="node">
<title>Node61</title>
<polygon fill="none" stroke="#bfbfbf" points="2785.5,-319 2785.5,-338 2953.5,-338 2953.5,-319 2785.5,-319"/>
<text text-anchor="middle" x="2869.5" y="-326" font-family="Helvetica,sans-Serif" font-size="10.00" fill="#000000">boost/multi_index/member.hpp</text>
</g>
<!-- Node0&#45;&gt;Node61 -->
<g id="edge108" class="edge">
<title>Node0&#45;&gt;Node61</title>
<path fill="none" stroke="#191970" d="M2345.6207,-390.3072C2438.7844,-382.12 2621.8214,-364.9656 2776.5,-344 2785.89,-342.7273 2795.7889,-341.2375 2805.4864,-339.694"/>
<polygon fill="#191970" stroke="#191970" points="2806.1783,-343.1276 2815.4896,-338.0729 2805.0584,-336.2178 2806.1783,-343.1276"/>
</g>
<!-- Node62 -->
<g id="node63" class="node">
<title>Node62</title>
<polygon fill="none" stroke="#bfbfbf" points="2972,-313.5 2972,-343.5 3117,-343.5 3117,-313.5 2972,-313.5"/>
<text text-anchor="start" x="2980" y="-331.5" font-family="Helvetica,sans-Serif" font-size="10.00" fill="#000000">boost/multi_index/random</text>
<text text-anchor="middle" x="3044.5" y="-320.5" font-family="Helvetica,sans-Serif" font-size="10.00" fill="#000000">_access_index.hpp</text>
</g>
<!-- Node0&#45;&gt;Node62 -->
<g id="edge109" class="edge">
<title>Node0&#45;&gt;Node62</title>
<path fill="none" stroke="#191970" d="M2345.5101,-393.1382C2462.8831,-388.0997 2728.3872,-374.3075 2961.6588,-344.0127"/>
<polygon fill="#191970" stroke="#191970" points="2962.2302,-347.4679 2971.6901,-342.6971 2961.3199,-340.5273 2962.2302,-347.4679"/>
</g>
<!-- Node63 -->
<g id="node64" class="node">
<title>Node63</title>
<polygon fill="none" stroke="#bfbfbf" points="3135,-319 3135,-338 3310,-338 3310,-319 3135,-319"/>
<text text-anchor="middle" x="3222.5" y="-326" font-family="Helvetica,sans-Serif" font-size="10.00" fill="#000000">boost/multi_index_container.hpp</text>
</g>
<!-- Node0&#45;&gt;Node63 -->
<g id="edge110" class="edge">
<title>Node0&#45;&gt;Node63</title>
<path fill="none" stroke="#191970" d="M2345.6934,-393.8334C2484.782,-389.5916 2835.1997,-376.3446 3126.5,-344 3137.227,-342.8089 3148.5832,-341.2461 3159.5854,-339.5715"/>
<polygon fill="#191970" stroke="#191970" points="3160.2235,-343.0143 3169.5618,-338.0096 3159.1407,-336.0986 3160.2235,-343.0143"/>
</g>
<!-- Node64 -->
<g id="node65" class="node">
<title>Node64</title>
<polygon fill="none" stroke="#bfbfbf" points="3328,-313.5 3328,-343.5 3435,-343.5 3435,-313.5 3328,-313.5"/>
<text text-anchor="start" x="3336" y="-331.5" font-family="Helvetica,sans-Serif" font-size="10.00" fill="#000000">boost/serialization</text>
<text text-anchor="middle" x="3381.5" y="-320.5" font-family="Helvetica,sans-Serif" font-size="10.00" fill="#000000">/complex.hpp</text>
</g>
<!-- Node0&#45;&gt;Node64 -->
<g id="edge111" class="edge">
<title>Node0&#45;&gt;Node64</title>
<path fill="none" stroke="#191970" d="M2345.5733,-394.0273C2534.7443,-389.2232 3110.2099,-372.7238 3317.6717,-344.0531"/>
<polygon fill="#191970" stroke="#191970" points="3318.4591,-347.476 3327.8604,-342.5907 3317.4645,-340.5471 3318.4591,-347.476"/>
</g>
<!-- Node65 -->
<g id="node66" class="node">
<title>Node65</title>
<polygon fill="none" stroke="#bfbfbf" points="3453,-313.5 3453,-343.5 3560,-343.5 3560,-313.5 3453,-313.5"/>
<text text-anchor="start" x="3461" y="-331.5" font-family="Helvetica,sans-Serif" font-size="10.00" fill="#000000">boost/serialization</text>
<text text-anchor="middle" x="3506.5" y="-320.5" font-family="Helvetica,sans-Serif" font-size="10.00" fill="#000000">/set.hpp</text>
</g>
<!-- Node0&#45;&gt;Node65 -->
<g id="edge112" class="edge">
<title>Node0&#45;&gt;Node65</title>
<path fill="none" stroke="#191970" d="M2345.5505,-394.4061C2549.8852,-390.4954 3209.5942,-375.7909 3442.7503,-344.0361"/>
<polygon fill="#191970" stroke="#191970" points="3443.4504,-347.4721 3452.863,-342.6086 3442.472,-340.5408 3443.4504,-347.4721"/>
</g>
<!-- Node66 -->
<g id="node67" class="node">
<title>Node66</title>
<polygon fill="none" stroke="#bfbfbf" points="3578,-313.5 3578,-343.5 3685,-343.5 3685,-313.5 3578,-313.5"/>
<text text-anchor="start" x="3586" y="-331.5" font-family="Helvetica,sans-Serif" font-size="10.00" fill="#000000">boost/serialization</text>
<text text-anchor="middle" x="3631.5" y="-320.5" font-family="Helvetica,sans-Serif" font-size="10.00" fill="#000000">/vector.hpp</text>
</g>
<!-- Node0&#45;&gt;Node66 -->
<g id="edge113" class="edge">
<title>Node0&#45;&gt;Node66</title>
<path fill="none" stroke="#191970" d="M2345.8735,-394.7068C2564.9759,-391.6189 3308.9088,-378.869 3567.753,-344.0312"/>
<polygon fill="#191970" stroke="#191970" points="3568.4434,-347.4689 3577.8651,-342.6231 3567.4779,-340.5358 3568.4434,-347.4689"/>
</g>
<!-- Node67 -->
<g id="node68" class="node">
<title>Node67</title>
<polygon fill="none" stroke="#bfbfbf" points="3703,-319 3703,-338 3756,-338 3756,-319 3703,-319"/>
<text text-anchor="middle" x="3729.5" y="-326" font-family="Helvetica,sans-Serif" font-size="10.00" fill="#000000">iterator</text>
</g>
<!-- Node0&#45;&gt;Node67 -->
<g id="edge116" class="edge">
<title>Node0&#45;&gt;Node67</title>
<path fill="none" stroke="#191970" d="M2345.926,-394.6266C2600.0566,-390.8271 3562.1032,-374.5398 3694.5,-344 3696.9931,-343.4249 3699.5279,-342.6723 3702.0355,-341.8084"/>
<polygon fill="#191970" stroke="#191970" points="3703.4323,-345.0195 3711.4263,-338.0663 3700.841,-338.5168 3703.4323,-345.0195"/>
</g>
<!-- Node68 -->
<g id="node69" class="node">
<title>Node68</title>
<polygon fill="none" stroke="#bfbfbf" points="3774,-319 3774,-338 3839,-338 3839,-319 3774,-319"/>
<text text-anchor="middle" x="3806.5" y="-326" font-family="Helvetica,sans-Serif" font-size="10.00" fill="#000000">stdexcept</text>
</g>
<!-- Node0&#45;&gt;Node68 -->
<g id="edge121" class="edge">
<title>Node0&#45;&gt;Node68</title>
<path fill="none" stroke="#191970" d="M2345.8526,-394.5463C2607.7406,-390.3153 3625.0329,-372.1964 3765.5,-344 3768.7828,-343.341 3772.1483,-342.4507 3775.4711,-341.428"/>
<polygon fill="#191970" stroke="#191970" points="3776.8832,-344.643 3785.1861,-338.0618 3774.5913,-338.0288 3776.8832,-344.643"/>
</g>
<!-- Node2 -->
<g id="node3" class="node">
<title>Node2</title>
<g id="a_node3"><a xlink:href="Basisnames_8h.html" target="_top" xlink:title="Basisnames.h">
<polygon fill="none" stroke="#000000" points="1224,-252 1224,-271 1309,-271 1309,-252 1224,-252"/>
<text text-anchor="middle" x="1266.5" y="-259" font-family="Helvetica,sans-Serif" font-size="10.00" fill="#000000">Basisnames.h</text>
</a>
</g>
</g>
<!-- Node1&#45;&gt;Node2 -->
<g id="edge2" class="edge">
<title>Node1&#45;&gt;Node2</title>
<path fill="none" stroke="#191970" d="M973.1371,-318.9717C1036.8551,-306.4889 1148.173,-284.681 1213.8293,-271.8185"/>
<polygon fill="#191970" stroke="#191970" points="1214.8199,-275.1911 1223.9604,-269.8338 1213.474,-268.3217 1214.8199,-275.1911"/>
</g>
<!-- Node5 -->
<g id="node6" class="node">
<title>Node5</title>
<polygon fill="none" stroke="#bfbfbf" points="379.5,-62 379.5,-81 435.5,-81 435.5,-62 379.5,-62"/>
<text text-anchor="middle" x="407.5" y="-69" font-family="Helvetica,sans-Serif" font-size="10.00" fill="#000000">sstream</text>
</g>
<!-- Node1&#45;&gt;Node5 -->
<g id="edge87" class="edge">
<title>Node1&#45;&gt;Node5</title>
<path fill="none" stroke="#191970" d="M860.7782,-325.7781C737.844,-319.9331 477.364,-304.4361 447.5,-277 394.654,-228.4503 399.5294,-132.5538 404.5256,-91.2199"/>
<polygon fill="#191970" stroke="#191970" points="408.0233,-91.4711 405.8901,-81.0932 401.086,-90.5363 408.0233,-91.4711"/>
</g>
<!-- Node1&#45;&gt;Node6 -->
<g id="edge88" class="edge">
<title>Node1&#45;&gt;Node6</title>
<path fill="none" stroke="#191970" d="M860.9271,-325.293C749.1031,-318.9966 526.7737,-303.2942 503.5,-277 494.3682,-266.6831 495.2789,-257.0563 503.5,-246 508.7961,-238.8774 801.0346,-156.668 809.5,-154 851.4567,-140.777 860.7412,-133.3389 903.5,-123 1003.6419,-98.7861 1034.181,-117.791 1132.5,-87 1134.1605,-86.48 1135.8433,-85.8866 1137.5233,-85.2422"/>
<polygon fill="#191970" stroke="#191970" points="1139.1635,-88.3458 1146.941,-81.1513 1136.3745,-81.9253 1139.1635,-88.3458"/>
</g>
<!-- Node1&#45;&gt;Node10 -->
<g id="edge79" class="edge">
<title>Node1&#45;&gt;Node10</title>
<path fill="none" stroke="#191970" d="M988.1751,-323.7107C1080.0475,-316.3316 1254.9592,-300.5269 1402.5,-277 1544.2754,-254.3925 1579.8674,-247.3144 1718.5,-210 1783.6616,-192.4611 1858.053,-166.8218 1900.9194,-151.4851"/>
<polygon fill="#191970" stroke="#191970" points="1902.374,-154.6815 1910.6002,-148.0046 1900.0058,-148.0943 1902.374,-154.6815"/>
</g>
<!-- Node17 -->
<g id="node18" class="node">
<title>Node17</title>
<polygon fill="none" stroke="#bfbfbf" points="955,-129 955,-148 1098,-148 1098,-129 955,-129"/>
<text text-anchor="middle" x="1026.5" y="-136" font-family="Helvetica,sans-Serif" font-size="10.00" fill="#000000">boost/functional/hash.hpp</text>
</g>
<!-- Node1&#45;&gt;Node17 -->
<g id="edge83" class="edge">
<title>Node1&#45;&gt;Node17</title>
<path fill="none" stroke="#191970" d="M941.5024,-318.9893C966.4894,-303.7808 1008.1479,-272.9533 988.5,-246 955.7167,-201.0273 844.1619,-235.2938 876.5,-190 887.9188,-174.0065 933.2402,-159.8369 971.1061,-150.4297"/>
<polygon fill="#191970" stroke="#191970" points="972.1529,-153.7775 981.0493,-148.0239 970.5067,-146.9738 972.1529,-153.7775"/>
</g>
<!-- Node1&#45;&gt;Node23 -->
<g id="edge86" class="edge">
<title>Node1&#45;&gt;Node23</title>
<path fill="none" stroke="#191970" d="M860.6304,-327.1347C730.1705,-323.6478 437.5636,-312.0578 344.5,-277 257.9013,-244.3776 234.3377,-226.2382 176.5,-154 161.2939,-135.0079 151.2684,-108.6033 145.7464,-90.8263"/>
<polygon fill="#191970" stroke="#191970" points="149.0449,-89.6354 142.884,-81.016 142.3251,-91.5961 149.0449,-89.6354"/>
</g>
<!-- Node1&#45;&gt;Node26 -->
<g id="edge32" class="edge">
<title>Node1&#45;&gt;Node26</title>
<path fill="none" stroke="#191970" d="M988.0085,-322.2859C1064.5354,-314.5944 1196.5435,-299.6704 1308.5,-277 1400.5712,-258.3562 1506.9596,-225.8782 1561.1572,-209.7144"/>
<polygon fill="#191970" stroke="#191970" points="1562.3784,-213.0029 1570.968,-206.8006 1560.3853,-206.2926 1562.3784,-213.0029"/>
</g>
<!-- Node28 -->
<g id="node29" class="node">
<title>Node28</title>
<g id="a_node29"><a xlink:href="Wavefunction_8h.html" target="_top" xlink:title="Wavefunction.h">
<polygon fill="none" stroke="#000000" points="1036,-252 1036,-271 1129,-271 1129,-252 1036,-252"/>
<text text-anchor="middle" x="1082.5" y="-259" font-family="Helvetica,sans-Serif" font-size="10.00" fill="#000000">Wavefunction.h</text>
</a>
</g>
</g>
<!-- Node1&#45;&gt;Node28 -->
<g id="edge44" class="edge">
<title>Node1&#45;&gt;Node28</title>
<path fill="none" stroke="#191970" d="M947.1375,-318.9005C974.2401,-307.4077 1019.8099,-288.0838 1050.5039,-275.068"/>
<polygon fill="#191970" stroke="#191970" points="1052.0644,-278.208 1059.9044,-271.0817 1049.3316,-271.7635 1052.0644,-278.208"/>
</g>
<!-- Node1&#45;&gt;Node32 -->
<g id="edge90" class="edge">
<title>Node1&#45;&gt;Node32</title>
<path fill="none" stroke="#191970" d="M860.9208,-325.8339C707.3061,-319.0589 324.6713,-300.0732 271.5,-277 173.3873,-234.425 89.9162,-130.9352 59.1487,-89.2923"/>
<polygon fill="#191970" stroke="#191970" points="61.9554,-87.2008 53.2423,-81.1731 56.2948,-91.3187 61.9554,-87.2008"/>
</g>
<!-- Node41 -->
<g id="node42" class="node">
<title>Node41</title>
<g id="a_node42"><a xlink:href="utils_8h.html" target="_top" xlink:title="utils.h">
<polygon fill="none" stroke="#000000" points="814,-62 814,-81 861,-81 861,-62 814,-62"/>
<text text-anchor="middle" x="837.5" y="-69" font-family="Helvetica,sans-Serif" font-size="10.00" fill="#000000">utils.h</text>
</a>
</g>
</g>
<!-- Node1&#45;&gt;Node41 -->
<g id="edge80" class="edge">
<title>Node1&#45;&gt;Node41</title>
<path fill="none" stroke="#191970" d="M860.6411,-325.8866C741.7248,-320.3608 496.0262,-305.5855 470.5,-277 408.3172,-207.3647 511.1204,-261.0276 587.5,-210 629.234,-182.1184 617.0132,-149.7205 659.5,-123 715.7089,-87.6496 741.9276,-109.2211 804.5,-87 806.1403,-86.4175 807.809,-85.7813 809.481,-85.1096"/>
<polygon fill="#191970" stroke="#191970" points="811.1471,-88.2017 818.92,-81.0022 808.354,-81.783 811.1471,-88.2017"/>
</g>
<!-- Node46 -->
<g id="node47" class="node">
<title>Node46</title>
<polygon fill="none" stroke="#bfbfbf" points="227,-129 227,-148 268,-148 268,-129 227,-129"/>
<text text-anchor="middle" x="247.5" y="-136" font-family="Helvetica,sans-Serif" font-size="10.00" fill="#000000">tuple</text>
</g>
<!-- Node1&#45;&gt;Node46 -->
<g id="edge89" class="edge">
<title>Node1&#45;&gt;Node46</title>
<path fill="none" stroke="#191970" d="M860.6642,-327.4251C738.4175,-324.5343 476.1501,-314.0765 394.5,-277 334.0591,-249.5544 282.6216,-186.9604 259.9244,-156.2116"/>
<polygon fill="#191970" stroke="#191970" points="262.7567,-154.1553 254.062,-148.1011 257.0835,-158.256 262.7567,-154.1553"/>
</g>
<!-- Node49 -->
<g id="node50" class="node">
<title>Node49</title>
<polygon fill="none" stroke="#bfbfbf" points="513,-246.5 513,-276.5 716,-276.5 716,-246.5 513,-246.5"/>
<text text-anchor="start" x="521" y="-264.5" font-family="Helvetica,sans-Serif" font-size="10.00" fill="#000000">wignerSymbols/include</text>
<text text-anchor="middle" x="614.5" y="-253.5" font-family="Helvetica,sans-Serif" font-size="10.00" fill="#000000">/wignerSymbols/wignerSymbols&#45;cpp.h</text>
</g>
<!-- Node1&#45;&gt;Node49 -->
<g id="edge81" class="edge">
<title>Node1&#45;&gt;Node49</title>
<path fill="none" stroke="#191970" d="M880.4138,-318.9717C832.0604,-308.5211 753.4657,-291.5345 694.2348,-278.733"/>
<polygon fill="#191970" stroke="#191970" points="694.6728,-275.2469 684.1591,-276.5553 693.194,-282.089 694.6728,-275.2469"/>
</g>
<!-- Node1&#45;&gt;Node50 -->
<g id="edge82" class="edge">
<title>Node1&#45;&gt;Node50</title>
<path fill="none" stroke="#191970" d="M988.041,-327.0824C1163.5603,-322.8662 1669.8414,-308.6748 2089.5,-277 2114.1299,-275.141 2141.0465,-272.4477 2164.9296,-269.8261"/>
<polygon fill="#191970" stroke="#191970" points="2165.4124,-273.294 2174.964,-268.7095 2164.6382,-266.337 2165.4124,-273.294"/>
</g>
<!-- Node51 -->
<g id="node52" class="node">
<title>Node51</title>
<polygon fill="none" stroke="#bfbfbf" points="734,-246.5 734,-276.5 851,-276.5 851,-246.5 734,-246.5"/>
<text text-anchor="start" x="742" y="-264.5" font-family="Helvetica,sans-Serif" font-size="10.00" fill="#000000">boost/serialization</text>
<text text-anchor="middle" x="792.5" y="-253.5" font-family="Helvetica,sans-Serif" font-size="10.00" fill="#000000">/unordered_map.hpp</text>
</g>
<!-- Node1&#45;&gt;Node51 -->
<g id="edge84" class="edge">
<title>Node1&#45;&gt;Node51</title>
<path fill="none" stroke="#191970" d="M905.5876,-318.9005C886.2448,-309.0826 855.6428,-293.5498 831.1478,-281.1167"/>
<polygon fill="#191970" stroke="#191970" points="832.5964,-277.9269 822.0951,-276.5218 829.4281,-284.1689 832.5964,-277.9269"/>
</g>
<!-- Node52 -->
<g id="node53" class="node">
<title>Node52</title>
<polygon fill="none" stroke="#bfbfbf" points="869.5,-246.5 869.5,-276.5 979.5,-276.5 979.5,-246.5 869.5,-246.5"/>
<text text-anchor="start" x="877.5" y="-264.5" font-family="Helvetica,sans-Serif" font-size="10.00" fill="#000000">boost/serialization</text>
<text text-anchor="middle" x="924.5" y="-253.5" font-family="Helvetica,sans-Serif" font-size="10.00" fill="#000000">/unordered_set.hpp</text>
</g>
<!-- Node1&#45;&gt;Node52 -->
<g id="edge85" class="edge">
<title>Node1&#45;&gt;Node52</title>
<path fill="none" stroke="#191970" d="M924.5,-318.9005C924.5,-310.5099 924.5,-297.9451 924.5,-286.7085"/>
<polygon fill="#191970" stroke="#191970" points="928.0001,-286.5217 924.5,-276.5218 921.0001,-286.5218 928.0001,-286.5217"/>
</g>
<!-- Node3 -->
<g id="node4" class="node">
<title>Node3</title>
<g id="a_node4"><a xlink:href="ConfParser_8h.html" target="_top" xlink:title="ConfParser.h">
<polygon fill="none" stroke="#000000" points="669,-129 669,-148 746,-148 746,-129 669,-129"/>
<text text-anchor="middle" x="707.5" y="-136" font-family="Helvetica,sans-Serif" font-size="10.00" fill="#000000">ConfParser.h</text>
</a>
</g>
</g>
<!-- Node2&#45;&gt;Node3 -->
<g id="edge3" class="edge">
<title>Node2&#45;&gt;Node3</title>
<path fill="none" stroke="#191970" d="M1240.7716,-251.8827C1199.2113,-236.6849 1114.4785,-207.091 1040.5,-190 934.5515,-165.5231 905.8813,-171.1302 798.5,-154 784.8797,-151.8272 770.1326,-149.3635 756.5555,-147.0501"/>
<polygon fill="#191970" stroke="#191970" points="756.8866,-143.5559 746.4393,-145.3176 755.7049,-150.4555 756.8866,-143.5559"/>
</g>
<!-- Node2&#45;&gt;Node6 -->
<g id="edge29" class="edge">
<title>Node2&#45;&gt;Node6</title>
<path fill="none" stroke="#191970" d="M1236.8969,-251.9573C1207.0068,-241.6521 1163.9399,-224.7306 1154.5,-210 1130.971,-173.2836 1145.6862,-119.3035 1156.3465,-90.7891"/>
<polygon fill="#191970" stroke="#191970" points="1159.7174,-91.7828 1160.1453,-81.1966 1153.2091,-89.2053 1159.7174,-91.7828"/>
</g>
<!-- Node8 -->
<g id="node9" class="node">
<title>Node8</title>
<g id="a_node9"><a xlink:href="Iter_8h.html" target="_top" xlink:title="Iter.h">
<polygon fill="none" stroke="#000000" points="1237,-190.5 1237,-209.5 1278,-209.5 1278,-190.5 1237,-190.5"/>
<text text-anchor="middle" x="1257.5" y="-197.5" font-family="Helvetica,sans-Serif" font-size="10.00" fill="#000000">Iter.h</text>
</a>
</g>
</g>
<!-- Node2&#45;&gt;Node8 -->
<g id="edge8" class="edge">
<title>Node2&#45;&gt;Node8</title>
<path fill="none" stroke="#191970" d="M1265.0938,-251.8906C1263.8462,-243.3657 1261.9838,-230.6392 1260.4156,-219.9235"/>
<polygon fill="#191970" stroke="#191970" points="1263.8373,-219.1326 1258.9261,-209.7449 1256.911,-220.1463 1263.8373,-219.1326"/>
</g>
<!-- Node9 -->
<g id="node10" class="node">
<title>Node9</title>
<g id="a_node10"><a xlink:href="StateOld_8h.html" target="_top" xlink:title="StateOld.h">
<polygon fill="none" stroke="#000000" points="1334.5,-190.5 1334.5,-209.5 1402.5,-209.5 1402.5,-190.5 1334.5,-190.5"/>
<text text-anchor="middle" x="1368.5" y="-197.5" font-family="Helvetica,sans-Serif" font-size="10.00" fill="#000000">StateOld.h</text>
</a>
</g>
</g>
<!-- Node2&#45;&gt;Node9 -->
<g id="edge9" class="edge">
<title>Node2&#45;&gt;Node9</title>
<path fill="none" stroke="#191970" d="M1282.4375,-251.8906C1298.9051,-241.9616 1324.8258,-226.333 1343.9204,-214.8201"/>
<polygon fill="#191970" stroke="#191970" points="1345.9178,-217.7027 1352.6744,-209.5419 1342.3034,-211.7081 1345.9178,-217.7027"/>
</g>
<!-- Node2&#45;&gt;Node10 -->
<g id="edge25" class="edge">
<title>Node2&#45;&gt;Node10</title>
<path fill="none" stroke="#191970" d="M1309.1984,-257.7898C1382.381,-251.0269 1536.2848,-235.0397 1664.5,-210 1709.1916,-201.272 1833.1519,-167.3061 1897.1457,-149.5123"/>
<polygon fill="#191970" stroke="#191970" points="1898.1855,-152.856 1906.8801,-146.8017 1896.3077,-146.1126 1898.1855,-152.856"/>
</g>
<!-- Node2&#45;&gt;Node16 -->
<g id="edge31" class="edge">
<title>Node2&#45;&gt;Node16</title>
<path fill="none" stroke="#191970" d="M1309.0227,-257.7757C1389.3106,-250.4955 1568.6211,-233.0536 1718.5,-210 1764.5908,-202.9106 1775.7151,-198.8522 1821.5,-190 1904.5983,-173.9335 1933.3262,-192.889 2008.5,-154 2038.9374,-138.2541 2065.9893,-108.3479 2081.2951,-89.1964"/>
<polygon fill="#191970" stroke="#191970" points="2084.102,-91.2883 2087.4709,-81.2433 2078.5732,-86.995 2084.102,-91.2883"/>
</g>
<!-- Node22 -->
<g id="node23" class="node">
<title>Node22</title>
<polygon fill="none" stroke="#bfbfbf" points="1164,-190.5 1164,-209.5 1219,-209.5 1219,-190.5 1164,-190.5"/>
<text text-anchor="middle" x="1191.5" y="-197.5" font-family="Helvetica,sans-Serif" font-size="10.00" fill="#000000">fstream</text>
</g>
<!-- Node2&#45;&gt;Node22 -->
<g id="edge26" class="edge">
<title>Node2&#45;&gt;Node22</title>
<path fill="none" stroke="#191970" d="M1254.7813,-251.8906C1243.1812,-242.3786 1225.2021,-227.6357 1211.3679,-216.2917"/>
<polygon fill="#191970" stroke="#191970" points="1213.336,-213.3792 1203.384,-209.7449 1208.8974,-218.7921 1213.336,-213.3792"/>
</g>
<!-- Node2&#45;&gt;Node23 -->
<g id="edge27" class="edge">
<title>Node2&#45;&gt;Node23</title>
<path fill="none" stroke="#191970" d="M1223.8668,-255.6608C1198.7667,-252.4023 1166.377,-248.5068 1137.5,-246 839.9678,-220.1719 762.3361,-250.9084 466.5,-210 354.1383,-194.4625 315.9069,-210.415 217.5,-154 189.6008,-138.0059 165.8231,-108.6057 152.3511,-89.5659"/>
<polygon fill="#191970" stroke="#191970" points="155.1301,-87.4294 146.5926,-81.1555 149.3542,-91.3841 155.1301,-87.4294"/>
</g>
<!-- Node2&#45;&gt;Node24 -->
<g id="edge28" class="edge">
<title>Node2&#45;&gt;Node24</title>
<path fill="none" stroke="#191970" d="M1309.0833,-260.81C1402.1413,-258.586 1630.2168,-249.2294 1816.5,-210 1817.9438,-209.696 1819.4151,-209.3455 1820.8921,-208.9618"/>
<polygon fill="#191970" stroke="#191970" points="1821.9192,-212.3079 1830.4943,-206.0855 1819.9105,-205.6023 1821.9192,-212.3079"/>
</g>
<!-- Node2&#45;&gt;Node25 -->
<g id="edge30" class="edge">
<title>Node2&#45;&gt;Node25</title>
<path fill="none" stroke="#191970" d="M1309.2137,-259.4103C1406.8499,-254.3017 1653.9833,-239.4901 1870.4683,-210.014"/>
<polygon fill="#191970" stroke="#191970" points="1870.9977,-213.4742 1880.4276,-208.6445 1870.044,-206.5394 1870.9977,-213.4742"/>
</g>
<!-- Node4 -->
<g id="node5" class="node">
<title>Node4</title>
<polygon fill="none" stroke="#bfbfbf" points="1022.5,-62 1022.5,-81 1060.5,-81 1060.5,-62 1022.5,-62"/>
<text text-anchor="middle" x="1041.5" y="-69" font-family="Helvetica,sans-Serif" font-size="10.00" fill="#000000">map</text>
</g>
<!-- Node3&#45;&gt;Node4 -->
<g id="edge4" class="edge">
<title>Node3&#45;&gt;Node4</title>
<path fill="none" stroke="#191970" d="M737.3,-128.9768C744.8178,-126.7982 752.9105,-124.6431 760.5,-123 871.0753,-99.0606 904.9779,-122.1995 1012.5,-87 1013.9242,-86.5338 1015.3612,-86.0002 1016.7934,-85.4179"/>
<polygon fill="#191970" stroke="#191970" points="1018.4464,-88.5079 1025.9897,-81.0682 1015.4534,-82.1801 1018.4464,-88.5079"/>
</g>
<!-- Node3&#45;&gt;Node5 -->
<g id="edge5" class="edge">
<title>Node3&#45;&gt;Node5</title>
<path fill="none" stroke="#191970" d="M668.8944,-129.8781C611.1196,-116.975 502.8348,-92.7914 445.4467,-79.9748"/>
<polygon fill="#191970" stroke="#191970" points="446.2046,-76.5579 435.6822,-77.794 444.6788,-83.3896 446.2046,-76.5579"/>
</g>
<!-- Node3&#45;&gt;Node6 -->
<g id="edge6" class="edge">
<title>Node3&#45;&gt;Node6</title>
<path fill="none" stroke="#191970" d="M736.4175,-128.9762C744.1683,-126.7178 752.5928,-124.5248 760.5,-123 923.6009,-91.5485 972.5804,-131.9091 1132.5,-87 1134.4166,-86.4618 1136.3582,-85.8132 1138.288,-85.0905"/>
<polygon fill="#191970" stroke="#191970" points="1139.8831,-88.2139 1147.6692,-81.0287 1137.1018,-81.7902 1139.8831,-88.2139"/>
</g>
<!-- Node7 -->
<g id="node8" class="node">
<title>Node7</title>
<polygon fill="none" stroke="#bfbfbf" points="879,-62 879,-81 1004,-81 1004,-62 879,-62"/>
<text text-anchor="middle" x="941.5" y="-69" font-family="Helvetica,sans-Serif" font-size="10.00" fill="#000000">boost/lexical_cast.hpp</text>
</g>
<!-- Node3&#45;&gt;Node7 -->
<g id="edge7" class="edge">
<title>Node3&#45;&gt;Node7</title>
<path fill="none" stroke="#191970" d="M740.0027,-128.9537C746.7741,-126.9764 753.868,-124.9133 760.5,-123 807.4132,-109.4661 861.2377,-94.1825 897.9159,-83.8045"/>
<polygon fill="#191970" stroke="#191970" points="899.1162,-87.1024 907.7863,-81.013 897.2112,-80.3666 899.1162,-87.1024"/>
</g>
<!-- Node9&#45;&gt;Node6 -->
<g id="edge21" class="edge">
<title>Node9&#45;&gt;Node6</title>
<path fill="none" stroke="#191970" d="M1334.2877,-192.6956C1295.1756,-183.8376 1234.1482,-168.3119 1215.5,-154 1194.0852,-137.5649 1179.4914,-109.3612 1171.5736,-90.5735"/>
<polygon fill="#191970" stroke="#191970" points="1174.8089,-89.2374 1167.8607,-81.2391 1168.3046,-91.8247 1174.8089,-89.2374"/>
</g>
<!-- Node9&#45;&gt;Node10 -->
<g id="edge10" class="edge">
<title>Node9&#45;&gt;Node10</title>
<path fill="none" stroke="#191970" d="M1402.5042,-198.0129C1482.3867,-193.0826 1688.1352,-178.8571 1858.5,-154 1871.0945,-152.1624 1884.733,-149.6383 1897.0305,-147.1604"/>
<polygon fill="#191970" stroke="#191970" points="1897.9057,-150.5536 1906.9926,-145.1059 1896.4918,-143.6979 1897.9057,-150.5536"/>
</g>
<!-- Node13 -->
<g id="node14" class="node">
<title>Node13</title>
<polygon fill="none" stroke="#bfbfbf" points="1590.5,-62 1590.5,-81 1632.5,-81 1632.5,-62 1590.5,-62"/>
<text text-anchor="middle" x="1611.5" y="-69" font-family="Helvetica,sans-Serif" font-size="10.00" fill="#000000">array</text>
</g>
<!-- Node9&#45;&gt;Node13 -->
<g id="edge17" class="edge">
<title>Node9&#45;&gt;Node13</title>
<path fill="none" stroke="#191970" d="M1337.4006,-190.4219C1309.92,-181.2548 1272.9298,-166.9462 1264.5,-154 1256.982,-142.4541 1255.5011,-133.433 1264.5,-123 1285.0573,-99.1665 1498.6756,-80.2434 1580.1588,-73.841"/>
<polygon fill="#191970" stroke="#191970" points="1580.6058,-77.317 1590.3056,-73.0551 1580.0652,-70.3379 1580.6058,-77.317"/>
</g>
<!-- Node14 -->
<g id="node15" class="node">
<title>Node14</title>
<polygon fill="none" stroke="#bfbfbf" points="1651,-62 1651,-81 1698,-81 1698,-62 1651,-62"/>
<text text-anchor="middle" x="1674.5" y="-69" font-family="Helvetica,sans-Serif" font-size="10.00" fill="#000000">cmath</text>
</g>
<!-- Node9&#45;&gt;Node14 -->
<g id="edge19" class="edge">
<title>Node9&#45;&gt;Node14</title>
<path fill="none" stroke="#191970" d="M1341.899,-190.397C1325.9127,-183.0839 1306.9002,-171.291 1297.5,-154 1290.9193,-141.8954 1288.2786,-133.2368 1297.5,-123 1348.9435,-65.892 1567.4575,-107.6268 1641.5,-87 1643.4207,-86.4649 1645.3684,-85.8269 1647.3073,-85.1192"/>
<polygon fill="#191970" stroke="#191970" points="1648.8935,-88.2495 1656.7636,-81.1564 1646.1879,-81.7935 1648.8935,-88.2495"/>
</g>
<!-- Node9&#45;&gt;Node17 -->
<g id="edge18" class="edge">
<title>Node9&#45;&gt;Node17</title>
<path fill="none" stroke="#191970" d="M1334.4385,-192.7636C1329.7601,-191.8107 1325.0144,-190.8654 1320.5,-190 1243.0445,-175.1517 1153.7726,-159.756 1094.1106,-149.7118"/>
<polygon fill="#191970" stroke="#191970" points="1094.503,-146.2287 1084.0613,-148.0234 1093.3432,-153.132 1094.503,-146.2287"/>
</g>
<!-- Node18 -->
<g id="node19" class="node">
<title>Node18</title>
<polygon fill="none" stroke="#bfbfbf" points="1204.5,-62 1204.5,-81 1264.5,-81 1264.5,-62 1204.5,-62"/>
<text text-anchor="middle" x="1234.5" y="-69" font-family="Helvetica,sans-Serif" font-size="10.00" fill="#000000">iostream</text>
</g>
<!-- Node9&#45;&gt;Node18 -->
<g id="edge20" class="edge">
<title>Node9&#45;&gt;Node18</title>
<path fill="none" stroke="#191970" d="M1334.4359,-191.2103C1294.5428,-180.5766 1233.0346,-162.9858 1226.5,-154 1213.1992,-135.71 1219.2438,-108.785 1225.8944,-90.7197"/>
<polygon fill="#191970" stroke="#191970" points="1229.2244,-91.8215 1229.7386,-81.2391 1222.7374,-89.1911 1229.2244,-91.8215"/>
</g>
<!-- Node19 -->
<g id="node20" class="node">
<title>Node19</title>
<polygon fill="none" stroke="#bfbfbf" points="1553,-123.5 1553,-153.5 1660,-153.5 1660,-123.5 1553,-123.5"/>
<text text-anchor="start" x="1561" y="-141.5" font-family="Helvetica,sans-Serif" font-size="10.00" fill="#000000">boost/serialization</text>
<text text-anchor="middle" x="1606.5" y="-130.5" font-family="Helvetica,sans-Serif" font-size="10.00" fill="#000000">/array.hpp</text>
</g>
<!-- Node9&#45;&gt;Node19 -->
<g id="edge22" class="edge">
<title>Node9&#45;&gt;Node19</title>
<path fill="none" stroke="#191970" d="M1402.5996,-191.1885C1439.1224,-181.7509 1497.9085,-166.5604 1542.9972,-154.9093"/>
<polygon fill="#191970" stroke="#191970" points="1543.8806,-158.2961 1552.6869,-152.4055 1542.1293,-151.5187 1543.8806,-158.2961"/>
</g>
<!-- Node20 -->
<g id="node21" class="node">
<title>Node20</title>
<polygon fill="none" stroke="#bfbfbf" points="1307,-123.5 1307,-153.5 1414,-153.5 1414,-123.5 1307,-123.5"/>
<text text-anchor="start" x="1315" y="-141.5" font-family="Helvetica,sans-Serif" font-size="10.00" fill="#000000">boost/serialization</text>
<text text-anchor="middle" x="1360.5" y="-130.5" font-family="Helvetica,sans-Serif" font-size="10.00" fill="#000000">/string.hpp</text>
</g>
<!-- Node9&#45;&gt;Node20 -->
<g id="edge23" class="edge">
<title>Node9&#45;&gt;Node20</title>
<path fill="none" stroke="#191970" d="M1367.25,-190.3906C1366.3177,-183.2234 1364.999,-173.0862 1363.7743,-163.671"/>
<polygon fill="#191970" stroke="#191970" points="1367.2178,-163.0095 1362.457,-153.5446 1360.2763,-163.9126 1367.2178,-163.0095"/>
</g>
<!-- Node21 -->
<g id="node22" class="node">
<title>Node21</title>
<polygon fill="none" stroke="#bfbfbf" points="1432.5,-129 1432.5,-148 1534.5,-148 1534.5,-129 1432.5,-129"/>
<text text-anchor="middle" x="1483.5" y="-136" font-family="Helvetica,sans-Serif" font-size="10.00" fill="#000000">boost/variant.hpp</text>
</g>
<!-- Node9&#45;&gt;Node21 -->
<g id="edge24" class="edge">
<title>Node9&#45;&gt;Node21</title>
<path fill="none" stroke="#191970" d="M1386.4688,-190.3906C1405.2884,-180.3262 1435.0585,-164.4057 1456.6641,-152.8514"/>
<polygon fill="#191970" stroke="#191970" points="1458.4898,-155.8442 1465.6574,-148.0419 1455.1886,-149.6714 1458.4898,-155.8442"/>
</g>
<!-- Node11 -->
<g id="node12" class="node">
<title>Node11</title>
<polygon fill="none" stroke="#bfbfbf" points="1877,-62 1877,-81 1954,-81 1954,-62 1877,-62"/>
<text text-anchor="middle" x="1915.5" y="-69" font-family="Helvetica,sans-Serif" font-size="10.00" fill="#000000">Eigen/Dense</text>
</g>
<!-- Node10&#45;&gt;Node11 -->
<g id="edge11" class="edge">
<title>Node10&#45;&gt;Node11</title>
<path fill="none" stroke="#191970" d="M1933.4912,-128.9005C1930.4036,-119.0495 1925.5126,-103.4451 1921.6092,-90.9912"/>
<polygon fill="#191970" stroke="#191970" points="1924.8339,-89.5771 1918.5032,-81.0817 1918.1543,-91.6707 1924.8339,-89.5771"/>
</g>
<!-- Node12 -->
<g id="node13" class="node">
<title>Node12</title>
<polygon fill="none" stroke="#bfbfbf" points="1972.5,-62 1972.5,-81 2052.5,-81 2052.5,-62 1972.5,-62"/>
<text text-anchor="middle" x="2012.5" y="-69" font-family="Helvetica,sans-Serif" font-size="10.00" fill="#000000">Eigen/Sparse</text>
</g>
<!-- Node10&#45;&gt;Node12 -->
<g id="edge12" class="edge">
<title>Node10&#45;&gt;Node12</title>
<path fill="none" stroke="#191970" d="M1947.3889,-128.9005C1959.4662,-118.2535 1979.1671,-100.8856 1993.74,-88.0385"/>
<polygon fill="#191970" stroke="#191970" points="1996.4445,-90.3201 2001.6313,-81.0817 1991.8154,-85.0692 1996.4445,-90.3201"/>
</g>
<!-- Node10&#45;&gt;Node13 -->
<g id="edge13" class="edge">
<title>Node10&#45;&gt;Node13</title>
<path fill="none" stroke="#191970" d="M1906.9113,-132.3902C1892.3519,-129.4426 1874.5276,-125.9212 1858.5,-123 1762.3218,-105.4705 1734.2798,-117.8128 1641.5,-87 1640.0743,-86.5265 1638.6335,-85.9925 1637.1948,-85.4149"/>
<polygon fill="#191970" stroke="#191970" points="1638.4628,-82.1457 1627.915,-81.148 1635.5384,-88.5056 1638.4628,-82.1457"/>
</g>
<!-- Node10&#45;&gt;Node14 -->
<g id="edge14" class="edge">
<title>Node10&#45;&gt;Node14</title>
<path fill="none" stroke="#191970" d="M1911.1077,-128.8391C1905.0631,-126.7393 1898.5968,-124.6542 1892.5,-123 1811.2371,-100.9518 1786.3965,-113.5768 1706.5,-87 1704.8489,-86.4508 1703.1735,-85.8346 1701.4991,-85.1729"/>
<polygon fill="#191970" stroke="#191970" points="1702.6596,-81.8596 1692.097,-81.0336 1699.839,-88.2663 1702.6596,-81.8596"/>
</g>
<!-- Node15 -->
<g id="node16" class="node">
<title>Node15</title>
<polygon fill="none" stroke="#bfbfbf" points="1716,-56.5 1716,-86.5 1859,-86.5 1859,-56.5 1716,-56.5"/>
<text text-anchor="start" x="1724" y="-74.5" font-family="Helvetica,sans-Serif" font-size="10.00" fill="#000000">unsupported/Eigen/CXX11</text>
<text text-anchor="middle" x="1787.5" y="-63.5" font-family="Helvetica,sans-Serif" font-size="10.00" fill="#000000">/Tensor</text>
</g>
<!-- Node10&#45;&gt;Node15 -->
<g id="edge15" class="edge">
<title>Node10&#45;&gt;Node15</title>
<path fill="none" stroke="#191970" d="M1915.1519,-128.9005C1893.0294,-118.9528 1857.8596,-103.1382 1830.0326,-90.6254"/>
<polygon fill="#191970" stroke="#191970" points="1831.4624,-87.4308 1820.9066,-86.5218 1828.5916,-93.8151 1831.4624,-87.4308"/>
</g>
<!-- Node10&#45;&gt;Node16 -->
<g id="edge16" class="edge">
<title>Node10&#45;&gt;Node16</title>
<path fill="none" stroke="#191970" d="M1960.609,-128.9688C1985.8901,-118.8806 2026.7038,-102.3292 2061.5,-87 2062.8395,-86.4099 2064.2063,-85.7999 2065.5845,-85.1785"/>
<polygon fill="#191970" stroke="#191970" points="2067.0524,-88.3559 2074.6776,-81 2064.1296,-81.9953 2067.0524,-88.3559"/>
</g>
<!-- Node26&#45;&gt;Node1 -->
<g id="edge33" class="edge">
<title>Node26&#45;&gt;Node1</title>
<path fill="none" stroke="#191970" d="M1572.5609,-209.5725C1525.5844,-225.6874 1418.8415,-258.3015 1326.5,-277 1213.3145,-299.9193 1079.6347,-314.9211 998.4373,-322.5365"/>
<polygon fill="#191970" stroke="#191970" points="997.9477,-319.0668 988.3126,-323.4732 998.5925,-326.037 997.9477,-319.0668"/>
</g>
<!-- Node26&#45;&gt;Node6 -->
<g id="edge39" class="edge">
<title>Node26&#45;&gt;Node6</title>
<path fill="none" stroke="#191970" d="M1622.0216,-191.1329C1638.5117,-183.9175 1658.6658,-171.953 1668.5,-154 1675.1191,-141.9164 1677.8654,-133.1053 1668.5,-123 1632.6722,-84.3418 1246.3007,-101.0489 1195.5,-87 1193.7855,-86.5259 1192.0536,-85.9545 1190.3312,-85.3148"/>
<polygon fill="#191970" stroke="#191970" points="1191.3197,-81.926 1180.7569,-81.1028 1188.5009,-88.3334 1191.3197,-81.926"/>
</g>
<!-- Node26&#45;&gt;Node10 -->
<g id="edge34" class="edge">
<title>Node26&#45;&gt;Node10</title>
<path fill="none" stroke="#191970" d="M1622.2316,-193.1437C1626.9579,-192.0052 1631.8627,-190.9031 1636.5,-190 1749.2784,-168.0362 1780.8742,-181.2225 1892.5,-154 1895.726,-153.2133 1899.0474,-152.2809 1902.3507,-151.2699"/>
<polygon fill="#191970" stroke="#191970" points="1903.6865,-154.5151 1912.0933,-148.0671 1901.5004,-147.8652 1903.6865,-154.5151"/>
</g>
<!-- Node26&#45;&gt;Node13 -->
<g id="edge35" class="edge">
<title>Node26&#45;&gt;Node13</title>
<path fill="none" stroke="#191970" d="M1622.2534,-193.5272C1661.7164,-183.3537 1733.3604,-163.7757 1740.5,-154 1748.626,-142.8737 1748.4043,-134.2849 1740.5,-123 1713.6402,-84.6522 1684.3855,-105.7839 1641.5,-87 1640.4797,-86.5531 1639.4456,-86.0872 1638.4054,-85.6075"/>
<polygon fill="#191970" stroke="#191970" points="1639.6071,-82.2995 1629.0848,-81.0616 1636.5385,-88.5911 1639.6071,-82.2995"/>
</g>
<!-- Node26&#45;&gt;Node14 -->
<g id="edge37" class="edge">
<title>Node26&#45;&gt;Node14</title>
<path fill="none" stroke="#191970" d="M1622.2477,-193.2243C1626.9724,-192.0776 1631.8725,-190.9519 1636.5,-190 1685.4528,-179.9304 1826.1121,-192.0631 1858.5,-154 1867.4286,-143.5068 1867.0463,-133.8068 1858.5,-123 1815.4363,-68.5457 1771.9081,-110.2708 1706.5,-87 1704.9006,-86.431 1703.2756,-85.8054 1701.6489,-85.1418"/>
<polygon fill="#191970" stroke="#191970" points="1703.0397,-81.9298 1692.4808,-81.0578 1700.1913,-88.3241 1703.0397,-81.9298"/>
</g>
<!-- Node26&#45;&gt;Node17 -->
<g id="edge36" class="edge">
<title>Node26&#45;&gt;Node17</title>
<path fill="none" stroke="#191970" d="M1570.9009,-197.238C1490.3039,-188.542 1239.3687,-161.4674 1108.2156,-147.3167"/>
<polygon fill="#191970" stroke="#191970" points="1108.532,-143.8306 1098.2142,-146.2376 1107.781,-150.7902 1108.532,-143.8306"/>
</g>
<!-- Node26&#45;&gt;Node18 -->
<g id="edge38" class="edge">
<title>Node26&#45;&gt;Node18</title>
<path fill="none" stroke="#191970" d="M1622.1879,-192.4248C1650.4941,-183.4968 1693.2556,-168.0891 1702.5,-154 1710.0584,-142.4805 1711.6941,-133.2614 1702.5,-123 1674.159,-91.3692 1383.388,-77.154 1274.9646,-72.9243"/>
<polygon fill="#191970" stroke="#191970" points="1274.8825,-69.4187 1264.7563,-72.5347 1274.6155,-76.4136 1274.8825,-69.4187"/>
</g>
<!-- Node26&#45;&gt;Node19 -->
<g id="edge41" class="edge">
<title>Node26&#45;&gt;Node19</title>
<path fill="none" stroke="#191970" d="M1598.0625,-190.3906C1599.2279,-183.2234 1600.8762,-173.0862 1602.4071,-163.671"/>
<polygon fill="#191970" stroke="#191970" points="1605.9033,-163.9767 1604.0537,-153.5446 1598.9941,-162.8532 1605.9033,-163.9767"/>
</g>
<!-- Node26&#45;&gt;Node20 -->
<g id="edge42" class="edge">
<title>Node26&#45;&gt;Node20</title>
<path fill="none" stroke="#191970" d="M1570.7946,-193.3013C1535.8122,-184.1852 1472.0572,-167.5711 1423.884,-155.0174"/>
<polygon fill="#191970" stroke="#191970" points="1424.7233,-151.6193 1414.1639,-152.4844 1422.9581,-158.3931 1424.7233,-151.6193"/>
</g>
<!-- Node26&#45;&gt;Node21 -->
<g id="edge43" class="edge">
<title>Node26&#45;&gt;Node21</title>
<path fill="none" stroke="#191970" d="M1578.8438,-190.3906C1560.3514,-180.3262 1531.099,-164.4057 1509.8692,-152.8514"/>
<polygon fill="#191970" stroke="#191970" points="1511.4888,-149.7481 1501.0323,-148.0419 1508.1425,-155.8965 1511.4888,-149.7481"/>
</g>
<!-- Node27 -->
<g id="node28" class="node">
<title>Node27</title>
<polygon fill="none" stroke="#bfbfbf" points="1793,-129 1793,-148 1850,-148 1850,-129 1793,-129"/>
<text text-anchor="middle" x="1821.5" y="-136" font-family="Helvetica,sans-Serif" font-size="10.00" fill="#000000">typeinfo</text>
</g>
<!-- Node26&#45;&gt;Node27 -->
<g id="edge40" class="edge">
<title>Node26&#45;&gt;Node27</title>
<path fill="none" stroke="#191970" d="M1622.0248,-193.6192C1670.3203,-181.5363 1770.9422,-156.3111 1778.5,-154 1781.1133,-153.2009 1783.8017,-152.3362 1786.4976,-151.4382"/>
<polygon fill="#191970" stroke="#191970" points="1787.8632,-154.6695 1796.173,-148.0971 1785.5783,-148.0529 1787.8632,-154.6695"/>
</g>
<!-- Node28&#45;&gt;Node6 -->
<g id="edge77" class="edge">
<title>Node28&#45;&gt;Node6</title>
<path fill="none" stroke="#191970" d="M1059.3119,-251.9699C1037.6359,-242.6158 1004.7614,-227.2697 978.5,-210 946.3577,-188.863 928.6623,-188.9096 912.5,-154 906.7115,-141.4972 903.5789,-133.4996 912.5,-123 944.5766,-85.2479 1085.2716,-101.9535 1132.5,-87 1134.1588,-86.4748 1135.8403,-85.8773 1137.5194,-85.2298"/>
<polygon fill="#191970" stroke="#191970" points="1139.1632,-88.3316 1146.9344,-81.1303 1136.3686,-81.9136 1139.1632,-88.3316"/>
</g>
<!-- Node28&#45;&gt;Node10 -->
<g id="edge74" class="edge">
<title>Node28&#45;&gt;Node10</title>
<path fill="none" stroke="#191970" d="M1129.1956,-255.6644C1154.4333,-252.5994 1186.1504,-248.8904 1214.5,-246 1399.1228,-227.1764 1450.9904,-257.0766 1630.5,-210 1651.2783,-204.5509 1653.988,-196.3788 1674.5,-190 1761.579,-162.9204 1787.3992,-173.4188 1876.5,-154 1883.1389,-152.5531 1890.1539,-150.8767 1896.9554,-149.1722"/>
<polygon fill="#191970" stroke="#191970" points="1897.8791,-152.5487 1906.6988,-146.6781 1896.1432,-145.7673 1897.8791,-152.5487"/>
</g>
<!-- Node28&#45;&gt;Node16 -->
<g id="edge78" class="edge">
<title>Node28&#45;&gt;Node16</title>
<path fill="none" stroke="#191970" d="M1129.1878,-255.5864C1154.4232,-252.4989 1186.1407,-248.7934 1214.5,-246 1415.0545,-226.2453 1470.6146,-257.342 1666.5,-210 1688.9643,-204.5708 1692.2029,-196.0795 1714.5,-190 1827.0493,-159.3124 1868.8757,-203.5237 1974.5,-154 1993.0152,-145.3189 1992.0906,-135.2027 2008.5,-123 2027.1169,-109.1557 2049.6659,-95.7644 2067.0032,-86.1086"/>
<polygon fill="#191970" stroke="#191970" points="2068.9576,-89.0285 2076.0407,-81.1494 2065.5901,-82.8917 2068.9576,-89.0285"/>
</g>
<!-- Node29 -->
<g id="node30" class="node">
<title>Node29</title>
<g id="a_node30"><a xlink:href="QuantumDefect_8h.html" target="_top" xlink:title="QuantumDefect.h">
<polygon fill="none" stroke="#000000" points="476,-190.5 476,-209.5 579,-209.5 579,-190.5 476,-190.5"/>
<text text-anchor="middle" x="527.5" y="-197.5" font-family="Helvetica,sans-Serif" font-size="10.00" fill="#000000">QuantumDefect.h</text>
</a>
</g>
</g>
<!-- Node28&#45;&gt;Node29 -->
<g id="edge45" class="edge">
<title>Node28&#45;&gt;Node29</title>
<path fill="none" stroke="#191970" d="M1035.7307,-253.1827C1020.6812,-250.6687 1003.9133,-248.0377 988.5,-246 846.027,-227.165 677.8627,-212.2136 589.2734,-204.8998"/>
<polygon fill="#191970" stroke="#191970" points="589.3843,-201.3972 579.1314,-204.0672 588.8115,-208.3738 589.3843,-201.3972"/>
</g>
<!-- Node47 -->
<g id="node48" class="node">
<title>Node47</title>
<polygon fill="none" stroke="#bfbfbf" points="885.5,-190.5 885.5,-209.5 931.5,-209.5 931.5,-190.5 885.5,-190.5"/>
<text text-anchor="middle" x="908.5" y="-197.5" font-family="Helvetica,sans-Serif" font-size="10.00" fill="#000000">cstdio</text>
</g>
<!-- Node28&#45;&gt;Node47 -->
<g id="edge75" class="edge">
<title>Node28&#45;&gt;Node47</title>
<path fill="none" stroke="#191970" d="M1055.3125,-251.8906C1024.4757,-240.9914 974.2077,-223.2243 941.2408,-211.5722"/>
<polygon fill="#191970" stroke="#191970" points="942.2006,-208.1993 931.6059,-208.1667 939.8679,-214.7992 942.2006,-208.1993"/>
</g>
<!-- Node28&#45;&gt;Node48 -->
<g id="edge76" class="edge">
<title>Node28&#45;&gt;Node48</title>
<path fill="none" stroke="#191970" d="M1071.0938,-251.8906C1059.8031,-242.3786 1042.3033,-227.6357 1028.8381,-216.2917"/>
<polygon fill="#191970" stroke="#191970" points="1030.9699,-213.5111 1021.0671,-209.7449 1026.4598,-218.8646 1030.9699,-213.5111"/>
</g>
<!-- Node29&#45;&gt;Node6 -->
<g id="edge70" class="edge">
<title>Node29&#45;&gt;Node6</title>
<path fill="none" stroke="#191970" d="M579.0083,-192.0054C625.3937,-184.2306 695.1921,-171.0985 754.5,-154 791.9371,-143.2069 798.6663,-132.308 836.5,-123 965.1876,-91.3396 1005.36,-124.3937 1132.5,-87 1134.3655,-86.4513 1136.2564,-85.803 1138.1382,-85.0879"/>
<polygon fill="#191970" stroke="#191970" points="1139.5314,-88.2987 1147.3118,-81.1073 1136.745,-81.8772 1139.5314,-88.2987"/>
</g>
<!-- Node29&#45;&gt;Node10 -->
<g id="edge68" class="edge">
<title>Node29&#45;&gt;Node10</title>
<path fill="none" stroke="#191970" d="M579.2737,-198.4452C816.8645,-191.2803 1793.9749,-161.4765 1858.5,-154 1871.0361,-152.5475 1884.5641,-150.1561 1896.7776,-147.6816"/>
<polygon fill="#191970" stroke="#191970" points="1897.6101,-151.0832 1906.677,-145.6022 1896.1711,-144.2327 1897.6101,-151.0832"/>
</g>
<!-- Node29&#45;&gt;Node17 -->
<g id="edge73" class="edge">
<title>Node29&#45;&gt;Node17</title>
<path fill="none" stroke="#191970" d="M579.0223,-193.6501C665.6569,-182.9727 841.1735,-161.3408 944.7745,-148.5724"/>
<polygon fill="#191970" stroke="#191970" points="945.3822,-152.0241 954.879,-147.327 944.5259,-145.0766 945.3822,-152.0241"/>
</g>
<!-- Node30 -->
<g id="node31" class="node">
<title>Node30</title>
<g id="a_node31"><a xlink:href="Cache_8h.html" target="_top" xlink:title="Cache.h">
<polygon fill="none" stroke="#000000" points="324.5,-129 324.5,-148 380.5,-148 380.5,-129 324.5,-129"/>
<text text-anchor="middle" x="352.5" y="-136" font-family="Helvetica,sans-Serif" font-size="10.00" fill="#000000">Cache.h</text>
</a>
</g>
</g>
<!-- Node29&#45;&gt;Node30 -->
<g id="edge46" class="edge">
<title>Node29&#45;&gt;Node30</title>
<path fill="none" stroke="#191970" d="M500.1563,-190.3906C470.3618,-179.92 422.5315,-163.1111 389.4192,-151.4745"/>
<polygon fill="#191970" stroke="#191970" points="390.2466,-148.0554 379.6517,-148.0419 387.9257,-154.6595 390.2466,-148.0554"/>
</g>
<!-- Node31 -->
<g id="node32" class="node">
<title>Node31</title>
<polygon fill="none" stroke="#bfbfbf" points="313.5,-62 313.5,-81 361.5,-81 361.5,-62 313.5,-62"/>
<text text-anchor="middle" x="337.5" y="-69" font-family="Helvetica,sans-Serif" font-size="10.00" fill="#000000">mutex</text>
</g>
<!-- Node29&#45;&gt;Node31 -->
<g id="edge69" class="edge">
<title>Node29&#45;&gt;Node31</title>
<path fill="none" stroke="#191970" d="M513.2191,-190.3416C480.4724,-168.1945 399.7527,-113.6025 360.1511,-86.8193"/>
<polygon fill="#191970" stroke="#191970" points="361.9317,-83.7982 351.6874,-81.0952 358.0101,-89.5966 361.9317,-83.7982"/>
</g>
<!-- Node29&#45;&gt;Node32 -->
<g id="edge72" class="edge">
<title>Node29&#45;&gt;Node32</title>
<path fill="none" stroke="#191970" d="M475.698,-195.4259C431.413,-189.9858 366.8888,-178.3586 315.5,-154 295.4919,-144.516 296.5537,-132.3873 276.5,-123 204.9773,-89.5195 179.2633,-105.5431 102.5,-87 98.1916,-85.9593 93.7125,-84.8192 89.2483,-83.6445"/>
<polygon fill="#191970" stroke="#191970" points="90.1367,-80.2591 79.5709,-81.0429 88.3193,-87.0191 90.1367,-80.2591"/>
</g>
<!-- Node34 -->
<g id="node35" class="node">
<title>Node34</title>
<g id="a_node35"><a xlink:href="SQLite_8h.html" target="_top" xlink:title="SQLite.h">
<polygon fill="none" stroke="#000000" points="522,-129 522,-148 579,-148 579,-129 522,-129"/>
<text text-anchor="middle" x="550.5" y="-136" font-family="Helvetica,sans-Serif" font-size="10.00" fill="#000000">SQLite.h</text>
</a>
</g>
</g>
<!-- Node29&#45;&gt;Node34 -->
<g id="edge50" class="edge">
<title>Node29&#45;&gt;Node34</title>
<path fill="none" stroke="#191970" d="M531.0938,-190.3906C534.3491,-181.6862 539.2425,-168.6015 543.301,-157.7494"/>
<polygon fill="#191970" stroke="#191970" points="546.6309,-158.8373 546.8556,-148.2449 540.0744,-156.3852 546.6309,-158.8373"/>
</g>
<!-- Node29&#45;&gt;Node46 -->
<g id="edge71" class="edge">
<title>Node29&#45;&gt;Node46</title>
<path fill="none" stroke="#191970" d="M475.986,-193.8576C425.8207,-187.056 347.7999,-174.2888 282.5,-154 280.3859,-153.3431 278.2293,-152.5948 276.0771,-151.7898"/>
<polygon fill="#191970" stroke="#191970" points="277.3962,-148.5479 266.8151,-148.007 274.7494,-155.0283 277.3962,-148.5479"/>
</g>
<!-- Node30&#45;&gt;Node31 -->
<g id="edge47" class="edge">
<title>Node30&#45;&gt;Node31</title>
<path fill="none" stroke="#191970" d="M350.3509,-128.9005C348.1454,-119.0495 344.6519,-103.4451 341.8637,-90.9912"/>
<polygon fill="#191970" stroke="#191970" points="345.2454,-90.0754 339.6451,-81.0817 338.4145,-91.6048 345.2454,-90.0754"/>
</g>
<!-- Node30&#45;&gt;Node32 -->
<g id="edge48" class="edge">
<title>Node30&#45;&gt;Node32</title>
<path fill="none" stroke="#191970" d="M328.7561,-128.8826C322.8584,-126.7319 316.505,-124.6133 310.5,-123 219.894,-98.658 194.0432,-107.5384 102.5,-87 98.0614,-86.0042 93.4489,-84.8782 88.8615,-83.6989"/>
<polygon fill="#191970" stroke="#191970" points="89.4998,-80.2471 78.9364,-81.0617 87.7022,-87.0124 89.4998,-80.2471"/>
</g>
<!-- Node33 -->
<g id="node34" class="node">
<title>Node33</title>
<polygon fill="none" stroke="#bfbfbf" points="188,-62 188,-81 295,-81 295,-62 188,-62"/>
<text text-anchor="middle" x="241.5" y="-69" font-family="Helvetica,sans-Serif" font-size="10.00" fill="#000000">boost/optional.hpp</text>
</g>
<!-- Node30&#45;&gt;Node33 -->
<g id="edge49" class="edge">
<title>Node30&#45;&gt;Node33</title>
<path fill="none" stroke="#191970" d="M336.5964,-128.9005C318.133,-117.7559 287.4701,-99.2477 265.9668,-86.2682"/>
<polygon fill="#191970" stroke="#191970" points="267.7441,-83.2529 257.3741,-81.0817 264.1267,-89.2458 267.7441,-83.2529"/>
</g>
<!-- Node34&#45;&gt;Node5 -->
<g id="edge54" class="edge">
<title>Node34&#45;&gt;Node5</title>
<path fill="none" stroke="#191970" d="M530.0116,-128.9005C505.6944,-117.5072 464.9514,-98.4178 437.1831,-85.4075"/>
<polygon fill="#191970" stroke="#191970" points="438.4907,-82.1551 427.9504,-81.0817 435.5208,-88.4938 438.4907,-82.1551"/>
</g>
<!-- Node34&#45;&gt;Node6 -->
<g id="edge55" class="edge">
<title>Node34&#45;&gt;Node6</title>
<path fill="none" stroke="#191970" d="M579.1227,-133.9087C601.07,-130.5149 632.138,-125.9835 659.5,-123 869.088,-100.1469 928.9476,-141.9165 1132.5,-87 1134.4221,-86.4814 1136.3677,-85.8476 1138.3005,-85.1356"/>
<polygon fill="#191970" stroke="#191970" points="1139.8847,-88.2643 1147.6883,-81.0982 1137.1191,-81.8338 1139.8847,-88.2643"/>
</g>
<!-- Node34&#45;&gt;Node18 -->
<g id="edge51" class="edge">
<title>Node34&#45;&gt;Node18</title>
<path fill="none" stroke="#191970" d="M579.1153,-133.8388C601.0586,-130.4083 632.125,-125.8617 659.5,-123 896.9649,-98.176 962.6362,-139.7282 1195.5,-87 1198.3646,-86.3513 1201.2942,-85.5226 1204.1971,-84.5866"/>
<polygon fill="#191970" stroke="#191970" points="1205.6213,-87.7934 1213.8316,-81.0969 1203.2374,-81.2118 1205.6213,-87.7934"/>
</g>
<!-- Node34&#45;&gt;Node23 -->
<g id="edge52" class="edge">
<title>Node34&#45;&gt;Node23</title>
<path fill="none" stroke="#191970" d="M521.9939,-135.4861C446.6707,-127.3737 243.6709,-104.5065 178.5,-87 176.0314,-86.3369 173.5085,-85.5552 170.9949,-84.7013"/>
<polygon fill="#191970" stroke="#191970" points="172.0738,-81.3681 161.4813,-81.1472 169.6241,-87.9255 172.0738,-81.3681"/>
</g>
<!-- Node35 -->
<g id="node36" class="node">
<title>Node35</title>
<polygon fill="none" stroke="#bfbfbf" points="542.5,-.5 542.5,-19.5 596.5,-19.5 596.5,-.5 542.5,-.5"/>
<text text-anchor="middle" x="569.5" y="-7.5" font-family="Helvetica,sans-Serif" font-size="10.00" fill="#000000">random</text>
</g>
<!-- Node34&#45;&gt;Node35 -->
<g id="edge53" class="edge">
<title>Node34&#45;&gt;Node35</title>
<path fill="none" stroke="#191970" d="M528.9553,-128.87C512.8881,-120.3894 492.124,-106.3614 482.5,-87 476.3673,-74.6624 475.3902,-67.8016 482.5,-56 493.4113,-37.8882 514.1051,-26.5375 532.5732,-19.6438"/>
<polygon fill="#191970" stroke="#191970" points="533.9102,-22.8859 542.2452,-16.3454 531.6507,-16.2605 533.9102,-22.8859"/>
</g>
<!-- Node36 -->
<g id="node37" class="node">
<title>Node36</title>
<polygon fill="none" stroke="#bfbfbf" points="607.5,-62 607.5,-81 655.5,-81 655.5,-62 607.5,-62"/>
<text text-anchor="middle" x="631.5" y="-69" font-family="Helvetica,sans-Serif" font-size="10.00" fill="#000000">thread</text>
</g>
<!-- Node34&#45;&gt;Node36 -->
<g id="edge56" class="edge">
<title>Node34&#45;&gt;Node36</title>
<path fill="none" stroke="#191970" d="M562.1053,-128.9005C575.0975,-118.1539 596.3673,-100.5603 611.9398,-87.6794"/>
<polygon fill="#191970" stroke="#191970" points="614.4414,-90.1524 619.9162,-81.0817 609.9798,-84.7585 614.4414,-90.1524"/>
</g>
<!-- Node37 -->
<g id="node38" class="node">
<title>Node37</title>
<polygon fill="none" stroke="#bfbfbf" points="633,-.5 633,-19.5 702,-19.5 702,-.5 633,-.5"/>
<text text-anchor="middle" x="667.5" y="-7.5" font-family="Helvetica,sans-Serif" font-size="10.00" fill="#000000">type_traits</text>
</g>
<!-- Node34&#45;&gt;Node37 -->
<g id="edge57" class="edge">
<title>Node34&#45;&gt;Node37</title>
<path fill="none" stroke="#191970" d="M554.3427,-128.9325C561.2733,-112.5472 577.1542,-78.6907 598.5,-56 610.2823,-43.4754 626.0898,-32.6247 639.6019,-24.6122"/>
<polygon fill="#191970" stroke="#191970" points="641.5579,-27.526 648.512,-19.5328 638.0911,-21.4447 641.5579,-27.526"/>
</g>
<!-- Node38 -->
<g id="node39" class="node">
<title>Node38</title>
<polygon fill="none" stroke="#bfbfbf" points="673.5,-56.5 673.5,-86.5 795.5,-86.5 795.5,-56.5 673.5,-56.5"/>
<text text-anchor="start" x="681.5" y="-74.5" font-family="Helvetica,sans-Serif" font-size="10.00" fill="#000000">boost/iterator/iterator</text>
<text text-anchor="middle" x="734.5" y="-63.5" font-family="Helvetica,sans-Serif" font-size="10.00" fill="#000000">_facade.hpp</text>
</g>
<!-- Node34&#45;&gt;Node38 -->
<g id="edge58" class="edge">
<title>Node34&#45;&gt;Node38</title>
<path fill="none" stroke="#191970" d="M576.8627,-128.9005C604.6569,-118.7798 649.1285,-102.5864 683.761,-89.9756"/>
<polygon fill="#191970" stroke="#191970" points="685.0473,-93.2321 693.2462,-86.5218 682.6522,-86.6546 685.0473,-93.2321"/>
</g>
<!-- Node39 -->
<g id="node40" class="node">
<title>Node39</title>
<polygon fill="none" stroke="#bfbfbf" points="492,-62 492,-81 551,-81 551,-62 492,-62"/>
<text text-anchor="middle" x="521.5" y="-69" font-family="Helvetica,sans-Serif" font-size="10.00" fill="#000000">sqlite3.h</text>
</g>
<!-- Node34&#45;&gt;Node39 -->
<g id="edge59" class="edge">
<title>Node34&#45;&gt;Node39</title>
<path fill="none" stroke="#191970" d="M546.345,-128.9005C542.0381,-118.95 535.1903,-103.1292 529.7735,-90.6147"/>
<polygon fill="#191970" stroke="#191970" points="532.8316,-88.8686 525.6473,-81.0817 526.4075,-91.6492 532.8316,-88.8686"/>
</g>
<!-- Node34&#45;&gt;Node40 -->
<g id="edge60" class="edge">
<title>Node34&#45;&gt;Node40</title>
<path fill="none" stroke="#191970" d="M579.1329,-134C601.0856,-130.6539 632.1558,-126.1424 659.5,-123 841.2273,-102.116 893.1709,-135.6724 1069.5,-87 1071.419,-86.4703 1073.3624,-85.8281 1075.2935,-85.1101"/>
<polygon fill="#191970" stroke="#191970" points="1076.8839,-88.2358 1084.6776,-81.0588 1074.1093,-81.8091 1076.8839,-88.2358"/>
</g>
<!-- Node34&#45;&gt;Node41 -->
<g id="edge61" class="edge">
<title>Node34&#45;&gt;Node41</title>
<path fill="none" stroke="#191970" d="M574.8218,-128.8872C580.8595,-126.7365 587.3609,-124.6166 593.5,-123 685.4969,-98.7751 713.7307,-115.4816 804.5,-87 806.3571,-86.4173 808.2442,-85.7509 810.1273,-85.0294"/>
<polygon fill="#191970" stroke="#191970" points="811.5272,-88.2374 819.3518,-81.0943 808.7804,-81.7988 811.5272,-88.2374"/>
</g>
<!-- Node41&#45;&gt;Node35 -->
<g id="edge65" class="edge">
<title>Node41&#45;&gt;Node35</title>
<path fill="none" stroke="#191970" d="M819.3251,-61.989C814.5916,-59.7843 809.433,-57.614 804.5,-56 795.143,-52.9385 670.9315,-29.2153 606.9865,-17.0885"/>
<polygon fill="#191970" stroke="#191970" points="607.3744,-13.5998 596.8976,-15.1765 606.071,-20.4773 607.3744,-13.5998"/>
</g>
<!-- Node41&#45;&gt;Node37 -->
<g id="edge66" class="edge">
<title>Node41&#45;&gt;Node37</title>
<path fill="none" stroke="#191970" d="M818.1202,-61.9437C813.6869,-59.8849 808.9647,-57.7911 804.5,-56 772.977,-43.3535 736.4828,-31.2188 709.0901,-22.591"/>
<polygon fill="#191970" stroke="#191970" points="710.0246,-19.2162 699.4359,-19.5766 707.9382,-25.8981 710.0246,-19.2162"/>
</g>
<!-- Node41&#45;&gt;Node42 -->
<g id="edge62" class="edge">
<title>Node41&#45;&gt;Node42</title>
<path fill="none" stroke="#191970" d="M854.7049,-61.9487C859.3867,-59.6904 864.5378,-57.5045 869.5,-56 970.516,-25.3738 1095.0737,-15.0538 1159.0884,-11.6399"/>
<polygon fill="#191970" stroke="#191970" points="1159.3905,-15.1292 1169.2022,-11.1316 1159.0391,-8.1381 1159.3905,-15.1292"/>
</g>
<!-- Node41&#45;&gt;Node43 -->
<g id="edge63" class="edge">
<title>Node41&#45;&gt;Node43</title>
<path fill="none" stroke="#191970" d="M853.9429,-61.921C858.7976,-59.5438 864.2268,-57.3046 869.5,-56 885.8623,-51.952 1960.1935,-18.1949 2182.5089,-11.2473"/>
<polygon fill="#191970" stroke="#191970" points="2182.8519,-14.7384 2192.7377,-10.9278 2182.6332,-7.7418 2182.8519,-14.7384"/>
</g>
<!-- Node41&#45;&gt;Node44 -->
<g id="edge64" class="edge">
<title>Node41&#45;&gt;Node44</title>
<path fill="none" stroke="#191970" d="M853.9536,-61.9638C858.8085,-59.5873 864.2351,-57.3377 869.5,-56 961.7585,-32.5584 1636.0388,-15.1851 1813.6952,-10.98"/>
<polygon fill="#191970" stroke="#191970" points="1814.037,-14.473 1823.952,-10.7388 1813.8724,-7.4749 1814.037,-14.473"/>
</g>
<!-- Node45 -->
<g id="node46" class="node">
<title>Node45</title>
<polygon fill="none" stroke="#bfbfbf" points="809.5,-.5 809.5,-19.5 865.5,-19.5 865.5,-.5 809.5,-.5"/>
<text text-anchor="middle" x="837.5" y="-7.5" font-family="Helvetica,sans-Serif" font-size="10.00" fill="#000000">unistd.h</text>
</g>
<!-- Node41&#45;&gt;Node45 -->
<g id="edge67" class="edge">
<title>Node41&#45;&gt;Node45</title>
<path fill="none" stroke="#191970" d="M837.5,-61.8906C837.5,-53.3657 837.5,-40.6392 837.5,-29.9235"/>
<polygon fill="#191970" stroke="#191970" points="841.0001,-29.7448 837.5,-19.7449 834.0001,-29.7449 841.0001,-29.7448"/>
</g>
<!-- Node53&#45;&gt;Node14 -->
<g id="edge95" class="edge">
<title>Node53&#45;&gt;Node14</title>
<path fill="none" stroke="#191970" d="M2285.4964,-137.28C2173.509,-133.0066 1817.0982,-117.3047 1706.5,-87 1704.58,-86.4739 1702.6359,-85.8344 1700.7042,-85.1183"/>
<polygon fill="#191970" stroke="#191970" points="1701.8875,-81.8171 1691.3189,-81.0716 1699.1159,-88.245 1701.8875,-81.8171"/>
</g>
<!-- Node53&#45;&gt;Node16 -->
<g id="edge98" class="edge">
<title>Node53&#45;&gt;Node16</title>
<path fill="none" stroke="#191970" d="M2287.263,-128.9005C2244.8527,-116.2717 2170.6885,-94.1873 2127.7699,-81.407"/>
<polygon fill="#191970" stroke="#191970" points="2128.6656,-78.0219 2118.0826,-78.5224 2126.6678,-84.7308 2128.6656,-78.0219"/>
</g>
<!-- Node53&#45;&gt;Node43 -->
<g id="edge96" class="edge">
<title>Node53&#45;&gt;Node43</title>
<path fill="none" stroke="#191970" d="M2296.2391,-128.8672C2278.6099,-120.385 2255.1609,-106.3563 2241.5,-87 2229.6305,-70.182 2225.1445,-46.747 2223.4662,-30.159"/>
<polygon fill="#191970" stroke="#191970" points="2226.9374,-29.6435 2222.6967,-19.9344 2219.9572,-30.1689 2226.9374,-29.6435"/>
</g>
<!-- Node54 -->
<g id="node55" class="node">
<title>Node54</title>
<polygon fill="none" stroke="#bfbfbf" points="2406.5,-56.5 2406.5,-86.5 2540.5,-86.5 2540.5,-56.5 2406.5,-56.5"/>
<text text-anchor="start" x="2414.5" y="-74.5" font-family="Helvetica,sans-Serif" font-size="10.00" fill="#000000">boost/math/special</text>
<text text-anchor="middle" x="2473.5" y="-63.5" font-family="Helvetica,sans-Serif" font-size="10.00" fill="#000000">_functions/binomial.hpp</text>
</g>
<!-- Node53&#45;&gt;Node54 -->
<g id="edge93" class="edge">
<title>Node53&#45;&gt;Node54</title>
<path fill="none" stroke="#191970" d="M2341.5644,-128.9005C2364.4293,-118.9528 2400.7793,-103.1382 2429.5401,-90.6254"/>
<polygon fill="#191970" stroke="#191970" points="2431.1989,-93.7207 2438.9724,-86.5218 2428.4063,-87.3018 2431.1989,-93.7207"/>
</g>
<!-- Node55 -->
<g id="node56" class="node">
<title>Node55</title>
<polygon fill="none" stroke="#bfbfbf" points="2251,-56.5 2251,-86.5 2388,-86.5 2388,-56.5 2251,-56.5"/>
<text text-anchor="start" x="2259" y="-74.5" font-family="Helvetica,sans-Serif" font-size="10.00" fill="#000000">boost/math/special</text>
<text text-anchor="middle" x="2319.5" y="-63.5" font-family="Helvetica,sans-Serif" font-size="10.00" fill="#000000">_functions/factorials.hpp</text>
</g>
<!-- Node53&#45;&gt;Node55 -->
<g id="edge94" class="edge">
<title>Node53&#45;&gt;Node55</title>
<path fill="none" stroke="#191970" d="M2319.5,-128.9005C2319.5,-120.5099 2319.5,-107.9451 2319.5,-96.7085"/>
<polygon fill="#191970" stroke="#191970" points="2323.0001,-96.5217 2319.5,-86.5218 2316.0001,-96.5218 2323.0001,-96.5217"/>
</g>
<!-- Node53&#45;&gt;Node56 -->
<g id="edge97" class="edge">
<title>Node53&#45;&gt;Node56</title>
<path fill="none" stroke="#191970" d="M2353.543,-130.2515C2363.5108,-127.8717 2374.434,-125.2981 2384.5,-123 2457.6757,-106.294 2477.9229,-109.5941 2549.5,-87 2551.6585,-86.3187 2553.8652,-85.5605 2556.0732,-84.756"/>
<polygon fill="#191970" stroke="#191970" points="2557.5754,-87.9268 2565.6155,-81.0269 2555.0274,-81.407 2557.5754,-87.9268"/>
</g>
<!-- Node57&#45;&gt;Node12 -->
<g id="edge101" class="edge">
<title>Node57&#45;&gt;Node12</title>
<path fill="none" stroke="#191970" d="M2021.0413,-251.8167C2019.6364,-222.1573 2015.3718,-132.1278 2013.4532,-91.6229"/>
<polygon fill="#191970" stroke="#191970" points="2016.9379,-91.2148 2012.9686,-81.3917 2009.9457,-91.5461 2016.9379,-91.2148"/>
</g>
<!-- Node58&#45;&gt;Node50 -->
<g id="edge103" class="edge">
<title>Node58&#45;&gt;Node50</title>
<path fill="none" stroke="#191970" d="M2204.5146,-318.9005C2209.7647,-308.8505 2218.1429,-292.8122 2224.7103,-280.2403"/>
<polygon fill="#191970" stroke="#191970" points="2227.9666,-281.5657 2229.4947,-271.0817 2221.7622,-278.3246 2227.9666,-281.5657"/>
</g>
</g>
</svg>
